<?xml version="1.0" encoding="iso-8859-1"?>
<!-- Generator: Adobe Illustrator 19.0.0, SVG Export Plug-In . SVG Version: 6.00 Build 0)  -->
<svg xmlns="http://www.w3.org/2000/svg" xmlns:xlink="http://www.w3.org/1999/xlink" version="1.1" id="Capa_1" x="0px" y="0px" viewBox="0 0 409.6 409.6" style="enable-background:new 0 0 409.6 409.6;" xml:space="preserve">
<path style="fill:#27A2DB;" d="M392.216,36.474H17.384C7.783,36.474,0,44.257,0,53.857v237.195c0,9.6,7.783,17.384,17.384,17.384  h15.521v64.691l64.691-64.691h294.621c9.601,0,17.384-7.783,17.384-17.384V53.857C409.6,44.257,401.817,36.474,392.216,36.474z"/>
<g>
	<rect x="30.874" y="71.153" style="fill:#2D93BA;" width="347.802" height="22.779"/>
	<rect x="30.874" y="128.41" style="fill:#2D93BA;" width="347.802" height="22.779"/>
	<rect x="30.874" y="185.651" style="fill:#2D93BA;" width="347.802" height="22.779"/>
	<rect x="30.874" y="242.893" style="fill:#2D93BA;" width="347.802" height="22.779"/>
</g>
<path style="fill:#FCD462;" d="M307.721,338.955c0,7.726,1.986,15.323,5.767,22.06l26.127,46.559c1.516,2.7,5.403,2.7,6.918,0  l26.126-46.559c3.781-6.738,5.767-14.334,5.767-22.06H307.721z"/>
<rect x="307.712" y="52.69" style="fill:#FFFFFF;" width="70.702" height="18.755"/>
<path style="fill:#EAC25C;" d="M307.721,64.91v274.046c0,6.508,5.277,11.784,11.784,11.784c6.509,0,11.784-5.276,11.784-11.784  V64.91H307.721z"/>
<path style="fill:#EAB454;" d="M331.289,64.91v274.046c0,6.508,5.277,11.784,11.784,11.784c6.508,0,11.784-5.276,11.784-11.784  V64.91H331.289z"/>
<path style="fill:#DC8744;" d="M354.857,64.91v274.046c0,6.508,5.277,11.784,11.784,11.784c6.508,0,11.784-5.276,11.784-11.784  V64.91H354.857z"/>
<path style="fill:#E56353;" d="M372.351,0h-58.553c-3.355,0-6.076,2.721-6.076,6.076v51.015h70.704V6.076  C378.425,2.721,375.706,0,372.351,0z"/>
<path style="fill:#64798A;" d="M346.533,407.575l12.611-22.474c-4.584-3.111-10.113-4.932-16.07-4.932s-11.486,1.822-16.069,4.932  l12.611,22.474C341.131,410.274,345.017,410.274,346.533,407.575z"/>
<g>
</g>
<g>
</g>
<g>
</g>
<g>
</g>
<g>
</g>
<g>
</g>
<g>
</g>
<g>
</g>
<g>
</g>
<g>
</g>
<g>
</g>
<g>
</g>
<g>
</g>
<g>
</g>
<g>
</g>
</svg>
