<?xml version="1.0" encoding="iso-8859-1"?>
<!-- Generator: Adobe Illustrator 19.0.0, SVG Export Plug-In . SVG Version: 6.00 Build 0)  -->
<svg xmlns="http://www.w3.org/2000/svg" xmlns:xlink="http://www.w3.org/1999/xlink" version="1.1" id="Capa_1" x="0px" y="0px" viewBox="0 0 409.606 409.606" style="enable-background:new 0 0 409.606 409.606;" xml:space="preserve">
<path style="fill:#DC8744;" d="M341.362,212.861c1.305-22.547,9.899-44.051,25.869-60.02l4.615-4.615  c2.375-2.375,2.375-6.226-0.001-8.601l-8.15-8.15c-2.376-2.376-6.226-2.376-8.601-0.001l-23.028,23.028  c-6.678-16.923-16.804-32.8-30.488-46.485c-13.684-13.684-29.561-23.81-46.484-30.487l23.028-23.028  c2.375-2.375,2.375-6.226-0.001-8.601l-8.151-8.151c-2.376-2.376-6.226-2.376-8.601-0.001l-4.615,4.615  c-15.97,15.97-37.471,24.564-60.018,25.869c-32.293,1.869-64.044,15.108-88.719,39.784s-37.915,56.426-39.784,88.719  c-1.306,22.546-9.899,44.048-25.869,60.018l-4.615,4.615c-2.376,2.376-2.376,6.227-0.001,8.603l8.151,8.151  c2.376,2.376,6.226,2.376,8.603-0.001l23.028-23.028c6.676,16.924,16.803,32.8,30.487,46.484  c13.685,13.685,29.561,23.812,46.485,30.488l-23.028,23.028c-2.376,2.376-2.376,6.227-0.001,8.603l8.15,8.15  c2.376,2.376,6.226,2.376,8.603-0.001l4.615-4.615c15.97-15.97,37.473-24.564,60.022-25.871  c32.292-1.867,64.04-15.107,88.715-39.783C326.254,276.902,339.494,245.155,341.362,212.861z"/>
<ellipse style="fill:#EBF0F3;" cx="204.798" cy="204.799" rx="123.085" ry="123.085"/>
<g>
	<ellipse style="fill:#E56353;" cx="281.52" cy="128.065" rx="7.829" ry="7.829"/>
	<ellipse style="fill:#E56353;" cx="128.053" cy="281.543" rx="7.829" ry="7.829"/>
	<ellipse style="fill:#E56353;" cx="281.536" cy="281.532" rx="7.829" ry="7.829"/>
	<ellipse style="fill:#E56353;" cx="128.043" cy="128.05" rx="7.829" ry="7.829"/>
</g>
<polygon style="fill:#2F4859;" points="187.004,217.396 252.949,167.866 200.552,217.943 "/>
<polygon style="fill:#3A556A;" points="187.004,217.396 252.949,167.866 190.279,204.214 "/>
<polygon style="fill:#64798A;" points="190.868,191.085 281.511,281.728 192.252,204.578 "/>
<polygon style="fill:#3A556A;" points="190.868,191.085 281.511,281.728 204.361,192.469 "/>
<ellipse style="fill:#FCD462;" cx="204.687" cy="204.901" rx="6.743" ry="6.743"/>
<rect x="250.717" y="85.971" transform="matrix(0.7071 0.7071 -0.7071 0.7071 163.2264 -185.1801)" style="fill:#CE773C;" width="108.857" height="36.941"/>
<rect x="282.583" y="24.365" transform="matrix(0.7071 0.7071 -0.7071 0.7071 150.0449 -217.0391)" style="fill:#2F4859;" width="108.857" height="96.471"/>
<g>
	
		<rect x="289.348" y="45.713" transform="matrix(0.7071 0.7071 -0.7071 0.7071 123.2441 -190.4548)" style="fill:#64798A;" width="4.347" height="15.657"/>
	
		<rect x="309.295" y="25.738" transform="matrix(0.7071 0.7071 -0.7071 0.7071 114.9619 -210.4103)" style="fill:#64798A;" width="4.347" height="15.657"/>
	
		<rect x="329.282" y="5.795" transform="matrix(0.7071 0.7071 -0.7071 0.7071 106.7144 -230.3844)" style="fill:#64798A;" width="4.347" height="15.657"/>
	
		<rect x="353.86" y="110.229" transform="matrix(0.7071 0.7071 -0.7071 0.7071 187.7591 -217.1754)" style="fill:#64798A;" width="4.347" height="15.657"/>
	
		<rect x="373.807" y="90.254" transform="matrix(0.7071 0.7071 -0.7071 0.7071 179.4769 -237.1308)" style="fill:#64798A;" width="4.347" height="15.657"/>
	
		<rect x="393.794" y="70.311" transform="matrix(0.7071 0.7071 -0.7071 0.7071 171.2293 -257.1049)" style="fill:#64798A;" width="4.347" height="15.657"/>
</g>
<rect x="50.013" y="286.691" transform="matrix(-0.7071 -0.7071 0.7071 -0.7071 -37.4888 594.7936)" style="fill:#CE773C;" width="108.857" height="36.941"/>
<rect x="18.166" y="288.77" transform="matrix(-0.7071 -0.7071 0.7071 -0.7071 -114.3724 626.6366)" style="fill:#2F4859;" width="108.857" height="96.471"/>
<g>
	
		<rect x="115.89" y="348.217" transform="matrix(-0.7071 -0.7071 0.7071 -0.7071 -50.215 691.2915)" style="fill:#64798A;" width="4.347" height="15.657"/>
	
		<rect x="95.908" y="368.188" transform="matrix(-0.7071 -0.7071 0.7071 -0.7071 -98.448 711.2543)" style="fill:#64798A;" width="4.347" height="15.657"/>
	
		<rect x="75.978" y="388.146" transform="matrix(-0.7071 -0.7071 0.7071 -0.7071 -146.5833 731.2314)" style="fill:#64798A;" width="4.347" height="15.657"/>
	
		<rect x="51.381" y="283.697" transform="matrix(-0.7071 -0.7071 0.7071 -0.7071 -114.7162 535.5341)" style="fill:#64798A;" width="4.347" height="15.657"/>
	
		<rect x="31.396" y="303.655" transform="matrix(-0.7071 -0.7071 0.7071 -0.7071 -162.9461 555.472)" style="fill:#64798A;" width="4.347" height="15.657"/>
	
		<rect x="11.466" y="323.633" transform="matrix(-0.7071 -0.7071 0.7071 -0.7071 -211.0947 575.4842)" style="fill:#64798A;" width="4.347" height="15.657"/>
</g>
<g>
</g>
<g>
</g>
<g>
</g>
<g>
</g>
<g>
</g>
<g>
</g>
<g>
</g>
<g>
</g>
<g>
</g>
<g>
</g>
<g>
</g>
<g>
</g>
<g>
</g>
<g>
</g>
<g>
</g>
</svg>
