<?xml version="1.0" encoding="iso-8859-1"?>
<!-- Generator: Adobe Illustrator 19.0.0, SVG Export Plug-In . SVG Version: 6.00 Build 0)  -->
<svg xmlns="http://www.w3.org/2000/svg" xmlns:xlink="http://www.w3.org/1999/xlink" version="1.1" id="Capa_1" x="0px" y="0px" viewBox="0 0 409.6 409.6" style="enable-background:new 0 0 409.6 409.6;" xml:space="preserve">
<ellipse style="fill:#27A2DB;" cx="252.211" cy="252.416" rx="153.754" ry="153.564"/>
<path style="fill:#FFFFFF;" d="M252.211,95.248c-86.789,0-157.402,70.508-157.402,157.176S165.422,409.6,252.211,409.6  S409.6,339.092,409.6,252.424S339,95.248,252.211,95.248z M258.874,194.011c22.533-0.574,45.19-3.99,69.058-10.372  c6.097,18.603,9.702,39.727,10.32,62.131h-79.378V194.011z M258.874,180.578v-71.46c26.698,3.43,50.028,27.127,64.404,61.972  C301.045,176.918,279.907,180.018,258.874,180.578z M245.548,109.118v71.462c-21.043-0.552-42.188-3.65-64.422-9.477  C195.501,136.251,218.838,112.548,245.548,109.118z M245.548,194.013v51.758h-79.391c0.618-22.4,4.22-43.522,10.317-62.122  C200.347,190.029,223.006,193.442,245.548,194.013z M152.842,245.77h-44.369c1.298-28.137,10.624-54.176,25.888-75.85  c10.104,3.817,19.95,7.226,29.545,10.139C157.36,199.878,153.473,222.156,152.842,245.77z M152.842,259.078  c0.631,23.619,4.517,45.901,11.067,65.722c-9.591,2.914-19.436,6.325-29.537,10.142c-15.27-21.678-24.601-47.721-25.899-75.865  H152.842z M166.157,259.078h79.391v51.762c-22.54,0.573-45.2,3.987-69.071,10.371C170.38,302.607,166.775,281.483,166.157,259.078z   M245.548,324.259v71.47c-26.708-3.429-50.041-27.13-64.418-61.98C203.36,327.918,224.504,324.816,245.548,324.259z M258.874,395.73  v-71.471c21.038,0.556,42.181,3.654,64.412,9.481C308.912,368.595,285.577,392.299,258.874,395.73z M258.874,310.839v-51.762h79.378  c-0.618,22.401-4.22,43.522-10.317,62.123C304.063,314.823,281.406,311.411,258.874,310.839z M351.566,259.078h44.369  c-1.298,28.136-10.624,54.172-25.884,75.847c-10.105-3.815-19.95-7.223-29.545-10.136  C347.052,304.97,350.937,282.692,351.566,259.078z M351.566,245.77c-0.63-23.618-4.516-45.899-11.063-65.721  c9.591-2.914,19.436-6.324,29.537-10.141c15.267,21.677,24.598,47.719,25.896,75.861H351.566z M361.449,158.889  c-8.719,3.212-17.253,6.111-25.58,8.613c-8.181-20.01-19.158-36.834-32.053-49.241C326.276,126.908,346.027,140.952,361.449,158.889  z M200.604,118.259c-12.903,12.411-23.884,29.24-32.066,49.258c-8.329-2.502-16.866-5.402-25.588-8.616  C158.378,140.958,178.136,126.908,200.604,118.259z M142.963,345.959c8.718-3.215,17.251-6.117,25.579-8.62  c8.182,20.013,19.163,36.84,32.063,49.249C178.141,377.943,158.388,363.897,142.963,345.959z M303.815,386.587  c12.9-12.412,23.879-29.243,32.061-49.261c8.329,2.502,16.864,5.404,25.585,8.617C346.037,363.887,326.282,377.938,303.815,386.587z  "/>
<g>
	
		<rect x="205.57" y="111.343" transform="matrix(-0.7071 -0.7071 0.7071 -0.7071 275.2824 380.2374)" style="fill:#2F4859;" width="21.642" height="43.525"/>
	
		<rect x="217.764" y="160.342" transform="matrix(-0.7071 -0.7071 0.7071 -0.7071 261.4524 472.5065)" style="fill:#2F4859;" width="21.642" height="43.525"/>
</g>
<polygon style="fill:#3A556A;" points="144.975,126.366 213.849,232.793 231.061,215.581 209.737,61.604 "/>
<g>
	
		<rect x="110.411" y="16.214" transform="matrix(0.7071 0.7071 -0.7071 0.7071 62.3619 -74.6008)" style="fill:#2F4859;" width="21.642" height="43.525"/>
	
		<rect x="61.433" y="4.006" transform="matrix(0.7071 0.7071 -0.7071 0.7071 39.3838 -43.544)" style="fill:#2F4859;" width="21.642" height="43.525"/>
</g>
<g>
	<polygon style="fill:#3A556A;" points="127.999,109.39 21.571,40.516 38.783,23.304 192.761,44.628  "/>
	<polygon style="fill:#3A556A;" points="50.618,210.709 78.869,254.364 85.93,247.304 77.183,184.145  "/>
	<polygon style="fill:#3A556A;" points="43.655,203.746 0,175.495 7.06,168.435 70.22,177.182  "/>
</g>
<path style="fill:#64798A;" d="M245.825,8.541C230.109-7.175,202.933-5.48,146.799,50.653S26.832,196.102,42.548,211.818  c15.716,15.716,105.03-48.119,161.163-104.253S261.541,24.257,245.825,8.541z"/>
<path style="fill:#EBF0F3;" d="M224.825,59.721c-7.488-15.917-14.255-22.689-30.182-30.182c2.016-4.285,3.026-6.428,5.042-10.714  c18.925,8.906,26.958,16.946,35.854,35.854C231.248,56.69,229.111,57.706,224.825,59.721z"/>
<rect x="45.501" y="169.986" transform="matrix(-0.7071 -0.7071 0.7071 -0.7071 -60.0493 384.5817)" style="fill:#3A556A;" width="8.248" height="69.484"/>
<g>
</g>
<g>
</g>
<g>
</g>
<g>
</g>
<g>
</g>
<g>
</g>
<g>
</g>
<g>
</g>
<g>
</g>
<g>
</g>
<g>
</g>
<g>
</g>
<g>
</g>
<g>
</g>
<g>
</g>
</svg>
