<?xml version="1.0" encoding="iso-8859-1"?>
<!-- Generator: Adobe Illustrator 19.0.0, SVG Export Plug-In . SVG Version: 6.00 Build 0)  -->
<svg xmlns="http://www.w3.org/2000/svg" xmlns:xlink="http://www.w3.org/1999/xlink" version="1.1" id="Capa_1" x="0px" y="0px" viewBox="0 0 409.6 409.6" style="enable-background:new 0 0 409.6 409.6;" xml:space="preserve">
<path style="fill:#27A2DB;" d="M310.48,98.574c9.469,71.849-50.204,132.461-121.212,123.417c-48.205-6.14-86.744-45.2-93.093-93.377  C86.706,56.765,146.378-3.847,217.386,5.197C265.591,11.337,304.13,50.397,310.48,98.574z"/>
<path style="fill:#FFFFFF;" d="M203.327,0C141.349,0,90.927,50.959,90.927,113.594s50.423,113.594,112.401,113.594  s112.401-50.959,112.401-113.594S265.305,0,203.327,0z M266.028,109.294c-0.312-15.868-2.336-30.807-5.765-44.248  c10.543-1.64,21.066-3.818,31.569-6.365c9.05,14.842,14.537,32.118,15.278,50.613H266.028z M307.11,117.894  c-0.762,19.004-6.547,36.71-16.045,51.821c-10.365-2.498-20.756-4.533-31.164-6.143c3.652-13.806,5.804-29.248,6.127-45.678H307.11z   M286.779,51.136c-9.613,2.242-19.245,4.094-28.89,5.564c-5.854-18.659-14.556-33.823-25.096-43.773  C254.64,19.47,273.51,33.075,286.779,51.136z M249.297,57.941c-13.89,1.783-27.801,2.714-41.715,2.879V8.954  C225.158,11.608,240.405,30.528,249.297,57.941z M199.072,8.954v51.867c-13.915-0.164-27.827-1.093-41.717-2.874  C166.248,30.531,181.494,11.609,199.072,8.954z M199.072,69.427v39.867h-49.939c0.323-15.421,2.375-29.986,5.786-43.008  C169.62,68.226,184.344,69.258,199.072,69.427z M199.072,117.894v41.352c-14.599,0.168-29.196,1.205-43.766,3.113  c-3.644-13.387-5.837-28.467-6.172-44.465H199.072z M199.072,167.846v50.388c-17.266-2.608-32.28-20.911-41.236-47.542  C171.565,168.95,185.317,168.008,199.072,167.846z M207.582,218.234v-50.388c13.754,0.164,27.505,1.109,41.233,2.854  C239.859,197.327,224.846,215.627,207.582,218.234z M207.582,159.247v-41.353h49.939c-0.336,16.001-2.529,31.084-6.175,44.473  C236.777,160.457,222.181,159.417,207.582,159.247z M207.582,109.294V69.426c14.725-0.172,29.45-1.205,44.15-3.148  c3.412,13.024,5.465,27.592,5.788,43.016H207.582z M173.861,12.927c-10.542,9.951-19.246,25.118-25.099,43.78  c-9.646-1.469-19.28-3.32-28.894-5.56C133.138,33.081,152.009,19.472,173.861,12.927z M140.626,117.894  c0.323,16.426,2.473,31.865,6.124,45.668c-10.409,1.608-20.802,3.642-31.169,6.14c-9.492-15.108-15.274-32.81-16.037-51.808H140.626  z M99.544,109.294c0.742-18.49,6.225-35.762,15.27-50.601c10.506,2.546,21.031,4.722,31.575,6.361  c-3.428,13.439-5.452,28.375-5.763,44.24H99.544z M120.859,177.347c9.429-2.183,18.877-4.045,28.34-5.476  c5.846,18.034,14.385,32.69,24.669,42.392C152.547,207.879,134.073,194.762,120.859,177.347z M232.785,214.263  c10.283-9.7,18.821-24.353,24.667-42.383c9.461,1.432,18.907,3.296,28.334,5.479C272.574,194.767,254.102,207.881,232.785,214.263z"/>
<rect x="264.243" y="129.761" style="fill:#D15241;" width="92.314" height="279.839"/>
<g>
	<rect x="310.425" y="129.741" style="fill:#E56353;" width="46.131" height="279.839"/>
	<rect x="53.007" y="129.741" style="fill:#E56353;" width="211.251" height="279.839"/>
</g>
<g>
	<polygon style="fill:#CE412D;" points="310.436,366.673 356.593,409.587 264.28,409.587  "/>
	<path style="fill:#CE412D;" d="M158.642,300.783c-36.353,0-65.929-29.893-65.929-66.635v-65.299h14.349v65.299   c0,28.746,23.139,52.133,51.58,52.133c28.445,0,51.585-23.388,51.585-52.133v-65.299h14.349v65.299   C224.575,270.89,195,300.783,158.642,300.783z"/>
</g>
<g>
	<path style="fill:#D15241;" d="M110.023,172.334c2.821,8.826-5.108,16.855-13.838,14.032c-3.131-1.012-5.7-3.616-6.702-6.75   c-2.821-8.826,5.108-16.855,13.838-14.032C106.451,166.596,109.021,169.199,110.023,172.334z"/>
	<path style="fill:#D15241;" d="M227.807,172.334c2.821,8.826-5.108,16.855-13.839,14.032c-3.131-1.012-5.7-3.616-6.702-6.75   c-2.821-8.826,5.108-16.855,13.838-14.032C224.235,166.596,226.805,169.199,227.807,172.334z"/>
</g>
<path style="fill:#FFFFFF;" d="M217.401,168.849c-3.962,0-7.174,3.246-7.174,7.251v48.381c0,30.402-25.882,54.81-56.551,51.897  c-26.728-2.539-46.614-26.287-46.614-53.418V176.1c0-4.004-3.212-7.251-7.174-7.251c-3.962,0-7.174,3.246-7.174,7.251v46.454  c0,35.838,27.197,66.717,62.615,68.479c37.857,1.883,69.247-28.7,69.247-66.552V176.1  C224.575,172.095,221.363,168.849,217.401,168.849z"/>
<g>
</g>
<g>
</g>
<g>
</g>
<g>
</g>
<g>
</g>
<g>
</g>
<g>
</g>
<g>
</g>
<g>
</g>
<g>
</g>
<g>
</g>
<g>
</g>
<g>
</g>
<g>
</g>
<g>
</g>
</svg>
