<?xml version="1.0" encoding="iso-8859-1"?>
<!-- Generator: Adobe Illustrator 19.0.0, SVG Export Plug-In . SVG Version: 6.00 Build 0)  -->
<svg xmlns="http://www.w3.org/2000/svg" xmlns:xlink="http://www.w3.org/1999/xlink" version="1.1" id="Capa_1" x="0px" y="0px" viewBox="0 0 409.6 409.6" style="enable-background:new 0 0 409.6 409.6;" xml:space="preserve">
<circle style="fill:#FFFFFF;" cx="161.367" cy="161.362" r="153.907"/>
<path style="fill:#E56353;" d="M161.367,0C72.385,0,0,72.385,0,161.36c0,88.982,72.385,161.367,161.367,161.367  s161.367-72.385,161.367-161.367C322.735,72.385,250.349,0,161.367,0z M168.815,107.809c19.747-0.62,39.656-3.707,60.575-9.26  c4.316,17.021,6.945,35.735,7.485,55.364h-68.06V107.809z M168.815,92.714V15.65c23.482,4.676,44.131,31.211,56.413,68.522  C205.771,89.265,187.216,92.109,168.815,92.714z M153.92,15.65v77.064c-18.4-0.605-36.955-3.45-56.413-8.542  C109.789,46.861,130.438,20.327,153.92,15.65z M153.92,107.809v46.104H85.86c0.54-19.63,3.169-38.342,7.485-55.364  C114.265,104.102,134.175,107.189,153.92,107.809z M70.967,153.913H15.273c1.378-27.202,10.049-52.501,24.331-73.826  C53.204,85.682,66.2,90.43,78.745,94.34C74.185,112.547,71.491,132.625,70.967,153.913z M70.967,168.807  c0.524,21.29,3.218,41.371,7.778,59.58c-12.544,3.91-25.54,8.657-39.14,14.253c-14.284-21.327-22.956-46.63-24.333-73.833H70.967z   M85.86,168.807h68.06v46.114c-19.747,0.62-39.655,3.705-60.573,9.257C89.029,207.155,86.4,188.44,85.86,168.807z M153.92,230.015  v77.062c-23.482-4.676-44.131-31.21-56.413-68.521C116.965,233.463,135.518,230.62,153.92,230.015z M168.815,307.077v-77.062  c18.4,0.605,36.955,3.448,56.413,8.541C212.945,275.867,192.296,302.401,168.815,307.077z M168.815,214.921v-46.114h68.06  c-0.54,19.633-3.169,38.348-7.487,55.372C208.469,218.626,188.56,215.541,168.815,214.921z M251.767,168.807h55.695  c-1.376,27.204-10.049,52.506-24.335,73.834c-13.598-5.596-26.595-10.343-39.138-14.253  C248.549,210.18,251.244,190.098,251.767,168.807z M251.767,153.913c-0.524-21.288-3.218-41.367-7.778-59.574  c12.545-3.91,25.542-8.658,39.142-14.255c14.282,21.326,22.953,46.626,24.331,73.829H251.767z M273.902,67.754  c-11.765,4.744-23.076,8.825-34.016,12.224c-7.636-23.698-18.547-43.362-31.729-57.285  C234.051,31.456,256.755,47.177,273.902,67.754z M114.578,22.693C101.396,36.616,90.484,56.28,82.849,79.978  C71.909,76.58,60.596,72.5,48.831,67.756C65.978,47.178,88.684,31.456,114.578,22.693z M48.833,254.97  c11.767-4.743,23.078-8.824,34.016-12.221c7.636,23.698,18.547,43.361,31.729,57.284C88.684,291.269,65.98,275.547,48.833,254.97z   M208.156,300.033c13.182-13.923,24.093-33.585,31.729-57.283c10.938,3.397,22.249,7.479,34.015,12.222  C256.753,275.548,234.051,291.27,208.156,300.033z"/>
<g transform="matrix(0.70711 -0.70711 0.70711 0.70711 -20.264 48.922)">
	
		<ellipse transform="matrix(-0.7071 -0.7071 0.7071 -0.7071 -101.434 481.1081)" style="fill:#64798A;" cx="48.923" cy="261.562" rx="103.593" ry="103.593"/>
	
		<ellipse transform="matrix(-0.7071 -0.7071 0.7071 -0.7071 -101.434 481.1081)" style="fill:#2D93BA;" cx="48.923" cy="261.562" rx="82.33" ry="82.33"/>
</g>
<ellipse style="fill:#27A2DB;" cx="201.824" cy="201.83" rx="78.715" ry="78.715"/>
<rect x="263.476" y="255.805" transform="matrix(-0.7071 0.7071 -0.7071 -0.7071 674.0259 279.1965)" style="fill:#64798A;" width="31.427" height="46.777"/>
<path style="fill:#3A556A;" d="M270.3,310.628l98.44,98.44c5.601,5.601,45.929-34.727,40.328-40.328l-98.44-98.44  C303.724,263.396,263.396,303.724,270.3,310.628z"/>
<rect x="280.035" y="301.26" transform="matrix(-0.7071 0.7071 -0.7071 -0.7071 744.8986 308.5298)" style="fill:#FCD462;" width="57.032" height="14.556"/>
<g>
</g>
<g>
</g>
<g>
</g>
<g>
</g>
<g>
</g>
<g>
</g>
<g>
</g>
<g>
</g>
<g>
</g>
<g>
</g>
<g>
</g>
<g>
</g>
<g>
</g>
<g>
</g>
<g>
</g>
</svg>
