<?xml version="1.0" encoding="iso-8859-1"?>
<!-- Generator: Adobe Illustrator 19.0.0, SVG Export Plug-In . SVG Version: 6.00 Build 0)  -->
<svg xmlns="http://www.w3.org/2000/svg" xmlns:xlink="http://www.w3.org/1999/xlink" version="1.1" id="Capa_1" x="0px" y="0px" viewBox="0 0 409.574 409.574" style="enable-background:new 0 0 409.574 409.574;" xml:space="preserve">
<circle style="fill:#EBF0F3;" cx="204.787" cy="212.07" r="197.504"/>
<g>
	<path style="fill:#27A2DB;" d="M346.558,103.233c-6.023,4.447-11.003,8.322-18.945,7.566   c-12.907-1.228-18.324-12.632-28.677-18.223c-6.591-3.56-14.52-3.2-21.999-2.747c-6.181,10.351-8.18,23.122-5.455,34.866   c-5.285-1.451-9.62,4.616-10.583,10.011c-0.963,5.396-0.644,11.528-4.334,15.579c-2.829,3.103-7.315,4.1-10.557,6.768   c-2.339,1.924-3.946,4.715-4.438,7.702c-0.867,5.254,2.957,11.46,8.275,11.214c4.105-0.19,7.183-3.898,8.816-7.668   c1.635-3.77,2.43-7.954,4.779-11.326c5.138-7.374,16.183-8.279,24.436-4.72c8.252,3.559,14.509,10.437,20.971,16.683   c6.461,6.247,13.927,12.287,22.847,13.377c-8.303,7.938-20.656,11.395-31.872,8.919c-8.108-1.79-15.5-6.427-23.76-7.294   c-8.183-0.86-16.508,2.201-22.881,7.41c-8.739,7.145-13.959,18.266-14.376,29.548c-0.285,7.714,2.531,16.624,9.763,19.321   c9.294,3.465,19.759-5.304,29.167-2.169c5.513,1.836,9.037,7.429,10.289,13.103c1.252,5.674,0.676,11.563,0.562,17.372   c-0.216,11.199,1.322,22.431,4.543,33.159c2.351,7.829,8.2,16.902,16.202,15.237c4.115-0.855,7.069-4.429,9.242-8.025   c11.58-19.178,10.079-43.464,17.89-64.461c7.503-20.17,23.452-36.425,41.906-47.493c5.462-3.277,11.29-6.247,15.514-11.015   c2.31-2.606,4.005-5.616,5.252-8.842c-5.213-29.13-16.8-56.031-33.287-79.232C359.673,96.894,353.147,98.367,346.558,103.233z"/>
	<path style="fill:#27A2DB;" d="M220.634,45.916c-19.653-0.546-39.295-0.704-58.953-0.189c-5.581,0.146-16.311-1.683-15.334,6.985   c0.746,6.609,15.273,10.219,20.344,12.619c1.577,0.747,3.247,1.573,4.144,3.071c1.019,1.701,0.799,3.835,0.62,5.811   c-0.609,6.786-0.296,13.654,0.93,20.357c7.722-0.833,13.44-7.206,19.536-12.021c6.275-4.958,13.551-8.534,19.816-13.505   c6.268-4.971,11.684-11.92,12.004-19.912c0.036-0.897-0.033-1.896-0.677-2.521C222.446,46.01,221.497,45.945,220.634,45.916z"/>
	<path style="fill:#27A2DB;" d="M27.595,159.073c-0.446,7.097-1.968,14.156-1.53,21.253c0.804,12.95,7.971,24.522,14.929,35.474   c5.737,9.03,13.158,19.076,23.85,19.447c-4.567-7.227-6.47-16.097-5.266-24.561c0.182-1.282,0.463-2.616,1.296-3.607   c1.359-1.613,3.701-1.831,5.704-2.494c4.846-1.605,8.042-6.098,11.022-10.244c14.364-19.997,31.53-37.98,50.835-53.26   c9.234-7.308,19.18-14.239,25.528-24.159c-5.903-7.472-16.645-9.32-26.078-8.003c-9.431,1.317-18.327,5.177-27.677,6.981   c-3.596,0.694-7.965,0.803-10.2-2.1c-2.451-3.184-0.71-7.778,1.294-11.26c3.588-6.23,7.837-12.078,12.655-17.415   c5.234-5.8,13.19-11.376,20.275-8.083c4.038,1.877,7.752,6.501,11.881,4.833c3.221-1.301,3.791-5.995,1.922-8.922   c-1.872-2.927-5.273-4.444-8.536-5.634c-5.7-2.078-11.768-3.667-17.79-2.934c-6.023,0.733-12.01,4.199-14.322,9.808   c-0.958,2.326-1.491,5.201-3.736,6.338c-1.642,0.832-3.618,0.381-5.387-0.139c-7.55-2.222-14.806-5.421-21.564-9.455   c-17.86,17.474-32.401,38.305-42.633,61.478C26.912,140.976,28.16,150.069,27.595,159.073z"/>
	<path style="fill:#27A2DB;" d="M167.133,276.655c-18.115-10.281-36.935-24.899-56.172-32.641c-9.135-3.676-11.673,0.09-14.282,8.84   c-1.522,5.103-2.339,8.803-5.448,13.218c-2.493,3.54-6.478,5.934-6.964,10.639c-0.392,3.781,1.841,7.28,3.978,10.423   c4.977,7.322,9.989,14.686,16.172,21.022c2.281,2.337,4.734,4.55,6.54,7.271c1.898,2.859,3.007,6.178,3.685,9.542   c3.626,17.977-4.15,38.795,6.388,53.804c5.61-17.218,11.765-35.293,25.328-47.289c7.862-6.955,17.766-11.403,25.185-18.83   c7.418-7.427,11.744-19.888,5.527-28.347C174.575,280.912,170.797,278.734,167.133,276.655z"/>
</g>
<path style="fill:#E56353;" d="M185.017,74.542c0,41.168-74.542,156.41-74.542,156.41S35.933,115.71,35.933,74.542  S69.307,0,110.475,0S185.017,33.374,185.017,74.542z"/>
<circle style="fill:#D15241;" cx="110.477" cy="74.542" r="38.18"/>
<path style="fill:#E56353;" d="M268.713,287.928c0,16.528-29.927,62.795-29.927,62.795s-29.927-46.266-29.927-62.795  c0-16.528,13.399-29.927,29.927-29.927S268.713,271.4,268.713,287.928z"/>
<circle style="fill:#D15241;" cx="238.784" cy="287.949" r="15.329"/>
<path style="fill:#E56353;" d="M313.968,86.931c0,16.528-29.927,62.795-29.927,62.795s-29.927-46.266-29.927-62.795  s13.399-29.927,29.927-29.927C300.57,57.004,313.968,70.403,313.968,86.931z"/>
<circle style="fill:#D15241;" cx="284.045" cy="86.932" r="15.329"/>
<g>
</g>
<g>
</g>
<g>
</g>
<g>
</g>
<g>
</g>
<g>
</g>
<g>
</g>
<g>
</g>
<g>
</g>
<g>
</g>
<g>
</g>
<g>
</g>
<g>
</g>
<g>
</g>
<g>
</g>
</svg>
