<?xml version="1.0" encoding="iso-8859-1"?>
<!-- Generator: Adobe Illustrator 19.0.0, SVG Export Plug-In . SVG Version: 6.00 Build 0)  -->
<svg xmlns="http://www.w3.org/2000/svg" xmlns:xlink="http://www.w3.org/1999/xlink" version="1.1" id="Capa_1" x="0px" y="0px" viewBox="0 0 408.622 408.622" style="enable-background:new 0 0 408.622 408.622;" xml:space="preserve">
<circle style="fill:#FCD462;" cx="272.87" cy="204.311" r="135.752"/>
<g>
	<path style="fill:#F6C358;" d="M272.872,319.017c-63.249,0-114.704-51.454-114.704-114.704s51.454-114.71,114.704-114.71   s114.71,51.461,114.71,114.71S336.121,319.017,272.872,319.017z M272.872,103.368c-55.662,0-100.939,45.285-100.939,100.946   s45.278,100.939,100.939,100.939s100.946-45.278,100.946-100.939S328.534,103.368,272.872,103.368z"/>
	<path style="fill:#F6C358;" d="M268.974,277.905v-12.961c-16.226-1.662-30.79-8.106-43.679-19.361l12.961-15.446   c9.941,8.64,20.17,13.799,30.718,15.446v-34.446c-13.38-3.193-23.176-7.383-29.389-12.599c-6.213-5.202-9.319-12.932-9.319-23.176   c0-10.23,3.569-18.61,10.735-25.112c7.167-6.516,16.486-10.071,27.973-10.663v-8.872h11.357v9.059   c13.018,0.939,25.329,5.389,36.931,13.307l-11.545,16.342c-7.817-5.563-16.269-9.002-25.386-10.302v33.377h0.535   c13.611,3.193,23.609,7.528,29.996,12.96c6.401,5.447,9.594,13.351,9.594,23.71c0,10.36-3.67,18.783-11.01,25.3   c-7.34,6.502-17.035,10.056-29.114,10.649v12.787H268.974z M256.447,163.298c-3.02,2.659-4.522,5.982-4.522,9.941   c0,3.973,1.185,7.094,3.554,9.406c2.355,2.312,6.863,4.537,13.495,6.661v-30.718C263.643,159.064,259.467,160.639,256.447,163.298z    M293.826,241.147c3.309-2.716,4.97-6.155,4.97-10.302c0-4.132-1.3-7.427-3.901-9.854c-2.615-2.413-7.47-4.696-14.564-6.834v31.961   C286.009,245.525,290.503,243.878,293.826,241.147z"/>
</g>
<circle style="fill:#EBF0F3;" cx="135.752" cy="204.311" r="135.752"/>
<g>
	<path style="fill:#27A2DB;" d="M233.197,129.487c-4.14,3.056-7.563,5.72-13.022,5.2c-8.872-0.844-12.595-8.682-19.711-12.525   c-4.53-2.447-9.98-2.2-15.12-1.888c-4.249,7.114-5.623,15.892-3.749,23.965c-3.633-0.998-6.612,3.172-7.274,6.881   c-0.662,3.709-0.443,7.923-2.979,10.708c-1.945,2.133-5.028,2.818-7.256,4.652c-1.607,1.323-2.712,3.24-3.05,5.294   c-0.596,3.611,2.032,7.877,5.688,7.708c2.822-0.131,4.937-2.679,6.06-5.271c1.124-2.591,1.67-5.467,3.285-7.785   c3.532-5.069,11.123-5.69,16.796-3.244c5.672,2.446,9.973,7.173,14.414,11.467s9.572,8.445,15.704,9.195   c-5.707,5.456-14.197,7.832-21.907,6.13c-5.573-1.23-10.654-4.417-16.331-5.013c-5.625-0.591-11.347,1.513-15.727,5.093   c-6.006,4.911-9.595,12.555-9.881,20.309c-0.196,5.302,1.74,11.426,6.71,13.28c6.388,2.381,13.581-3.645,20.047-1.491   c3.79,1.262,6.212,5.106,7.072,9.006c0.861,3.9,0.465,7.948,0.386,11.94c-0.149,7.698,0.909,15.417,3.123,22.791   c1.616,5.381,5.636,11.617,11.136,10.473c2.828-0.588,4.859-3.044,6.352-5.515c7.96-13.182,6.927-29.874,12.296-44.306   c5.157-13.863,16.119-25.036,28.803-32.643c3.754-2.252,7.76-4.293,10.663-7.571c1.588-1.791,2.753-3.86,3.61-6.078   c-3.583-20.022-11.547-38.512-22.879-54.459C242.211,125.13,237.726,126.143,233.197,129.487z"/>
	<path style="fill:#27A2DB;" d="M146.646,90.092c-13.508-0.375-27.009-0.484-40.52-0.13c-3.836,0.1-11.211-1.157-10.54,4.801   c0.513,4.543,10.497,7.024,13.983,8.673c1.084,0.513,2.232,1.081,2.848,2.111c0.701,1.169,0.549,2.636,0.426,3.994   c-0.419,4.664-0.203,9.385,0.639,13.992c5.308-0.573,9.238-4.953,13.428-8.263c4.313-3.408,9.314-5.866,13.62-9.282   c4.308-3.417,8.031-8.193,8.251-13.686c0.025-0.616-0.023-1.303-0.466-1.733C147.891,90.156,147.239,90.112,146.646,90.092z"/>
	<path style="fill:#27A2DB;" d="M13.964,167.868c-0.307,4.878-1.352,9.73-1.052,14.608c0.552,8.901,5.478,16.855,10.261,24.382   c3.943,6.207,9.044,13.112,16.393,13.367c-3.139-4.967-4.447-11.064-3.619-16.881c0.125-0.881,0.318-1.798,0.891-2.479   c0.934-1.108,2.544-1.258,3.92-1.714c3.33-1.103,5.527-4.191,7.575-7.041c9.873-13.745,21.671-26.104,34.941-36.607   c6.347-5.023,13.183-9.787,17.546-16.605c-4.057-5.136-11.441-6.406-17.924-5.501c-6.482,0.905-12.597,3.558-19.023,4.798   c-2.471,0.477-5.475,0.552-7.01-1.444c-1.684-2.189-0.488-5.346,0.89-7.739c2.466-4.282,5.387-8.302,8.698-11.97   c3.597-3.987,9.066-7.819,13.936-5.555c2.775,1.29,5.328,4.469,8.166,3.322c2.214-0.894,2.606-4.12,1.321-6.132   c-1.286-2.012-3.624-3.054-5.867-3.872c-3.918-1.428-8.088-2.52-12.228-2.017c-4.14,0.504-8.255,2.886-9.844,6.741   c-0.658,1.599-1.025,3.575-2.568,4.356c-1.128,0.572-2.487,0.262-3.702-0.096c-5.189-1.527-10.176-3.726-14.821-6.498   c-12.276,12.01-22.27,26.328-29.303,42.256C13.495,155.43,14.353,161.68,13.964,167.868z"/>
	<path style="fill:#27A2DB;" d="M109.873,248.685c-12.451-7.066-25.386-17.114-38.609-22.435c-6.279-2.527-8.023,0.062-9.816,6.076   c-1.046,3.507-1.608,6.05-3.745,9.085c-1.713,2.433-4.452,4.079-4.787,7.313c-0.27,2.599,1.266,5.003,2.734,7.164   c3.421,5.032,6.866,10.094,11.116,14.449c1.568,1.606,3.254,3.128,4.495,4.997c1.304,1.965,2.067,4.247,2.533,6.559   c2.492,12.356-2.853,26.665,4.391,36.981c3.856-11.834,8.086-24.258,17.409-32.503c5.404-4.78,12.211-7.837,17.31-12.942   c5.098-5.105,8.072-13.67,3.799-19.484C114.988,251.612,112.391,250.115,109.873,248.685z"/>
</g>
<g>
</g>
<g>
</g>
<g>
</g>
<g>
</g>
<g>
</g>
<g>
</g>
<g>
</g>
<g>
</g>
<g>
</g>
<g>
</g>
<g>
</g>
<g>
</g>
<g>
</g>
<g>
</g>
<g>
</g>
</svg>
