<?xml version="1.0" encoding="iso-8859-1"?>
<!-- Generator: Adobe Illustrator 19.0.0, SVG Export Plug-In . SVG Version: 6.00 Build 0)  -->
<svg xmlns="http://www.w3.org/2000/svg" xmlns:xlink="http://www.w3.org/1999/xlink" version="1.1" id="Capa_1" x="0px" y="0px" viewBox="0 0 409.6 409.6" style="enable-background:new 0 0 409.6 409.6;" xml:space="preserve">
<polygon style="fill:#FCD462;" points="204.651,312.466 364.666,272.392 364.666,72.019 204.651,112.093 "/>
<polygon style="fill:#F6C358;" points="204.651,312.466 44.637,272.392 44.637,72.019 204.651,112.093 "/>
<polygon style="fill:#EAAF47;" points="0,88.89 151.786,24.358 196.322,74.873 44.536,139.405 "/>
<polygon style="fill:#F6C358;" points="409.6,88.89 257.814,24.358 213.278,74.873 365.064,139.405 "/>
<ellipse style="fill:#27A2DB;" cx="204.652" cy="123.392" rx="120.704" ry="120.535"/>
<path style="fill:#FFFFFF;" d="M204.657,0C136.533,0,81.108,55.343,81.108,123.371s55.426,123.371,123.549,123.371  s123.539-55.343,123.539-123.371S272.78,0,204.657,0z M209.887,77.522c17.687-0.451,35.471-3.132,54.205-8.141  c4.786,14.602,7.615,31.183,8.1,48.769h-62.306V77.522z M209.887,66.978V10.887c20.956,2.692,39.269,21.293,50.552,48.644  C242.988,64.105,226.396,66.538,209.887,66.978z M199.427,10.887V66.98c-16.517-0.434-33.114-2.865-50.566-7.439  C160.144,32.184,178.462,13.58,199.427,10.887z M199.427,77.523v40.626h-62.316c0.485-17.583,3.312-34.161,8.098-48.762  C163.948,74.396,181.733,77.075,199.427,77.523z M126.66,118.149H91.833c1.019-22.086,8.339-42.524,20.32-59.537  c7.931,2.996,15.659,5.672,23.19,7.958C130.205,82.127,127.155,99.614,126.66,118.149z M126.66,128.594  c0.495,18.539,3.546,36.029,8.686,51.587c-7.528,2.287-15.256,4.965-23.184,7.961c-11.986-17.015-19.31-37.457-20.329-59.548H126.66  z M137.111,128.594h62.316v40.629c-17.692,0.449-35.479,3.13-54.215,8.14C140.425,162.761,137.596,146.181,137.111,128.594z   M199.427,179.757v56.099c-20.963-2.692-39.279-21.295-50.564-48.649C166.312,182.629,182.909,180.194,199.427,179.757z   M209.887,235.856v-56.1c16.514,0.436,33.109,2.868,50.559,7.442C249.163,214.557,230.846,233.163,209.887,235.856z   M209.887,169.223v-40.629h62.306c-0.485,17.583-3.312,34.161-8.098,48.762C245.356,172.35,227.572,169.672,209.887,169.223z   M282.643,128.594h34.826c-1.019,22.084-8.339,42.521-20.317,59.534c-7.932-2.995-15.659-5.67-23.19-7.956  C279.1,164.616,282.149,147.129,282.643,128.594z M282.643,118.149c-0.494-18.538-3.545-36.027-8.684-51.586  c7.528-2.287,15.256-4.964,23.184-7.96c11.983,17.015,19.307,37.456,20.326,59.546H282.643z M290.4,49.954  c-6.844,2.521-13.542,4.797-20.079,6.76c-6.421-15.706-15.038-28.912-25.159-38.651C262.792,24.851,278.296,35.874,290.4,49.954z   M164.149,18.062c-10.128,9.742-18.747,22.951-25.169,38.664c-6.538-1.964-13.239-4.24-20.085-6.763  C131.005,35.879,146.513,24.851,164.149,18.062z M118.905,196.79c6.843-2.523,13.541-4.801,20.077-6.766  c6.423,15.709,15.041,28.917,25.167,38.657C146.517,221.894,131.012,210.87,118.905,196.79z M245.162,228.68  c10.126-9.742,18.743-22.953,25.166-38.666c6.538,1.964,13.237,4.242,20.082,6.764C278.303,210.862,262.797,221.89,245.162,228.68z"/>
<polygon style="fill:#FCD462;" points="204.651,409.6 44.637,369.525 44.637,139.405 204.651,179.48 "/>
<g>
	<polygon style="fill:#F6C358;" points="204.651,409.6 364.666,369.525 364.666,139.405 204.651,179.48  "/>
	<polygon style="fill:#F6C358;" points="170.363,245.172 10.348,205.097 44.637,139.405 204.651,179.48  "/>
</g>
<polygon style="fill:#EAAF47;" points="230.559,245.172 390.573,205.097 364.666,139.405 204.651,179.48 "/>
<g>
</g>
<g>
</g>
<g>
</g>
<g>
</g>
<g>
</g>
<g>
</g>
<g>
</g>
<g>
</g>
<g>
</g>
<g>
</g>
<g>
</g>
<g>
</g>
<g>
</g>
<g>
</g>
<g>
</g>
</svg>
