<?xml version="1.0" encoding="iso-8859-1"?>
<!-- Generator: Adobe Illustrator 19.0.0, SVG Export Plug-In . SVG Version: 6.00 Build 0)  -->
<svg xmlns="http://www.w3.org/2000/svg" xmlns:xlink="http://www.w3.org/1999/xlink" version="1.1" id="Capa_1" x="0px" y="0px" viewBox="0 0 409.6 409.6" style="enable-background:new 0 0 409.6 409.6;" xml:space="preserve">
<path style="fill:#EBF0F3;" d="M327.759,122.913c-14.956-15.17-23.378-35.588-23.378-56.892V1.502c0-2.003-48.972-2.003-48.972,0  v64.519c0,21.303-8.421,41.721-23.378,56.891c-11.935,12.106-19.306,28.714-19.306,47.065v219.912  c0,26.281,134.339,26.281,134.339,0V169.977C347.065,151.627,339.695,135.019,327.759,122.913z"/>
<path style="fill:#64798A;" d="M297.744,88.817h-35.698c-3.953,15.247-11.855,29.276-23.215,40.798  c-10.681,10.83-16.56,25.165-16.56,40.364v219.369c2.918,3.772,22.616,10.705,57.626,10.705c35.006,0,54.705-6.933,57.623-10.705  V169.978c0-15.199-5.879-29.534-16.557-40.364C309.6,118.093,301.697,104.065,297.744,88.817z"/>
<path style="fill:#FCD462;" d="M304.418,67.491c-0.009-0.49-0.036-0.978-0.036-1.469V1.502c0-2.003-48.972-2.003-48.972,0v64.519  c0,0.491-0.027,0.979-0.036,1.469C269.487,66.643,290.304,66.643,304.418,67.491z"/>
<rect x="253.696" y="4.178" style="fill:#F6C358;" width="52.419" height="32.522"/>
<path style="fill:#FCD462;" d="M317.799,233.688c-3.197-0.228-5.978-2.065-7.663-4.792c-6.259-10.133-17.455-16.891-30.241-16.891  c-12.785,0-23.982,6.757-30.241,16.891c-1.684,2.727-4.466,4.564-7.663,4.792c-9.755,0.697-19.511,1.657-29.266,2.899v90.525  c43.486,4.794,88.337,4.531,134.339,0v-90.525C337.31,235.345,327.554,234.385,317.799,233.688z"/>
<ellipse style="fill:#44C4A1;" cx="279.91" cy="265.958" rx="23.962" ry="33.219"/>
<rect x="251.546" y="316.314" style="fill:#E56353;" width="56.73" height="6.364"/>
<path style="fill:#EBF0F3;" d="M124.256,357.253c-3.746-0.67-6.468-3.956-6.468-7.762v-75.558c0-4.796,2.409-9.376,6.568-11.764  c20.156-11.574,34.897-48.468,34.897-92.211c0-9.075-0.644-17.848-1.832-26.168c-0.323-2.262-2.294-3.921-4.579-3.921H68.945  c-2.285,0-4.257,1.659-4.58,3.921c-1.188,8.319-1.831,17.092-1.831,26.167c0,43.743,14.74,80.637,34.896,92.211  c4.159,2.388,6.568,6.967,6.568,11.764v75.558c0,3.806-2.722,7.091-6.468,7.762c-10.292,1.842-17.397,5.742-17.397,10.263  c0,6.298,13.772,11.403,30.761,11.403c16.988,0,30.76-5.105,30.76-11.403C141.653,362.995,134.549,359.095,124.256,357.253z"/>
<path style="fill:#64798A;" d="M107.197,182.698c-9.53-4.14-23.995-3.606-34.79-2.356c2.167,38.318,16.032,65.656,29.777,73.548  c0.459,0.264,0.907,0.541,1.343,0.835c4.429,2.989,10.306,2.99,14.735,0c0.435-0.293,0.882-0.572,1.339-0.835  c12.919-7.416,25.95-32.002,29.274-66.736C128.725,191.625,107.197,182.698,107.197,182.698z"/>
<g>
	<circle style="fill:#3A556A;" cx="99.558" cy="232.141" r="4.035"/>
	<circle style="fill:#3A556A;" cx="129.178" cy="211.763" r="2.954"/>
	<circle style="fill:#3A556A;" cx="89.226" cy="187.551" r="3.543"/>
</g>
<g>
	<circle style="fill:#64798A;" cx="128.102" cy="169.318" r="4.035"/>
	<circle style="fill:#64798A;" cx="90.998" cy="152.612" r="1.772"/>
</g>
<g>
</g>
<g>
</g>
<g>
</g>
<g>
</g>
<g>
</g>
<g>
</g>
<g>
</g>
<g>
</g>
<g>
</g>
<g>
</g>
<g>
</g>
<g>
</g>
<g>
</g>
<g>
</g>
<g>
</g>
</svg>
