<?xml version="1.0" encoding="iso-8859-1"?>
<!-- Generator: Adobe Illustrator 19.0.0, SVG Export Plug-In . SVG Version: 6.00 Build 0)  -->
<svg xmlns="http://www.w3.org/2000/svg" xmlns:xlink="http://www.w3.org/1999/xlink" version="1.1" id="Capa_1" x="0px" y="0px" viewBox="0 0 408.623 408.623" style="enable-background:new 0 0 408.623 408.623;" xml:space="preserve">
<path style="fill:#EBF0F3;" d="M397.654,0H10.968C4.91,0,0,4.911,0,10.968v386.687c0,6.058,4.91,10.968,10.968,10.968h386.686  c6.058,0,10.968-4.911,10.968-10.968V10.968C408.623,4.911,403.713,0,397.654,0z"/>
<path style="fill:#D5D6DB;" d="M397.654,0H10.968C4.91,0,0,4.911,0,10.968v42.084h408.623V10.968C408.623,4.911,403.713,0,397.654,0  z"/>
<rect x="13.96" y="15.875" style="fill:#EBF0F3;" width="269.803" height="21.304"/>
<circle style="fill:#27A2DB;" cx="307.019" cy="26.525" r="10.865"/>
<circle style="fill:#44C4A1;" cx="339.531" cy="26.525" r="10.865"/>
<circle style="fill:#E56353;" cx="371.991" cy="26.525" r="10.865"/>
<rect x="21.143" y="73.209" style="fill:#27A2DB;" width="192.548" height="192.548"/>
<rect x="241.175" y="81.155" style="fill:#64798A;" width="98.304" height="14.858"/>
<rect x="241.175" y="238.103" style="fill:#E56353;" width="65.843" height="27.653"/>
<g>
	<rect x="241.175" y="121.603" style="fill:#D5D6DB;" width="141.64" height="14.858"/>
	<rect x="241.175" y="162.056" style="fill:#D5D6DB;" width="141.64" height="14.858"/>
	<rect x="241.175" y="202.504" style="fill:#D5D6DB;" width="112.461" height="14.858"/>
	<rect x="34.901" y="301.694" style="fill:#D5D6DB;" width="59.151" height="77.665"/>
	<rect x="105.178" y="301.694" style="fill:#D5D6DB;" width="59.151" height="77.665"/>
	<rect x="175.435" y="301.694" style="fill:#D5D6DB;" width="59.151" height="77.665"/>
	<rect x="244.293" y="301.694" style="fill:#D5D6DB;" width="59.151" height="77.665"/>
	<rect x="314.545" y="301.694" style="fill:#D5D6DB;" width="59.151" height="77.665"/>
	<polygon style="fill:#D5D6DB;" points="20.924,340.548 28.451,348.076 28.451,333.021  "/>
	<polygon style="fill:#D5D6DB;" points="387.699,340.548 380.172,333.021 380.172,348.076  "/>
</g>
<g>
</g>
<g>
</g>
<g>
</g>
<g>
</g>
<g>
</g>
<g>
</g>
<g>
</g>
<g>
</g>
<g>
</g>
<g>
</g>
<g>
</g>
<g>
</g>
<g>
</g>
<g>
</g>
<g>
</g>
</svg>
