<?xml version="1.0" encoding="iso-8859-1"?>
<!-- Generator: Adobe Illustrator 19.0.0, SVG Export Plug-In . SVG Version: 6.00 Build 0)  -->
<svg xmlns="http://www.w3.org/2000/svg" xmlns:xlink="http://www.w3.org/1999/xlink" version="1.1" id="Capa_1" x="0px" y="0px" viewBox="0 0 409.6 409.6" style="enable-background:new 0 0 409.6 409.6;" xml:space="preserve">
<g>
	<polygon style="fill:#3A556A;" points="283.42,100.933 104.366,100.933 111.789,0 275.997,0  "/>
	<polygon style="fill:#3A556A;" points="104.366,308.667 283.42,308.667 275.997,409.6 111.789,409.6  "/>
	<path style="fill:#3A556A;" d="M348.54,176.715h-19.427v51.352h19.427c3.41,0,6.173-2.764,6.173-6.173v-39.006   C354.713,179.479,351.949,176.715,348.54,176.715z"/>
</g>
<circle style="fill:#64798A;" cx="193.895" cy="202.394" r="139.008"/>
<circle style="fill:#EBF0F3;" cx="193.895" cy="202.394" r="115.692"/>
<ellipse style="fill:#FFFFFF;" cx="193.895" cy="206.131" rx="115.692" ry="111.944"/>
<g>
	<rect x="87.614" y="199.629" style="fill:#E56353;" width="20.685" height="5.519"/>
	<rect x="279.461" y="199.629" style="fill:#E56353;" width="20.685" height="5.519"/>
	<ellipse style="fill:#E56353;" cx="245.068" cy="291.028" rx="3.927" ry="3.927"/>
	<ellipse style="fill:#E56353;" cx="142.752" cy="113.751" rx="3.927" ry="3.927"/>
	<ellipse style="fill:#E56353;" cx="105.25" cy="253.533" rx="3.927" ry="3.927"/>
	<ellipse style="fill:#E56353;" cx="282.56" cy="151.217" rx="3.927" ry="3.927"/>
	<ellipse style="fill:#E56353;" cx="245.08" cy="113.761" rx="3.927" ry="3.927"/>
	<ellipse style="fill:#E56353;" cx="142.72" cy="291.028" rx="3.927" ry="3.927"/>
	<ellipse style="fill:#E56353;" cx="282.513" cy="253.553" rx="3.927" ry="3.927"/>
	<ellipse style="fill:#E56353;" cx="105.256" cy="151.217" rx="3.927" ry="3.927"/>
	<rect x="191.156" y="287.969" style="fill:#E56353;" width="5.519" height="20.685"/>
	<rect x="191.141" y="96.123" style="fill:#E56353;" width="5.519" height="20.685"/>
</g>
<polygon style="fill:#3A556A;" points="175.158,207.183 170.976,202.387 175.167,197.598 248.069,200.104 250.507,202.459   248.065,204.81 "/>
<polygon style="fill:#64798A;" points="189.626,221.724 181.647,223.231 179.083,215.527 228.906,136.907 233.071,135.744   234.082,139.949 "/>
<circle style="fill:#FCD462;" cx="193.895" cy="202.394" r="5.893"/>
<g>
	<rect x="121.647" y="31.908" style="fill:#64798A;" width="144.486" height="9.231"/>
	<rect x="121.647" y="8.627" style="fill:#64798A;" width="144.486" height="9.231"/>
	<rect x="121.647" y="386.918" style="fill:#64798A;" width="144.486" height="9.231"/>
	<rect x="121.647" y="363.622" style="fill:#64798A;" width="144.486" height="9.231"/>
</g>
<g>
</g>
<g>
</g>
<g>
</g>
<g>
</g>
<g>
</g>
<g>
</g>
<g>
</g>
<g>
</g>
<g>
</g>
<g>
</g>
<g>
</g>
<g>
</g>
<g>
</g>
<g>
</g>
<g>
</g>
</svg>
