<?xml version="1.0" encoding="iso-8859-1"?>
<!-- Generator: Adobe Illustrator 19.0.0, SVG Export Plug-In . SVG Version: 6.00 Build 0)  -->
<svg xmlns="http://www.w3.org/2000/svg" xmlns:xlink="http://www.w3.org/1999/xlink" version="1.1" id="Capa_1" x="0px" y="0px" viewBox="0 0 408.623 408.623" style="enable-background:new 0 0 408.623 408.623;" xml:space="preserve">
<path style="fill:#64798A;" d="M398.788,104.494H9.835c-5.432,0-9.835,4.403-9.835,9.835v201.117c0,5.432,4.403,9.835,9.835,9.835  h388.953c5.431,0,9.835-4.404,9.835-9.835V114.329C408.623,108.897,404.219,104.494,398.788,104.494z"/>
<rect x="20.555" y="83.341" style="fill:#44C4A1;" width="366.592" height="186.931"/>
<g>
	<path style="fill:#3EA69B;" d="M362.999,260.989H44.692v-5.572c0-5.122-4.165-9.287-9.287-9.287h-5.572V107.487h5.572   c5.122,0,9.287-4.165,9.287-9.287v-5.572h318.308V98.2c0,5.122,4.165,9.287,9.287,9.287h5.572V246.13h-5.572   c-5.122,0-9.287,4.165-9.287,9.287V260.989z M55.067,249.844h297.557c1.93-6.795,7.299-12.16,14.09-14.086v-117.9   c-6.791-1.926-12.16-7.292-14.09-14.086H55.067c-1.93,6.795-7.299,12.16-14.09,14.086v117.9   C47.768,237.684,53.137,243.05,55.067,249.844z"/>
	<ellipse style="fill:#3EA69B;" cx="203.845" cy="176.807" rx="40.566" ry="54.364"/>
	<circle style="fill:#3EA69B;" cx="339.326" cy="176.807" r="12.416"/>
	<circle style="fill:#3EA69B;" cx="68.355" cy="176.807" r="12.416"/>
</g>
<path style="fill:#64798A;" d="M0,150.08v165.11c0,5.573,4.403,10.091,9.835,10.091h388.953c5.431,0,9.835-4.518,9.835-10.091  V150.08H0z"/>
<circle style="fill:#FCD462;" cx="257.099" cy="159.461" r="29.916"/>
<g>
	<path style="fill:#F6C358;" d="M257.081,185.74c-14.504,0-26.302-11.798-26.302-26.302s11.798-26.302,26.302-26.302   c14.504,0,26.302,11.798,26.302,26.302S271.585,185.74,257.081,185.74z M257.081,137.399c-12.152,0-22.039,9.887-22.039,22.039   s9.887,22.039,22.039,22.039s22.039-9.887,22.039-22.039S269.233,137.399,257.081,137.399z"/>
	<path style="fill:#F6C358;" d="M256.144,177.115v-3.113c-3.898-0.397-7.396-1.947-10.492-4.647l3.113-3.71   c2.388,2.076,4.845,3.311,7.379,3.71v-8.274c-3.214-0.767-5.567-1.777-7.06-3.028c-1.492-1.251-2.239-3.106-2.239-5.565   s0.857-4.47,2.579-6.036c1.722-1.564,3.96-2.416,6.719-2.558v-2.133h2.728v2.174c3.127,0.229,6.084,1.295,8.871,3.2l-2.773,3.924   c-1.878-1.336-3.908-2.161-6.098-2.475v8.018H259c3.27,0.769,5.671,1.807,7.205,3.113c1.538,1.309,2.305,3.207,2.305,5.694   c0,2.489-0.882,4.516-2.645,6.077c-1.763,1.565-4.092,2.417-6.994,2.56v3.07H256.144z M253.135,149.587   c-0.725,0.639-1.086,1.435-1.086,2.388s0.285,1.706,0.854,2.259c0.566,0.555,1.649,1.088,3.242,1.6v-7.379   C254.863,148.57,253.86,148.946,253.135,149.587z M262.114,168.287c0.795-0.653,1.194-1.477,1.194-2.473   c0-0.994-0.312-1.784-0.937-2.367c-0.628-0.583-1.794-1.13-3.499-1.642v7.676C260.236,169.341,261.315,168.941,262.114,168.287z"/>
</g>
<path style="fill:#FCD462;" d="M177.052,166.406H27.259c-3.751,0-6.791,3.041-6.791,6.792v93.377h163.375v-93.377  C183.843,169.447,180.803,166.406,177.052,166.406z"/>
<g>
	<rect x="14.861" y="192.546" style="fill:#3A556A;" width="174.592" height="99.236"/>
	<path style="fill:#3A556A;" d="M389.349,159.438H223.585c-2.438,0-4.415,1.977-4.415,4.414v142.155   c0,2.438,1.977,4.414,4.415,4.414h165.764c2.438,0,4.415-1.977,4.415-4.414V163.852   C393.764,161.414,391.787,159.438,389.349,159.438z"/>
</g>
<path style="fill:#2F4859;" d="M286.995,154.527v47.474c0,10.753,8.719,19.471,19.472,19.471c10.752,0,19.472-8.717,19.472-19.471  v-47.474H286.995z"/>
<circle style="fill:#EBF0F3;" cx="306.466" cy="200.83" r="11.812"/>
<path style="fill:#27A2DB;" d="M177.052,185.042H27.259c-3.751,0-6.791,3.041-6.791,6.792v93.377h163.375v-93.377  C183.843,188.083,180.803,185.042,177.052,185.042z"/>
<rect x="14.861" y="211.173" style="fill:#2F4859;" width="174.592" height="99.236"/>
<g>
</g>
<g>
</g>
<g>
</g>
<g>
</g>
<g>
</g>
<g>
</g>
<g>
</g>
<g>
</g>
<g>
</g>
<g>
</g>
<g>
</g>
<g>
</g>
<g>
</g>
<g>
</g>
<g>
</g>
</svg>
