<?xml version="1.0" encoding="iso-8859-1"?>
<!-- Generator: Adobe Illustrator 19.0.0, SVG Export Plug-In . SVG Version: 6.00 Build 0)  -->
<svg xmlns="http://www.w3.org/2000/svg" xmlns:xlink="http://www.w3.org/1999/xlink" version="1.1" id="Capa_1" x="0px" y="0px" viewBox="0 0 409.6 409.6" style="enable-background:new 0 0 409.6 409.6;" xml:space="preserve">
<path style="fill:#3A556A;" d="M386.844,182.044c-32.244-21.496-46.113-61.914-33.858-98.678l15.653-46.958L304.924,0  c0,0-27.307,95.957-100.124,118.329V409.6h182.044V182.044z"/>
<path style="fill:#64798A;" d="M104.676,0L40.96,36.409l15.651,46.958c12.256,36.764-1.611,77.182-33.856,98.678V409.6H204.8  V118.329C131.982,95.957,104.676,0,104.676,0z"/>
<g>
	<rect x="268.493" y="291.272" style="fill:#2F4859;" width="91.023" height="18.207"/>
	<rect x="50.063" y="291.272" style="fill:#2F4859;" width="91.023" height="18.207"/>
	<rect x="232.09" y="154.726" style="fill:#2F4859;" width="18.207" height="18.207"/>
	<rect x="232.09" y="218.455" style="fill:#2F4859;" width="18.207" height="18.207"/>
	<rect x="232.09" y="282.163" style="fill:#2F4859;" width="18.207" height="18.207"/>
	<rect x="232.09" y="345.907" style="fill:#2F4859;" width="18.207" height="18.207"/>
</g>
<g>
</g>
<g>
</g>
<g>
</g>
<g>
</g>
<g>
</g>
<g>
</g>
<g>
</g>
<g>
</g>
<g>
</g>
<g>
</g>
<g>
</g>
<g>
</g>
<g>
</g>
<g>
</g>
<g>
</g>
</svg>
