<?xml version="1.0" encoding="iso-8859-1"?>
<!-- Generator: Adobe Illustrator 19.0.0, SVG Export Plug-In . SVG Version: 6.00 Build 0)  -->
<svg xmlns="http://www.w3.org/2000/svg" xmlns:xlink="http://www.w3.org/1999/xlink" version="1.1" id="Capa_1" x="0px" y="0px" viewBox="0 0 409.599 409.599" style="enable-background:new 0 0 409.599 409.599;" xml:space="preserve">
<circle style="fill:#64798A;" cx="153.805" cy="357.978" r="29.681"/>
<circle style="fill:#EBF0F3;" cx="153.805" cy="357.978" r="16.65"/>
<circle style="fill:#64798A;" cx="341.913" cy="357.978" r="29.681"/>
<g>
	<circle style="fill:#EBF0F3;" cx="341.913" cy="357.978" r="16.65"/>
	<path style="fill:#EBF0F3;" d="M70.789,75.252v13.029h49.795v21.039H77.545v13.029h43.038v22.636h-33.47v13.029h33.47v22.636   H94.436v13.029h26.147v22.636h-17.139v13.029h17.139v33.843l-7.628,0.744l1.26,12.966l252.963-24.665l42.421-176.979H70.789z    M388.04,109.32h-49.452V88.281h54.496L388.04,109.32z M236.104,180.65v-22.636h38.216v22.636H236.104z M274.32,193.679v22.636   h-38.216v-22.636H274.32z M236.104,144.985v-22.636h38.216v22.636H236.104z M287.349,122.349h38.21v22.636h-38.21V122.349z    M287.349,109.32V88.281h38.21v21.039H287.349z M274.32,109.32h-38.216V88.281h38.216V109.32z M223.074,109.32h-38.216V88.281   h38.216V109.32z M223.074,122.349v22.636h-38.216v-22.636H223.074z M223.074,158.014v22.636h-38.216v-22.636H223.074z    M223.074,193.679v22.636h-38.216v-22.636H223.074z M223.074,229.344v23.847l-38.216,3.727v-27.574H223.074z M236.104,229.344   h38.216v18.85l-38.216,3.727V229.344z M287.349,229.344h38.21v13.852l-38.21,3.726V229.344z M287.349,216.315v-22.636h38.21v22.636   H287.349z M287.349,180.65v-22.636h38.21v22.636H287.349z M338.588,158.014h37.777l-5.427,22.636h-32.35V158.014z M338.588,144.985   v-22.636h46.328l-5.427,22.636H338.588z M133.613,88.281h38.216v21.039h-38.216V88.281z M133.613,122.349h38.216v22.636h-38.216   V122.349z M133.613,158.014h38.216v22.636h-38.216V158.014z M133.613,193.679h38.216v22.636h-38.216V193.679z M133.613,229.344   h38.216v28.845l-38.216,3.727V229.344z M338.588,241.926v-12.582h20.675l-2.594,10.818L338.588,241.926z M362.386,216.315h-23.798   v-22.636h29.225L362.386,216.315z"/>
</g>
<path style="fill:#1C75A1;" d="M387.809,306.008H113.28c-7.526,0-13.627-6.101-13.627-13.627v-0.808  c0-7.022,5.318-12.975,12.315-13.568c2.377-0.202,4.546-1.421,5.931-3.336c1.355-1.874,1.839-4.243,1.317-6.511L62.862,24.793  H32.707v13.029h19.798L105.36,266.1c-10.987,3.365-18.736,13.503-18.736,25.473v0.808c0,14.722,11.935,26.656,26.656,26.656h274.528  c3.598,0,6.515-2.917,6.515-6.515C394.323,308.925,391.406,306.008,387.809,306.008z"/>
<path style="fill:#E56353;" d="M9.382,21.94C4.2,21.94,0,26.141,0,31.322s4.2,9.382,9.382,9.382h35.006V21.94H9.382z"/>
<g>
</g>
<g>
</g>
<g>
</g>
<g>
</g>
<g>
</g>
<g>
</g>
<g>
</g>
<g>
</g>
<g>
</g>
<g>
</g>
<g>
</g>
<g>
</g>
<g>
</g>
<g>
</g>
<g>
</g>
</svg>
