<?xml version="1.0" encoding="iso-8859-1"?>
<!-- Generator: Adobe Illustrator 19.0.0, SVG Export Plug-In . SVG Version: 6.00 Build 0)  -->
<svg xmlns="http://www.w3.org/2000/svg" xmlns:xlink="http://www.w3.org/1999/xlink" version="1.1" id="Capa_1" x="0px" y="0px" viewBox="0 0 409.6 409.6" style="enable-background:new 0 0 409.6 409.6;" xml:space="preserve">
<circle style="fill:#64798A;" cx="204.8" cy="204.8" r="204.8"/>
<circle style="fill:#EBF0F3;" cx="204.8" cy="204.8" r="170.496"/>
<ellipse style="fill:#FFFFFF;" cx="204.8" cy="210.33" rx="170.496" ry="164.966"/>
<g>
	<rect x="48.195" y="200.755" style="fill:#E56353;" width="30.505" height="8.136"/>
	<rect x="330.906" y="200.755" style="fill:#E56353;" width="30.505" height="8.136"/>
	<ellipse style="fill:#E56353;" cx="280.225" cy="335.411" rx="5.786" ry="5.786"/>
	<ellipse style="fill:#E56353;" cx="129.382" cy="74.194" rx="5.786" ry="5.786"/>
	<ellipse style="fill:#E56353;" cx="74.205" cy="280.209" rx="5.786" ry="5.786"/>
	<ellipse style="fill:#E56353;" cx="335.406" cy="129.382" rx="5.786" ry="5.786"/>
	<ellipse style="fill:#E56353;" cx="280.208" cy="74.182" rx="5.786" ry="5.786"/>
	<ellipse style="fill:#E56353;" cx="129.387" cy="335.412" rx="5.786" ry="5.786"/>
	<ellipse style="fill:#E56353;" cx="335.413" cy="280.218" rx="5.786" ry="5.786"/>
	<ellipse style="fill:#E56353;" cx="74.183" cy="129.387" rx="5.786" ry="5.786"/>
	<rect x="200.719" y="330.916" style="fill:#E56353;" width="8.136" height="30.505"/>
	<rect x="200.73" y="48.189" style="fill:#E56353;" width="8.136" height="30.505"/>
</g>
<polygon style="fill:#3A556A;" points="177.194,211.862 171.031,204.794 177.206,197.738 284.631,201.431 288.223,204.901   284.625,208.365 "/>
<polygon style="fill:#64798A;" points="198.513,233.289 186.755,235.509 182.976,224.157 256.393,108.305 262.532,106.592   264.021,112.789 "/>
<circle style="fill:#FCD462;" cx="204.8" cy="204.8" r="8.689"/>
<g>
</g>
<g>
</g>
<g>
</g>
<g>
</g>
<g>
</g>
<g>
</g>
<g>
</g>
<g>
</g>
<g>
</g>
<g>
</g>
<g>
</g>
<g>
</g>
<g>
</g>
<g>
</g>
<g>
</g>
</svg>
