<?xml version="1.0" encoding="iso-8859-1"?>
<!-- Generator: Adobe Illustrator 19.0.0, SVG Export Plug-In . SVG Version: 6.00 Build 0)  -->
<svg xmlns="http://www.w3.org/2000/svg" xmlns:xlink="http://www.w3.org/1999/xlink" version="1.1" id="Capa_1" x="0px" y="0px" viewBox="0 0 409.6 409.6" style="enable-background:new 0 0 409.6 409.6;" xml:space="preserve">
<path style="fill:#F6C358;" d="M22.342,68.45c0,12.339-10.003,22.342-22.342,22.342v228.017c12.339,0,22.342,10.003,22.342,22.342  h255.175V68.45H22.342z"/>
<path style="fill:#2D93BA;" d="M387.258,68.45H277.516V341.15h109.742c0-12.339,10.004-22.342,22.342-22.342V90.791  C397.262,90.791,387.258,80.789,387.258,68.45z"/>
<path style="fill:#FCD462;" d="M38.684,90.789c-3.92,6.771-9.571,12.422-16.342,16.342v195.338  c6.771,3.92,12.422,9.571,16.342,16.342h238.833V90.789H38.684z"/>
<path style="fill:#27A2DB;" d="M370.916,90.789h-93.4v228.022h93.4c3.92-6.771,9.571-12.422,16.342-16.342V107.131  C380.487,103.211,374.836,97.56,370.916,90.789z"/>
<g>
	<circle style="fill:#FFFFFF;" cx="277.76" cy="71.936" r="2.975"/>
	<circle style="fill:#FFFFFF;" cx="277.76" cy="87.552" r="2.975"/>
	<circle style="fill:#FFFFFF;" cx="277.76" cy="103.168" r="2.975"/>
	<circle style="fill:#FFFFFF;" cx="277.76" cy="118.835" r="2.975"/>
	<circle style="fill:#FFFFFF;" cx="277.76" cy="134.451" r="2.975"/>
	<circle style="fill:#FFFFFF;" cx="277.76" cy="150.067" r="2.975"/>
	<circle style="fill:#FFFFFF;" cx="277.76" cy="165.734" r="2.975"/>
	<circle style="fill:#FFFFFF;" cx="277.76" cy="181.35" r="2.975"/>
	<circle style="fill:#FFFFFF;" cx="277.76" cy="196.966" r="2.975"/>
	<circle style="fill:#FFFFFF;" cx="277.76" cy="212.634" r="2.975"/>
	<circle style="fill:#FFFFFF;" cx="277.76" cy="228.25" r="2.975"/>
	<circle style="fill:#FFFFFF;" cx="277.76" cy="243.881" r="2.975"/>
	<circle style="fill:#FFFFFF;" cx="277.76" cy="259.512" r="2.975"/>
	<circle style="fill:#FFFFFF;" cx="277.76" cy="275.144" r="2.975"/>
	<circle style="fill:#FFFFFF;" cx="277.76" cy="290.775" r="2.975"/>
	<circle style="fill:#FFFFFF;" cx="277.76" cy="306.406" r="2.975"/>
	<circle style="fill:#FFFFFF;" cx="277.76" cy="322.043" r="2.975"/>
	<circle style="fill:#FFFFFF;" cx="277.76" cy="337.674" r="2.975"/>
	<rect x="321.28" y="123.238" style="fill:#FFFFFF;" width="16.538" height="163.174"/>
</g>
<rect x="33.823" y="115.85" style="fill:#E56353;" width="171.663" height="25.441"/>
<rect x="169.83" y="281.032" style="fill:#DC8744;" width="85.832" height="25.441"/>
<g>
	<rect x="33.823" y="168.632" style="fill:#64798A;" width="221.85" height="12.723"/>
	<rect x="33.823" y="208.691" style="fill:#64798A;" width="221.85" height="12.723"/>
	<rect x="33.823" y="248.73" style="fill:#64798A;" width="221.85" height="12.723"/>
</g>
<g>
</g>
<g>
</g>
<g>
</g>
<g>
</g>
<g>
</g>
<g>
</g>
<g>
</g>
<g>
</g>
<g>
</g>
<g>
</g>
<g>
</g>
<g>
</g>
<g>
</g>
<g>
</g>
<g>
</g>
</svg>
