<?xml version="1.0" encoding="iso-8859-1"?>
<!-- Generator: Adobe Illustrator 19.0.0, SVG Export Plug-In . SVG Version: 6.00 Build 0)  -->
<svg xmlns="http://www.w3.org/2000/svg" xmlns:xlink="http://www.w3.org/1999/xlink" version="1.1" id="Capa_1" x="0px" y="0px" viewBox="0 0 409.6 409.6" style="enable-background:new 0 0 409.6 409.6;" xml:space="preserve">
<path style="fill:#27A2DB;" d="M409.14,150.791L392.951,48.01c-2.544-16.15-15.211-28.817-31.361-31.361L258.809,0.459  c-11.905-1.875-23.988,2.057-32.51,10.578L7.088,230.248c-9.451,9.451-9.45,24.773,0,34.223l138.041,138.041  c9.45,9.45,24.772,9.45,34.222,0l219.211-219.211C407.084,174.779,411.016,162.696,409.14,150.791z"/>
<path style="fill:#1C75A1;" d="M21.574,247.357L242.097,26.834c3.455-3.455,8.404-5.062,13.236-4.298l102.778,16.182  c6.604,1.047,11.735,6.182,12.771,12.778l16.189,102.771c0.764,4.8-0.876,9.796-4.295,13.222L162.239,388.026L21.574,247.357z   M372.239,156.964L356.17,53.808l-103.156-16.56l-0.385,0.116L42.636,247.357l119.603,119.607L372.239,156.964z"/>
<circle style="fill:#FFFFFF;" cx="352.732" cy="56.781" r="20.818"/>
<g>
	<path style="fill:#1C75A1;" d="M117.074,259.438c3.471,3.471,5.38,7.414,5.73,11.831c0.346,4.414-1.016,8.16-4.09,11.234   c-3.074,3.074-6.834,4.422-11.28,4.043c-4.448-0.369-8.391-2.278-11.834-5.721c-3.439-3.439-5.348-7.382-5.721-11.834   c-0.379-4.446,0.969-8.206,4.043-11.28c3.074-3.074,6.834-4.422,11.28-4.043C109.649,254.047,113.606,255.97,117.074,259.438z    M131.032,217.601l25.278,98.064l-12.497,12.497l-25.202-98.141L131.032,217.601z M107.314,275.465   c1.349,0.238,2.463-0.079,3.338-0.954c0.869-0.869,1.198-1.995,0.984-3.367c-0.208-1.379-0.963-2.713-2.259-4.009   c-1.292-1.292-2.655-2.076-4.095-2.345c-1.43-0.271-2.573,0.017-3.418,0.862c-0.851,0.851-1.133,1.988-0.868,3.424   c0.275,1.434,1.059,2.797,2.351,4.089C104.643,274.461,105.965,275.228,107.314,275.465z M181.784,266.899   c3.471,3.471,5.38,7.414,5.727,11.828c0.35,4.417-1.012,8.163-4.092,11.243c-3.074,3.074-6.834,4.422-11.28,4.043   c-4.446-0.379-8.389-2.288-11.828-5.727c-3.443-3.443-5.352-7.385-5.73-11.831c-0.375-4.442,0.972-8.203,4.047-11.277   c3.08-3.08,6.84-4.428,11.283-4.052C174.356,261.504,178.313,263.427,181.784,266.899z M172.021,282.923   c1.353,0.241,2.463-0.079,3.332-0.948c0.875-0.875,1.207-1.997,0.99-3.373c-0.214-1.373-0.965-2.703-2.261-3.999   c-1.292-1.292-2.655-2.076-4.089-2.351c-1.43-0.271-2.573,0.017-3.424,0.868c-0.845,0.845-1.133,1.988-0.862,3.418   c0.275,1.434,1.053,2.803,2.345,4.095C169.347,281.928,170.666,282.691,172.021,282.923z"/>
	<path style="fill:#1C75A1;" d="M238.67,216.274c0.957,11.22-2.318,20.584-9.826,28.092c-7.508,7.508-16.872,10.783-28.092,9.826   c-11.222-0.948-21.363-5.957-30.42-15.014c-9.057-9.057-14.063-19.194-15.014-30.42c-0.957-11.22,2.318-20.584,9.826-28.092   c7.508-7.508,16.872-10.783,28.092-9.826c11.22,0.957,21.363,5.957,30.42,15.014C232.714,194.911,237.717,205.058,238.67,216.274z    M212.148,197.448c-5.496-5.496-11.642-8.734-18.426-9.712c-6.793-0.976-12.306,0.653-16.544,4.892   c-4.239,4.239-5.867,9.752-4.886,16.539c0.972,6.789,4.21,12.936,9.706,18.432c5.503,5.503,11.632,8.723,18.392,9.667   c6.755,0.949,12.253-0.694,16.492-4.932c4.239-4.239,5.882-9.737,4.938-16.498C220.871,209.08,217.651,202.952,212.148,197.448z"/>
	<path style="fill:#1C75A1;" d="M237.668,110.965l12.087,12.087l-23.535,23.535l13.322,13.322l22.37-22.37L274,149.626l-22.37,22.37   l24.174,24.174l-11.333,11.333L202.8,145.832L237.668,110.965z"/>
	<path style="fill:#1C75A1;" d="M282.13,66.502l12.087,12.087l-23.535,23.535l13.322,13.322l22.37-22.37l12.087,12.087l-22.37,22.37   l24.174,24.174l-11.333,11.333l-61.671-61.671L282.13,66.502z"/>
</g>
<g>
</g>
<g>
</g>
<g>
</g>
<g>
</g>
<g>
</g>
<g>
</g>
<g>
</g>
<g>
</g>
<g>
</g>
<g>
</g>
<g>
</g>
<g>
</g>
<g>
</g>
<g>
</g>
<g>
</g>
</svg>
