<?xml version="1.0" encoding="iso-8859-1"?>
<!-- Generator: Adobe Illustrator 19.0.0, SVG Export Plug-In . SVG Version: 6.00 Build 0)  -->
<svg xmlns="http://www.w3.org/2000/svg" xmlns:xlink="http://www.w3.org/1999/xlink" version="1.1" id="Capa_1" x="0px" y="0px" viewBox="0 0 409.6 409.6" style="enable-background:new 0 0 409.6 409.6;" xml:space="preserve">
<path style="fill:#F6C358;" d="M260.188,249.244h-0.005v-37.23H149.416v37.23l-22.735,5.815  c4.879,38.803,37.993,68.819,78.12,68.819c40.125,0,73.241-30.016,78.118-68.82L260.188,249.244z"/>
<path style="fill:#FCD462;" d="M284.948,110.601c-1.214-3.593-9.018-51.98-10.645-55.283H127.888  c-1.628,3.303-2.022,51.689-3.236,55.283c-10.641,0.012-19.264,8.967-19.264,25.427c0,16.021,8.169,33.244,18.417,34.175  c10.925,39.745,43.051,72.02,80.995,72.02c37.944,0,70.07-32.275,80.995-72.02c10.248-0.931,18.417-18.154,18.417-34.175  C304.212,119.568,295.589,110.614,284.948,110.601z"/>
<path style="fill:#64798A;" d="M292.411,34.643c0,0-12.847-26.234-87.947-26.631c-75.102,0.397-87.949,26.631-87.949,26.631  c-6.749,15.117,3.191,89.877,3.191,89.877l8.749-26.646c3.801-12.72,13.118-15.117,13.118-15.117h60.646  c3.248,0,6.433-0.896,9.204-2.591l29.563-18.081c-1.462,10.004-3.688,21.005,2.784,20.671h23.584c0,0,9.316,2.397,13.116,15.117  l8.749,26.646C289.22,124.52,299.161,49.76,292.411,34.643z"/>
<path style="fill:#27A2DB;" d="M370.574,311.756c-1.195-20.719-15.661-38.283-35.768-43.426l-40.7-10.41  c-6.28,44.244-44.416,77.432-89.306,77.432c-44.891,0-83.026-33.187-89.306-77.431l-40.7,10.41  c-20.107,5.143-34.573,22.706-35.768,43.426L33.383,409.6h342.833L370.574,311.756z"/>
<path style="fill:#2D93BA;" d="M204.8,335.351c44.89,0,83.026-33.187,89.306-77.432l-11.188-2.862  c-4.878,38.804-37.992,68.82-78.118,68.82c-40.126,0-73.241-30.016-78.118-68.819l-11.187,2.861  C121.774,302.165,159.91,335.351,204.8,335.351z"/>
<path style="fill:#2F4859;" d="M318.262,130.741h-7.302v-17.309c0-58.52-47.61-106.13-106.137-106.13  c-58.52,0-106.13,47.61-106.13,106.13v17.309h-7.302v-17.309C91.392,50.887,142.275,0,204.824,0s113.438,50.887,113.438,113.431  V130.741z"/>
<path style="fill:#3A556A;" d="M82.48,143.187c0,13.878,11.25,25.127,25.128,25.127v-50.255  C93.731,118.059,82.48,129.309,82.48,143.187z"/>
<path style="fill:#2F4859;" d="M114.955,108.28c-4.86,0-8.8,3.94-8.8,8.8v51.712c0,4.86,3.939,8.8,8.8,8.8  c4.86,0,8.801-3.94,8.801-8.8V117.08C123.756,112.22,119.815,108.28,114.955,108.28z"/>
<path style="fill:#3A556A;" d="M327.172,142.686c0-13.878-11.25-25.127-25.128-25.127v50.255  C315.922,167.814,327.172,156.564,327.172,142.686z"/>
<path style="fill:#2F4859;" d="M294.697,177.593c4.86,0,8.8-3.94,8.8-8.8V117.08c0-4.86-3.939-8.8-8.8-8.8  c-4.86,0-8.801,3.94-8.801,8.8v51.712C285.896,173.652,289.837,177.593,294.697,177.593z"/>
<path style="fill:#64798A;" d="M313.566,137.499c-4.818,0-8.762,3.943-8.762,8.762c0,1.759,0.656,3.307,1.558,4.684  c-9.439,11.222-34.497,37.454-71.839,51.202c-2.731-4.02-7.835-5.982-12.699-4.427l-15.555,4.971  c-5.922,1.892-9.189,8.228-7.298,14.15c1.893,5.923,8.229,9.189,14.152,7.296l15.553-4.97c4.524-1.446,7.478-5.486,7.786-9.951  c40.462-14.645,66.771-42.867,76.214-54.373c0.307,0.033,0.574,0.18,0.89,0.18c4.891,0,8.762-3.943,8.762-8.762  C322.327,141.442,318.457,137.499,313.566,137.499z"/>
<g>
</g>
<g>
</g>
<g>
</g>
<g>
</g>
<g>
</g>
<g>
</g>
<g>
</g>
<g>
</g>
<g>
</g>
<g>
</g>
<g>
</g>
<g>
</g>
<g>
</g>
<g>
</g>
<g>
</g>
</svg>
