<?xml version="1.0" encoding="iso-8859-1"?>
<!-- Generator: Adobe Illustrator 19.0.0, SVG Export Plug-In . SVG Version: 6.00 Build 0)  -->
<svg xmlns="http://www.w3.org/2000/svg" xmlns:xlink="http://www.w3.org/1999/xlink" version="1.1" id="Capa_1" x="0px" y="0px" viewBox="0 0 409.6 409.6" style="enable-background:new 0 0 409.6 409.6;" xml:space="preserve">
<rect y="0" style="fill:#FCD462;" width="409.6" height="409.6"/>
<path style="fill:#E56353;" d="M0,78.191v24.877c0,16.158,13.098,29.257,29.256,29.257l0,0c16.16,0,29.258-13.099,29.258-29.257  V78.191H0z"/>
<path style="fill:#EBF0F3;" d="M58.515,78.191v24.877c0,16.158,13.098,29.257,29.256,29.257s29.258-13.099,29.258-29.257V78.191  H58.515z"/>
<path style="fill:#E56353;" d="M117.029,78.191v24.877c0,16.158,13.098,29.257,29.256,29.257s29.258-13.099,29.258-29.257V78.191  H117.029z"/>
<path style="fill:#EBF0F3;" d="M175.544,78.191v24.877c0,16.158,13.098,29.257,29.256,29.257s29.256-13.099,29.256-29.257V78.191  H175.544z"/>
<path style="fill:#E56353;" d="M234.056,78.191v24.877c0,16.158,13.1,29.257,29.258,29.257c16.158,0,29.256-13.099,29.256-29.257  V78.191H234.056z"/>
<path style="fill:#EBF0F3;" d="M292.571,78.191v24.877c0,16.158,13.1,29.257,29.258,29.257c16.158,0,29.256-13.099,29.256-29.257  V78.191H292.571z"/>
<path style="fill:#E56353;" d="M351.086,78.191v24.877c0,16.158,13.098,29.257,29.258,29.257c16.156,0,29.256-13.099,29.256-29.257  V78.191H351.086z"/>
<rect y="0" style="fill:#D15241;" width="58.516" height="78.193"/>
<rect x="58.516" y="0" style="fill:#E1E6E9;" width="58.516" height="78.193"/>
<rect x="117.028" y="0" style="fill:#D15241;" width="58.516" height="78.193"/>
<rect x="175.565" y="0" style="fill:#E1E6E9;" width="58.516" height="78.193"/>
<rect x="234.056" y="0" style="fill:#D15241;" width="58.516" height="78.193"/>
<rect x="292.557" y="0" style="fill:#E1E6E9;" width="58.516" height="78.193"/>
<rect x="351.078" y="0" style="fill:#D15241;" width="58.516" height="78.193"/>
<path style="fill:#DC8744;" d="M91.935,159.112c-36.182,0-65.515,29.332-65.515,65.515V409.6h131.031V224.627  C157.451,188.444,128.118,159.112,91.935,159.112z"/>
<circle style="fill:#EBF0F3;" cx="134.093" cy="299.264" r="9.001"/>
<rect x="193.024" y="216.166" style="fill:#DC8744;" width="187.32" height="143.35"/>
<g>
	<rect x="207.913" y="231.014" style="fill:#EBF0F3;" width="71.322" height="113.562"/>
	<rect x="294.144" y="231.014" style="fill:#EBF0F3;" width="71.322" height="113.562"/>
</g>
<g>
	<polygon style="fill:#E1E6E9;" points="346.847,231.036 311.187,344.596 319.399,344.596 355.059,231.036  "/>
	<polygon style="fill:#E1E6E9;" points="340.18,231.036 304.52,344.596 307,344.596 342.66,231.036  "/>
	<polygon style="fill:#E1E6E9;" points="260.633,231.036 224.972,344.596 233.185,344.596 268.845,231.036  "/>
	<polygon style="fill:#E1E6E9;" points="253.965,231.036 218.305,344.596 220.786,344.596 256.446,231.036  "/>
</g>
<g>
</g>
<g>
</g>
<g>
</g>
<g>
</g>
<g>
</g>
<g>
</g>
<g>
</g>
<g>
</g>
<g>
</g>
<g>
</g>
<g>
</g>
<g>
</g>
<g>
</g>
<g>
</g>
<g>
</g>
</svg>
