<?xml version="1.0" encoding="iso-8859-1"?>
<!-- Generator: Adobe Illustrator 19.0.0, SVG Export Plug-In . SVG Version: 6.00 Build 0)  -->
<svg xmlns="http://www.w3.org/2000/svg" xmlns:xlink="http://www.w3.org/1999/xlink" version="1.1" id="Capa_1" x="0px" y="0px" viewBox="0 0 409.583 409.583" style="enable-background:new 0 0 409.583 409.583;" xml:space="preserve">
<g>
	<path style="fill:#EBF0F3;" d="M41.933,273.011l-10.038,40.938c-1.123,4.582,0.493,8.87,3.803,10.088   c3.31,1.218,7.32-1,9.434-5.218l18.887-37.682L41.933,273.011z"/>
	<path style="fill:#EBF0F3;" d="M367.649,273.011l10.038,40.938c1.123,4.582-0.492,8.87-3.803,10.088   c-3.31,1.218-7.32-1-9.434-5.218l-18.887-37.682L367.649,273.011z"/>
</g>
<path style="fill:#FCD462;" d="M181.693,85.214H50.762c-12.759,0-23.102,10.343-23.102,23.102v147.673h177.134V108.316  C204.795,95.557,194.452,85.214,181.693,85.214z"/>
<path style="fill:#F6C358;" d="M74.354,112.073c0,9.23-7.482,16.711-16.71,16.711v0.001c9.228,0,16.71,7.481,16.71,16.711  c0-9.23,7.482-16.711,16.713-16.711v-0.001C81.836,128.784,74.354,121.302,74.354,112.073z"/>
<circle style="fill:#DC8744;" cx="74.354" cy="128.759" r="4.444"/>
<path style="fill:#F6C358;" d="M158.098,112.073c0,9.23-7.482,16.711-16.71,16.711v0.001c9.228,0,16.71,7.481,16.71,16.711  c0-9.23,7.482-16.711,16.713-16.711v-0.001C165.581,128.784,158.098,121.302,158.098,112.073z"/>
<circle style="fill:#DC8744;" cx="158.102" cy="128.759" r="4.444"/>
<path style="fill:#F6C358;" d="M74.354,195.708c0,9.23-7.482,16.711-16.71,16.711v0.001c9.228,0,16.71,7.481,16.71,16.711  c0-9.23,7.482-16.711,16.713-16.711v-0.001C81.836,212.419,74.354,204.938,74.354,195.708z"/>
<circle style="fill:#DC8744;" cx="74.354" cy="212.42" r="4.444"/>
<path style="fill:#F6C358;" d="M158.098,195.708c0,9.23-7.482,16.711-16.71,16.711v0.001c9.228,0,16.71,7.481,16.71,16.711  c0-9.23,7.482-16.711,16.713-16.711v-0.001C165.581,212.419,158.098,204.938,158.098,195.708z"/>
<circle style="fill:#DC8744;" cx="158.102" cy="212.42" r="4.444"/>
<path style="fill:#F6C358;" d="M116.226,153.89c0,9.23-7.482,16.711-16.71,16.711v0.001c9.228,0,16.71,7.481,16.71,16.711  c0-9.23,7.482-16.711,16.713-16.711v-0.001C123.708,170.601,116.226,163.12,116.226,153.89z"/>
<circle style="fill:#DC8744;" cx="116.226" cy="170.59" r="4.444"/>
<path style="fill:#FCD462;" d="M358.827,85.214h-130.93c-12.759,0-23.102,10.343-23.102,23.102v147.673h177.134V108.316  C381.929,95.557,371.586,85.214,358.827,85.214z"/>
<path style="fill:#F6C358;" d="M251.488,112.073c0,9.23-7.482,16.711-16.71,16.711v0.001c9.228,0,16.71,7.481,16.71,16.711  c0-9.23,7.482-16.711,16.713-16.711v-0.001C258.97,128.784,251.488,121.302,251.488,112.073z"/>
<circle style="fill:#DC8744;" cx="251.486" cy="128.759" r="4.444"/>
<path style="fill:#F6C358;" d="M335.232,112.073c0,9.23-7.482,16.711-16.71,16.711v0.001c9.228,0,16.71,7.481,16.71,16.711  c0-9.23,7.482-16.711,16.713-16.711v-0.001C342.715,128.784,335.232,121.302,335.232,112.073z"/>
<circle style="fill:#DC8744;" cx="335.249" cy="128.759" r="4.444"/>
<path style="fill:#F6C358;" d="M251.488,195.708c0,9.23-7.482,16.711-16.71,16.711v0.001c9.228,0,16.71,7.481,16.71,16.711  c0-9.23,7.482-16.711,16.713-16.711v-0.001C258.97,212.419,251.488,204.938,251.488,195.708z"/>
<circle style="fill:#DC8744;" cx="251.486" cy="212.42" r="4.444"/>
<path style="fill:#F6C358;" d="M335.232,195.708c0,9.23-7.482,16.711-16.71,16.711v0.001c9.228,0,16.71,7.481,16.71,16.711  c0-9.23,7.482-16.711,16.713-16.711v-0.001C342.715,212.419,335.232,204.938,335.232,195.708z"/>
<circle style="fill:#DC8744;" cx="335.249" cy="212.42" r="4.444"/>
<path style="fill:#F6C358;" d="M293.36,153.89c0,9.23-7.482,16.711-16.71,16.711v0.001c9.228,0,16.71,7.481,16.71,16.711  c0-9.23,7.482-16.711,16.713-16.711v-0.001C300.842,170.601,293.36,163.12,293.36,153.89z"/>
<g>
	<circle style="fill:#DC8744;" cx="293.367" cy="170.59" r="4.444"/>
	<path style="fill:#DC8744;" d="M401.088,167.767h-29.68c-4.691,0-8.494,3.803-8.494,8.494v64.434   c-55.298-5.812-108.232-6.323-158.118,0c-53.907-7.867-106.664-8.247-158.096,0v-64.434c0-4.691-3.803-8.494-8.494-8.494H8.494   c-4.691,0-8.494,3.803-8.494,8.494v93.742c0,9.589,7.773,17.362,17.362,17.362h374.859c9.589,0,17.362-7.773,17.362-17.362v-93.742   C409.583,171.57,405.78,167.767,401.088,167.767z"/>
</g>
<g>
	<path style="fill:#F6C358;" d="M23.344,179.691c-6.301,0-11.409,5.108-11.409,11.409v52.039c0,6.301,5.108,11.409,11.409,11.409   s11.409-5.108,11.409-11.409v-52.039C34.753,184.799,29.645,179.691,23.344,179.691z"/>
	<path style="fill:#F6C358;" d="M386.246,179.691c-6.301,0-11.409,5.108-11.409,11.409v52.039c0,6.301,5.108,11.409,11.409,11.409   c6.301,0,11.409-5.108,11.409-11.409v-52.039C397.655,184.799,392.547,179.691,386.246,179.691z"/>
	<path style="fill:#F6C358;" d="M178.294,264.404c0-6.301-5.108-11.409-11.409-11.409H65.57c-6.301,0-11.409,5.108-11.409,11.409   c0,6.301,5.108,11.409,11.409,11.409h101.315C173.186,275.812,178.294,270.704,178.294,264.404z"/>
	<path style="fill:#F6C358;" d="M355.428,264.404c0-6.301-5.108-11.409-11.409-11.409H242.704c-6.301,0-11.409,5.108-11.409,11.409   c0,6.301,5.108,11.409,11.409,11.409h101.315C350.32,275.812,355.428,270.704,355.428,264.404z"/>
</g>
<g>
</g>
<g>
</g>
<g>
</g>
<g>
</g>
<g>
</g>
<g>
</g>
<g>
</g>
<g>
</g>
<g>
</g>
<g>
</g>
<g>
</g>
<g>
</g>
<g>
</g>
<g>
</g>
<g>
</g>
</svg>
