<?xml version="1.0" encoding="iso-8859-1"?>
<!-- Generator: Adobe Illustrator 19.0.0, SVG Export Plug-In . SVG Version: 6.00 Build 0)  -->
<svg xmlns="http://www.w3.org/2000/svg" xmlns:xlink="http://www.w3.org/1999/xlink" version="1.1" id="Capa_1" x="0px" y="0px" viewBox="0 0 409.6 409.6" style="enable-background:new 0 0 409.6 409.6;" xml:space="preserve">
<rect style="fill:#2D93BA;" width="140.175" height="333.978"/>
<rect x="140.186" style="fill:#1C75A1;" width="140.17" height="333.978"/>
<polygon style="fill:#27A2DB;" points="280.347,334.001 0,334.001 140.173,269.281 "/>
<g>
	<circle style="fill:#29897B;" cx="75.597" cy="28.631" r="9.303"/>
	<circle style="fill:#29897B;" cx="204.749" cy="28.631" r="9.303"/>
</g>
<path style="fill:#096589;" d="M140.171,143.97c-38.957,0-70.649-33.379-70.649-74.406V26.04h12.146v43.523  c0,34.331,26.242,62.261,58.504,62.261s58.504-27.929,58.504-62.261V26.04h12.146v43.523  C210.82,110.59,179.128,143.97,140.171,143.97z"/>
<path style="fill:#FFFFFF;" d="M140.171,137.82c-38.957,0-70.649-31.692-70.649-70.649V26.04h12.146v41.13  c0,32.259,26.242,58.504,58.504,58.504s58.504-26.245,58.504-58.504V26.04h12.146v41.13  C210.82,106.128,179.128,137.82,140.171,137.82z"/>
<path style="fill:#3A556A;" d="M406.372,271.644v127.241c0,5.947-4.821,10.715-10.715,10.715H225.128  c-12.161,0-22.073-9.858-22.073-22.073V238.856c0-12.161,9.858-22.073,22.073-22.073h148.778c5.947,0,10.715,4.768,10.715,10.715  v33.431h11.036C401.551,260.929,406.372,265.697,406.372,271.644z"/>
<path style="fill:#64798A;" d="M226.094,260.586c-9.056,0-16.779-7.606-17.585-17.313c-0.455-5.512,1.057-10.781,4.264-14.837  c3.165-4.002,7.675-6.298,12.374-6.298h148.786c2.956,0,5.358,2.765,5.358,6.162v32.285H226.094z"/>
<path style="fill:#DC8744;" d="M203.074,236.529v2.323c0-0.796,0.152-1.549,0.234-2.323H203.074z"/>
<path style="fill:#FCD462;" d="M300.224,260.586c7.968-8.011,12.897-19.048,12.897-31.24c0-24.468-19.836-44.303-44.304-44.303  c-24.467,0-44.303,19.835-44.303,44.303c0,12.192,4.928,23.229,12.897,31.24H300.224z"/>
<g>
	<path style="fill:#F6C358;" d="M246.977,260.586h8.629c-12.159-5.161-20.708-17.22-20.708-31.24   c0-18.704,15.216-33.919,33.919-33.919s33.919,15.216,33.919,33.919c0,14.02-8.549,26.079-20.708,31.24h8.627   c9.847-6.897,16.3-18.306,16.3-31.24c0-21.063-17.076-38.139-38.14-38.139c-21.063,0-38.138,17.075-38.138,38.139   C230.678,242.28,237.132,253.69,246.977,260.586z"/>
	<path style="fill:#F6C358;" d="M267.504,254.103v-4.36c-5.458-0.559-10.357-2.727-14.693-6.513l4.36-5.196   c3.344,2.906,6.785,4.642,10.333,5.196v-11.587c-4.501-1.074-7.796-2.484-9.886-4.238c-2.09-1.75-3.135-4.35-3.135-7.796   c0-3.441,1.201-6.26,3.611-8.447c2.411-2.192,5.546-3.388,9.41-3.587v-2.984h3.82v3.047c4.379,0.316,8.52,1.813,12.423,4.476   l-3.883,5.497c-2.629-1.871-5.473-3.028-8.54-3.465v11.227h0.18c4.578,1.074,7.942,2.532,10.09,4.36   c2.153,1.832,3.227,4.491,3.227,7.976c0,3.485-1.235,6.318-3.704,8.51c-2.469,2.187-5.73,3.383-9.794,3.582v4.301H267.504z    M263.291,215.551c-1.016,0.894-1.521,2.012-1.521,3.344c0,1.337,0.399,2.386,1.196,3.164c0.792,0.778,2.309,1.526,4.54,2.241   v-10.333C265.711,214.126,264.306,214.656,263.291,215.551z M275.864,241.738c1.113-0.914,1.672-2.071,1.672-3.465   c0-1.39-0.437-2.498-1.312-3.315c-0.88-0.812-2.513-1.58-4.899-2.299v10.751C273.235,243.211,274.746,242.657,275.864,241.738z"/>
</g>
<polygon style="fill:#44C4A1;" points="393.321,260.586 401.008,253.711 339,168.285 235.79,260.586 "/>
<g>
	<path style="fill:#3EA69B;" d="M256.839,260.586l73.99-66.17c2.746,3.783,7.735,4.379,11.143,1.331l35.491,48.895   c-3.408,3.048-3.945,8.586-1.198,12.368l-3.998,3.576h8.421l9.177-8.207L337.8,180.652l-89.382,79.934H256.839z"/>
	<path style="fill:#3EA69B;" d="M284.972,260.586h6.995c0.245-1.501,1.015-2.957,2.328-4.364l3.168,4.364h5.03l-5.032-6.933   c2.73-1.802,5.745-2.807,9.048-3.026l-0.435-7.645c-4.83,0.426-9.099,2.057-12.799,4.904l-1.961-2.701l-3.05,2.728l1.92,2.645   c-2.957,2.936-4.691,6.234-5.206,9.898C284.972,260.5,284.978,260.542,284.972,260.586z"/>
	<path style="fill:#3EA69B;" d="M354.063,225.252c2.062,2.84,1.659,6.998-0.9,9.286c-2.559,2.288-6.304,1.841-8.366-0.999   s-1.659-6.998,0.9-9.286S352.002,222.412,354.063,225.252z"/>
</g>
<path style="fill:#64798A;" d="M225.147,404.258c-9.219,0-16.716-7.5-16.716-16.716V260.586c4.63,3.571,10.432,5.695,16.716,5.695  H395.65c2.956,0,5.358,2.404,5.358,5.358v127.262c0,2.953-2.401,5.358-5.358,5.358H225.147z"/>
<path style="fill:#3A556A;" d="M368.334,316.371c-8.865,0-16.051,7.186-16.051,16.051v0c0,8.865,7.187,16.051,16.051,16.051H409.6  v-32.102H368.334z"/>
<circle style="fill:#2F4859;" cx="368.794" cy="332.421" r="11.73"/>
<path style="fill:#64798A;" d="M374.195,325.649c0.822,1.328,1.318,2.879,1.318,4.555c0,4.803-3.893,8.697-8.697,8.697  c-2.049,0-3.907-0.738-5.394-1.924c1.532,2.477,4.251,4.142,7.378,4.142c4.803,0,8.697-3.894,8.697-8.697  C377.498,329.668,376.193,327.243,374.195,325.649z"/>
<g>
</g>
<g>
</g>
<g>
</g>
<g>
</g>
<g>
</g>
<g>
</g>
<g>
</g>
<g>
</g>
<g>
</g>
<g>
</g>
<g>
</g>
<g>
</g>
<g>
</g>
<g>
</g>
<g>
</g>
</svg>
