<?xml version="1.0" encoding="iso-8859-1"?>
<!-- Generator: Adobe Illustrator 19.0.0, SVG Export Plug-In . SVG Version: 6.00 Build 0)  -->
<svg xmlns="http://www.w3.org/2000/svg" xmlns:xlink="http://www.w3.org/1999/xlink" version="1.1" id="Capa_1" x="0px" y="0px" viewBox="0 0 409.596 409.596" style="enable-background:new 0 0 409.596 409.596;" xml:space="preserve">
<rect x="0.001" y="395.214" style="fill:#3A556A;" width="350.362" height="14.382"/>
<polygon style="fill:#64798A;" points="308.696,345.403 41.662,345.403 0.002,395.221 350.356,395.221 "/>
<rect x="21.9" y="144.078" style="fill:#27A2DB;" width="306.56" height="239.432"/>
<rect x="201.525" y="226.714" style="fill:#FFFFFF;" width="108.493" height="97.208"/>
<g>
	<rect x="258.715" y="233.063" style="fill:#E1E6E9;" width="44.918" height="39.06"/>
	<rect x="207.873" y="233.063" style="fill:#E1E6E9;" width="44.918" height="39.06"/>
	<rect x="258.715" y="278.529" style="fill:#E1E6E9;" width="44.918" height="39.06"/>
	<rect x="207.873" y="278.529" style="fill:#E1E6E9;" width="44.918" height="39.06"/>
</g>
<rect x="43.798" y="215.246" style="fill:#FFFFFF;" width="110.751" height="168.243"/>
<rect x="50.587" y="222.874" style="fill:#FCD462;" width="97.162" height="160.599"/>
<rect x="21.9" y="144.078" style="opacity:0.15;enable-background:new    ;" width="306.56" height="102.374"/>
<path style="fill:#D5D6DB;" d="M0.002,157.852v21.897c0,12.093,9.804,21.897,21.897,21.897c12.094,0,21.897-9.804,21.897-21.897  v-21.897H0.002z"/>
<path style="fill:#CE412D;" d="M43.796,157.852v21.897c0,12.093,9.804,21.897,21.897,21.897c12.094,0,21.897-9.804,21.897-21.897  v-21.897H43.796z"/>
<path style="fill:#D5D6DB;" d="M87.59,157.852v21.897c0,12.093,9.804,21.897,21.897,21.897c12.094,0,21.897-9.804,21.897-21.897  v-21.897H87.59z"/>
<path style="fill:#CE412D;" d="M131.384,157.852v21.897c0,12.093,9.804,21.897,21.897,21.897c12.094,0,21.897-9.804,21.897-21.897  v-21.897H131.384z"/>
<path style="fill:#D5D6DB;" d="M175.179,157.852v21.897c0,12.093,9.804,21.897,21.897,21.897c12.094,0,21.897-9.804,21.897-21.897  v-21.897H175.179z"/>
<path style="fill:#CE412D;" d="M218.973,157.852v21.897c0,12.093,9.804,21.897,21.897,21.897c12.094,0,21.897-9.804,21.897-21.897  v-21.897H218.973z"/>
<path style="fill:#D5D6DB;" d="M262.767,157.852v21.897c0,12.093,9.804,21.897,21.897,21.897c12.094,0,21.897-9.804,21.897-21.897  v-21.897H262.767z"/>
<path style="fill:#CE412D;" d="M306.561,157.852v21.897c0,12.093,9.804,21.897,21.897,21.897c12.094,0,21.897-9.804,21.897-21.897  v-21.897H306.561z"/>
<polygon style="fill:#EBF0F3;" points="73.738,103.535 39.925,103.535 0.002,157.852 43.796,157.852 "/>
<polygon style="fill:#E56353;" points="107.552,103.535 73.738,103.535 43.796,157.852 87.59,157.852 "/>
<polygon style="fill:#EBF0F3;" points="141.365,103.535 107.552,103.535 87.59,157.852 131.384,157.852 "/>
<polygon style="fill:#E56353;" points="175.179,103.535 141.365,103.535 131.384,157.852 175.179,157.852 "/>
<polygon style="fill:#EBF0F3;" points="208.992,103.535 175.179,103.535 175.179,157.852 218.973,157.852 "/>
<polygon style="fill:#E56353;" points="242.805,103.535 208.992,103.535 218.973,157.852 262.767,157.852 "/>
<polygon style="fill:#EBF0F3;" points="276.619,103.535 242.805,103.535 262.767,157.852 306.561,157.852 "/>
<polygon style="fill:#E56353;" points="310.432,103.535 276.619,103.535 306.561,157.852 350.355,157.852 "/>
<circle style="fill:#FFFFFF;" cx="137.171" cy="303.822" r="5.791"/>
<rect x="188.112" y="33.329" transform="matrix(-0.9298 -0.3681 0.3681 -0.9298 525.4753 293.9066)" style="fill:#FCD462;" width="205.313" height="127.017"/>
<g>
	<path style="fill:#E56353;" d="M358.664,184.013l-177.058-70.097L222.879,9.665l177.058,70.097L358.664,184.013z M191.272,109.733   l163.209,64.615l35.79-90.402L227.062,19.331L191.272,109.733z"/>
	<path style="fill:#E56353;" d="M240.316,100.066c-5.867,3.881-11.553,4.735-17.061,2.554s-9.075-6.698-10.696-13.544   c-1.621-6.846-0.837-14.274,2.332-22.279c3.171-8.011,7.683-13.957,13.55-17.838c5.867-3.881,11.56-4.732,17.068-2.552   c5.508,2.181,9.068,6.695,10.689,13.541c1.621,6.846,0.847,14.271-2.325,22.282C250.704,90.236,246.184,96.185,240.316,100.066z    M249.203,64.24c-1.009-4.837-3.345-7.981-7.017-9.434c-3.672-1.454-7.535-0.764-11.574,2.074   c-4.046,2.836-7.147,6.987-9.312,12.456s-2.746,10.618-1.737,15.455c1.001,4.834,3.345,7.981,7.017,9.434   c3.672,1.454,7.528,0.761,11.574-2.074s7.147-6.987,9.312-12.456C249.63,74.225,250.211,69.076,249.203,64.24z"/>
	<path style="fill:#E56353;" d="M295.497,73.216c1.327,4.18,0.687,9.563-1.92,16.146c-2.607,6.584-5.832,10.881-9.671,12.9   c-3.837,2.014-8.483,1.947-13.92-0.205l-6.567-2.6l-6.309,15.937l-6.25-2.474l21.516-54.346l12.709,5.031   C290.701,65.828,294.173,69.03,295.497,73.216z M282.196,93.896c2.023-1.449,3.779-4.054,5.266-7.811   c1.487-3.757,1.748-6.728,0.771-8.912c-0.976-2.183-3.158-3.952-6.542-5.292l-6.358-2.517l-8.619,21.77l7.258,2.873   C277.429,95.377,280.175,95.34,282.196,93.896z"/>
	<path style="fill:#E56353;" d="M334.616,83.214l-3.416,8.629l-19.758-7.822l-5.694,14.383l17.742,7.024l-3.232,8.164l-17.742-7.024   l-5.757,14.542l20.391,8.073l-3.416,8.629l-26.641-10.547l21.516-54.346L334.616,83.214z"/>
	<path style="fill:#E56353;" d="M371.006,97.621l6.25,2.474l-21.516,54.346l-6.783-2.685l-5.277-47.955l-15.698,39.651l-6.25-2.474   l21.516-54.346l6.25,2.474l5.439,49.101L371.006,97.621z"/>
</g>
<g>
</g>
<g>
</g>
<g>
</g>
<g>
</g>
<g>
</g>
<g>
</g>
<g>
</g>
<g>
</g>
<g>
</g>
<g>
</g>
<g>
</g>
<g>
</g>
<g>
</g>
<g>
</g>
<g>
</g>
</svg>
