<?xml version="1.0" encoding="iso-8859-1"?>
<!-- Generator: Adobe Illustrator 19.0.0, SVG Export Plug-In . SVG Version: 6.00 Build 0)  -->
<svg xmlns="http://www.w3.org/2000/svg" xmlns:xlink="http://www.w3.org/1999/xlink" version="1.1" id="Capa_1" x="0px" y="0px" viewBox="0 0 409.6 409.6" style="enable-background:new 0 0 409.6 409.6;" xml:space="preserve">
<polygon style="fill:#44C4A1;" points="376.334,409.6 33.266,408.969 95.772,303.796 314.215,304.198 "/>
<polygon style="fill:#E1E6E9;" points="289.854,304.153 175.486,303.943 168.494,347.166 "/>
<polygon style="fill:#27A2DB;" points="142.418,303.882 95.772,303.796 43.713,391.392 122.035,363.632 "/>
<polygon style="fill:#EAAF47;" points="106.176,394.679 367.823,395.16 355.499,374.249 158.006,373.886 221.437,349.159   340.841,349.379 332.161,334.65 259.002,334.516 318.429,311.349 314.214,304.198 289.854,304.153 168.494,347.166 175.486,303.943   142.418,303.882 122.035,363.632 43.713,391.392 33.266,408.969 67.847,409.033 106.423,393.995 "/>
<path style="fill:#27A2DB;" d="M320.574,136.406c0,88.083-126.288,211.188-126.288,211.188S67.998,219.183,67.998,136.406  c0-69.747,56.541-126.288,126.288-126.288S320.574,66.659,320.574,136.406z"/>
<circle style="fill:#1C75A1;" cx="194.284" cy="136.407" r="70.784"/>
<path style="fill:#D5D6DB;" d="M35.958,89.121v19.791c0,10.93,8.861,19.791,19.791,19.791c10.931,0,19.791-8.861,19.791-19.791  V89.121H35.958z"/>
<path style="fill:#CE412D;" d="M75.54,89.121v19.791c0,10.93,8.861,19.791,19.791,19.791c10.931,0,19.791-8.861,19.791-19.791  V89.121H75.54z"/>
<path style="fill:#D5D6DB;" d="M115.122,89.121v19.791c0,10.93,8.861,19.791,19.791,19.791c10.931,0,19.791-8.861,19.791-19.791  V89.121H115.122z"/>
<path style="fill:#CE412D;" d="M154.704,89.121v19.791c0,10.93,8.861,19.791,19.791,19.791c10.931,0,19.791-8.861,19.791-19.791  V89.121H154.704z"/>
<path style="fill:#D5D6DB;" d="M194.286,89.121v19.791c0,10.93,8.861,19.791,19.791,19.791c10.931,0,19.791-8.861,19.791-19.791  V89.121H194.286z"/>
<path style="fill:#CE412D;" d="M233.868,89.121v19.791c0,10.93,8.861,19.791,19.791,19.791c10.931,0,19.791-8.861,19.791-19.791  V89.121H233.868z"/>
<path style="fill:#D5D6DB;" d="M273.45,89.121v19.791c0,10.93,8.861,19.791,19.791,19.791c10.93,0,19.791-8.861,19.791-19.791  V89.121H273.45z"/>
<path style="fill:#CE412D;" d="M313.032,89.121v19.791c0,10.93,8.861,19.791,19.791,19.791c10.931,0,19.791-8.861,19.791-19.791  V89.121H313.032z"/>
<polygon style="fill:#EBF0F3;" points="102.602,40.029 72.041,40.029 35.958,89.121 75.54,89.121 "/>
<polygon style="fill:#E56353;" points="133.164,40.029 102.602,40.029 75.54,89.121 115.122,89.121 "/>
<polygon style="fill:#EBF0F3;" points="163.725,40.029 133.164,40.029 115.122,89.121 154.704,89.121 "/>
<polygon style="fill:#E56353;" points="194.286,40.029 163.725,40.029 154.704,89.121 194.286,89.121 "/>
<polygon style="fill:#EBF0F3;" points="224.847,40.029 194.286,40.029 194.286,89.121 233.868,89.121 "/>
<polygon style="fill:#E56353;" points="255.408,40.029 224.847,40.029 233.868,89.121 273.45,89.121 "/>
<polygon style="fill:#EBF0F3;" points="285.97,40.029 255.408,40.029 273.45,89.121 313.032,89.121 "/>
<polygon style="fill:#E56353;" points="316.531,40.029 285.97,40.029 313.032,89.121 352.614,89.121 "/>
<rect x="71.834" style="fill:#3A556A;" width="244.685" height="40.028"/>
<g>
</g>
<g>
</g>
<g>
</g>
<g>
</g>
<g>
</g>
<g>
</g>
<g>
</g>
<g>
</g>
<g>
</g>
<g>
</g>
<g>
</g>
<g>
</g>
<g>
</g>
<g>
</g>
<g>
</g>
</svg>
