<?xml version="1.0" encoding="iso-8859-1"?>
<!-- Generator: Adobe Illustrator 19.0.0, SVG Export Plug-In . SVG Version: 6.00 Build 0)  -->
<svg xmlns="http://www.w3.org/2000/svg" xmlns:xlink="http://www.w3.org/1999/xlink" version="1.1" id="Capa_1" x="0px" y="0px" viewBox="0 0 409.6 409.6" style="enable-background:new 0 0 409.6 409.6;" xml:space="preserve">
<circle style="fill:#64798A;" cx="153.805" cy="379.912" r="29.681"/>
<circle style="fill:#EBF0F3;" cx="153.805" cy="379.912" r="16.65"/>
<circle style="fill:#64798A;" cx="341.914" cy="379.912" r="29.681"/>
<g>
	<circle style="fill:#EBF0F3;" cx="341.914" cy="379.912" r="16.65"/>
	<path style="fill:#EBF0F3;" d="M70.789,97.203v13.029h49.795v21.039H77.546v13.029h43.038v22.636h-33.47v13.029h33.47v22.636   H94.436v13.029h26.148v22.636h-17.139v13.029h17.139v33.843l-7.628,0.744l1.26,12.966l252.963-24.665L409.6,97.203H70.789z    M388.04,131.271h-49.452v-21.039h54.496L388.04,131.271z M236.104,202.601v-22.636h38.216v22.636H236.104z M274.32,215.631v22.636   h-38.216v-22.636H274.32z M236.104,166.936v-22.636h38.216v22.636H236.104z M287.349,144.301h38.21v22.636h-38.21V144.301z    M287.349,131.271v-21.039h38.21v21.039H287.349z M274.32,131.271h-38.216v-21.039h38.216V131.271z M223.075,131.271h-38.216   v-21.039h38.216V131.271z M223.075,144.301v22.636h-38.216v-22.636H223.075z M223.075,179.966v22.636h-38.216v-22.636H223.075z    M223.075,215.631v22.636h-38.216v-22.636H223.075z M223.075,251.296v23.847l-38.216,3.727v-27.574H223.075z M236.104,251.296   h38.216v18.85l-38.216,3.727V251.296z M287.349,251.296h38.21v13.852l-38.21,3.727V251.296z M287.349,238.266v-22.636h38.21v22.636   H287.349z M287.349,202.601v-22.636h38.21v22.636H287.349z M338.588,179.966h37.777l-5.427,22.636h-32.35V179.966z    M338.588,166.936v-22.636h46.328l-5.427,22.636H338.588z M133.613,110.233h38.216v21.039h-38.216V110.233z M133.613,144.301   h38.216v22.636h-38.216V144.301z M133.613,179.966h38.216v22.636h-38.216V179.966z M133.613,215.631h38.216v22.636h-38.216V215.631   z M133.613,251.296h38.216v28.845l-38.216,3.727V251.296z M338.588,263.877v-12.582h20.675l-2.594,10.818L338.588,263.877z    M362.387,238.266h-23.798v-22.636h29.225L362.387,238.266z"/>
</g>
<path style="fill:#1C75A1;" d="M387.809,327.96H113.28c-7.526,0-13.627-6.101-13.627-13.627v-0.808  c0-7.022,5.318-12.975,12.315-13.568c2.377-0.202,4.546-1.421,5.931-3.336c1.355-1.874,1.839-4.243,1.317-6.511L62.862,46.744  H32.707v13.029h19.798l52.855,228.279c-10.987,3.365-18.736,13.503-18.736,25.473v0.808c0,14.722,11.935,26.656,26.656,26.656  h274.529c3.598,0,6.515-2.917,6.515-6.515C394.324,330.877,391.407,327.96,387.809,327.96z"/>
<path style="fill:#E56353;" d="M9.382,43.892C4.2,43.892,0,48.092,0,53.273c0,5.181,4.2,9.382,9.382,9.382h35.006V43.892H9.382z"/>
<circle style="fill:#44C4A1;" cx="314.266" cy="95.322" r="95.314"/>
<polygon style="fill:#FFFFFF;" points="338.531,115.58 338.531,26.888 290.042,26.888 290.042,115.58 266.111,115.58   314.286,163.755 362.462,115.58 "/>
<g>
</g>
<g>
</g>
<g>
</g>
<g>
</g>
<g>
</g>
<g>
</g>
<g>
</g>
<g>
</g>
<g>
</g>
<g>
</g>
<g>
</g>
<g>
</g>
<g>
</g>
<g>
</g>
<g>
</g>
</svg>
