<?xml version="1.0" encoding="iso-8859-1"?>
<!-- Generator: Adobe Illustrator 19.0.0, SVG Export Plug-In . SVG Version: 6.00 Build 0)  -->
<svg xmlns="http://www.w3.org/2000/svg" xmlns:xlink="http://www.w3.org/1999/xlink" version="1.1" id="Capa_1" x="0px" y="0px" viewBox="0 0 409.599 409.599" style="enable-background:new 0 0 409.599 409.599;" xml:space="preserve">
<polygon style="fill:#FFFFFF;" points="257.81,0 246.196,0 204.8,82.792 163.404,0 151.789,0 204.8,106.026 "/>
<path style="fill:#27A2DB;" d="M355.256,39.969C345.974,15.932,322.838,0,297,0h-39.19L204.8,106.026L151.789,0H112.6  C86.762,0,63.625,15.932,54.343,39.969l-38.356,99.662l60.011,29.857l17.206-34.411v274.521h223.191V135.078l17.206,34.411  l60.011-29.857L355.256,39.969z"/>
<g>
	<polygon style="fill:#EBF0F3;" points="11.741,150.664 70.898,179.689 75.998,169.489 15.987,139.632  "/>
	<polygon style="fill:#EBF0F3;" points="333.601,169.489 338.701,179.689 397.858,150.664 393.612,139.632  "/>
	<rect x="93.184" y="382.924" style="fill:#EBF0F3;" width="223.191" height="11.407"/>
</g>
<path style="fill:#FFFFFF;" d="M199.364,280.652c8.529,0,14.816-2.892,18.862-8.675c4.035-5.783,6.108-13.595,6.198-23.413  c-2.298,2.566-5.604,4.976-9.919,7.229c-4.315,2.253-9.089,3.373-14.323,3.373c-8.63,0-15.859-2.869-21.687-8.607  c-5.828-5.738-8.742-13.359-8.742-22.863c0-9.504,3.138-17.148,9.426-22.931c6.287-5.783,14.211-8.675,23.76-8.675  c15.422,0,26.08,6.881,31.953,20.655c3.306,7.901,4.954,16.8,4.954,26.719s-1.054,18.179-3.161,24.791  c-2.118,6.612-5.01,11.846-8.675,15.702c-7.162,7.52-15.959,11.286-26.382,11.286c-10.412,0-19.849-3.25-28.299-9.773l8.125-11.981  c2.118,1.838,4.931,3.486,8.473,4.954C193.458,279.912,196.607,280.652,199.364,280.652z M202.323,244.844  c5.548,0,10.188-1.535,13.909-4.618c3.721-3.071,5.581-7.061,5.581-11.981c0-4.909-1.793-9.134-5.38-12.664  c-3.575-3.542-8.058-5.301-13.427-5.301c-5.368,0-9.795,1.58-13.292,4.752c-3.486,3.161-5.223,7.229-5.223,12.183  c0,4.954,1.58,9.134,4.741,12.53C192.404,243.14,196.764,244.844,202.323,244.844z"/>
<g>
</g>
<g>
</g>
<g>
</g>
<g>
</g>
<g>
</g>
<g>
</g>
<g>
</g>
<g>
</g>
<g>
</g>
<g>
</g>
<g>
</g>
<g>
</g>
<g>
</g>
<g>
</g>
<g>
</g>
</svg>
