<?xml version="1.0" encoding="iso-8859-1"?>
<!-- Generator: Adobe Illustrator 19.0.0, SVG Export Plug-In . SVG Version: 6.00 Build 0)  -->
<svg xmlns="http://www.w3.org/2000/svg" xmlns:xlink="http://www.w3.org/1999/xlink" version="1.1" id="Capa_1" x="0px" y="0px" viewBox="0 0 409.6 409.6" style="enable-background:new 0 0 409.6 409.6;" xml:space="preserve">
<rect x="149.35" y="312.264" style="fill:#E1E6E9;" width="110.915" height="43.049"/>
<path style="fill:#3A556A;" d="M409.6,44.094c0-8.226-6.668-14.895-14.895-14.895H14.895C6.669,29.199,0,35.867,0,44.094v225.409  h409.6V44.094z"/>
<rect x="22.344" y="51.558" style="fill:#64798A;" width="364.902" height="217.958"/>
<path style="fill:#EBF0F3;" d="M0,269.503v32.689c0,8.226,6.669,14.895,14.895,14.895h379.811c8.226,0,14.895-6.669,14.895-14.895  v-32.689H0z"/>
<circle style="fill:#D5D6DB;" cx="204.8" cy="293.274" r="15.928"/>
<rect x="115.958" y="368.538" style="fill:#E1E6E9;" width="177.684" height="11.863"/>
<polygon style="fill:#D5D6DB;" points="260.258,351.321 149.342,351.321 115.958,368.537 293.642,368.537 "/>
<g>
	<path style="fill:#FFFFFF;" d="M107.964,195.386v-5.835l7.455-7.244c17.947-17.075,26.053-26.158,26.158-36.756   c0-7.129-3.459-13.722-13.942-13.722c-6.381,0-11.68,3.239-14.919,5.941l-3.028-6.698c4.867-4.11,11.785-7.138,19.892-7.138   c15.13,0,21.511,10.377,21.511,20.429c0,12.974-9.409,23.456-24.213,37.724l-5.624,5.193v0.211h31.563v7.895H107.964z"/>
	<path style="fill:#FFFFFF;" d="M192.847,195.386v-19.135h-32.645v-6.267l31.351-44.862h10.272v43.674h9.831v7.455h-9.831v19.135   H192.847z M192.847,168.796V145.34c0-3.679,0.106-7.349,0.326-11.028h-0.326c-2.156,4.11-3.89,7.138-5.835,10.377l-17.19,23.888   v0.22H192.847z"/>
	<path style="fill:#FFFFFF;" d="M213.954,226.746l30.154-132.447h7.349l-30.26,132.447H213.954z"/>
	<path style="fill:#FFFFFF;" d="M301.636,125.122v6.267l-30.586,63.997h-9.84l30.48-62.157v-0.211h-34.37v-7.895H301.636z"/>
</g>
<g>
</g>
<g>
</g>
<g>
</g>
<g>
</g>
<g>
</g>
<g>
</g>
<g>
</g>
<g>
</g>
<g>
</g>
<g>
</g>
<g>
</g>
<g>
</g>
<g>
</g>
<g>
</g>
<g>
</g>
</svg>
