<?xml version="1.0" encoding="iso-8859-1"?>
<!-- Generator: Adobe Illustrator 19.0.0, SVG Export Plug-In . SVG Version: 6.00 Build 0)  -->
<svg xmlns="http://www.w3.org/2000/svg" xmlns:xlink="http://www.w3.org/1999/xlink" version="1.1" id="Capa_1" x="0px" y="0px" viewBox="0 0 409.6 409.6" style="enable-background:new 0 0 409.6 409.6;" xml:space="preserve">
<rect x="148.224" y="0.008" style="fill:#64798A;" width="261.376" height="56.73"/>
<rect x="148.224" y="56.737" style="fill:#3A556A;" width="261.376" height="56.73"/>
<rect x="148.224" y="113.416" style="fill:#64798A;" width="261.376" height="56.73"/>
<rect x="148.224" y="170.145" style="fill:#3A556A;" width="261.376" height="56.73"/>
<rect x="148.224" y="226.875" style="fill:#64798A;" width="261.376" height="56.73"/>
<rect x="171.863" y="23.432" style="fill:#EBF0F3;" width="118.016" height="9.861"/>
<circle style="fill:#E56353;" cx="358.656" cy="28.362" r="16.41"/>
<rect x="171.863" y="80.146" style="fill:#EBF0F3;" width="118.016" height="9.861"/>
<circle style="fill:#44C4A1;" cx="358.656" cy="85.076" r="16.41"/>
<rect x="171.863" y="136.86" style="fill:#EBF0F3;" width="118.016" height="9.861"/>
<circle style="fill:#E56353;" cx="358.656" cy="141.791" r="16.41"/>
<rect x="171.863" y="193.574" style="fill:#EBF0F3;" width="118.016" height="9.861"/>
<circle style="fill:#FCD462;" cx="358.656" cy="198.505" r="16.41"/>
<rect x="180.07" y="245.435" style="fill:#EBF0F3;" width="197.652" height="19.569"/>
<polygon style="fill:#FFFFFF;" points="353.877,94.334 346.716,83.593 352.428,79.785 355.486,84.364 366.414,75.823   370.638,81.234 "/>
<polygon style="fill:#DC8744;" points="353.877,207.762 346.716,197.021 352.428,193.213 355.486,197.792 366.414,189.251   370.638,194.661 "/>
<g>
	
		<rect x="355.232" y="16.456" transform="matrix(-0.707 0.7072 -0.7072 -0.707 632.3065 -205.2366)" style="fill:#FFFFFF;" width="6.866" height="23.798"/>
	
		<rect x="346.78" y="24.942" transform="matrix(-0.7071 0.7071 -0.7071 -0.7071 632.3666 -205.1854)" style="fill:#FFFFFF;" width="23.798" height="6.866"/>
	
		<rect x="355.24" y="129.887" transform="matrix(-0.707 0.7072 -0.7072 -0.707 712.5359 -11.6116)" style="fill:#FFFFFF;" width="6.866" height="23.798"/>
	
		<rect x="346.774" y="138.37" transform="matrix(-0.7071 0.7071 -0.7071 -0.7071 712.5627 -11.5477)" style="fill:#FFFFFF;" width="23.798" height="6.866"/>
</g>
<path style="fill:#FCD462;" d="M200.912,199.678c-1.291-12.116-17.96-32.509-31.806-29.832  c-36.184,6.997-50.797,48.484-50.797,48.484s28.305-6.909,50.797-17.148C169.106,201.182,196.001,188.008,200.912,199.678z"/>
<path style="fill:#44C4A1;" d="M192.147,191.063c-9.738-0.23-21.969,5.538-24.346,6.705c-15.023,6.785-34.707,13.64-44.852,16.575  c4.201-8.096,20.288-35.599,47.254-40.775c0.266-0.051,0.568-0.066,0.889-0.082c0.351-0.018,0.716-0.036,1.1-0.102  c2.951-0.508,11.125,1.833,15.377,3.75c-1.591-1.444-3.262-2.744-4.98-3.843c-4.011-1.238-8.418-2.171-10.722-1.775  c-0.29,0.05-0.582,0.062-0.872,0.076c-0.372,0.019-0.757,0.038-1.154,0.114c-30.815,5.914-47.737,39.872-49.565,43.725l-0.881,1.857  l1.994-0.538c9.374-2.53,30.993-9.935,47.278-17.294c2.286-1.122,14.188-6.682,23.437-6.499c2.915,0.066,5.684,0.875,7.479,1.431  c-0.275-0.742-0.581-1.493-0.928-2.253C196.863,191.634,194.576,191.117,192.147,191.063z"/>
<path style="fill:#F6C358;" d="M169.106,201.182c-22.493,10.239-50.797,17.148-50.797,17.148l60.261-2.904  c0,0,20.458-2.766,22.267-12.446c0.187-1,0.202-2.113,0.075-3.302C196.001,188.008,169.106,201.182,169.106,201.182z"/>
<path style="fill:#FCD462;" d="M39.089,199.678c1.291-12.116,17.96-32.509,31.806-29.832c36.184,6.997,50.797,48.484,50.797,48.484  s-28.305-6.909-50.797-17.148C70.895,201.182,44,188.008,39.089,199.678z"/>
<path style="fill:#44C4A1;" d="M47.854,191.063c9.738-0.23,21.969,5.538,24.346,6.705c15.023,6.785,34.707,13.64,44.852,16.575  c-4.201-8.096-20.288-35.599-47.254-40.775c-0.266-0.051-0.568-0.066-0.889-0.082c-0.351-0.018-0.716-0.036-1.1-0.102  c-2.951-0.508-11.125,1.833-15.377,3.75c1.591-1.444,3.262-2.744,4.98-3.843c4.011-1.238,8.418-2.171,10.722-1.775  c0.29,0.05,0.582,0.062,0.872,0.076c0.372,0.019,0.757,0.038,1.154,0.114c30.815,5.914,47.737,39.872,49.565,43.725l0.881,1.857  l-1.994-0.538c-9.374-2.53-30.993-9.935-47.278-17.294c-2.286-1.122-14.188-6.682-23.437-6.499  c-2.915,0.066-5.684,0.875-7.479,1.431c0.275-0.742,0.581-1.493,0.928-2.253C43.138,191.634,45.425,191.117,47.854,191.063z"/>
<path style="fill:#F6C358;" d="M70.895,201.182c22.493,10.239,50.797,17.148,50.797,17.148l-60.261-2.904  c0,0-20.458-2.766-22.267-12.446c-0.187-1-0.202-2.113-0.075-3.302C44,188.008,70.895,201.182,70.895,201.182z"/>
<rect y="216.891" style="fill:#E56353;" width="240" height="42.767"/>
<rect x="5.064" y="259.679" style="fill:#D15241;" width="229.873" height="149.914"/>
<polygon style="fill:#CE412D;" points="234.938,270.159 5.063,270.243 5.063,259.677 234.938,259.677 "/>
<rect x="99.374" y="216.891" style="fill:#FCD462;" width="41.267" height="192.696"/>
<g>
	<rect x="104.356" y="216.891" style="fill:#44C4A1;" width="3.743" height="192.696"/>
	<rect x="131.907" y="216.891" style="fill:#44C4A1;" width="3.743" height="192.696"/>
</g>
<path style="fill:#F6C358;" d="M90.227,279.391c3.962-10.559,2.7-18.832,0.945-34.734c-15.929,2.324-24.304,3.198-33.587,9.671  c16.347-22.821,29.592-32.487,53.283-47.736c4.961,3.809,7.442,5.714,12.403,9.523C114.398,242.742,108.326,257.916,90.227,279.391z  "/>
<g>
	<path style="fill:#44C4A1;" d="M113.096,208.303c-0.161-0.123-0.308-0.237-0.474-0.364c-0.081-0.062-0.175-0.134-0.257-0.197   C95.905,219.097,77.62,233.263,66,249.8c2.041-0.801,4.164-1.443,6.44-1.994c13.598-17.46,24.435-25.094,41.049-39.202   C113.332,208.484,113.218,208.396,113.096,208.303z"/>
	<path style="fill:#44C4A1;" d="M121.775,214.966c-0.082-0.063-0.176-0.135-0.257-0.197c-0.166-0.127-0.313-0.24-0.474-0.364   c-0.121-0.093-0.236-0.181-0.394-0.302c-9.55,19.533-14.246,31.881-27.82,49.361c0.038,2.328-0.052,4.531-0.317,6.696   C105.686,254.813,114.869,233.658,121.775,214.966z"/>
</g>
<path style="fill:#F6C358;" d="M148.424,279.391c-3.962-10.559-2.7-18.832-0.945-34.734c15.929,2.324,24.304,3.198,33.587,9.671  c-16.347-22.821-29.592-32.487-53.283-47.736c-4.961,3.809-7.442,5.714-12.403,9.523  C124.253,242.742,130.325,257.916,148.424,279.391z"/>
<g>
	<path style="fill:#44C4A1;" d="M125.555,208.303c0.161-0.123,0.308-0.237,0.474-0.364c0.081-0.062,0.175-0.134,0.257-0.197   c16.46,11.355,34.745,25.521,46.365,42.059c-2.041-0.801-4.164-1.443-6.44-1.994c-13.598-17.46-24.435-25.094-41.049-39.202   C125.319,208.484,125.433,208.396,125.555,208.303z"/>
	<path style="fill:#44C4A1;" d="M116.877,214.966c0.082-0.063,0.176-0.135,0.257-0.197c0.166-0.127,0.313-0.24,0.474-0.364   c0.121-0.093,0.236-0.181,0.394-0.302c9.55,19.533,14.246,31.881,27.82,49.361c-0.038,2.328,0.052,4.531,0.317,6.696   C132.965,254.813,123.782,233.658,116.877,214.966z"/>
</g>
<path style="fill:#DC8744;" d="M120,200.341c-9.12,0-16.514,7.347-16.514,16.409h33.028  C136.514,207.688,129.121,200.341,120,200.341z"/>
<g>
</g>
<g>
</g>
<g>
</g>
<g>
</g>
<g>
</g>
<g>
</g>
<g>
</g>
<g>
</g>
<g>
</g>
<g>
</g>
<g>
</g>
<g>
</g>
<g>
</g>
<g>
</g>
<g>
</g>
</svg>
