<?xml version="1.0" encoding="iso-8859-1"?>
<!-- Generator: Adobe Illustrator 19.0.0, SVG Export Plug-In . SVG Version: 6.00 Build 0)  -->
<svg xmlns="http://www.w3.org/2000/svg" xmlns:xlink="http://www.w3.org/1999/xlink" version="1.1" id="Capa_1" x="0px" y="0px" viewBox="0 0 409.613 409.613" style="enable-background:new 0 0 409.613 409.613;" xml:space="preserve">
<g transform="matrix(0.70711 -0.70711 0.70711 0.70711 -15.08 36.4)">
	
		<ellipse transform="matrix(-0.7071 -0.7071 0.7071 -0.7071 -62.3763 326.3334)" style="fill:#64798A;" cx="36.397" cy="176.085" rx="135.168" ry="135.168"/>
	
		<ellipse transform="matrix(-0.7071 -0.7071 0.7071 -0.7071 -62.3763 326.3334)" style="fill:#EBF0F3;" cx="36.397" cy="176.085" rx="107.453" ry="107.453"/>
</g>
<ellipse style="fill:#FFFFFF;" cx="140.428" cy="140.417" rx="100.818" ry="100.818"/>
<rect x="218.95" y="208.924" transform="matrix(-0.7071 0.7071 -0.7071 -0.7071 578.0879 239.4313)" style="fill:#64798A;" width="41.011" height="61.036"/>
<path style="fill:#3A556A;" d="M227.851,280.466l128.446,128.446c7.309,7.309,59.93-45.312,52.621-52.621L280.472,227.845  C271.464,218.837,218.843,271.458,227.851,280.466z"/>
<rect x="240.54" y="268.217" transform="matrix(-0.7071 0.7071 -0.7071 -0.7071 670.521 277.6847)" style="fill:#FCD462;" width="74.42" height="18.99"/>
<g>
</g>
<g>
</g>
<g>
</g>
<g>
</g>
<g>
</g>
<g>
</g>
<g>
</g>
<g>
</g>
<g>
</g>
<g>
</g>
<g>
</g>
<g>
</g>
<g>
</g>
<g>
</g>
<g>
</g>
</svg>
