<?xml version="1.0" encoding="iso-8859-1"?>
<!-- Generator: Adobe Illustrator 19.0.0, SVG Export Plug-In . SVG Version: 6.00 Build 0)  -->
<svg xmlns="http://www.w3.org/2000/svg" xmlns:xlink="http://www.w3.org/1999/xlink" version="1.1" id="Capa_1" x="0px" y="0px" viewBox="0 0 409.593 409.593" style="enable-background:new 0 0 409.593 409.593;" xml:space="preserve">
<g>
	<rect x="160.713" y="165.625" style="fill:#64798A;" width="39.808" height="243.968"/>
	<path style="fill:#64798A;" d="M200.497,19.903C200.497,8.911,191.585,0,180.594,0c-10.992,0-19.905,8.911-19.905,19.903v53.092   h39.808V19.903z"/>
</g>
<rect x="160.713" y="73.004" style="fill:#3A556A;" width="39.808" height="92.621"/>
<path style="fill:#FCD462;" d="M337.672,103.998L305.641,65.6c-1.504-1.802-3.729-2.844-6.076-2.844H77.997  c-4.37,0-7.912,3.543-7.912,7.912v76.797c0,4.37,3.543,7.912,7.912,7.912h221.568c2.347,0,4.573-1.042,6.076-2.844l32.031-38.399  C340.12,111.2,340.12,106.934,337.672,103.998z"/>
<g>
	<path style="fill:#DC8744;" d="M114.349,90.584c-2.509,0-4.567,0.513-6.174,1.534c-1.607,1.022-2.414,2.571-2.414,4.64   c0,2.069,0.807,3.651,2.414,4.749c1.607,1.095,5.025,2.276,10.261,3.542c5.236,1.265,9.178,3.044,11.832,5.331   c2.654,2.291,3.985,5.662,3.985,10.12c0,4.454-1.68,8.069-5.04,10.847c-3.36,2.774-7.767,4.163-13.221,4.163   c-7.992,0-15.076-2.753-21.257-8.254l5.403-6.502c5.163,4.48,10.516,6.72,16.072,6.72c2.771,0,4.974-0.596,6.611-1.789   c1.629-1.193,2.444-2.778,2.444-4.749c0-1.971-0.764-3.505-2.298-4.603c-1.534-1.095-4.174-2.091-7.927-2.993   c-3.753-0.902-6.596-1.727-8.545-2.484c-1.949-0.756-3.68-1.742-5.185-2.96c-3.025-2.287-4.531-5.793-4.531-10.516   c0-4.723,1.716-8.367,5.149-10.923c3.433-2.556,7.68-3.833,12.749-3.833c3.258,0,6.502,0.535,9.716,1.607   c3.214,1.069,5.985,2.582,8.327,4.527l-4.603,6.502c-1.513-1.364-3.556-2.484-6.138-3.36S116.85,90.584,114.349,90.584z"/>
	<path style="fill:#DC8744;" d="M151.642,123.31l-5.113,11.614h-9.207l22.501-51.06h9.2l22.501,51.06h-9.207l-5.113-11.614H151.642z    M173.699,115.347l-9.28-21.036l-9.272,21.036H173.699z"/>
	<path style="fill:#DC8744;" d="M198.6,134.924v-51.06h8.625v42.878h23.301v8.182H198.6z"/>
	<path style="fill:#DC8744;" d="M275.812,83.864v8.109h-27.243v13.512h24.465v7.672h-24.465v13.658h28.123v8.109h-36.748v-51.06   H275.812z"/>
</g>
<path style="fill:#3EA69B;" d="M224.941,394.156c-0.545,1.767-1.445,3.423-2.633,4.839c-1.252-4.097-2.504-8.194-3.754-12.291  c-0.138,4.316-2.098,8.544-5.304,11.437c-2.555-3.843-4.845-7.863-6.845-12.022c-0.246,3.933-0.492,7.867-0.738,11.8  c-2.209-4.401-3.868-9.078-4.926-13.887c0.011,3.388-1.782,6.727-4.609,8.592c-1.025-4.378-1.798-8.811-2.029-13.301  c-1.493,3.608-3.065,7.182-4.718,10.72c-0.371-3.161-1.174-6.27-2.38-9.215c-2.457,3.349-4.545,6.967-6.216,10.77  c0.011-4.356,0.021-8.712,0.031-13.068c-2.454,4.158-4.567,8.517-6.314,13.018c-0.984-3.251-1.967-6.501-2.951-9.752  c-2.416,3.666-5.254,7.054-8.44,10.075c-0.128-0.809-0.256-1.617-0.384-2.425c-0.868,1.146-1.993,2.097-3.267,2.763  c-0.158-3.695-0.826-7.367-1.98-10.881c-1.344,3.53-2.69,7.06-4.035,10.59c-0.634-4.338-2.324-8.517-4.888-12.074  c0.082,6.926-0.578,13.861-1.964,20.647c-1.045-4.636-2.089-9.272-3.134-13.909c0.003,6.131-0.577,12.261-1.726,18.283  c-2.569-5.723-4.894-11.556-6.965-17.478c0.649,4.521,1.299,9.042,1.949,13.562c-1.956-3.2-3.913-6.399-5.871-9.599  c0.456,5.948,0.913,11.895,1.369,17.843l98.244-0.457C230.327,403.44,228.346,398.212,224.941,394.156z"/>
<path style="fill:#44C4A1;" d="M225.821,409.585c1.374-0.331,2.796-0.448,4.2-0.27c-0.547-1.325-1.102-2.782-0.686-4.153  c0.276-0.913,0.961-1.676,1.143-2.612c0.167-0.863-0.116-1.743-0.395-2.577c-0.942-2.811-1.883-5.623-2.824-8.434  c-0.253,0.414-0.505,0.829-0.757,1.243c-0.208-0.658-0.803-1.176-1.481-1.294c-0.925,1.389-2.028,2.659-3.273,3.77  c-0.205-1.482-0.412-2.964-0.617-4.446c-0.535,1.63-1.335,3.174-2.356,4.554c-0.432-1.669-1.414-3.19-2.755-4.273  c0.036,1.016,0.071,2.032,0.107,3.048c-1.887-1.987-3.774-3.973-5.662-5.961c-0.518-1.004-1.037-2.008-1.556-3.012  c-0.907,4.494-3.069,8.728-6.175,12.1c-0.286-0.69-0.572-1.381-0.857-2.071c-1.898,1.236-3.956,2.225-6.107,2.934  c0.424-1.014,0.513-2.164,0.25-3.231c-2.521,0.213-5.072,0.065-7.55-0.438c1.724-1.608,3.267-3.409,4.591-5.358  c-0.662-0.88-1.862-1.315-2.933-1.064c1.385-1.87,2.242-4.129,2.442-6.449c-1.282,1.021-2.899,1.613-4.538,1.661  c-0.105-1.253-0.209-2.505-0.315-3.758c-1.525,3.002-4.353,5.313-7.597,6.212c0.202-0.99-0.325-2.084-1.225-2.543  c-0.769,0.94-1.758,1.7-2.864,2.201c-0.244-0.33-0.485-0.661-0.729-0.992c-0.785,1.488-2.038,2.726-3.534,3.495  c-0.202-0.722-0.403-1.444-0.604-2.165c-1.015,1.42-2.147,2.755-3.383,3.986c-0.366,0.365-0.825,0.748-1.334,0.664  c-1.224-0.202-0.885-2.524-2.082-2.853c-1.176,1.794-2.502,3.49-3.958,5.064c-0.207-1.789-0.92-3.516-2.033-4.93  c-0.314,0.602-0.627,1.204-0.94,1.806c-0.747-1.752-1.494-3.504-2.24-5.257c-0.282,1.968-0.563,3.936-0.844,5.903  c-0.669-2.091-1.609-4.095-2.791-5.945c-0.693,2.009-1.385,4.017-2.079,6.026c-0.568-0.656-1.137-1.312-1.704-1.968  c-0.327,3.743-0.555,7.496-0.682,11.252c-1.053-2.313-2.104-4.627-3.156-6.94c-0.193,1.602-0.618,3.175-1.256,4.657  c-0.516-0.651-1.033-1.301-1.549-1.952c-0.7,3.024-1.399,6.049-2.098,9.074c-1.764-2.632-3.525-5.263-5.287-7.895  c0.285,2.194,0.173,4.439-0.334,6.592c-0.3-1.624-1.33-3.099-2.75-3.939c-0.076,3.579,0.542,7.156,1.714,10.538H225.821z"/>
<g>
</g>
<g>
</g>
<g>
</g>
<g>
</g>
<g>
</g>
<g>
</g>
<g>
</g>
<g>
</g>
<g>
</g>
<g>
</g>
<g>
</g>
<g>
</g>
<g>
</g>
<g>
</g>
<g>
</g>
</svg>
