<?xml version="1.0" encoding="iso-8859-1"?>
<!-- Generator: Adobe Illustrator 19.0.0, SVG Export Plug-In . SVG Version: 6.00 Build 0)  -->
<svg xmlns="http://www.w3.org/2000/svg" xmlns:xlink="http://www.w3.org/1999/xlink" version="1.1" id="Capa_1" x="0px" y="0px" viewBox="0 0 409.6 409.6" style="enable-background:new 0 0 409.6 409.6;" xml:space="preserve">
<polygon style="fill:#EBF0F3;" points="217.203,97.377 273.52,24.046 255.104,0 154.496,0 136.08,24.046 192.464,97.377 "/>
<g>
	<polygon style="fill:#E1E6E9;" points="197.265,97.377 162.852,24.01 136.087,24.01 192.458,97.377  "/>
	<polygon style="fill:#E1E6E9;" points="217.143,97.377 273.513,24.01 246.748,24.01 212.335,97.377  "/>
	<polygon style="fill:#E1E6E9;" points="188.875,24.01 193.145,0.024 174.102,0.024 162.852,24.01  "/>
	<polygon style="fill:#E1E6E9;" points="246.749,24.01 235.498,0.024 216.455,0.024 220.726,24.01  "/>
	<polygon style="fill:#E1E6E9;" points="207.661,97.377 220.725,24.01 188.875,24.01 201.94,97.377  "/>
</g>
<path style="fill:#FCD462;" d="M204.8,82.518c-90.321,0-163.541,73.219-163.541,163.541S114.479,409.6,204.8,409.6  s163.54-73.22,163.54-163.541S295.122,82.518,204.8,82.518z M204.798,379.31c-73.47,0-133.245-59.778-133.245-133.252  s59.775-133.249,133.245-133.249c73.478,0,133.253,59.775,133.253,133.249S278.276,379.31,204.798,379.31z"/>
<g>
</g>
<g>
</g>
<g>
</g>
<g>
</g>
<g>
</g>
<g>
</g>
<g>
</g>
<g>
</g>
<g>
</g>
<g>
</g>
<g>
</g>
<g>
</g>
<g>
</g>
<g>
</g>
<g>
</g>
</svg>
