<?xml version="1.0" encoding="iso-8859-1"?>
<!-- Generator: Adobe Illustrator 19.0.0, SVG Export Plug-In . SVG Version: 6.00 Build 0)  -->
<svg xmlns="http://www.w3.org/2000/svg" xmlns:xlink="http://www.w3.org/1999/xlink" version="1.1" id="Capa_1" x="0px" y="0px" viewBox="0 0 409.62 409.62" style="enable-background:new 0 0 409.62 409.62;" xml:space="preserve">
<path style="fill:#DC8744;" d="M271.431,45.827H6.096C2.729,45.827,0,48.556,0,51.923v351.581c0,3.367,2.729,6.096,6.096,6.096  h265.336c3.367,0,6.096-2.729,6.096-6.096V51.923C277.527,48.556,274.798,45.827,271.431,45.827z"/>
<rect x="17.111" y="73.723" style="fill:#E1E6E9;" width="243.308" height="321.244"/>
<rect x="17.111" y="65.777" style="fill:#EBF0F3;" width="243.308" height="321.244"/>
<rect x="17.111" y="56.883" style="fill:#FFFFFF;" width="243.308" height="321.244"/>
<path style="fill:#EBF0F3;" d="M191.274,39.458h-33.5L152,29.486c3.591-4.049,5.446-9.673,4.057-15.787  c-1.477-6.503-6.731-11.813-13.242-13.251c-11.572-2.557-21.807,6.18-21.807,17.308c0,4.518,1.741,8.596,4.519,11.73l-5.773,9.972  h-33.5c-3.017,0-5.463,2.446-5.463,5.463v25.395h115.947V44.922C196.737,41.904,194.291,39.458,191.274,39.458z"/>
<circle style="fill:#D5D6DB;" cx="138.752" cy="17.756" r="5.765"/>
<g>
	<rect x="37.555" y="94.689" style="fill:#64798A;" width="206.131" height="11.172"/>
	<rect x="37.555" y="123.904" style="fill:#64798A;" width="206.131" height="11.172"/>
	<rect x="37.555" y="153.083" style="fill:#64798A;" width="206.131" height="11.172"/>
	<rect x="37.555" y="182.277" style="fill:#64798A;" width="206.131" height="11.172"/>
	<rect x="77.261" y="211.456" style="fill:#64798A;" width="166.426" height="11.172"/>
	<rect x="77.261" y="240.691" style="fill:#64798A;" width="166.426" height="11.172"/>
	<rect x="77.261" y="269.87" style="fill:#64798A;" width="166.426" height="11.172"/>
	<rect x="77.261" y="299.059" style="fill:#64798A;" width="166.426" height="11.172"/>
	<rect x="77.261" y="328.243" style="fill:#64798A;" width="166.426" height="11.172"/>
</g>
<rect x="37.555" y="211.456" style="fill:#E56353;" width="16.932" height="11.172"/>
<rect x="37.555" y="240.691" style="fill:#44C4A1;" width="16.932" height="11.172"/>
<rect x="37.555" y="269.87" style="fill:#2D93BA;" width="16.932" height="11.172"/>
<rect x="37.555" y="299.059" style="fill:#FCD462;" width="16.932" height="11.172"/>
<rect x="37.555" y="328.243" style="fill:#2F4859;" width="16.932" height="11.172"/>
<circle style="fill:#FCD462;" cx="305.05" cy="305.05" r="104.571"/>
<path style="fill:#44C4A1;" d="M409.142,295.982c-4.595-53.509-49.415-95.525-104.115-95.525v104.571L409.142,295.982z"/>
<path style="fill:#E56353;" d="M305.027,305.028l54.41,89.177c30.044-18.372,50.163-51.383,50.163-89.177  c0-3.054-0.2-6.059-0.458-9.047L305.027,305.028z"/>
<path style="fill:#27A2DB;" d="M220.555,366.489c19.015,26.087,49.719,43.11,84.473,43.11c19.959,0,38.544-5.692,54.41-15.395  l-54.41-89.177L220.555,366.489z"/>
<g>
</g>
<g>
</g>
<g>
</g>
<g>
</g>
<g>
</g>
<g>
</g>
<g>
</g>
<g>
</g>
<g>
</g>
<g>
</g>
<g>
</g>
<g>
</g>
<g>
</g>
<g>
</g>
<g>
</g>
</svg>
