<?xml version="1.0" encoding="iso-8859-1"?>
<!-- Generator: Adobe Illustrator 19.0.0, SVG Export Plug-In . SVG Version: 6.00 Build 0)  -->
<svg xmlns="http://www.w3.org/2000/svg" xmlns:xlink="http://www.w3.org/1999/xlink" version="1.1" id="Capa_1" x="0px" y="0px" viewBox="0 0 409.605 409.605" style="enable-background:new 0 0 409.605 409.605;" xml:space="preserve">
<path style="fill:#DC8744;" d="M399.749,28.164H123.696c-5.442,0-9.854,4.412-9.854,9.854v361.728c0,5.442,4.412,9.854,9.854,9.854  h276.053c5.443,0,9.854-4.412,9.854-9.854V38.018C409.603,32.576,405.192,28.164,399.749,28.164z"/>
<rect x="128.719" y="50.504" style="fill:#E1E6E9;" width="265.969" height="344.218"/>
<rect x="128.719" y="43.059" style="fill:#EBF0F3;" width="265.969" height="344.218"/>
<g>
	<path style="fill:#64798A;" d="M326.243,17.507H280.34C279.692,7.743,271.651,0,261.722,0c-9.927,0-17.97,7.743-18.617,17.507   h-45.903c-5.349,0-9.685,4.336-9.685,9.685v33.212h148.411V27.192C335.928,21.843,331.592,17.507,326.243,17.507z"/>
	<path style="fill:#64798A;" d="M196.584,121.421h-36.764V84.654h36.764V121.421z M165.406,115.835h25.593V90.239h-25.593V115.835z"/>
	<rect x="211.305" y="99.313" style="fill:#64798A;" width="141.896" height="7.45"/>
	<path style="fill:#64798A;" d="M196.584,178.052h-36.764v-36.767h36.764V178.052z M165.406,172.467h25.593V146.87h-25.593V172.467z   "/>
	<rect x="211.305" y="155.945" style="fill:#64798A;" width="141.896" height="7.45"/>
	<path style="fill:#64798A;" d="M196.584,234.683h-36.764v-36.767h36.764V234.683z M165.406,229.098h25.593v-25.596h-25.593V229.098   z"/>
	<rect x="211.305" y="212.582" style="fill:#64798A;" width="141.896" height="7.45"/>
	<path style="fill:#64798A;" d="M196.584,291.314h-36.764v-36.767h36.764V291.314z M165.406,285.729h25.593v-25.596h-25.593V285.729   z"/>
	<rect x="211.305" y="269.21" style="fill:#64798A;" width="141.896" height="7.45"/>
	<path style="fill:#64798A;" d="M196.584,347.945h-36.764v-36.767h36.764V347.945z M165.406,342.36h25.593v-25.596h-25.593V342.36z"/>
	<rect x="211.305" y="325.837" style="fill:#64798A;" width="141.896" height="7.45"/>
</g>
<path style="fill:#FCD462;" d="M193.295,207.631c-1.242-11.656-17.279-31.276-30.6-28.7c-34.812,6.732-48.871,46.645-48.871,46.645  s27.231-6.647,48.871-16.498C162.695,209.078,188.571,196.404,193.295,207.631z"/>
<path style="fill:#44C4A1;" d="M184.863,199.343c-9.368-0.221-21.135,5.328-23.423,6.451c-14.454,6.528-33.391,13.123-43.151,15.947  c4.042-7.789,19.518-34.249,45.462-39.228c0.256-0.049,0.547-0.064,0.855-0.079c0.338-0.017,0.688-0.034,1.059-0.098  c2.839-0.488,10.703,1.763,14.794,3.608c-1.53-1.39-3.138-2.64-4.791-3.697c-3.859-1.191-8.098-2.088-10.315-1.708  c-0.279,0.048-0.56,0.06-0.839,0.073c-0.358,0.018-0.728,0.036-1.111,0.11c-29.647,5.69-45.926,38.36-47.685,42.067l-0.848,1.787  l1.918-0.518c9.019-2.434,29.818-9.558,45.485-16.638c2.199-1.079,13.65-6.428,22.548-6.252c2.805,0.063,5.468,0.842,7.195,1.376  c-0.265-0.713-0.559-1.436-0.893-2.167C189.4,199.892,187.2,199.395,184.863,199.343z"/>
<path style="fill:#F6C358;" d="M162.695,209.078c-21.64,9.851-48.871,16.498-48.871,16.498l57.976-2.794  c0,0,19.682-2.661,21.423-11.974c0.18-0.962,0.194-2.033,0.072-3.177C188.571,196.404,162.695,209.078,162.695,209.078z"/>
<path style="fill:#FCD462;" d="M37.61,207.631c1.242-11.656,17.279-31.276,30.6-28.7c34.812,6.732,48.871,46.645,48.871,46.645  s-27.231-6.647-48.871-16.498C68.21,209.078,42.334,196.404,37.61,207.631z"/>
<path style="fill:#44C4A1;" d="M46.042,199.343c9.368-0.221,21.135,5.328,23.423,6.451c14.454,6.528,33.391,13.123,43.151,15.947  c-4.042-7.789-19.518-34.249-45.462-39.228c-0.256-0.049-0.547-0.064-0.855-0.079c-0.338-0.017-0.688-0.034-1.059-0.098  c-2.839-0.488-10.703,1.763-14.794,3.608c1.53-1.39,3.138-2.64,4.791-3.697c3.859-1.191,8.098-2.088,10.315-1.708  c0.279,0.048,0.56,0.06,0.839,0.073c0.358,0.018,0.728,0.036,1.111,0.11c29.647,5.69,45.926,38.36,47.685,42.067l0.848,1.787  l-1.918-0.518c-9.019-2.434-29.818-9.558-45.485-16.638c-2.199-1.079-13.65-6.428-22.548-6.252  c-2.805,0.063-5.468,0.842-7.195,1.376c0.265-0.713,0.559-1.436,0.893-2.167C41.505,199.892,43.705,199.395,46.042,199.343z"/>
<path style="fill:#F6C358;" d="M68.21,209.078c21.64,9.851,48.871,16.498,48.871,16.498l-57.976-2.794  c0,0-19.682-2.661-21.423-11.974c-0.18-0.962-0.194-2.033-0.072-3.177C42.334,196.404,68.21,209.078,68.21,209.078z"/>
<rect x="0.003" y="224.21" style="fill:#E56353;" width="230.912" height="41.165"/>
<rect x="4.872" y="265.354" style="fill:#D15241;" width="221.133" height="144.23"/>
<polygon style="fill:#CE412D;" points="226.031,275.44 4.874,275.52 4.874,265.355 226.031,265.355 "/>
<rect x="95.608" y="224.21" style="fill:#FCD462;" width="39.685" height="185.395"/>
<g>
	<rect x="100.401" y="224.21" style="fill:#44C4A1;" width="3.599" height="185.395"/>
	<rect x="126.907" y="224.21" style="fill:#44C4A1;" width="3.599" height="185.395"/>
</g>
<path style="fill:#F6C358;" d="M86.808,284.322c3.812-10.158,2.598-18.118,0.909-33.417c-15.324,2.236-23.382,3.077-32.313,9.304  c15.727-21.956,28.47-31.255,51.263-45.926c4.773,3.665,7.16,5.497,11.933,9.162C110.063,249.062,104.221,263.661,86.808,284.322z"/>
<g>
	<path style="fill:#44C4A1;" d="M108.81,215.929c-0.155-0.119-0.297-0.228-0.456-0.35c-0.078-0.06-0.168-0.129-0.247-0.19   c-15.836,10.925-33.427,24.553-44.607,40.464c1.963-0.77,4.006-1.388,6.196-1.918c13.082-16.798,23.508-24.143,39.492-37.715   C109.037,216.104,108.927,216.019,108.81,215.929z"/>
	<path style="fill:#44C4A1;" d="M117.159,222.34c-0.079-0.061-0.169-0.13-0.247-0.19c-0.159-0.122-0.301-0.231-0.456-0.35   c-0.117-0.09-0.227-0.174-0.379-0.291c-9.187,18.792-13.706,30.672-26.765,47.489c0.036,2.24-0.05,4.359-0.305,6.442   C101.681,260.676,110.515,240.323,117.159,222.34z"/>
</g>
<path style="fill:#F6C358;" d="M142.798,284.322c-3.812-10.158-2.598-18.118-0.909-33.417c15.324,2.236,23.382,3.077,32.313,9.304  c-15.727-21.956-28.47-31.255-51.263-45.926c-4.773,3.665-7.16,5.497-11.933,9.162C119.543,249.062,125.385,263.661,142.798,284.322  z"/>
<g>
	<path style="fill:#44C4A1;" d="M120.796,215.929c0.155-0.119,0.297-0.228,0.456-0.35c0.078-0.06,0.168-0.129,0.247-0.19   c15.836,10.925,33.427,24.553,44.607,40.464c-1.963-0.77-4.006-1.388-6.196-1.918c-13.082-16.798-23.508-24.143-39.492-37.715   C120.569,216.104,120.679,216.019,120.796,215.929z"/>
	<path style="fill:#44C4A1;" d="M112.447,222.34c0.079-0.061,0.169-0.13,0.247-0.19c0.159-0.122,0.301-0.231,0.456-0.35   c0.117-0.09,0.227-0.174,0.379-0.291c9.187,18.792,13.706,30.672,26.765,47.489c-0.036,2.24,0.05,4.359,0.305,6.442   C127.925,260.676,119.091,240.323,112.447,222.34z"/>
</g>
<path style="fill:#DC8744;" d="M115.452,208.269c-8.774,0-15.888,7.068-15.888,15.787h31.775  C131.34,215.337,124.227,208.269,115.452,208.269z"/>
<g>
	<polygon style="fill:#44C4A1;" points="173.653,112.784 166.992,100.66 171.879,97.969 175.399,104.362 192.744,90.864    196.177,95.271  "/>
	<polygon style="fill:#44C4A1;" points="173.653,167.929 166.992,155.805 171.879,153.114 175.399,159.507 192.744,146.009    196.177,150.416  "/>
</g>
<g>
</g>
<g>
</g>
<g>
</g>
<g>
</g>
<g>
</g>
<g>
</g>
<g>
</g>
<g>
</g>
<g>
</g>
<g>
</g>
<g>
</g>
<g>
</g>
<g>
</g>
<g>
</g>
<g>
</g>
</svg>
