<?xml version="1.0" encoding="iso-8859-1"?>
<!-- Generator: Adobe Illustrator 19.0.0, SVG Export Plug-In . SVG Version: 6.00 Build 0)  -->
<svg xmlns="http://www.w3.org/2000/svg" xmlns:xlink="http://www.w3.org/1999/xlink" version="1.1" id="Capa_1" x="0px" y="0px" viewBox="0 0 409.6 409.6" style="enable-background:new 0 0 409.6 409.6;" xml:space="preserve">
<path style="fill:#FCD462;" d="M342.888,51.326c-2.204-20.677-30.651-55.482-54.282-50.912  c-61.754,11.942-86.693,82.745-86.693,82.745s48.306-11.791,86.693-29.266C288.606,53.894,334.507,31.411,342.888,51.326z"/>
<path style="fill:#44C4A1;" d="M327.929,36.624c-16.619-0.392-37.493,9.451-41.551,11.444c-25.64,11.58-59.233,23.279-76.547,28.288  c7.17-13.817,34.624-60.756,80.646-69.588c0.455-0.088,0.97-0.113,1.517-0.14c0.6-0.03,1.221-0.061,1.878-0.174  c5.036-0.866,18.986,3.128,26.244,6.4c-2.715-2.465-5.567-4.684-8.498-6.559c-6.845-2.113-14.366-3.705-18.299-3.029  c-0.495,0.085-0.994,0.106-1.488,0.13c-0.634,0.032-1.291,0.064-1.97,0.194c-52.591,10.094-81.47,68.048-84.59,74.623l-1.504,3.17  l3.403-0.919c15.999-4.318,52.895-16.956,80.688-29.514c3.901-1.914,24.215-11.403,39.999-11.091  c4.975,0.112,9.701,1.493,12.764,2.442c-0.47-1.266-0.992-2.547-1.584-3.844C335.977,37.598,332.075,36.717,327.929,36.624z"/>
<path style="fill:#F6C358;" d="M288.606,53.894c-38.387,17.474-86.693,29.266-86.693,29.266l102.845-4.956  c0,0,34.915-4.72,38.003-21.241c0.319-1.707,0.344-3.606,0.128-5.636C334.507,31.411,288.606,53.894,288.606,53.894z"/>
<path style="fill:#FCD462;" d="M66.712,51.326c2.204-20.677,30.651-55.482,54.282-50.912c61.754,11.942,86.693,82.745,86.693,82.745  s-48.306-11.791-86.693-29.266C120.994,53.894,75.093,31.411,66.712,51.326z"/>
<path style="fill:#44C4A1;" d="M81.671,36.624c16.619-0.392,37.493,9.451,41.551,11.444c25.64,11.58,59.233,23.279,76.547,28.288  c-7.17-13.817-34.624-60.756-80.646-69.588c-0.455-0.088-0.97-0.113-1.517-0.14c-0.599-0.03-1.221-0.061-1.878-0.174  c-5.036-0.866-18.986,3.128-26.244,6.4c2.715-2.465,5.567-4.684,8.498-6.559c6.845-2.113,14.366-3.705,18.299-3.029  c0.495,0.085,0.994,0.106,1.488,0.13c0.634,0.032,1.291,0.064,1.97,0.194c52.591,10.094,81.47,68.048,84.59,74.623l1.504,3.17  l-3.403-0.919c-15.999-4.318-52.895-16.956-80.688-29.514c-3.901-1.914-24.215-11.403-39.999-11.091  c-4.975,0.112-9.701,1.493-12.764,2.442c0.47-1.266,0.992-2.547,1.584-3.844C73.623,37.598,77.525,36.717,81.671,36.624z"/>
<path style="fill:#F6C358;" d="M120.994,53.894c38.387,17.474,86.693,29.266,86.693,29.266l-102.845-4.956  c0,0-34.915-4.72-38.003-21.241c-0.319-1.707-0.344-3.606-0.128-5.636C75.093,31.411,120.994,53.894,120.994,53.894z"/>
<rect y="80.737" style="fill:#E56353;" width="409.6" height="72.986"/>
<rect x="8.643" y="153.708" style="fill:#D15241;" width="392.294" height="255.882"/>
<polygon style="fill:#CE412D;" points="400.959,171.614 8.641,171.756 8.641,153.724 400.959,153.724 "/>
<rect x="169.574" y="80.737" style="fill:#FCD462;" width="70.4" height="328.858"/>
<g>
	<rect x="178.094" y="80.737" style="fill:#44C4A1;" width="6.385" height="328.858"/>
	<rect x="225.121" y="80.737" style="fill:#44C4A1;" width="6.385" height="328.858"/>
</g>
<path style="fill:#F6C358;" d="M153.987,187.37c6.761-18.02,4.608-32.14,1.613-59.279c-27.185,3.966-41.478,5.458-57.321,16.505  c27.899-38.948,50.503-55.445,90.936-81.469c8.467,6.501,12.701,9.752,21.168,16.253  C195.239,124.822,184.876,150.719,153.987,187.37z"/>
<g>
	<path style="fill:#44C4A1;" d="M193.017,66.046c-0.274-0.211-0.526-0.404-0.809-0.621c-0.138-0.106-0.298-0.229-0.439-0.337   c-28.091,19.379-59.298,43.556-79.129,71.78c3.483-1.367,7.106-2.462,10.992-3.402c23.207-29.799,41.702-42.827,70.057-66.904   C193.42,66.356,193.225,66.206,193.017,66.046z"/>
	<path style="fill:#44C4A1;" d="M207.828,77.418c-0.14-0.108-0.3-0.231-0.439-0.337c-0.283-0.217-0.534-0.41-0.809-0.621   c-0.207-0.159-0.403-0.309-0.672-0.515c-16.298,33.335-24.313,54.41-47.479,84.243c0.065,3.973-0.089,7.733-0.541,11.427   C180.371,145.424,196.042,109.319,207.828,77.418z"/>
</g>
<path style="fill:#F6C358;" d="M253.31,187.37c-6.761-18.02-4.608-32.14-1.613-59.279c27.185,3.966,41.478,5.458,57.321,16.505  c-27.899-38.948-50.503-55.445-90.936-81.469c-8.467,6.501-12.701,9.752-21.168,16.253  C212.057,124.822,222.42,150.719,253.31,187.37z"/>
<g>
	<path style="fill:#44C4A1;" d="M214.279,66.046c0.274-0.211,0.526-0.404,0.809-0.621c0.138-0.106,0.298-0.229,0.439-0.337   c28.091,19.379,59.298,43.556,79.13,71.78c-3.483-1.367-7.106-2.462-10.992-3.402c-23.207-29.799-41.702-42.827-70.057-66.904   C213.877,66.356,214.072,66.206,214.279,66.046z"/>
	<path style="fill:#44C4A1;" d="M199.469,77.418c0.14-0.108,0.3-0.231,0.439-0.337c0.283-0.217,0.534-0.41,0.809-0.621   c0.207-0.159,0.403-0.309,0.672-0.515c16.298,33.335,24.313,54.41,47.479,84.243c-0.065,3.973,0.089,7.733,0.541,11.427   C226.926,145.424,211.254,109.319,199.469,77.418z"/>
</g>
<path style="fill:#DC8744;" d="M204.8,52.459c-15.565,0-28.184,12.538-28.184,28.005h56.367  C232.984,64.997,220.365,52.459,204.8,52.459z"/>
<g>
</g>
<g>
</g>
<g>
</g>
<g>
</g>
<g>
</g>
<g>
</g>
<g>
</g>
<g>
</g>
<g>
</g>
<g>
</g>
<g>
</g>
<g>
</g>
<g>
</g>
<g>
</g>
<g>
</g>
</svg>
