<?xml version="1.0" encoding="iso-8859-1"?>
<!-- Generator: Adobe Illustrator 19.0.0, SVG Export Plug-In . SVG Version: 6.00 Build 0)  -->
<svg xmlns="http://www.w3.org/2000/svg" xmlns:xlink="http://www.w3.org/1999/xlink" version="1.1" id="Capa_1" x="0px" y="0px" viewBox="0 0 409.6 409.6" style="enable-background:new 0 0 409.6 409.6;" xml:space="preserve">
<path style="fill:#F6C358;" d="M0,194.346v180.619c0,10.825,8.776,19.601,19.602,19.601h370.396  c10.826,0,19.602-8.776,19.602-19.601V194.346H0z"/>
<g>
	<path style="fill:#DC8744;" d="M0,194.346v54.761c69.431,15.953,139.067,24.083,207.038,24.086h0.015   c67.909,0,136.04-8.125,202.547-24.061v-54.787H0z"/>
	<path style="fill:#DC8744;" d="M290.16,68.915h-17.203V32.237H136.643v36.678H119.44V31.271c0-8.954,7.283-16.237,16.237-16.237   h138.246c8.954,0,16.237,7.283,16.237,16.237V68.915z"/>
</g>
<path style="fill:#FCD462;" d="M389.998,65.299H19.602C8.776,65.299,0,74.075,0,84.901v148.957  c137.651,32.143,274.216,33.027,409.6,0V84.901C409.6,74.075,400.824,65.299,389.998,65.299z"/>
<path style="fill:#EBF0F3;" d="M301.702,98.874H107.898c-4.378,0-7.927,3.549-7.927,7.927v87.415c0,4.378,3.549,7.928,7.927,7.928  h193.804c4.378,0,7.927-3.55,7.927-7.928v-87.415C309.629,102.423,306.08,98.874,301.702,98.874z"/>
<g>
	<polygon style="fill:#2D93BA;" points="122.311,190.041 112.071,190.041 112.071,179.801 117.656,179.801 117.656,184.456    122.311,184.456  "/>
	<path style="fill:#2D93BA;" d="M117.656,168.085h-5.585v-11.716h5.585V168.085z M117.656,144.652h-5.585v-11.72h5.585V144.652z"/>
	<polygon style="fill:#2D93BA;" points="117.656,121.216 112.071,121.216 112.071,110.976 122.311,110.976 122.311,116.561    117.656,116.561  "/>
	<path style="fill:#2D93BA;" d="M272.289,116.561h-15.004v-5.585h15.004V116.561z M242.289,116.561h-14.996v-5.585h14.996V116.561z    M212.296,116.561H197.3v-5.585h14.996V116.561z M182.304,116.561H167.3v-5.585h15.004V116.561z M152.304,116.561h-14.996v-5.585   h14.996V116.561z"/>
	<polygon style="fill:#2D93BA;" points="297.525,121.216 291.94,121.216 291.94,116.561 287.285,116.561 287.285,110.976    297.525,110.976  "/>
	<path style="fill:#2D93BA;" d="M297.525,168.085h-5.585v-11.72h5.585V168.085z M297.525,144.649h-5.585v-11.716h5.585V144.649z"/>
	<polygon style="fill:#2D93BA;" points="297.525,190.041 287.285,190.041 287.285,184.456 291.94,184.456 291.94,179.801    297.525,179.801  "/>
	<path style="fill:#2D93BA;" d="M272.289,190.041h-14.996v-5.585h14.996V190.041z M242.296,190.041h-15.004v-5.585h15.004V190.041z    M212.296,190.041H197.3v-5.585h14.996V190.041z M182.304,190.041h-14.996v-5.585h14.996V190.041z M152.311,190.041h-15.004v-5.585   h15.004V190.041z"/>
</g>
<path style="fill:#64798A;" d="M222.22,235.102h-34.84c-2.311,0-4.184,1.873-4.184,4.185v54.496c0,2.311,1.873,4.185,4.184,4.185  h34.84c2.311,0,4.184-1.873,4.184-4.185v-54.496C226.404,236.976,224.531,235.102,222.22,235.102z"/>
<g>
</g>
<g>
</g>
<g>
</g>
<g>
</g>
<g>
</g>
<g>
</g>
<g>
</g>
<g>
</g>
<g>
</g>
<g>
</g>
<g>
</g>
<g>
</g>
<g>
</g>
<g>
</g>
<g>
</g>
</svg>
