<?xml version="1.0" encoding="iso-8859-1"?>
<!-- Generator: Adobe Illustrator 19.0.0, SVG Export Plug-In . SVG Version: 6.00 Build 0)  -->
<svg xmlns="http://www.w3.org/2000/svg" xmlns:xlink="http://www.w3.org/1999/xlink" version="1.1" id="Capa_1" x="0px" y="0px" viewBox="0 0 409.599 409.599" style="enable-background:new 0 0 409.599 409.599;" xml:space="preserve">
<g>
	<path style="fill:#31978C;" d="M99.6,170.265l-40.807,0c-2.254-28.571,12.54-54.837,40.808-79.282L99.6,170.265z"/>
	<path style="fill:#31978C;" d="M390.333,298.178c-4.159,0-8.216-1.4-11.267-4.017c-6.319-5.411-8.822-15.095-6.353-24.66   c1.394-5.462,4.182-10.393,7.908-14.461c-11.061-14.232-26.671-26.425-43.949-39.166l6.948-9.416   c15.244,11.239,33.036,24.351,46.177,41.315c5.954-3.331,12.878-5.016,19.803-4.382l-1.028,11.656   c-4.102-0.371-8.285,0.6-12.033,2.497c3.211,5.296,5.931,10.936,7.999,16.969c1.303,3.857,2.582,8.919,0.823,13.918   c-1.577,4.468-5.325,7.799-10.296,9.13C393.499,297.978,391.91,298.178,390.333,298.178z M387.488,265.211   c-1.588,2.183-2.777,4.617-3.44,7.199c-1.12,4.331-0.731,9.982,2.628,12.861c1.268,1.08,3.462,1.48,5.348,0.988   c0.697-0.189,1.92-0.663,2.297-1.72c0.571-1.617-0.16-4.188-0.868-6.251C391.887,273.701,389.888,269.359,387.488,265.211z"/>
</g>
<path style="fill:#44C4A1;" d="M191.057,100.141c-75.74,0-139.532,41.017-159.601,97.066H9.173c-5.065,0-9.173,4.107-9.173,9.173  v35.282c0,5.066,4.108,9.174,9.173,9.174h16.925c5.862,39.544,32.817,73.831,71.619,95.171v37.465c0,5.066,4.107,9.174,9.173,9.174  h39.588c5.065,0,9.173-4.107,9.173-9.174v-17.389c11.42,2.005,23.244,3.127,35.406,3.127c12.161,0,23.986-1.122,35.406-3.127v17.389  c0,5.066,4.108,9.174,9.173,9.174h39.588c5.067,0,9.173-4.107,9.173-9.174v-37.465c44.01-24.204,72.932-65.029,72.932-111.331  C357.329,160.375,282.887,100.141,191.057,100.141z"/>
<path style="fill:#3EA69B;" d="M117.671,170.265l-40.807,0c-2.254-28.571,12.54-54.837,40.808-79.282L117.671,170.265z"/>
<rect x="132.828" y="146.362" style="fill:#FFFFFF;" width="146.903" height="13.409"/>
<circle style="fill:#FCD462;" cx="206.285" cy="82.275" r="65.321"/>
<g>
	<path style="fill:#F6C358;" d="M206.277,139.336c-31.47,0-57.067-25.602-57.067-57.067c0-31.47,25.597-57.073,57.067-57.073   s57.078,25.602,57.078,57.073C263.355,113.733,237.747,139.336,206.277,139.336z M206.277,33.972   c-26.625,0-48.291,21.666-48.291,48.297c0,26.625,21.666,48.291,48.291,48.291c26.637,0,48.302-21.666,48.302-48.291   C254.579,55.638,232.913,33.972,206.277,33.972z"/>
	<path style="fill:#F6C358;" d="M204.334,119.012v-6.472c-8.102-0.826-15.374-4.047-21.81-9.66l6.472-7.712   c4.964,4.314,10.072,6.883,15.338,7.712v-17.2c-6.681-1.594-11.572-3.694-14.675-6.295c-3.102-2.601-4.653-6.457-4.653-11.569   c0-5.112,1.782-9.292,5.36-12.546c3.578-3.25,8.232-5.021,13.968-5.317V45.52h5.671v4.52c6.5,0.476,12.647,2.691,18.441,6.652   l-5.764,8.156c-3.903-2.778-8.124-4.491-12.676-5.144V76.37h0.267c6.796,1.598,11.789,3.755,14.978,6.472   c3.196,2.72,4.791,6.666,4.791,11.836c0,5.173-1.833,9.386-5.498,12.633c-3.665,3.254-8.506,5.025-14.537,5.321v6.381H204.334z    M198.079,61.789c-1.508,1.327-2.258,2.983-2.258,4.964s0.592,3.546,1.775,4.697c1.176,1.154,3.427,2.262,6.738,3.326V59.437   C201.672,59.675,199.587,60.458,198.079,61.789z M216.744,100.661c1.652-1.356,2.482-3.07,2.482-5.14   c0-2.067-0.649-3.708-1.948-4.92c-1.306-1.212-3.73-2.348-7.272-3.413v15.955C212.84,102.851,215.084,102.021,216.744,100.661z"/>
</g>
<g>
</g>
<g>
</g>
<g>
</g>
<g>
</g>
<g>
</g>
<g>
</g>
<g>
</g>
<g>
</g>
<g>
</g>
<g>
</g>
<g>
</g>
<g>
</g>
<g>
</g>
<g>
</g>
<g>
</g>
</svg>
