<?xml version="1.0" encoding="iso-8859-1"?>
<!-- Generator: Adobe Illustrator 19.0.0, SVG Export Plug-In . SVG Version: 6.00 Build 0)  -->
<svg xmlns="http://www.w3.org/2000/svg" xmlns:xlink="http://www.w3.org/1999/xlink" version="1.1" id="Capa_1" x="0px" y="0px" viewBox="0 0 409.6 409.6" style="enable-background:new 0 0 409.6 409.6;" xml:space="preserve">
<path style="fill:#3A556A;" d="M0,393.762v11.042c0,2.649,2.147,4.796,4.796,4.796h400.007c2.649,0,4.796-2.147,4.796-4.796v-11.042  H0z"/>
<polygon style="fill:#64798A;" points="362.545,332.923 47.055,332.923 0,393.762 409.6,393.762 "/>
<path style="fill:#3A556A;" d="M351.538,129.048H58.062c-6.044,0-10.943,4.899-10.943,10.942v192.932h315.362V139.991  C362.481,133.947,357.582,129.048,351.538,129.048z"/>
<rect x="69.463" y="151.388" style="fill:#EBF0F3;" width="270.674" height="159.181"/>
<g>
	<polygon style="fill:#E1E6E9;" points="340.138,151.39 182.453,151.39 275.419,310.583 340.138,310.583  "/>
	<polygon style="fill:#E1E6E9;" points="77.772,339.593 53.727,339.593 56.357,336.112 79.982,336.112  "/>
	<polygon style="fill:#E1E6E9;" points="121.996,339.593 97.952,339.593 99.81,336.112 123.435,336.112  "/>
	<polygon style="fill:#E1E6E9;" points="152.481,339.593 128.437,339.593 129.763,336.112 153.388,336.112  "/>
	<polygon style="fill:#E1E6E9;" points="182.966,339.593 158.922,339.593 159.716,336.112 183.341,336.112  "/>
	<polygon style="fill:#E1E6E9;" points="213.451,339.593 189.407,339.593 189.669,336.112 213.294,336.112  "/>
	<polygon style="fill:#E1E6E9;" points="263.687,339.593 239.643,339.593 239.028,336.112 262.653,336.112  "/>
	<polygon style="fill:#E1E6E9;" points="294.172,339.593 270.127,339.593 268.981,336.112 292.606,336.112  "/>
	<polygon style="fill:#E1E6E9;" points="324.657,339.593 300.612,339.593 298.934,336.112 322.559,336.112  "/>
	<polygon style="fill:#E1E6E9;" points="355.142,339.593 331.097,339.593 328.887,336.112 352.512,336.112  "/>
	<polygon style="fill:#E1E6E9;" points="72.552,347.815 47.517,347.815 51.555,342.469 75.946,342.469  "/>
	<polygon style="fill:#E1E6E9;" points="108.652,347.815 83.617,347.815 86.726,342.469 111.117,342.469  "/>
	<polygon style="fill:#E1E6E9;" points="144.752,347.815 119.717,347.815 121.897,342.469 146.288,342.469  "/>
	<polygon style="fill:#E1E6E9;" points="180.852,347.815 155.817,347.815 157.068,342.469 181.459,342.469  "/>
	<polygon style="fill:#E1E6E9;" points="216.952,347.815 191.917,347.815 192.239,342.469 216.63,342.469  "/>
	<polygon style="fill:#E1E6E9;" points="253.052,347.815 228.017,347.815 227.41,342.469 251.801,342.469  "/>
	<polygon style="fill:#E1E6E9;" points="289.152,347.815 264.117,347.815 262.581,342.469 286.972,342.469  "/>
	<polygon style="fill:#E1E6E9;" points="325.252,347.815 300.217,347.815 297.752,342.469 322.143,342.469  "/>
	<polygon style="fill:#E1E6E9;" points="361.353,347.815 336.317,347.815 332.923,342.469 357.314,342.469  "/>
	<polygon style="fill:#E1E6E9;" points="67.562,355.674 41.58,355.674 45.925,349.921 71.215,349.921  "/>
	<polygon style="fill:#E1E6E9;" points="105.028,355.674 79.046,355.674 82.392,349.921 107.681,349.921  "/>
	<polygon style="fill:#E1E6E9;" points="142.494,355.674 116.511,355.674 118.858,349.921 144.147,349.921  "/>
	<polygon style="fill:#E1E6E9;" points="179.96,355.674 153.977,355.674 155.324,349.921 180.613,349.921  "/>
	<polygon style="fill:#E1E6E9;" points="217.426,355.674 191.443,355.674 191.79,349.921 217.079,349.921  "/>
	<polygon style="fill:#E1E6E9;" points="254.892,355.674 228.909,355.674 228.256,349.921 253.545,349.921  "/>
	<polygon style="fill:#E1E6E9;" points="292.358,355.674 266.375,355.674 264.722,349.921 290.011,349.921  "/>
	<polygon style="fill:#E1E6E9;" points="329.824,355.674 303.841,355.674 301.188,349.921 326.478,349.921  "/>
	<polygon style="fill:#E1E6E9;" points="367.289,355.674 341.307,355.674 337.654,349.921 362.944,349.921  "/>
	<polygon style="fill:#E1E6E9;" points="82.241,364.151 35.176,364.151 39.865,357.944 85.627,357.944  "/>
	<polygon style="fill:#E1E6E9;" points="118.82,364.151 91.816,364.151 94.936,357.944 121.192,357.944  "/>
	<polygon style="fill:#E1E6E9;" points="157.759,364.151 130.755,364.151 132.796,357.944 159.053,357.944  "/>
	<polygon style="fill:#E1E6E9;" points="196.699,364.151 169.694,364.151 170.657,357.944 196.913,357.944  "/>
	<polygon style="fill:#E1E6E9;" points="235.638,364.151 208.633,364.151 208.517,357.944 234.773,357.944  "/>
	<polygon style="fill:#E1E6E9;" points="295.815,364.151 243.976,364.151 242.881,357.944 293.283,357.944  "/>
	<polygon style="fill:#E1E6E9;" points="334.754,364.151 307.75,364.151 304.888,357.944 331.144,357.944  "/>
	<polygon style="fill:#E1E6E9;" points="373.693,364.151 346.689,364.151 342.748,357.944 369.004,357.944  "/>
	<polygon style="fill:#E1E6E9;" points="56.357,373.323 28.248,373.323 33.323,366.604 60.623,366.604  "/>
	<polygon style="fill:#E1E6E9;" points="218.489,373.323 68.781,373.323 72.688,366.604 218.084,366.604  "/>
	<polygon style="fill:#E1E6E9;" points="259.022,373.323 230.913,373.323 230.15,366.604 257.45,366.604  "/>
	<polygon style="fill:#E1E6E9;" points="340.088,373.323 311.979,373.323 308.881,366.604 336.181,366.604  "/>
	<polygon style="fill:#E1E6E9;" points="380.621,373.323 352.512,373.323 348.246,366.604 375.546,366.604  "/>
	<polygon style="fill:#E1E6E9;" points="298.01,369.533 296.815,366.604 269.515,366.604 270.357,369.533  "/>
	<polygon style="fill:#E1E6E9;" points="270.576,370.296 271.445,373.323 299.555,373.323 298.321,370.296  "/>
</g>
<polygon style="fill:#3A556A;" points="246.297,388.879 163.303,388.879 168.58,375.792 241.02,375.792 "/>
<path style="fill:#27A2DB;" d="M228.298,2.092l-112.18,123.964c-2.356,2.604-2.156,6.625,0.448,8.981l76.596,69.314  c2.604,2.356,6.625,2.156,8.981-0.448l112.18-123.964c2.356-2.604,2.156-6.625-0.448-8.981L237.279,1.644  C234.675-0.712,230.654-0.512,228.298,2.092z"/>
<rect x="100.135" y="71.642" transform="matrix(-0.671 0.7415 -0.7415 -0.671 377.1464 -6.8529)" style="fill:#3A556A;" width="179.917" height="17.213"/>
<g>
	
		<rect x="148.636" y="134.267" transform="matrix(-0.671 0.7415 -0.7415 -0.671 390.6584 101.7303)" style="fill:#FFFFFF;" width="48.246" height="6.543"/>
	
		<rect x="160.519" y="142.454" transform="matrix(-0.671 0.7415 -0.7415 -0.671 426.2358 102.3172)" style="fill:#FFFFFF;" width="59.797" height="6.543"/>
	
		<rect x="173.16" y="151.479" transform="matrix(-0.671 0.7415 -0.7415 -0.671 463.1369 103.9933)" style="fill:#FFFFFF;" width="70.672" height="6.543"/>
</g>
<ellipse style="fill:#E56353;" cx="272.744" cy="90.643" rx="11.157" ry="11.157"/>
<ellipse style="fill:#FCD462;" cx="285.805" cy="76.182" rx="11.157" ry="11.157"/>
<g>
	<path style="fill:#E56353;" d="M180.665,242.162c2.531,2.117,3.797,5.376,3.797,9.778c0,4.407-1.291,7.632-3.877,9.677   c-2.582,2.045-6.544,3.069-11.882,3.069h-6.451v10.663h-6.138v-36.357h12.483C174.113,238.991,178.134,240.05,180.665,242.162z    M176.322,257.168c1.232-1.3,1.846-3.204,1.846-5.719c0-2.514-0.779-4.292-2.341-5.334c-1.562-1.041-4.004-1.558-7.336-1.558   h-6.239v14.562h7.124C172.775,259.119,175.091,258.472,176.322,257.168z"/>
	<path style="fill:#E56353;" d="M194.863,267.078l-3.64,8.271h-6.553l16.022-36.357h6.553l16.022,36.357h-6.557l-3.64-8.271H194.863   z M210.572,261.41l-6.604-14.981l-6.608,14.981H210.572z"/>
	<path style="fill:#E56353;" d="M239.962,275.349h-6.239v-14.354l-13.524-22.003h6.709l9.935,16.538l9.935-16.538h6.709   l-13.525,22.003V275.349z"/>
</g>
<g>
	<polygon style="fill:#64798A;" points="304.691,273.116 268.722,253.29 278.603,293.156 283.581,279.155 293.739,292.379    300.038,287.54 289.88,274.316  "/>
	<rect x="267.622" y="236.288" style="fill:#64798A;" width="2.222" height="6.395"/>
	<rect x="267.622" y="262.554" style="fill:#64798A;" width="2.222" height="6.395"/>
	<rect x="278.682" y="251.489" style="fill:#64798A;" width="6.395" height="2.222"/>
	<rect x="252.365" y="251.489" style="fill:#64798A;" width="6.395" height="2.222"/>
	
		<rect x="276.91" y="240.11" transform="matrix(-0.7071 -0.7071 0.7071 -0.7071 302.5673 611.9433)" style="fill:#64798A;" width="2.222" height="6.395"/>
	
		<rect x="258.295" y="258.697" transform="matrix(-0.7071 -0.7071 0.7071 -0.7071 257.6471 630.5092)" style="fill:#64798A;" width="2.222" height="6.395"/>
	
		<rect x="276.864" y="258.665" transform="matrix(0.7071 -0.7071 0.7071 0.7071 -103.748 273.2559)" style="fill:#64798A;" width="2.222" height="6.395"/>
	
		<rect x="258.359" y="240.127" transform="matrix(0.7071 -0.7071 0.7071 0.7071 -96.059 254.7409)" style="fill:#64798A;" width="2.222" height="6.395"/>
</g>
<g>
</g>
<g>
</g>
<g>
</g>
<g>
</g>
<g>
</g>
<g>
</g>
<g>
</g>
<g>
</g>
<g>
</g>
<g>
</g>
<g>
</g>
<g>
</g>
<g>
</g>
<g>
</g>
<g>
</g>
</svg>
