<?xml version="1.0" encoding="iso-8859-1"?>
<!-- Generator: Adobe Illustrator 19.0.0, SVG Export Plug-In . SVG Version: 6.00 Build 0)  -->
<svg xmlns="http://www.w3.org/2000/svg" xmlns:xlink="http://www.w3.org/1999/xlink" version="1.1" id="Capa_1" x="0px" y="0px" viewBox="0 0 409.592 409.592" style="enable-background:new 0 0 409.592 409.592;" xml:space="preserve">
<path style="fill:#FCD462;" d="M409.592,237.902v159.572c0,6.67-5.448,12.118-12.118,12.118H141.669  c-6.67,0-12.118-5.448-12.118-12.118V237.902c0-6.67,5.448-12.118,12.118-12.118h255.805  C404.144,225.784,409.592,231.232,409.592,237.902z"/>
<path style="fill:#27A2DB;" d="M184.744,259.748h-28.854c-2.839,0-5.14,2.302-5.14,5.141v28.854c0,2.839,2.302,5.14,5.14,5.14  h28.854c2.839,0,5.141-2.302,5.141-5.14v-28.854C189.885,262.05,187.583,259.748,184.744,259.748z"/>
<g>
	<rect x="150.748" y="317.696" style="fill:#EBF0F3;" width="83.579" height="10.399"/>
	<rect x="150.748" y="349.389" style="fill:#EBF0F3;" width="102.81" height="10.399"/>
</g>
<g>
	<rect x="150.748" y="380.928" style="fill:#3A556A;" width="41.789" height="10.399"/>
	<rect x="214.758" y="380.928" style="fill:#3A556A;" width="41.789" height="10.399"/>
	<rect x="278.784" y="380.928" style="fill:#3A556A;" width="41.789" height="10.399"/>
	<rect x="342.779" y="380.928" style="fill:#3A556A;" width="41.789" height="10.399"/>
</g>
<circle style="fill:#E56353;" cx="374.682" cy="262.246" r="22.303"/>
<circle style="fill:#EBF0F3;" cx="344.32" cy="262.246" r="22.303"/>
<rect style="fill:#44C4A1;" width="309.658" height="182.108"/>
<g>
	<path style="fill:#3EA69B;" d="M14.9,14.905v152.314h279.852V14.905H14.9z M279.857,137.431c-8.225,0-14.894,6.668-14.894,14.894   H44.688c0-8.226-6.669-14.894-14.894-14.894V44.693c8.225,0,14.894-6.668,14.894-14.894h220.276   c0,8.226,6.669,14.894,14.894,14.894V137.431z"/>
	<ellipse style="fill:#3EA69B;" cx="154.829" cy="91.064" rx="38.932" ry="50.565"/>
</g>
<g>
	<path style="fill:#64798A;" d="M364.652,59.276h-24.659v-9.259L323.201,66.81l16.792,16.793V74.17h24.659   c5.323,0,9.651,4.327,9.651,9.651v86.019h14.894V83.82C389.196,70.286,378.186,59.276,364.652,59.276z"/>
	<path style="fill:#64798A;" d="M44.948,350.324h24.659v9.259l16.792-16.793l-16.792-16.793v9.432H44.948   c-5.323,0-9.651-4.327-9.651-9.651v-86.019H20.404v86.019C20.404,339.314,31.414,350.324,44.948,350.324z"/>
</g>
<g>
</g>
<g>
</g>
<g>
</g>
<g>
</g>
<g>
</g>
<g>
</g>
<g>
</g>
<g>
</g>
<g>
</g>
<g>
</g>
<g>
</g>
<g>
</g>
<g>
</g>
<g>
</g>
<g>
</g>
</svg>
