<?xml version="1.0" encoding="iso-8859-1"?>
<!-- Generator: Adobe Illustrator 19.0.0, SVG Export Plug-In . SVG Version: 6.00 Build 0)  -->
<svg xmlns="http://www.w3.org/2000/svg" xmlns:xlink="http://www.w3.org/1999/xlink" version="1.1" id="Capa_1" x="0px" y="0px" viewBox="0 0 409.6 409.6" style="enable-background:new 0 0 409.6 409.6;" xml:space="preserve">
<path style="fill:#27A2DB;" d="M358.751,170.989L217.144,23.592c-6.516-6.778-18.167-6.778-24.684,0L50.853,170.989l-10.735-10.32  L181.726,13.272c6.087-6.338,14.284-9.829,23.076-9.829c8.793,0,16.989,3.491,23.076,9.829l141.607,147.396L358.751,170.989z"/>
<circle style="fill:#FCD462;" cx="204.8" cy="23.137" r="23.137"/>
<path style="fill:#64798A;" d="M387.129,128.685H22.471C10.06,128.685,0,138.745,0,151.155v235.974  c0,12.41,10.06,22.471,22.471,22.471h364.658c12.411,0,22.471-10.06,22.471-22.471V151.155  C409.6,138.745,399.54,128.685,387.129,128.685z"/>
<polygon style="fill:#FCD462;" points="22.465,387.258 22.342,151.156 387.127,151.025 387.258,387.13 387.127,387.258 "/>
<polygon style="fill:#F6C358;" points="124.728,387.258 272.102,151.156 387.127,151.025 387.258,387.13 387.127,387.258 "/>
<g>
	<path style="fill:#E56353;" d="M112.538,298.799c-8.121,7.934-18.16,11.901-30.116,11.901s-21.996-3.967-30.116-11.901   c-8.13-7.929-12.191-17.818-12.191-29.658c0-11.844,4.06-21.729,12.191-29.663c8.121-7.934,18.16-11.896,30.116-11.896   s21.996,3.962,30.116,11.896c8.13,7.934,12.191,17.818,12.191,29.663C124.728,280.981,120.668,290.87,112.538,298.799z    M102.602,248.502c-5.483-5.67-12.209-8.504-20.181-8.504s-14.698,2.835-20.181,8.504c-5.473,5.674-8.214,12.551-8.214,20.639   s2.741,14.965,8.214,20.634c5.483,5.674,12.209,8.509,20.181,8.509s14.698-2.835,20.181-8.509   c5.473-5.67,8.214-12.546,8.214-20.634S108.075,254.177,102.602,248.502z"/>
	<path style="fill:#E56353;" d="M196.122,236.55c5.595,4.673,8.392,11.877,8.392,21.612c0,9.735-2.854,16.859-8.57,21.383   c-5.707,4.524-14.464,6.783-26.262,6.783h-14.258v23.567h-13.566v-80.362h27.59C181.64,229.533,190.528,231.872,196.122,236.55z    M186.523,269.717c2.723-2.877,4.079-7.092,4.079-12.649c0-5.553-1.721-9.482-5.174-11.784c-3.452-2.297-8.851-3.448-16.214-3.448   h-13.79v32.189h15.746C178.683,274.025,183.801,272.589,186.523,269.717z"/>
	<path style="fill:#E56353;" d="M276.938,229.533v12.761H234.06v21.27h38.509v12.069H234.06v21.5h44.262v12.761h-57.828v-80.362   H276.938z"/>
	<path style="fill:#E56353;" d="M355.92,229.533h13.566v80.362h-14.717l-45.525-58.633v58.633h-13.566v-80.362h13.566l46.676,60.013   V229.533z"/>
</g>
<g>
</g>
<g>
</g>
<g>
</g>
<g>
</g>
<g>
</g>
<g>
</g>
<g>
</g>
<g>
</g>
<g>
</g>
<g>
</g>
<g>
</g>
<g>
</g>
<g>
</g>
<g>
</g>
<g>
</g>
</svg>
