<?xml version="1.0" encoding="iso-8859-1"?>
<!-- Generator: Adobe Illustrator 19.0.0, SVG Export Plug-In . SVG Version: 6.00 Build 0)  -->
<svg xmlns="http://www.w3.org/2000/svg" xmlns:xlink="http://www.w3.org/1999/xlink" version="1.1" id="Capa_1" x="0px" y="0px" viewBox="0 0 409.6 409.6" style="enable-background:new 0 0 409.6 409.6;" xml:space="preserve">
<path style="fill:#EBF0F3;" d="M409.594,18.469v372.646c0,10.202-8.266,18.468-18.468,18.468H18.479  c-10.201,0-18.468-8.266-18.468-18.468V18.469C0.011,8.266,8.278,0,18.479,0h372.646C401.328,0,409.594,8.266,409.594,18.469z"/>
<path style="fill:#64798A;" d="M409.589,18.496c0-10.205-8.273-18.478-18.478-18.478H18.485C8.28,0.017,0.006,8.29,0.006,18.496  v36.321h409.583V18.496z"/>
<circle style="fill:#EBF0F3;" cx="297.37" cy="27.418" r="13.42"/>
<circle style="fill:#FCD462;" cx="336.794" cy="27.418" r="13.42"/>
<circle style="fill:#E56353;" cx="376.166" cy="27.418" r="13.42"/>
<path style="fill:#E1E6E9;" d="M0.006,54.817v336.305c0,10.205,8.273,18.478,18.478,18.478H122.4V54.817H0.006z"/>
<g>
	<rect x="18.017" y="83.988" style="fill:#D5D6DB;" width="83.256" height="8.94"/>
	<rect x="18.017" y="118.323" style="fill:#D5D6DB;" width="83.256" height="8.94"/>
	<rect x="18.017" y="152.653" style="fill:#D5D6DB;" width="83.256" height="8.94"/>
	<rect x="18.017" y="186.988" style="fill:#D5D6DB;" width="83.256" height="8.94"/>
	<rect x="18.017" y="221.338" style="fill:#D5D6DB;" width="83.256" height="8.94"/>
</g>
<rect x="153.651" y="88.474" style="fill:#FFFFFF;" width="93.133" height="102.605"/>
<rect x="153.651" y="191.027" style="fill:#E56353;" width="93.133" height="27.233"/>
<rect x="289.229" y="88.474" style="fill:#FFFFFF;" width="93.133" height="102.605"/>
<rect x="289.229" y="191.027" style="fill:#E56353;" width="93.133" height="27.233"/>
<rect x="153.651" y="254.787" style="fill:#FFFFFF;" width="93.133" height="102.605"/>
<rect x="153.651" y="357.376" style="fill:#E56353;" width="93.133" height="27.233"/>
<rect x="289.229" y="254.787" style="fill:#FFFFFF;" width="93.133" height="102.605"/>
<rect x="289.229" y="357.376" style="fill:#E56353;" width="93.133" height="27.233"/>
<polygon style="fill:#2D93BA;" points="203.566,109.869 196.926,101.569 186.966,101.569 180.326,109.869 186.966,121.489   196.926,121.489 "/>
<polygon style="fill:#27A2DB;" points="196.926,121.489 186.966,121.489 178.666,166.307 191.946,177.927 205.226,166.307 "/>
<polyline style="fill:#1C75A1;" points="198.608,131.56 218.505,144.728 221.825,151.368 215.185,153.028 200.615,141.408 "/>
<path style="fill:#3A556A;" d="M369.742,135.506c-6.011-4.007-8.596-11.542-6.312-18.396l2.918-8.754l-11.878-6.787  c0,0-5.091,17.888-18.665,22.059v54.299h33.937V135.506z"/>
<path style="fill:#64798A;" d="M317.14,101.569l-11.878,6.787l2.918,8.754c2.285,6.854-0.3,14.388-6.311,18.396v42.421h33.937  v-54.299C322.23,119.458,317.14,101.569,317.14,101.569z"/>
<g>
	<rect x="347.684" y="155.868" style="fill:#2F4859;" width="16.968" height="3.395"/>
	<rect x="306.959" y="155.868" style="fill:#2F4859;" width="16.968" height="3.395"/>
	<rect x="340.89" y="130.417" style="fill:#2F4859;" width="3.395" height="3.395"/>
	<rect x="340.89" y="142.295" style="fill:#2F4859;" width="3.395" height="3.395"/>
	<rect x="340.89" y="154.163" style="fill:#2F4859;" width="3.395" height="3.395"/>
	<rect x="340.89" y="166.042" style="fill:#2F4859;" width="3.395" height="3.395"/>
</g>
<path style="fill:#E56353;" d="M178.859,278.558h-6.121c-1.688,0-3.056,1.368-3.056,3.056v56.543c0,1.688,1.368,3.056,3.056,3.056  h55.015c1.688,0,3.056-1.368,3.056-3.056v-56.543c0-1.688-1.368-3.056-3.056-3.056h-6.106"/>
<g>
	<rect x="198.717" y="284.672" style="fill:#CE412D;" width="3.057" height="56.525"/>
	<rect x="207.887" y="303.002" style="fill:#CE412D;" width="16.809" height="3.057"/>
	<rect x="192.604" y="299.93" style="fill:#CE412D;" width="3.057" height="3.057"/>
	<rect x="192.604" y="310.63" style="fill:#CE412D;" width="3.057" height="3.057"/>
	<rect x="192.604" y="321.331" style="fill:#CE412D;" width="3.057" height="3.057"/>
	<rect x="192.604" y="332.042" style="fill:#CE412D;" width="3.057" height="3.057"/>
	<polygon style="fill:#CE412D;" points="186.523,270.943 214.093,271 200.254,284.673  "/>
</g>
<g>
	<path style="fill:#D15241;" d="M200.254,284.673l-7.638,7.638l-13.756-13.756l7.552-7.552c0.048-0.048,0.125-0.048,0.173,0   L200.254,284.673z"/>
	<path style="fill:#D15241;" d="M200.254,284.673l7.638,7.638l13.756-13.756l-7.359-7.359c-0.154-0.154-0.405-0.154-0.559,0   L200.254,284.673z"/>
</g>
<g>
	<path style="fill:#DC8744;" d="M354.82,317.748l-3.041-0.93c2.627-8.592,6.426-18.864,9.917-26.809   c6.093-13.872,8.31-14.512,10.045-13.978c1.799,0.55,3.212,2.662,1.393,14.296c-1.146,7.327-3.299,16.417-5.904,24.938l-3.041-0.93   c5.13-16.783,7.137-30.803,6.527-34.648C367.614,283.349,359.997,300.815,354.82,317.748z"/>
	<path style="fill:#DC8744;" d="M316.788,317.748c-5.177-16.933-12.793-34.4-15.894-38.061c-0.612,3.845,1.395,17.866,6.525,34.648   l-3.041,0.93c-2.605-8.52-4.756-17.61-5.902-24.938c-1.819-11.634-0.405-13.746,1.393-14.296c1.733-0.53,3.951,0.105,10.045,13.978   c3.49,7.944,7.289,18.216,9.916,26.809L316.788,317.748z"/>
	<path style="fill:#DC8744;" d="M366.331,279.765l-1.034,0.684c-0.191,0.111-19.07,12.565-22.601,25.289   c-0.843,3.054-3.674,5.185-6.887,5.185c-3.213,0-6.06-2.131-6.903-5.185c-3.531-12.74-22.411-25.178-22.601-25.289l-1.034-0.684   l3.976-11.913l1.288,0.127c18.895,2.1,31.651,2.1,50.547,0l1.272-0.127L366.331,279.765z"/>
</g>
<g>
	<path style="fill:#FCD462;" d="M373.382,326.548c-0.954-5.186-3.277-11.411-6.943-13.328c-5.986-3.133-18.869,4.989-28.615,12.351   l0.959,1.27l0.005,1.857c1.959,1.989,1.964,5.589,0.019,7.59l0.004,1.621l-0.859,1.339c0.679,0.435,1.347,0.746,2.044,0.95   c7.286,2.134,15.795,4.106,22.351,4.106c4.127,0,7.48-0.781,9.267-2.796C374.373,338.397,374.335,331.74,373.382,326.548z"/>
	<path style="fill:#FCD462;" d="M332.799,337.909l0.002-0.772c-3.463-1.822-3.451-7.473,0.023-9.278l0.003-1.018l0,0l0.958-1.269   c-9.745-7.364-22.614-15.487-28.615-12.351c-3.664,1.917-5.988,8.141-6.941,13.328c-0.954,5.192-0.991,11.849,1.769,14.96   c1.786,2.015,5.138,2.797,9.267,2.797c6.555-0.001,15.065-1.973,22.35-4.107c0.691-0.203,1.379-0.523,2.046-0.951L332.799,337.909   L332.799,337.909z"/>
</g>
<path style="fill:#DC8744;" d="M335.804,341.14c-3.568,0-6.362-3.843-6.362-8.748s2.794-8.748,6.362-8.748  c3.568,0,6.362,3.843,6.362,8.748S339.372,341.14,335.804,341.14z M335.804,326.826c-1.505,0-3.181,2.286-3.181,5.567  s1.676,5.567,3.181,5.567c1.505,0,3.181-2.286,3.181-5.567S337.309,326.826,335.804,326.826z"/>
<g>
</g>
<g>
</g>
<g>
</g>
<g>
</g>
<g>
</g>
<g>
</g>
<g>
</g>
<g>
</g>
<g>
</g>
<g>
</g>
<g>
</g>
<g>
</g>
<g>
</g>
<g>
</g>
<g>
</g>
</svg>
