<?xml version="1.0" encoding="iso-8859-1"?>
<!-- Generator: Adobe Illustrator 19.0.0, SVG Export Plug-In . SVG Version: 6.00 Build 0)  -->
<svg xmlns="http://www.w3.org/2000/svg" xmlns:xlink="http://www.w3.org/1999/xlink" version="1.1" id="Capa_1" x="0px" y="0px" viewBox="0 0 409.6 409.6" style="enable-background:new 0 0 409.6 409.6;" xml:space="preserve">
<rect x="149.35" y="334.601" style="fill:#E1E6E9;" width="110.915" height="43.049"/>
<path style="fill:#3A556A;" d="M409.6,21.762c0-8.226-6.668-14.894-14.895-14.894H14.896c-8.225,0-14.894,6.668-14.894,14.894  v255.197H409.6V21.762z"/>
<rect x="22.344" y="29.208" style="fill:#64798A;" width="364.902" height="247.757"/>
<path style="fill:#EBF0F3;" d="M0,276.959v47.583c0,8.226,6.669,14.894,14.894,14.894h379.809c8.226,0,14.894-6.669,14.894-14.894  v-47.583H0z"/>
<g>
	<circle style="fill:#E1E6E9;" cx="204.8" cy="308.182" r="15.928"/>
	<rect x="115.958" y="390.87" style="fill:#E1E6E9;" width="177.684" height="11.863"/>
</g>
<polygon style="fill:#D5D6DB;" points="260.257,373.67 149.341,373.67 115.958,390.886 293.64,390.886 "/>
<g>
	<path style="fill:#FFFFFF;" d="M240.685,150.716c-5.509,0-10.216,3.426-12.152,8.253h-29.311   c-1.936-4.827-6.645-8.253-12.161-8.253c-5.509,0-10.216,3.426-12.152,8.253h-4.976c-3.588,0-6.512-2.919-6.512-6.507   s2.923-6.507,6.512-6.507h86.428l12.043-66.95H161.589l-3.429-16.581h-16.962v8.962h9.662l13.777,66.599   c-5.922,2.173-10.18,7.814-10.18,14.477c0,8.529,6.94,15.469,15.474,15.469h4.738c1.732,5.217,6.6,9.015,12.39,9.015   c5.796,0,10.667-3.797,12.399-9.015h28.836c1.732,5.217,6.6,9.015,12.39,9.015c5.796,0,10.667-3.797,12.399-9.015h7.145v-8.962   h-7.382C250.91,154.142,246.201,150.716,240.685,150.716z M257.69,87.967l-8.822,49.025h-75.291l-10.135-49.025H257.69z    M187.06,167.984c-2.284,0-4.149-1.864-4.149-4.153c0-2.289,1.864-4.153,4.149-4.153c2.293,0,4.157,1.864,4.157,4.153   C191.217,166.12,189.353,167.984,187.06,167.984z M240.685,167.984c-2.284,0-4.149-1.864-4.149-4.153   c0-2.289,1.864-4.153,4.149-4.153c2.293,0,4.157,1.864,4.157,4.153C244.842,166.12,242.978,167.984,240.685,167.984z"/>
	<rect x="178.667" y="99.086" style="fill:#FFFFFF;" width="8.96" height="27.305"/>
	<rect x="196.198" y="99.086" style="fill:#FFFFFF;" width="8.96" height="27.305"/>
	<rect x="213.729" y="99.086" style="fill:#FFFFFF;" width="8.96" height="27.305"/>
	<rect x="231.27" y="99.086" style="fill:#FFFFFF;" width="8.96" height="27.305"/>
</g>
<path style="fill:#FCD462;" d="M237.202,212.682h-64.805c-8.577,0-15.531,6.954-15.531,15.531v0c0,8.578,6.954,15.531,15.531,15.531  h64.805c8.578,0,15.533-6.954,15.533-15.531v0C252.735,219.635,245.781,212.682,237.202,212.682z"/>
<g>
	<path style="fill:#DC8744;" d="M183.559,238.735h-9.305v-21.256h8.271c1.44,0,2.683,0.171,3.727,0.517   c1.042,0.344,1.819,0.809,2.326,1.398c0.973,1.094,1.458,2.331,1.458,3.71c0,1.663-0.527,2.9-1.581,3.71   c-0.384,0.285-0.648,0.463-0.789,0.532c-0.141,0.072-0.396,0.188-0.76,0.349c1.317,0.285,2.366,0.879,3.148,1.779   c0.78,0.903,1.171,2.022,1.171,3.361c0,1.48-0.507,2.789-1.522,3.923C188.506,238.077,186.457,238.735,183.559,238.735z    M177.842,226.296h4.561c2.596,0,3.893-0.881,3.893-2.646c0-1.012-0.314-1.742-0.943-2.19c-0.629-0.445-1.601-0.668-2.92-0.668   h-4.591V226.296z M177.842,235.421h5.625c1.319,0,2.326-0.208,3.027-0.624c0.698-0.416,1.049-1.203,1.049-2.359   c0-1.883-1.512-2.826-4.531-2.826h-5.17V235.421z"/>
	<path style="fill:#DC8744;" d="M200.497,233.87c0.973,1.136,2.292,1.703,3.955,1.703c1.661,0,2.98-0.567,3.952-1.703   c0.973-1.136,1.46-2.675,1.46-4.623v-11.768h3.589V229.4c0,3.061-0.841,5.417-2.524,7.071c-1.683,1.651-3.843,2.477-6.477,2.477   c-2.636,0-4.796-0.827-6.479-2.477c-1.683-1.653-2.524-4.009-2.524-7.071v-11.921h3.589v11.768   C199.037,231.194,199.524,232.734,200.497,233.87z"/>
	<path style="fill:#DC8744;" d="M227.441,238.735h-3.648v-8.392l-7.907-12.864h3.923l5.808,9.669l5.808-9.669h3.923l-7.907,12.864   V238.735z"/>
</g>
<g>
</g>
<g>
</g>
<g>
</g>
<g>
</g>
<g>
</g>
<g>
</g>
<g>
</g>
<g>
</g>
<g>
</g>
<g>
</g>
<g>
</g>
<g>
</g>
<g>
</g>
<g>
</g>
<g>
</g>
</svg>
