<?xml version="1.0" encoding="iso-8859-1"?>
<!-- Generator: Adobe Illustrator 19.0.0, SVG Export Plug-In . SVG Version: 6.00 Build 0)  -->
<svg xmlns="http://www.w3.org/2000/svg" xmlns:xlink="http://www.w3.org/1999/xlink" version="1.1" id="Capa_1" x="0px" y="0px" viewBox="0 0 409.605 409.605" style="enable-background:new 0 0 409.605 409.605;" xml:space="preserve">
<g>
	<path style="fill:#64798A;" d="M270.924,0.003H51.127c-7.663,0-13.875,6.212-13.875,13.875v381.85   c0,7.663,6.212,13.875,13.875,13.875h219.797c7.664,0,13.875-6.212,13.875-13.875V13.878C284.8,6.215,278.588,0.003,270.924,0.003z   "/>
	<rect x="37.253" y="41.731" style="fill:#64798A;" width="247.552" height="302.643"/>
</g>
<rect x="49.464" y="41.731" style="fill:#EBF0F3;" width="223.13" height="302.643"/>
<g>
	<path style="fill:#3A556A;" d="M202.511,15.319h-82.97c-3.54,0-6.411,2.871-6.411,6.411c0,3.541,2.871,6.411,6.411,6.411h82.97   c3.541,0,6.411-2.87,6.411-6.411C208.923,18.189,206.053,15.319,202.511,15.319z"/>
	<circle style="fill:#3A556A;" cx="98.304" cy="21.732" r="6.41"/>
	<path style="fill:#3A556A;" d="M161.026,400.07c-12.844,0-23.287-10.447-23.287-23.287s10.444-23.287,23.287-23.287   s23.287,10.447,23.287,23.287S173.87,400.07,161.026,400.07z M161.026,364.667c-6.684,0-12.116,5.436-12.116,12.116   s5.433,12.116,12.116,12.116c6.684,0,12.116-5.436,12.116-12.116S167.71,364.667,161.026,364.667z"/>
</g>
<path style="fill:#CE412D;" d="M0,91.033v18.192c0,14.822,12.016,26.838,26.837,26.838c14.822,0,26.838-12.016,26.838-26.838V91.033  H0z"/>
<path style="fill:#F6C358;" d="M53.675,91.033v18.192c0,14.822,12.016,26.838,26.837,26.838c14.822,0,26.838-12.016,26.838-26.838  V91.033H53.675z"/>
<path style="fill:#CE412D;" d="M107.351,91.033v18.192c0,14.822,12.016,26.838,26.837,26.838c14.822,0,26.838-12.016,26.838-26.838  V91.033H107.351z"/>
<path style="fill:#F6C358;" d="M161.026,91.033v18.192c0,14.822,12.016,26.838,26.837,26.838c14.822,0,26.838-12.016,26.838-26.838  V91.033H161.026z"/>
<path style="fill:#CE412D;" d="M214.702,91.033v18.192c0,14.822,12.016,26.838,26.837,26.838c14.822,0,26.838-12.016,26.838-26.838  V91.033H214.702z"/>
<path style="fill:#F6C358;" d="M268.377,91.033v18.192c0,14.822,12.016,26.838,26.837,26.838c14.822,0,26.838-12.016,26.838-26.838  V91.033H268.377z"/>
<polygon style="fill:#E56353;" points="78.141,41.752 36.698,41.752 0,91.033 53.675,91.033 "/>
<polygon style="fill:#FCD462;" points="119.584,41.752 78.141,41.752 53.675,91.033 107.351,91.033 "/>
<polygon style="fill:#E56353;" points="161.026,41.752 119.584,41.752 107.351,91.033 161.026,91.033 "/>
<polygon style="fill:#FCD462;" points="202.469,41.752 161.026,41.752 161.026,91.033 214.702,91.033 "/>
<polygon style="fill:#E56353;" points="243.912,41.752 202.469,41.752 214.702,91.033 268.377,91.033 "/>
<path style="fill:#E1E6E9;" d="M144.833,166.855c-5.056,0-9.155,4.099-9.155,9.155v148.736c0,5.056,4.098,9.155,9.155,9.155h127.757  V166.855H144.833z"/>
<g>
	<polygon style="fill:#FCD462;" points="285.354,41.752 243.912,41.752 268.377,91.033 322.053,91.033  "/>
	<path style="fill:#FCD462;" d="M400.445,151.96H159.728c-5.056,0-9.155,4.099-9.155,9.155v148.736c0,5.056,4.099,9.155,9.155,9.155   h240.717c5.056,0,9.155-4.099,9.155-9.155V161.115C409.6,156.059,405.501,151.96,400.445,151.96z"/>
</g>
<rect x="150.579" y="174.287" style="fill:#3A556A;" width="259.026" height="24.786"/>
<g>
	<rect x="167.491" y="218.826" style="fill:#64798A;" width="69.468" height="9.421"/>
	<rect x="167.491" y="245.568" style="fill:#64798A;" width="86.098" height="9.421"/>
	<rect x="167.491" y="273.615" style="fill:#64798A;" width="101.755" height="9.421"/>
</g>
<path style="fill:#E56353;" d="M351.533,272.915c3.136,16.543-11.098,30.777-27.641,27.641c-9.189-1.742-16.706-9.259-18.448-18.448  c-3.136-16.543,11.098-30.777,27.641-27.641C342.274,256.208,349.791,263.726,351.533,272.915z"/>
<path style="fill:#44C4A1;" d="M392.535,272.915c3.136,16.543-11.098,30.777-27.641,27.641c-9.189-1.742-16.706-9.259-18.448-18.448  c-3.136-16.543,11.098-30.777,27.641-27.641C383.276,256.208,390.793,263.726,392.535,272.915z"/>
<rect x="272.589" y="319.03" style="fill:#3A556A;" width="12.211" height="14.894"/>
<g>
</g>
<g>
</g>
<g>
</g>
<g>
</g>
<g>
</g>
<g>
</g>
<g>
</g>
<g>
</g>
<g>
</g>
<g>
</g>
<g>
</g>
<g>
</g>
<g>
</g>
<g>
</g>
<g>
</g>
</svg>
