<?xml version="1.0" encoding="iso-8859-1"?>
<!-- Generator: Adobe Illustrator 19.0.0, SVG Export Plug-In . SVG Version: 6.00 Build 0)  -->
<svg xmlns="http://www.w3.org/2000/svg" xmlns:xlink="http://www.w3.org/1999/xlink" version="1.1" id="Capa_1" x="0px" y="0px" viewBox="0 0 405.289 405.289" style="enable-background:new 0 0 405.289 405.289;" xml:space="preserve">
<polygon style="fill:#27A2DB;" points="258.651,14.34 146.637,14.34 77.392,49.33 77.392,390.95 327.897,390.95 327.897,49.33 "/>
<g>
	<polyline style="fill:#3A556A;" points="77.392,49.33 0,96.671 53.971,187.75 77.392,171.799  "/>
	<polyline style="fill:#3A556A;" points="327.897,49.33 405.289,96.671 351.319,187.75 327.897,171.799  "/>
</g>
<polygon style="fill:#D15241;" points="216.884,142.039 231.765,111.916 221.99,92.128 183.299,92.128 173.524,111.916   188.404,142.039 "/>
<polygon style="fill:#E56353;" points="230.915,317.399 202.645,344.962 174.374,317.399 188.522,142.039 216.767,142.039 "/>
<g>
	<path style="fill:#FFFFFF;" d="M163.06,134.242c2.109-16.447,39.562-42.074,39.562-42.074   c-24.439-18.075-52.341-70.114-56.31-77.664l-17.05,8.615C128.09,56.71,163.06,134.242,163.06,134.242z"/>
	<path style="fill:#FFFFFF;" d="M202.668,92.167c0,0,37.453,25.627,39.562,42.074c0,0,34.97-77.531,33.797-111.122l-17.05-8.616   C255.008,22.056,227.106,74.093,202.668,92.167z"/>
</g>
<path style="fill:#2D93BA;" d="M202.573,92.128h0.143c24.427-18.107,52.295-70.075,56.261-77.623l-0.327-0.165H146.637l-0.325,0.164  C150.279,22.049,178.145,74.02,202.573,92.128z"/>
<g>
</g>
<g>
</g>
<g>
</g>
<g>
</g>
<g>
</g>
<g>
</g>
<g>
</g>
<g>
</g>
<g>
</g>
<g>
</g>
<g>
</g>
<g>
</g>
<g>
</g>
<g>
</g>
<g>
</g>
</svg>
