<?xml version="1.0" encoding="iso-8859-1"?>
<!-- Generator: Adobe Illustrator 19.0.0, SVG Export Plug-In . SVG Version: 6.00 Build 0)  -->
<svg xmlns="http://www.w3.org/2000/svg" xmlns:xlink="http://www.w3.org/1999/xlink" version="1.1" id="Capa_1" x="0px" y="0px" viewBox="0 0 409.6 409.6" style="enable-background:new 0 0 409.6 409.6;" xml:space="preserve">
<path style="fill:#FCD462;" d="M192.483,328.557c-0.248,0-0.507-0.01-0.755-0.03c-3.666-0.271-7.292-0.663-10.859-1.17  c-5.564-0.793-9.438-5.994-8.653-11.617c0.785-5.618,5.802-9.554,11.495-8.745c3.13,0.447,6.299,0.788,9.508,1.029  c5.603,0.417,9.816,5.347,9.398,11.009C202.229,324.435,197.759,328.557,192.483,328.557z M223.142,327.984  c-5.107,0-9.508-3.876-10.104-9.127c-0.626-5.643,3.388-10.733,8.971-11.371c3.189-0.366,6.329-0.833,9.428-1.416  c5.494-1.004,10.829,2.656,11.852,8.238c1.023,5.583-2.633,10.949-8.157,11.983c-3.557,0.663-7.173,1.21-10.839,1.627  C223.907,327.964,223.52,327.984,223.142,327.984z M152.625,319.691c-1.252,0-2.514-0.236-3.745-0.728  c-3.487-1.396-6.875-2.937-10.183-4.624c-5.007-2.56-7.024-8.74-4.491-13.811c2.533-5.065,8.663-7.099,13.67-4.543  c2.752,1.406,5.583,2.696,8.494,3.861c5.226,2.088,7.779,8.063,5.713,13.344C160.503,317.226,156.668,319.691,152.625,319.691z   M262.554,317.236c-3.845,0-7.531-2.214-9.249-5.974c-2.355-5.156-0.129-11.26,4.977-13.64c2.812-1.315,5.554-2.751,8.206-4.312  c4.848-2.847,11.077-1.2,13.919,3.7c2.821,4.91,1.182,11.205-3.666,14.062c-3.209,1.893-6.527,3.63-9.935,5.216  C265.425,316.935,263.975,317.236,262.554,317.236z M118.389,297.491c-2.573,0-5.156-0.984-7.133-2.952  c-2.672-2.651-5.216-5.457-7.63-8.424c-3.567-4.388-2.941-10.864,1.401-14.473c4.342-3.61,10.74-2.967,14.316,1.411  c1.957,2.405,4.024,4.679,6.179,6.828c4.004,3.981,4.063,10.492,0.119,14.539C123.655,296.467,121.022,297.491,118.389,297.491z   M295.359,292.983c-2.424,0-4.848-0.869-6.795-2.631c-4.183-3.79-4.53-10.292-0.775-14.519c2.017-2.269,3.924-4.674,5.723-7.199  c3.288-4.609,9.647-5.648,14.207-2.324c4.56,3.318,5.583,9.744,2.305,14.353c-2.235,3.128-4.6,6.095-7.094,8.906  C300.923,291.828,298.141,292.983,295.359,292.983z M95.906,263.258c-3.994,0-7.789-2.405-9.408-6.376  c-1.381-3.399-2.643-6.928-3.765-10.593c-1.669-5.422,1.331-11.185,6.696-12.867c5.385-1.687,11.077,1.355,12.737,6.772  c0.944,3.062,1.987,6.019,3.149,8.866c2.136,5.246-0.338,11.255-5.534,13.419C98.509,263.007,97.198,263.258,95.906,263.258z   M315.785,257.445c-1.103,0-2.235-0.186-3.338-0.572c-5.305-1.863-8.117-7.721-6.269-13.083c1.003-2.927,1.917-5.964,2.722-9.102  c1.401-5.502,6.964-8.801,12.399-7.38c5.434,1.426,8.703,7.033,7.292,12.531c-0.944,3.69-2.017,7.249-3.199,10.688  C323.942,254.779,319.998,257.445,315.785,257.445z M86.627,223.111c-5.206,0-9.647-4.021-10.124-9.363  c-0.318-3.544-0.536-7.189-0.646-10.919c-0.179-5.673,4.232-10.422,9.845-10.598c5.544-0.196,10.302,4.272,10.481,9.955  c0.109,3.318,0.308,6.561,0.586,9.724c0.497,5.653-3.626,10.653-9.22,11.16C87.233,223.096,86.925,223.111,86.627,223.111z   M323.306,216.906c-0.199,0-0.387-0.005-0.586-0.015c-5.613-0.321-9.895-5.181-9.577-10.849c0.179-3.173,0.258-6.431,0.258-9.759  c0-5.678,4.55-10.623,10.173-10.623c5.623,0,10.173,4.257,10.173,9.935v0.688c0,3.73-0.099,7.37-0.298,10.924  C333.141,212.679,328.661,216.906,323.306,216.906z M87.352,181.769c-0.387,0-0.775-0.02-1.172-0.065  c-5.573-0.648-9.587-5.743-8.941-11.386c0.397-3.564,0.874-7.134,1.441-10.703c0.874-5.608,6.14-9.403,11.634-8.55  c5.554,0.889,9.339,6.155,8.455,11.762c-0.507,3.278-0.944,6.556-1.321,9.83C96.86,177.903,92.459,181.769,87.352,181.769z   M321.279,174.916c-4.967,0-9.309-3.675-10.054-8.785c-0.477-3.278-1.013-6.561-1.619-9.84c-1.023-5.583,2.623-10.949,8.147-11.988  c5.534-1.004,10.839,2.646,11.862,8.233c0.646,3.529,1.222,7.064,1.739,10.603c0.815,5.618-3.02,10.839-8.584,11.667  C322.273,174.881,321.766,174.916,321.279,174.916z M95.38,141.19c-0.934,0-1.878-0.131-2.812-0.402  c-5.405-1.566-8.524-7.259-6.974-12.716c0.974-3.464,2.017-6.903,3.139-10.312c1.758-5.382,7.461-8.354,12.856-6.531  c5.335,1.782,8.226,7.596,6.458,12.987c-1.023,3.148-1.987,6.326-2.901,9.518C103.874,138.248,99.801,141.19,95.38,141.19z   M312.179,134.558c-4.322,0-8.325-2.801-9.696-7.184c-0.993-3.173-2.037-6.321-3.149-9.433c-1.898-5.342,0.844-11.23,6.13-13.153  c5.315-1.928,11.107,0.843,13.025,6.195c1.192,3.364,2.315,6.762,3.388,10.186c1.699,5.412-1.272,11.19-6.627,12.902  C314.225,134.403,313.192,134.558,312.179,134.558z M109.706,102.409c-1.45,0-2.931-0.316-4.342-0.989  c-5.077-2.425-7.243-8.555-4.848-13.685c1.54-3.283,3.129-6.516,4.789-9.689c2.613-5.015,8.763-6.938,13.75-4.277  c4.967,2.651,6.865,8.876,4.232,13.896c-1.52,2.902-2.971,5.854-4.371,8.856C117.177,100.235,113.521,102.409,109.706,102.409z   M296.78,96.208c-3.716,0-7.302-2.063-9.09-5.643c-1.48-2.952-3.02-5.859-4.61-8.705c-2.772-4.94-1.043-11.215,3.845-14.012  c4.878-2.791,11.097-1.054,13.859,3.891c1.749,3.118,3.447,6.305,5.067,9.549c2.533,5.065,0.527,11.25-4.491,13.816  C299.889,95.852,298.32,96.208,296.78,96.208z M130.529,66.8c-2.096,0-4.222-0.653-6.04-2.013c-4.51-3.379-5.474-9.815-2.126-14.378  c2.176-2.982,4.421-5.864,6.716-8.635c3.626-4.338,10.024-4.925,14.336-1.27c4.302,3.645,4.868,10.131,1.262,14.483  c-2.037,2.45-4.024,5-5.961,7.641C136.729,65.359,133.649,66.8,130.529,66.8z M274.784,61.333c-2.98,0-5.931-1.315-7.938-3.846  c-2.027-2.55-4.113-5.005-6.239-7.355c-3.795-4.187-3.517-10.688,0.626-14.524c4.143-3.83,10.581-3.554,14.376,0.638  c2.424,2.671,4.789,5.467,7.094,8.369c3.527,4.428,2.821,10.899-1.56,14.453C279.265,60.595,277.019,61.333,274.784,61.333z   M159.053,37.24c-3.12,0-6.189-1.441-8.186-4.167c-3.348-4.563-2.394-10.999,2.126-14.378c3.08-2.304,6.209-4.413,9.398-6.316  c4.828-2.882,11.067-1.27,13.939,3.62c2.851,4.89,1.252,11.195-3.586,14.082c-2.593,1.551-5.146,3.268-7.65,5.141  C163.275,36.583,161.149,37.24,159.053,37.24z M244.84,33.325c-1.888,0-3.795-0.527-5.494-1.637  c-2.583-1.677-5.216-3.183-7.888-4.513c-5.037-2.505-7.113-8.67-4.64-13.766c2.484-5.091,8.604-7.179,13.621-4.689  c3.368,1.672,6.676,3.569,9.915,5.678c4.729,3.072,6.09,9.433,3.05,14.207C251.457,31.658,248.188,33.325,244.84,33.325z   M196.239,21.125c-5.037,0-9.408-3.77-10.074-8.946c-0.735-5.633,3.189-10.794,8.763-11.532C198.176,0.221,201.455,0,204.753,0  l1.967,0.03c5.623,0.146,10.054,4.865,9.915,10.543c-0.149,5.678-5.216,10.081-10.432,10.01l-1.45-0.02  c-2.404,0-4.808,0.161-7.183,0.477C197.123,21.095,196.676,21.125,196.239,21.125z"/>
<path style="fill:#E56353;" d="M226.999,333.242c-7.749,0-14.597,3.601-19.229,9.153c-4.635-5.552-11.482-9.153-19.231-9.153  c-13.951,0-25.262,11.43-25.262,25.529c0,18.63,44.493,50.829,44.493,50.829s44.488-33.809,44.488-50.829  C252.258,344.672,240.95,333.242,226.999,333.242z"/>
<polygon style="fill:#EBF0F3;" points="210.099,343.296 205.436,343.296 202.257,312.023 213.278,312.023 "/>
<g>
</g>
<g>
</g>
<g>
</g>
<g>
</g>
<g>
</g>
<g>
</g>
<g>
</g>
<g>
</g>
<g>
</g>
<g>
</g>
<g>
</g>
<g>
</g>
<g>
</g>
<g>
</g>
<g>
</g>
</svg>
