<?xml version="1.0" encoding="iso-8859-1"?>
<!-- Generator: Adobe Illustrator 19.0.0, SVG Export Plug-In . SVG Version: 6.00 Build 0)  -->
<svg xmlns="http://www.w3.org/2000/svg" xmlns:xlink="http://www.w3.org/1999/xlink" version="1.1" id="Capa_1" x="0px" y="0px" viewBox="0 0 409.6 409.6" style="enable-background:new 0 0 409.6 409.6;" xml:space="preserve">
<rect x="166.042" y="312.627" style="fill:#3A556A;" width="77.517" height="48.768"/>
<g>
	<path style="fill:#64798A;" d="M283.822,353.971H125.778c-4.093,0-7.411,3.317-7.411,7.409v18.238h172.865V361.38   C291.233,357.288,287.915,353.971,283.822,353.971z"/>
	<path style="fill:#64798A;" d="M399.392,29.982H10.208C4.57,29.982,0,34.552,0,40.19v265.851c0,5.638,4.57,10.208,10.208,10.208   h389.184c5.638,0,10.208-4.57,10.208-10.208V40.19C409.6,34.552,405.03,29.982,399.392,29.982z"/>
</g>
<rect x="22.344" y="52.326" style="fill:#27A2DB;" width="364.902" height="241.562"/>
<rect x="22.344" y="285.082" style="fill:#2D93BA;" width="364.902" height="8.842"/>
<polygon style="fill:#FFFFFF;" points="0,168.357 138.375,29.982 46.555,29.982 0,76.538 "/>
<g>
	<path style="fill:#E56353;" d="M31.531,121.654L0.792,90.915l5.189-5.189l13.325,13.325l15.26-15.26L21.241,70.466l5.189-5.189   l30.739,30.739l-5.189,5.189L39.403,88.628l-15.26,15.26l12.577,12.577L31.531,121.654z"/>
	<path style="fill:#E56353;" d="M62.247,37.509c5.645-0.281,10.854,1.972,15.634,6.751c4.778,4.778,7.125,9.995,7.036,15.653   c-0.088,5.66-3.094,11.45-9.013,17.369L65.701,87.485L34.962,56.746l10.554-10.554C51.026,40.681,56.606,37.786,62.247,37.509z    M72.779,49.622c-7.036-7.036-14.583-6.524-22.646,1.539l-5.189,5.189l21.064,21.064l5.762-5.762   c3.722-3.722,5.688-7.46,5.892-11.214C77.868,56.687,76.24,53.083,72.779,49.622z"/>
</g>
<g>
</g>
<g>
</g>
<g>
</g>
<g>
</g>
<g>
</g>
<g>
</g>
<g>
</g>
<g>
</g>
<g>
</g>
<g>
</g>
<g>
</g>
<g>
</g>
<g>
</g>
<g>
</g>
<g>
</g>
</svg>
