<?xml version="1.0" encoding="iso-8859-1"?>
<!-- Generator: Adobe Illustrator 19.0.0, SVG Export Plug-In . SVG Version: 6.00 Build 0)  -->
<svg xmlns="http://www.w3.org/2000/svg" xmlns:xlink="http://www.w3.org/1999/xlink" version="1.1" id="Capa_1" x="0px" y="0px" viewBox="0 0 409.6 409.6" style="enable-background:new 0 0 409.6 409.6;" xml:space="preserve">
<path style="fill:#64798A;" d="M315.824,0H93.776c-9.591,0-17.365,7.775-17.365,17.365v374.87c0,9.59,7.775,17.365,17.365,17.365  h222.047c9.591,0,17.365-7.775,17.365-17.365V17.365C333.189,7.775,325.415,0,315.824,0z"/>
<rect x="88.945" y="40.96" style="fill:#27A2DB;" width="231.731" height="306.115"/>
<rect x="88.945" y="327.368" style="fill:#2D93BA;" width="231.731" height="19.727"/>
<g>
	<path style="fill:#2F4859;" d="M249.009,16.44h-63.358c-3.187,0-5.773,2.585-5.773,5.773s2.585,5.773,5.773,5.773h63.358   c3.187,0,5.773-2.585,5.773-5.773S252.197,16.44,249.009,16.44z"/>
	<circle style="fill:#2F4859;" cx="160.563" cy="22.211" r="5.77"/>
</g>
<g>
	<path style="fill:#EBF0F3;" d="M204.8,398.191c-11.069,0-20.073-9.004-20.073-20.069c0-11.069,9.004-20.073,20.073-20.073   c11.069,0,20.073,9.004,20.073,20.073C224.873,389.188,215.869,398.191,204.8,398.191z M204.8,369.22   c-4.909,0-8.902,3.993-8.902,8.902c0,4.905,3.993,8.898,8.902,8.898c4.909,0,8.902-3.993,8.902-8.898   C213.702,373.213,209.709,369.22,204.8,369.22z"/>
	<rect x="275.773" y="372.531" style="fill:#EBF0F3;" width="19.912" height="11.172"/>
	<rect x="113.92" y="372.531" style="fill:#EBF0F3;" width="19.912" height="11.172"/>
</g>
<g>
</g>
<g>
</g>
<g>
</g>
<g>
</g>
<g>
</g>
<g>
</g>
<g>
</g>
<g>
</g>
<g>
</g>
<g>
</g>
<g>
</g>
<g>
</g>
<g>
</g>
<g>
</g>
<g>
</g>
</svg>
