<?xml version="1.0" encoding="iso-8859-1"?>
<!-- Generator: Adobe Illustrator 19.0.0, SVG Export Plug-In . SVG Version: 6.00 Build 0)  -->
<svg xmlns="http://www.w3.org/2000/svg" xmlns:xlink="http://www.w3.org/1999/xlink" version="1.1" id="Capa_1" x="0px" y="0px" viewBox="0 0 409.6 409.6" style="enable-background:new 0 0 409.6 409.6;" xml:space="preserve">
<path style="fill:#64798A;" d="M233.672,0H13.875C6.212,0,0,6.212,0,13.875v381.85c0,7.663,6.212,13.875,13.875,13.875h219.797  c7.664,0,13.875-6.212,13.875-13.875V13.875C247.547,6.212,241.335,0,233.672,0z"/>
<rect y="41.728" style="fill:#E1E6E9;" width="247.552" height="302.643"/>
<rect x="12.211" y="41.728" style="fill:#FFFFFF;" width="223.13" height="302.643"/>
<g>
	<path style="fill:#3A556A;" d="M165.259,15.316h-82.97c-3.54,0-6.411,2.871-6.411,6.411c0,3.541,2.871,6.411,6.411,6.411h82.97   c3.541,0,6.411-2.87,6.411-6.411C171.67,18.187,168.8,15.316,165.259,15.316z"/>
	<circle style="fill:#3A556A;" cx="61.051" cy="21.729" r="6.41"/>
	<path style="fill:#3A556A;" d="M123.774,400.068c-12.844,0-23.287-10.447-23.287-23.287s10.444-23.287,23.287-23.287   c12.844,0,23.287,10.447,23.287,23.287S136.617,400.068,123.774,400.068z M123.774,364.664c-6.684,0-12.116,5.436-12.116,12.116   c0,6.68,5.433,12.116,12.116,12.116s12.116-5.436,12.116-12.116C135.89,370.1,130.457,364.664,123.774,364.664z"/>
</g>
<path style="fill:#FCD462;" d="M61.396,293.139H31.278c-2.842,0-5.145,2.304-5.145,5.146v30.118c0,2.842,2.304,5.145,5.145,5.145  h30.118c2.842,0,5.146-2.304,5.146-5.145v-30.118C66.543,295.443,64.238,293.139,61.396,293.139z"/>
<path style="fill:#44C4A1;" d="M113.021,293.139H82.903c-2.842,0-5.145,2.304-5.145,5.146v30.118c0,2.842,2.304,5.145,5.145,5.145  h30.118c2.842,0,5.145-2.304,5.145-5.145v-30.118C118.166,295.443,115.863,293.139,113.021,293.139z"/>
<path style="fill:#DC8744;" d="M61.396,95.011H31.278c-2.842,0-5.145,2.304-5.145,5.146v30.118c0,2.842,2.304,5.145,5.145,5.145  h30.118c2.842,0,5.146-2.304,5.146-5.145v-30.118C66.543,97.315,64.238,95.011,61.396,95.011z"/>
<path style="fill:#E56353;" d="M113.021,95.011H82.903c-2.842,0-5.145,2.304-5.145,5.146v30.118c0,2.842,2.304,5.145,5.145,5.145  h30.118c2.842,0,5.145-2.304,5.145-5.145v-30.118C118.166,97.315,115.863,95.011,113.021,95.011z"/>
<path style="fill:#27A2DB;" d="M164.645,293.139h-30.118c-2.842,0-5.145,2.304-5.145,5.146v30.118c0,2.842,2.304,5.145,5.145,5.145  h30.118c2.842,0,5.145-2.304,5.145-5.145v-30.118C169.79,295.443,167.486,293.139,164.645,293.139z"/>
<path style="fill:#3A556A;" d="M216.269,293.139h-30.118c-2.842,0-5.146,2.304-5.146,5.146v30.118c0,2.842,2.305,5.145,5.146,5.145  h30.118c2.842,0,5.145-2.304,5.145-5.145v-30.118C221.415,295.443,219.111,293.139,216.269,293.139z"/>
<rect x="21.268" y="59.382" style="fill:#EBF0F3;" width="205.005" height="26.726"/>
<rect x="191.232" y="59.382" style="fill:#3A556A;" width="35.062" height="26.726"/>
<path style="fill:#FFFFFF;" d="M210.936,66.106c-2.434-2.434-6.396-2.434-8.829,0c-2.434,2.434-2.434,6.396,0,8.829  c2.148,2.148,5.433,2.286,7.861,0.642l5.449,5.449l1.61-1.61l-5.449-5.449C213.222,71.539,213.085,68.254,210.936,66.106z   M209.327,73.325c-1.547,1.547-4.062,1.547-5.61,0c-1.547-1.547-1.547-4.062,0-5.609c1.547-1.547,4.063-1.547,5.61,0  S210.874,71.778,209.327,73.325z"/>
<path style="fill:#3A556A;" d="M289.695,86.238c-40.314,0-75.898,14.737-97.636,37.26l-60.113-11.73l40.522,44.457  c-1.727,5.981-2.678,12.175-2.678,18.536c0,48.89,53.684,88.524,119.905,88.524S409.6,223.652,409.6,174.762  S355.917,86.238,289.695,86.238z"/>
<g>
	<polygon style="fill:#FFFFFF;" points="256.073,198.789 347.354,198.789 362.591,134.299 242.267,134.299 238.064,114.661    221.415,114.661 221.415,120.933 232.82,120.933 253.69,218.428 342.29,218.428 342.29,212.155 258.933,212.155  "/>
	<circle style="fill:#FFFFFF;" cx="264.397" cy="235.269" r="9.108"/>
	<circle style="fill:#FFFFFF;" cx="323.84" cy="235.269" r="9.108"/>
</g>
<g>
</g>
<g>
</g>
<g>
</g>
<g>
</g>
<g>
</g>
<g>
</g>
<g>
</g>
<g>
</g>
<g>
</g>
<g>
</g>
<g>
</g>
<g>
</g>
<g>
</g>
<g>
</g>
<g>
</g>
</svg>
