<?xml version="1.0" encoding="iso-8859-1"?>
<!-- Generator: Adobe Illustrator 19.0.0, SVG Export Plug-In . SVG Version: 6.00 Build 0)  -->
<svg xmlns="http://www.w3.org/2000/svg" xmlns:xlink="http://www.w3.org/1999/xlink" version="1.1" id="Capa_1" x="0px" y="0px" viewBox="0 0 409.6 409.6" style="enable-background:new 0 0 409.6 409.6;" xml:space="preserve">
<path style="fill:#2F4859;" d="M314.698,0H94.901c-7.663,0-13.875,6.212-13.875,13.875v381.85c0,7.663,6.212,13.875,13.875,13.875  h219.797c7.664,0,13.875-6.212,13.875-13.875V13.875C328.574,6.212,322.362,0,314.698,0z"/>
<rect x="81.024" y="41.728" style="fill:#64798A;" width="247.552" height="302.643"/>
<rect x="93.235" y="41.728" style="fill:#FFFFFF;" width="223.13" height="302.643"/>
<g>
	<path style="fill:#3A556A;" d="M204.8,400.068c-12.844,0-23.287-10.447-23.287-23.287s10.444-23.287,23.287-23.287   s23.287,10.447,23.287,23.287S217.644,400.068,204.8,400.068z M204.8,364.664c-6.684,0-12.116,5.436-12.116,12.116   s5.433,12.116,12.116,12.116c6.684,0,12.116-5.436,12.116-12.116S211.484,364.664,204.8,364.664z"/>
	<path style="fill:#3A556A;" d="M246.285,15.316h-82.97c-3.54,0-6.411,2.871-6.411,6.411c0,3.541,2.871,6.411,6.411,6.411h82.97   c3.541,0,6.411-2.87,6.411-6.411C252.697,18.187,249.826,15.316,246.285,15.316z"/>
	<circle style="fill:#3A556A;" cx="142.08" cy="21.729" r="6.41"/>
</g>
<path style="fill:#E1E6E9;" d="M315.725,88.218v17.712c0,10.211,8.278,18.488,18.487,18.488c10.211,0,18.487-8.277,18.487-18.488  V88.218H315.725z"/>
<path style="fill:#D15241;" d="M278.751,88.218v17.712c0,10.211,8.278,18.488,18.487,18.488c10.211,0,18.487-8.277,18.487-18.488  V88.218H278.751z"/>
<path style="fill:#E1E6E9;" d="M241.775,88.218v17.712c0,10.211,8.278,18.488,18.487,18.488c10.211,0,18.487-8.277,18.487-18.488  V88.218H241.775z"/>
<path style="fill:#D15241;" d="M204.8,88.218v17.712c0,10.211,8.278,18.488,18.487,18.488c10.211,0,18.487-8.277,18.487-18.488  V88.218H204.8z"/>
<path style="fill:#E1E6E9;" d="M167.825,88.218v17.712c0,10.211,8.278,18.488,18.487,18.488c10.211,0,18.487-8.277,18.487-18.488  V88.218H167.825z"/>
<path style="fill:#D15241;" d="M130.85,88.218v17.712c0,10.211,8.278,18.488,18.487,18.488c10.21,0,18.487-8.277,18.487-18.488  V88.218H130.85z"/>
<path style="fill:#E1E6E9;" d="M93.875,88.218v17.712c0,10.211,8.278,18.488,18.487,18.488c10.211,0,18.487-8.277,18.487-18.488  V88.218H93.875z"/>
<path style="fill:#D15241;" d="M56.9,88.218v17.712c0,10.211,8.278,18.488,18.487,18.488c10.211,0,18.487-8.277,18.487-18.488  V88.218H56.9z"/>
<polygon style="fill:#E56353;" points="121.606,41.75 93.875,41.75 56.9,88.218 93.875,88.218 "/>
<polygon style="fill:#EBF0F3;" points="149.338,41.75 121.606,41.75 93.875,88.218 130.85,88.218 "/>
<polygon style="fill:#E56353;" points="177.069,41.75 149.338,41.75 130.85,88.218 167.825,88.218 "/>
<polygon style="fill:#EBF0F3;" points="204.8,41.75 177.069,41.75 167.825,88.218 204.8,88.218 "/>
<polygon style="fill:#E56353;" points="232.532,41.75 204.8,41.75 204.8,88.218 241.775,88.218 "/>
<polygon style="fill:#EBF0F3;" points="260.263,41.75 232.532,41.75 241.775,88.218 278.75,88.218 "/>
<polygon style="fill:#E56353;" points="287.994,41.75 260.263,41.75 278.75,88.218 315.725,88.218 "/>
<polygon style="fill:#EBF0F3;" points="315.725,41.75 287.994,41.75 315.725,88.218 352.7,88.218 "/>
<polygon style="fill:#DC8744;" points="269.562,211.972 140.038,211.972 140.607,219.126 268.993,219.126 "/>
<path style="fill:#F6C358;" d="M272.235,214.083h-134.87c-4.744,0-8.59-3.846-8.59-8.59v-7.809c0-4.744,3.846-8.59,8.59-8.59h134.87  c4.744,0,8.59,3.846,8.59,8.59v7.809C280.825,210.238,276.979,214.083,272.235,214.083z"/>
<path style="fill:#FCD462;" d="M140.607,219.126l5.378,67.627c0.404,5.074,4.639,8.987,9.73,8.987h98.171  c5.09,0,9.326-3.912,9.73-8.987l5.378-67.627H140.607z"/>
<g>
	<path style="fill:#F6C358;" d="M168.701,230.577c-1.929,0-3.494,1.564-3.494,3.493v48.132c0,1.929,1.564,3.493,3.494,3.493   c1.929,0,3.493-1.564,3.493-3.493V234.07C172.195,232.141,170.63,230.577,168.701,230.577z"/>
	<path style="fill:#F6C358;" d="M186.751,230.577c-1.93,0-3.494,1.564-3.494,3.493v48.132c0,1.929,1.564,3.493,3.494,3.493   c1.929,0,3.493-1.564,3.493-3.493V234.07C190.244,232.141,188.68,230.577,186.751,230.577z"/>
	<path style="fill:#F6C358;" d="M204.8,230.577c-1.929,0-3.494,1.564-3.494,3.493v48.132c0,1.929,1.564,3.493,3.494,3.493   c1.929,0,3.493-1.564,3.493-3.493V234.07C208.293,232.141,206.729,230.577,204.8,230.577z"/>
	<path style="fill:#F6C358;" d="M222.85,230.577c-1.93,0-3.494,1.564-3.494,3.493v48.132c0,1.929,1.564,3.493,3.494,3.493   c1.929,0,3.493-1.564,3.493-3.493V234.07C226.343,232.141,224.779,230.577,222.85,230.577z"/>
	<path style="fill:#F6C358;" d="M240.899,230.577c-1.929,0-3.494,1.564-3.494,3.493v48.132c0,1.929,1.564,3.493,3.494,3.493   c1.929,0,3.493-1.564,3.493-3.493V234.07C244.392,232.141,242.828,230.577,240.899,230.577z"/>
</g>
<g>
	<path style="fill:#EFB652;" d="M186.923,198.315l-8.791-9.222h-20.647l18.622,19.533c2.848,2.987,7.577,3.1,10.564,0.252v0   C189.658,206.032,189.771,201.302,186.923,198.315z"/>
	<path style="fill:#EFB652;" d="M222.677,198.315l8.791-9.222h20.647l-18.622,19.533c-2.848,2.987-7.577,3.1-10.564,0.252v0   C219.942,206.032,219.829,201.302,222.677,198.315z"/>
</g>
<path style="fill:#DC8744;" d="M222.002,199.132l30.915-43.349c2.396-3.36,7.062-4.141,10.422-1.745l0,0  c3.36,2.396,4.141,7.062,1.745,10.422l-30.915,43.349c-2.396,3.36-7.062,4.141-10.422,1.745l0,0  C220.387,207.158,219.606,202.492,222.002,199.132z"/>
<circle style="fill:#C67239;" cx="228.7" cy="202.394" r="4.756"/>
<path style="fill:#DC8744;" d="M187.598,199.132l-30.915-43.349c-2.396-3.36-7.062-4.141-10.422-1.745l0,0  c-3.36,2.396-4.141,7.062-1.745,10.422l30.915,43.349c2.396,3.36,7.062,4.141,10.422,1.745l0,0  C189.213,207.158,189.994,202.492,187.598,199.132z"/>
<circle style="fill:#C67239;" cx="180.89" cy="202.394" r="4.756"/>
<g>
</g>
<g>
</g>
<g>
</g>
<g>
</g>
<g>
</g>
<g>
</g>
<g>
</g>
<g>
</g>
<g>
</g>
<g>
</g>
<g>
</g>
<g>
</g>
<g>
</g>
<g>
</g>
<g>
</g>
</svg>
