<?xml version="1.0" encoding="iso-8859-1"?>
<!-- Generator: Adobe Illustrator 19.0.0, SVG Export Plug-In . SVG Version: 6.00 Build 0)  -->
<svg xmlns="http://www.w3.org/2000/svg" xmlns:xlink="http://www.w3.org/1999/xlink" version="1.1" id="Capa_1" x="0px" y="0px" viewBox="0 0 409.6 409.6" style="enable-background:new 0 0 409.6 409.6;" xml:space="preserve">
<path style="fill:#64798A;" d="M314.698,0H94.901c-7.663,0-13.875,6.212-13.875,13.875v381.85c0,7.663,6.212,13.875,13.875,13.875  h219.797c7.664,0,13.875-6.212,13.875-13.875V13.875C328.574,6.212,322.362,0,314.698,0z"/>
<rect x="81.024" y="41.728" style="fill:#E1E6E9;" width="247.552" height="302.643"/>
<rect x="93.235" y="41.728" style="fill:#FFFFFF;" width="223.13" height="302.643"/>
<path style="fill:#3A556A;" d="M204.8,400.068c-12.844,0-23.287-10.447-23.287-23.287c0-12.84,10.444-23.287,23.287-23.287  s23.287,10.447,23.287,23.287C228.087,389.62,217.644,400.068,204.8,400.068z M204.8,364.664c-6.684,0-12.116,5.436-12.116,12.116  c0,6.68,5.433,12.116,12.116,12.116c6.684,0,12.116-5.436,12.116-12.116C216.916,370.1,211.484,364.664,204.8,364.664z"/>
<g>
	<polygon style="fill:#64798A;" points="138.46,126.738 138.46,132.045 138.46,137.352 138.46,142.659 138.46,147.966    138.46,153.273 138.46,153.274 138.46,158.581 138.46,163.888 143.768,163.888 149.074,163.888 149.074,158.581 143.768,158.581    143.768,153.274 143.768,153.273 143.768,147.966 143.768,142.659 143.768,137.352 143.768,132.045 149.074,132.045    149.074,126.738 143.768,126.738  "/>
	<rect x="186.214" y="126.735" style="fill:#64798A;" width="5.309" height="5.309"/>
	<path style="fill:#64798A;" d="M265.832,126.738h-5.307h-5.307l0,0h-5.307h-5.307h-5.307l0,0h-5.307v5.307v5.307v5.307v5.307v5.307   v0v5.307v5.307h5.307l0,0h5.307h5.307h5.307l0,0h5.307h5.307h5.307v-5.307v-5.307v0v-5.307v-5.307v-5.307v-5.307v-5.307H265.832z    M265.832,137.352v5.307v5.307v5.307v0v5.307h-5.307h-5.307l0,0h-5.307h-5.307h-5.307v-5.307v0v-5.307v-5.307v-5.307v-5.307h5.307   h5.307h5.307l0,0h5.307h5.307V137.352z"/>
</g>
<polygon style="fill:#E56353;" points="255.218,137.352 249.911,137.352 244.604,137.352 244.604,142.659 244.604,147.966   244.604,153.274 249.911,153.274 255.218,153.274 255.218,153.274 260.525,153.274 260.525,147.966 260.525,142.659   260.525,137.352 "/>
<polygon style="fill:#64798A;" points="212.761,147.966 207.454,147.966 207.454,153.273 207.454,153.274 207.454,158.581   212.761,158.581 212.761,163.888 207.454,163.888 207.454,158.581 202.146,158.581 202.146,163.888 202.146,169.195   207.454,169.195 207.454,174.502 207.454,179.809 212.761,179.809 212.761,174.502 212.761,169.195 218.068,169.195   218.068,163.888 218.068,158.581 223.375,158.581 223.375,163.888 228.682,163.888 228.682,158.581 228.682,153.273   223.375,153.273 223.375,147.966 218.068,147.966 218.068,142.659 212.761,142.659 "/>
<polygon style="fill:#E56353;" points="159.689,153.274 164.996,153.274 164.996,147.966 164.996,142.659 164.996,137.352   159.689,137.352 154.382,137.352 149.075,137.352 149.075,142.659 149.075,147.966 149.075,153.274 154.382,153.274 "/>
<g>
	<polygon style="fill:#64798A;" points="191.532,153.274 196.839,153.274 196.839,147.966 202.146,147.966 202.146,142.659    196.839,142.659 196.839,137.352 202.146,137.352 202.146,142.659 207.454,142.659 207.454,137.352 212.761,137.352    218.068,137.352 218.068,142.659 223.375,142.659 223.375,137.352 228.682,137.352 228.682,132.045 223.375,132.045    223.375,126.738 218.068,126.738 212.761,126.738 207.454,126.738 202.146,126.738 202.146,132.045 196.839,132.045    191.532,132.045 191.532,137.352 186.225,137.352 180.918,137.352 180.918,142.659 186.225,142.659 186.225,147.966    191.532,147.966 191.532,153.273 186.225,153.273 186.225,158.581 191.532,158.581  "/>
	<polygon style="fill:#64798A;" points="159.689,163.888 164.996,163.888 170.303,163.888 175.611,163.888 175.611,158.581    175.611,153.274 175.611,153.273 175.611,147.966 175.611,142.659 175.611,137.352 175.611,132.045 175.611,126.738    170.303,126.738 164.996,126.738 159.689,126.738 154.382,126.738 149.075,126.738 149.075,132.045 154.382,132.045    159.689,132.045 164.996,132.045 170.303,132.045 170.303,137.352 170.303,142.659 170.303,147.966 170.303,153.273    170.303,153.274 170.303,158.581 164.996,158.581 159.689,158.581 154.382,158.581 149.075,158.581 149.075,163.888    154.382,163.888  "/>
	<polygon style="fill:#64798A;" points="138.46,169.195 138.46,174.502 138.46,179.809 138.46,185.117 138.46,190.424    138.46,195.731 143.768,195.731 143.768,201.038 149.074,201.038 149.074,195.731 149.074,190.424 143.768,190.424    143.768,185.117 143.768,179.809 149.074,179.809 149.074,174.502 149.074,169.195 143.768,169.195  "/>
	<polygon style="fill:#64798A;" points="154.382,174.502 154.382,169.195 149.075,169.195 149.075,174.502 149.075,179.809    154.382,179.809  "/>
	<polygon style="fill:#64798A;" points="186.225,179.809 186.225,174.502 186.225,169.195 191.532,169.195 191.532,174.502    191.532,179.809 196.839,179.809 202.146,179.809 202.146,174.502 202.146,169.195 196.839,169.195 196.839,163.888    196.839,158.581 191.532,158.581 191.532,163.888 186.225,163.888 186.225,158.581 180.918,158.581 180.918,163.888    180.918,169.195 175.611,169.195 170.303,169.195 164.996,169.195 159.689,169.195 159.689,174.502 164.996,174.502    170.303,174.502 175.611,174.502 175.611,179.809 180.918,179.809  "/>
	<polygon style="fill:#64798A;" points="260.525,174.502 260.525,169.195 255.218,169.195 255.218,174.502 255.218,179.809    249.911,179.809 244.604,179.809 244.604,185.117 249.911,185.117 255.218,185.117 255.218,179.809 260.525,179.809    260.525,185.117 260.525,190.424 265.832,190.424 265.832,185.117 271.14,185.117 271.14,179.809 271.14,174.502 265.832,174.502     "/>
	<rect x="186.214" y="179.814" style="fill:#64798A;" width="5.309" height="5.309"/>
	<polygon style="fill:#64798A;" points="239.297,179.809 239.297,174.502 239.297,169.195 233.989,169.195 228.682,169.195    223.375,169.195 223.375,174.502 218.068,174.502 218.068,179.809 223.375,179.809 228.682,179.809 233.989,179.809    233.989,185.117 239.297,185.117 239.297,190.424 233.989,190.424 228.682,190.424 228.682,185.117 223.375,185.117    218.068,185.117 212.761,185.117 207.454,185.117 207.454,190.424 202.146,190.424 202.146,195.731 196.839,195.731    196.839,201.038 191.532,201.038 191.532,206.345 196.839,206.345 202.146,206.345 207.454,206.345 212.761,206.345    218.068,206.345 218.068,201.038 218.068,195.731 212.761,195.731 212.761,190.424 218.068,190.424 218.068,195.731    223.375,195.731 228.682,195.731 228.682,201.038 228.682,206.345 233.989,206.345 233.989,201.038 239.297,201.038    239.297,206.345 244.604,206.345 244.604,201.038 244.604,195.731 239.297,195.731 239.297,190.424 244.604,190.424    244.604,185.117 239.297,185.117  "/>
	<rect x="196.864" y="185.139" style="fill:#64798A;" width="5.309" height="5.309"/>
	<polygon style="fill:#64798A;" points="180.918,195.731 180.918,190.424 186.225,190.424 186.225,185.117 180.918,185.117    175.611,185.117 175.611,190.424 170.303,190.424 170.303,185.117 175.611,185.117 175.611,179.809 170.303,179.809    164.996,179.809 159.689,179.809 159.689,185.117 159.689,190.424 164.996,190.424 164.996,195.731 164.996,201.038    170.303,201.038 170.303,195.731 175.611,195.731 175.611,201.038 170.303,201.038 170.303,206.345 175.611,206.345    180.918,206.345 186.225,206.345 186.225,201.038 180.918,201.038  "/>
	<rect x="186.214" y="195.738" style="fill:#64798A;" width="5.309" height="5.309"/>
	<polygon style="fill:#64798A;" points="260.525,195.731 260.525,201.038 255.218,201.038 255.218,195.731 255.218,190.424    249.911,190.424 249.911,195.731 249.911,201.038 255.218,201.038 255.218,206.345 260.525,206.345 265.832,206.345    271.14,206.345 271.14,201.038 271.14,195.731 265.832,195.731  "/>
	<rect x="138.445" y="201.062" style="fill:#64798A;" width="5.309" height="5.309"/>
	<polygon style="fill:#64798A;" points="154.382,201.038 154.382,195.731 154.382,190.424 149.075,190.424 149.075,195.731    149.075,201.038 149.075,206.345 154.382,206.345 159.689,206.345 164.996,206.345 164.996,201.038 159.689,201.038  "/>
	<rect x="143.77" y="206.336" style="fill:#64798A;" width="5.309" height="5.309"/>
	<rect x="149.094" y="206.336" style="fill:#64798A;" width="5.309" height="5.309"/>
	<polygon style="fill:#64798A;" points="191.532,206.345 191.532,211.652 191.532,216.96 196.839,216.96 196.839,222.267    202.146,222.267 202.146,216.96 202.146,211.652 196.839,211.652 196.839,206.345  "/>
	<polygon style="fill:#64798A;" points="265.832,211.652 265.832,216.96 271.14,216.96 271.14,211.652 271.14,206.345    265.832,206.345  "/>
	<rect x="138.445" y="211.661" style="fill:#64798A;" width="5.309" height="5.309"/>
	<rect x="154.368" y="211.661" style="fill:#64798A;" width="5.309" height="5.309"/>
	<polygon style="fill:#64798A;" points="180.918,211.652 180.918,206.345 175.611,206.345 175.611,211.652 170.303,211.652    164.996,211.652 164.996,216.96 170.303,216.96 175.611,216.96 180.918,216.96  "/>
	<polygon style="fill:#64798A;" points="207.454,216.96 207.454,222.267 212.761,222.267 212.761,216.96 212.761,211.652    212.761,206.345 207.454,206.345 202.146,206.345 202.146,211.652 207.454,211.652  "/>
	<rect x="180.941" y="216.934" style="fill:#64798A;" width="5.309" height="5.309"/>
	<polygon style="fill:#64798A;" points="218.068,216.96 218.068,222.267 223.375,222.267 228.682,222.267 228.682,216.96    233.989,216.96 239.297,216.96 239.297,216.96 244.604,216.96 244.604,222.267 249.911,222.267 255.218,222.267 255.218,216.96    255.218,211.652 249.911,211.652 244.604,211.652 239.297,211.652 239.297,206.345 233.989,206.345 228.682,206.345    223.375,206.345 218.068,206.345 218.068,211.652 223.375,211.652 223.375,216.96  "/>
	<polygon style="fill:#64798A;" points="138.46,222.267 138.46,227.574 138.46,232.881 138.46,238.188 138.46,243.495    138.46,248.803 138.46,254.11 138.46,259.417 143.768,259.417 149.074,259.417 149.074,254.11 143.768,254.11 143.768,248.803    143.768,243.495 143.768,238.188 143.768,232.881 143.768,227.574 149.074,227.574 149.074,222.267 143.768,222.267  "/>
	<polygon style="fill:#64798A;" points="164.996,222.267 159.689,222.267 154.382,222.267 149.075,222.267 149.075,227.574    154.382,227.574 159.689,227.574 164.996,227.574 170.303,227.574 170.303,232.881 170.303,238.188 170.303,243.495    170.303,248.803 170.303,254.11 164.996,254.11 159.689,254.11 154.382,254.11 149.075,254.11 149.075,259.417 154.382,259.417    159.689,259.417 164.996,259.417 170.303,259.417 175.611,259.417 175.611,254.11 175.611,248.803 175.611,243.495    175.611,238.188 175.611,232.881 175.611,227.574 175.611,222.267 170.303,222.267  "/>
	<rect x="233.989" y="222.259" style="fill:#64798A;" width="5.309" height="5.309"/>
	<polygon style="fill:#64798A;" points="260.525,222.267 255.218,222.267 255.218,227.574 260.525,227.574 265.832,227.574    265.832,232.881 260.525,232.881 260.525,238.188 265.832,238.188 271.14,238.188 271.14,232.881 271.14,227.574 271.14,222.267    265.832,222.267  "/>
	<polygon style="fill:#64798A;" points="202.146,232.881 202.146,227.574 196.839,227.574 191.532,227.574 191.532,232.881    196.839,232.881  "/>
	<polygon style="fill:#64798A;" points="186.225,232.881 186.225,227.574 186.225,222.267 180.918,222.267 180.918,227.574    180.918,232.881 180.918,238.188 186.225,238.188 191.532,238.188 191.532,232.881  "/>
	<rect x="218.066" y="238.182" style="fill:#64798A;" width="5.309" height="5.309"/>
	<polygon style="fill:#64798A;" points="255.218,238.188 249.911,238.188 249.911,232.881 249.911,227.574 249.911,222.267    244.604,222.267 244.604,227.574 244.604,232.881 239.297,232.881 239.297,232.881 233.989,232.881 228.682,232.881    228.682,227.574 228.682,222.267 223.375,222.267 223.375,227.574 223.375,232.881 223.375,238.188 228.682,238.188    233.989,238.188 239.297,238.188 239.297,243.495 239.297,248.803 239.297,254.11 233.989,254.11 233.989,259.417 239.297,259.417    239.297,259.417 244.604,259.417 244.604,254.11 249.911,254.11 249.911,248.803 255.218,248.803 255.218,248.803 260.525,248.803    260.525,243.495 260.525,238.188  "/>
</g>
<polygon style="fill:#E56353;" points="159.689,248.803 164.996,248.803 164.996,243.495 164.996,238.188 164.996,232.881   159.689,232.881 154.382,232.881 149.075,232.881 149.075,238.188 149.075,243.495 149.075,248.803 154.382,248.803 "/>
<g>
	<rect x="265.83" y="243.507" style="fill:#64798A;" width="5.309" height="5.309"/>
	<path style="fill:#64798A;" d="M218.068,248.803h-5.307h-5.307v-5.307h5.307v-5.307v-5.307h5.307v-5.307v-5.307h-5.307h-5.307   v5.307v5.307h-5.307v5.307h-5.307h-5.307v5.307v5.307v5.307h-5.307v-5.307v-5.307h-5.307v5.307v5.307v5.307h5.307h5.307h5.307   h5.307h5.307v-5.307h5.307v5.307h5.307v-5.307h5.307v5.307h5.307v-5.307v-5.307v-5.307h-5.307v5.307H218.068z M196.839,254.11   v-5.307h5.307v5.307H196.839z"/>
	<polygon style="fill:#64798A;" points="260.525,259.417 265.832,259.417 271.14,259.417 271.14,254.11 265.832,254.11    265.832,248.803 260.525,248.803 260.525,254.11  "/>
</g>
<g>
	<path style="fill:#3A556A;" d="M246.285,15.316h-82.97c-3.54,0-6.411,2.871-6.411,6.411c0,3.541,2.871,6.411,6.411,6.411h82.97   c3.541,0,6.411-2.87,6.411-6.411C252.696,18.187,249.826,15.316,246.285,15.316z"/>
	<circle style="fill:#3A556A;" cx="142.08" cy="21.729" r="6.41"/>
</g>
<g>
</g>
<g>
</g>
<g>
</g>
<g>
</g>
<g>
</g>
<g>
</g>
<g>
</g>
<g>
</g>
<g>
</g>
<g>
</g>
<g>
</g>
<g>
</g>
<g>
</g>
<g>
</g>
<g>
</g>
</svg>
