<?xml version="1.0" encoding="iso-8859-1"?>
<!-- Generator: Adobe Illustrator 19.0.0, SVG Export Plug-In . SVG Version: 6.00 Build 0)  -->
<svg xmlns="http://www.w3.org/2000/svg" xmlns:xlink="http://www.w3.org/1999/xlink" version="1.1" id="Capa_1" x="0px" y="0px" viewBox="0 0 409.6 409.6" style="enable-background:new 0 0 409.6 409.6;" xml:space="preserve">
<path style="fill:#EBF0F3;" d="M399.996,64.676H9.605C4.3,64.676,0,68.976,0,74.28v248.303c0,5.305,4.3,9.605,9.605,9.605h390.392  c5.304,0,9.604-4.3,9.604-9.605V74.28C409.6,68.976,405.3,64.676,399.996,64.676z"/>
<rect x="14.899" y="79.57" style="fill:#64798A;" width="272.077" height="237.722"/>
<rect x="22.344" y="87.02" style="fill:#27A2DB;" width="257.178" height="222.827"/>
<g>
	<polygon style="fill:#31B1DD;" points="75.101,309.847 180.613,87.018 191.949,87.018 86.438,309.847  "/>
	<polygon style="fill:#31B1DD;" points="98.309,309.847 203.82,87.018 226.761,87.018 121.249,309.847  "/>
</g>
<path style="fill:#E1E6E9;" d="M399.996,64.676h-88.16v267.512h88.16c5.304,0,9.604-4.3,9.604-9.605V74.28  C409.6,68.976,405.3,64.676,399.996,64.676z"/>
<rect x="301.86" y="64.676" style="fill:#64798A;" width="9.979" height="267.52"/>
<rect x="321.956" y="94.889" style="fill:#44C4A1;" width="77.517" height="51.507"/>
<rect x="321.956" y="142.275" style="fill:#3EA69B;" width="77.517" height="4.111"/>
<circle style="fill:#64798A;" cx="360.704" cy="287.437" r="32.113"/>
<circle style="fill:#D5D6DB;" cx="360.704" cy="287.437" r="31.027"/>
<g>
	<path style="fill:#3A556A;" d="M340.382,166.977h-16.25c-1.201,0-2.175,1.009-2.175,2.254v7.141c0,1.245,0.973,2.253,2.175,2.253   h16.25c1.2,0,2.173-1.009,2.173-2.253v-7.141C342.555,167.986,341.582,166.977,340.382,166.977z"/>
	<path style="fill:#3A556A;" d="M368.843,166.977h-16.25c-1.201,0-2.173,1.009-2.173,2.254v7.141c0,1.245,0.972,2.253,2.173,2.253   h16.25c1.201,0,2.173-1.009,2.173-2.253v-7.141C371.016,167.986,370.044,166.977,368.843,166.977z"/>
	<path style="fill:#3A556A;" d="M397.304,166.977h-16.25c-1.2,0-2.173,1.009-2.173,2.254v7.141c0,1.245,0.973,2.253,2.173,2.253   h16.25c1.2,0,2.175-1.009,2.175-2.253v-7.141C399.479,167.986,398.504,166.977,397.304,166.977z"/>
	<path style="fill:#3A556A;" d="M340.382,184.14h-16.25c-1.201,0-2.175,1.009-2.175,2.253v7.141c0,1.245,0.973,2.254,2.175,2.254   h16.25c1.2,0,2.173-1.009,2.173-2.254v-7.141C342.555,185.148,341.582,184.14,340.382,184.14z"/>
	<path style="fill:#3A556A;" d="M368.843,184.14h-16.25c-1.201,0-2.173,1.009-2.173,2.253v7.141c0,1.245,0.972,2.254,2.173,2.254   h16.25c1.201,0,2.173-1.009,2.173-2.254v-7.141C371.016,185.148,370.044,184.14,368.843,184.14z"/>
	<path style="fill:#3A556A;" d="M397.304,184.14h-16.25c-1.2,0-2.173,1.009-2.173,2.253v7.141c0,1.245,0.973,2.254,2.173,2.254   h16.25c1.2,0,2.175-1.009,2.175-2.254v-7.141C399.479,185.148,398.504,184.14,397.304,184.14z"/>
	<path style="fill:#3A556A;" d="M340.382,201.302h-16.25c-1.201,0-2.175,1.009-2.175,2.254v7.141c0,1.245,0.973,2.253,2.175,2.253   h16.25c1.2,0,2.173-1.009,2.173-2.253v-7.141C342.555,202.312,341.582,201.302,340.382,201.302z"/>
	<path style="fill:#3A556A;" d="M368.843,201.302h-16.25c-1.201,0-2.173,1.009-2.173,2.254v7.141c0,1.245,0.972,2.253,2.173,2.253   h16.25c1.201,0,2.173-1.009,2.173-2.253v-7.141C371.016,202.312,370.044,201.302,368.843,201.302z"/>
	<path style="fill:#3A556A;" d="M397.304,201.302h-16.25c-1.2,0-2.173,1.009-2.173,2.254v7.141c0,1.245,0.973,2.253,2.173,2.253   h16.25c1.2,0,2.175-1.009,2.175-2.253v-7.141C399.479,202.312,398.504,201.302,397.304,201.302z"/>
</g>
<path style="fill:#F6C358;" d="M340.382,218.466h-16.25c-1.201,0-2.175,1.009-2.175,2.253v7.141c0,1.245,0.973,2.254,2.175,2.254  h16.25c1.2,0,2.173-1.009,2.173-2.254v-7.141C342.555,219.474,341.582,218.466,340.382,218.466z"/>
<path style="fill:#3A556A;" d="M368.843,218.466h-16.25c-1.201,0-2.173,1.009-2.173,2.253v7.141c0,1.245,0.972,2.254,2.173,2.254  h16.25c1.201,0,2.173-1.009,2.173-2.254v-7.141C371.016,219.474,370.044,218.466,368.843,218.466z"/>
<path style="fill:#D15241;" d="M397.304,218.466h-16.25c-1.2,0-2.173,1.009-2.173,2.253v7.141c0,1.245,0.973,2.254,2.173,2.254  h16.25c1.2,0,2.175-1.009,2.175-2.254v-7.141C399.479,219.474,398.504,218.466,397.304,218.466z"/>
<g>
	<path style="fill:#64798A;" d="M340.382,165.863h-16.25c-1.201,0-2.175,1.009-2.175,2.254v7.141c0,1.245,0.973,2.253,2.175,2.253   h16.25c1.2,0,2.173-1.009,2.173-2.253v-7.141C342.555,166.872,341.582,165.863,340.382,165.863z"/>
	<path style="fill:#64798A;" d="M368.843,165.863h-16.25c-1.201,0-2.173,1.009-2.173,2.254v7.141c0,1.245,0.972,2.253,2.173,2.253   h16.25c1.201,0,2.173-1.009,2.173-2.253v-7.141C371.016,166.872,370.044,165.863,368.843,165.863z"/>
	<path style="fill:#64798A;" d="M397.304,165.863h-16.25c-1.2,0-2.173,1.009-2.173,2.254v7.141c0,1.245,0.973,2.253,2.173,2.253   h16.25c1.2,0,2.175-1.009,2.175-2.253v-7.141C399.479,166.872,398.504,165.863,397.304,165.863z"/>
	<path style="fill:#64798A;" d="M340.382,183.026h-16.25c-1.201,0-2.175,1.009-2.175,2.253v7.141c0,1.245,0.973,2.254,2.175,2.254   h16.25c1.2,0,2.173-1.009,2.173-2.254v-7.141C342.555,184.034,341.582,183.026,340.382,183.026z"/>
	<path style="fill:#64798A;" d="M368.843,183.026h-16.25c-1.201,0-2.173,1.009-2.173,2.253v7.141c0,1.245,0.972,2.254,2.173,2.254   h16.25c1.201,0,2.173-1.009,2.173-2.254v-7.141C371.016,184.034,370.044,183.026,368.843,183.026z"/>
	<path style="fill:#64798A;" d="M397.304,183.026h-16.25c-1.2,0-2.173,1.009-2.173,2.253v7.141c0,1.245,0.973,2.254,2.173,2.254   h16.25c1.2,0,2.175-1.009,2.175-2.254v-7.141C399.479,184.034,398.504,183.026,397.304,183.026z"/>
	<path style="fill:#64798A;" d="M340.382,200.189h-16.25c-1.201,0-2.175,1.009-2.175,2.254v7.141c0,1.245,0.973,2.253,2.175,2.253   h16.25c1.2,0,2.173-1.009,2.173-2.253v-7.141C342.555,201.198,341.582,200.189,340.382,200.189z"/>
	<path style="fill:#64798A;" d="M368.843,200.189h-16.25c-1.201,0-2.173,1.009-2.173,2.254v7.141c0,1.245,0.972,2.253,2.173,2.253   h16.25c1.201,0,2.173-1.009,2.173-2.253v-7.141C371.016,201.198,370.044,200.189,368.843,200.189z"/>
	<path style="fill:#64798A;" d="M397.304,200.189h-16.25c-1.2,0-2.173,1.009-2.173,2.254v7.141c0,1.245,0.973,2.253,2.173,2.253   h16.25c1.2,0,2.175-1.009,2.175-2.253v-7.141C399.479,201.198,398.504,200.189,397.304,200.189z"/>
</g>
<path style="fill:#FCD462;" d="M340.382,217.352h-16.25c-1.201,0-2.175,1.009-2.175,2.253v7.141c0,1.245,0.973,2.254,2.175,2.254  h16.25c1.2,0,2.173-1.009,2.173-2.254v-7.141C342.555,218.36,341.582,217.352,340.382,217.352z"/>
<path style="fill:#64798A;" d="M368.843,217.352h-16.25c-1.201,0-2.173,1.009-2.173,2.253v7.141c0,1.245,0.972,2.254,2.173,2.254  h16.25c1.201,0,2.173-1.009,2.173-2.254v-7.141C371.016,218.36,370.044,217.352,368.843,217.352z"/>
<path style="fill:#E56353;" d="M397.304,217.352h-16.25c-1.2,0-2.173,1.009-2.173,2.253v7.141c0,1.245,0.973,2.254,2.173,2.254  h16.25c1.2,0,2.175-1.009,2.175-2.254v-7.141C399.479,218.36,398.504,217.352,397.304,217.352z"/>
<path style="fill:#64798A;" d="M324.915,332.188v10.155c0,1.425,1.155,2.58,2.58,2.58h54.911c1.425,0,2.58-1.155,2.58-2.58v-10.155  H324.915z"/>
<rect x="324.915" y="332.186" style="fill:#3A556A;" width="60.073" height="3.758"/>
<path style="fill:#64798A;" d="M24.615,332.188v10.155c0,1.425,1.155,2.58,2.58,2.58h54.911c1.425,0,2.58-1.155,2.58-2.58v-10.155  H24.615z"/>
<rect x="24.617" y="332.186" style="fill:#3A556A;" width="60.073" height="3.758"/>
<g>
</g>
<g>
</g>
<g>
</g>
<g>
</g>
<g>
</g>
<g>
</g>
<g>
</g>
<g>
</g>
<g>
</g>
<g>
</g>
<g>
</g>
<g>
</g>
<g>
</g>
<g>
</g>
<g>
</g>
</svg>
