<?xml version="1.0" encoding="iso-8859-1"?>
<!-- Generator: Adobe Illustrator 19.0.0, SVG Export Plug-In . SVG Version: 6.00 Build 0)  -->
<svg xmlns="http://www.w3.org/2000/svg" xmlns:xlink="http://www.w3.org/1999/xlink" version="1.1" id="Capa_1" x="0px" y="0px" viewBox="0 0 409.6 409.6" style="enable-background:new 0 0 409.6 409.6;" xml:space="preserve">
<polygon style="fill:#27A2DB;" points="148.678,409.6 115.821,366.966 63.042,377.531 138.842,175.119 224.478,207.188 "/>
<polygon style="fill:#E56353;" points="260.922,409.6 293.779,366.966 346.558,377.531 270.758,175.119 185.122,207.188 "/>
<polygon style="fill:#FCD462;" points="204.8,14.349 220.668,0 233.206,17.335 251.711,6.598 260.371,26.161 280.704,19.507   285.108,40.443 306.379,38.161 306.334,59.555 327.615,61.746 323.123,82.663 343.484,89.231 334.74,108.756 353.291,119.414   340.679,136.695 356.608,150.977 340.679,165.258 353.291,182.539 334.74,193.197 343.484,212.722 323.123,219.29 327.615,240.207   306.334,242.398 306.379,263.792 285.108,261.51 280.704,282.446 260.371,275.792 251.711,295.355 233.206,284.618 220.668,301.953   204.8,287.604 188.932,301.953 176.394,284.618 157.889,295.355 149.229,275.792 128.896,282.446 124.492,261.51 103.221,263.792   103.266,242.398 81.985,240.207 86.477,219.29 66.116,212.722 74.86,193.197 56.309,182.539 68.921,165.258 52.992,150.977   68.921,136.695 56.309,119.414 74.86,108.756 66.116,89.231 86.477,82.663 81.985,61.746 103.266,59.555 103.221,38.161   124.492,40.443 128.896,19.507 149.229,26.161 157.889,6.598 176.394,17.335 188.932,0 "/>
<circle style="fill:#DC8744;" cx="204.8" cy="150.979" r="111.846"/>
<circle style="fill:#F6C358;" cx="204.8" cy="150.979" r="98.883"/>
<polygon style="fill:#DC8744;" points="204.8,77.976 228.519,126.037 281.557,133.743 243.179,171.153 252.239,223.977   204.8,199.037 157.361,223.977 166.421,171.153 128.043,133.743 181.081,126.037 "/>
<g>
</g>
<g>
</g>
<g>
</g>
<g>
</g>
<g>
</g>
<g>
</g>
<g>
</g>
<g>
</g>
<g>
</g>
<g>
</g>
<g>
</g>
<g>
</g>
<g>
</g>
<g>
</g>
<g>
</g>
</svg>
