<?xml version="1.0" encoding="iso-8859-1"?>
<!-- Generator: Adobe Illustrator 19.0.0, SVG Export Plug-In . SVG Version: 6.00 Build 0)  -->
<svg xmlns="http://www.w3.org/2000/svg" xmlns:xlink="http://www.w3.org/1999/xlink" version="1.1" id="Capa_1" x="0px" y="0px" viewBox="0 0 409.585 409.585" style="enable-background:new 0 0 409.585 409.585;" xml:space="preserve">
<path style="fill:#3A556A;" d="M141.938,241.228h-25.306c-3.423,0-6.197,2.775-6.197,6.197v57.326c0,3.423,2.774,6.197,6.197,6.197  h25.306c3.423,0,6.197-2.775,6.197-6.197v-57.326C148.136,244.003,145.361,241.228,141.938,241.228z"/>
<path style="fill:#64798A;" d="M149.46,368.784h-2.309L117.159,211.78h-68.17l28.448,176.86c0.89,5.529,5.661,9.595,11.262,9.595  h60.119c7.689,0,14.561-5.616,15.297-13.27C164.961,376.185,158.068,368.784,149.46,368.784z"/>
<path style="fill:#CE412D;" d="M6.751,109.567c-3.728,0-6.751,3.022-6.751,6.75v75.789c0,3.728,3.022,6.75,6.751,6.75h24.24v-89.29  H6.751z"/>
<path style="fill:#D15241;" d="M358.35,102.977v102.471c28.297,0,51.235-22.939,51.235-51.236S386.646,102.977,358.35,102.977z"/>
<path style="fill:#EBF0F3;" d="M355.552,154.227l-11.644,129.532c0,0-124.961-65.291-204.711-71.379V96.044  c79.749-6.088,204.711-71.379,204.711-71.379L355.552,154.227z"/>
<path style="fill:#E56353;" d="M359.713,297.075h-8.324c-5.058,0-9.158-4.1-9.158-9.158V20.507c0-5.058,4.1-9.158,9.158-9.158h8.324  c5.058,0,9.158,4.1,9.158,9.158v267.41C368.871,292.975,364.771,297.075,359.713,297.075z"/>
<path style="fill:#D15241;" d="M142.785,89.469H30.272c-4.687,0-8.486,3.799-8.486,8.486v112.513c0,4.687,3.799,8.486,8.486,8.486  h112.513c4.687,0,8.486-3.799,8.486-8.486V97.956C151.271,93.269,147.471,89.469,142.785,89.469z"/>
<g>
	<path style="fill:#CE412D;" d="M129.178,114.17H43.878c-3.982,0-7.211,3.228-7.211,7.211v0c0,3.982,3.228,7.211,7.211,7.211h85.301   c3.982,0,7.211-3.228,7.211-7.211v0C136.389,117.398,133.161,114.17,129.178,114.17z"/>
	<path style="fill:#CE412D;" d="M129.178,147.001H43.878c-3.982,0-7.211,3.228-7.211,7.211v0c0,3.982,3.228,7.211,7.211,7.211   h85.301c3.982,0,7.211-3.228,7.211-7.211v0C136.389,150.23,133.161,147.001,129.178,147.001z"/>
	<path style="fill:#CE412D;" d="M129.178,179.833H43.878c-3.982,0-7.211,3.228-7.211,7.211v0c0,3.982,3.228,7.211,7.211,7.211   h85.301c3.982,0,7.211-3.228,7.211-7.211v0C136.389,183.061,133.161,179.833,129.178,179.833z"/>
</g>
<g>
</g>
<g>
</g>
<g>
</g>
<g>
</g>
<g>
</g>
<g>
</g>
<g>
</g>
<g>
</g>
<g>
</g>
<g>
</g>
<g>
</g>
<g>
</g>
<g>
</g>
<g>
</g>
<g>
</g>
</svg>
