<?xml version="1.0" encoding="iso-8859-1"?>
<!-- Generator: Adobe Illustrator 19.0.0, SVG Export Plug-In . SVG Version: 6.00 Build 0)  -->
<svg xmlns="http://www.w3.org/2000/svg" xmlns:xlink="http://www.w3.org/1999/xlink" version="1.1" id="Capa_1" x="0px" y="0px" viewBox="0 0 409.6 409.6" style="enable-background:new 0 0 409.6 409.6;" xml:space="preserve">
<path style="fill:#E56353;" d="M342.572,0v204.798c0,75.971-61.804,137.775-137.775,137.775S67.023,280.769,67.023,204.798V0H0  v204.8c0,113.108,91.692,204.8,204.799,204.8h0.001c113.108,0,204.8-91.692,204.8-204.8V0H342.572z"/>
<path style="fill:#27A2DB;" d="M204.797,342.573c-75.971,0-137.775-61.804-137.775-137.775V53.721c-22.749,0-48.742,0-67.023,0  V204.8c0,113.108,91.692,204.8,204.799,204.8h0.001v-67.027H204.797z"/>
<g>
	<path style="fill:#3A556A;" d="M67.023,0H0v53.721c18.281,0,44.274,0,67.023,0V0z"/>
	<path style="fill:#3A556A;" d="M409.6,0h-67.023v53.721c18.281,0,44.274,0,67.023,0V0z"/>
</g>
<polygon style="fill:#27A2DB;" points="134.472,125.11 204.8,125.11 204.8,0 "/>
<polygon style="fill:#E56353;" points="275.128,125.11 204.8,125.11 204.8,250.221 "/>
<g>
</g>
<g>
</g>
<g>
</g>
<g>
</g>
<g>
</g>
<g>
</g>
<g>
</g>
<g>
</g>
<g>
</g>
<g>
</g>
<g>
</g>
<g>
</g>
<g>
</g>
<g>
</g>
<g>
</g>
</svg>
