<?xml version="1.0" encoding="iso-8859-1"?>
<!-- Generator: Adobe Illustrator 19.0.0, SVG Export Plug-In . SVG Version: 6.00 Build 0)  -->
<svg xmlns="http://www.w3.org/2000/svg" xmlns:xlink="http://www.w3.org/1999/xlink" version="1.1" id="Capa_1" x="0px" y="0px" viewBox="0 0 409.6 409.6" style="enable-background:new 0 0 409.6 409.6;" xml:space="preserve">
<path style="fill:#F6C358;" d="M204.8,109.452C91.692,109.452,0,144.006,0,186.631s91.692,47.8,204.8,47.8  c113.108,0,204.8-5.175,204.8-47.8S317.908,109.452,204.8,109.452z"/>
<g>
	<path style="fill:#F2BA57;" d="M100.661,130.78l-4.038,24.448c-0.747,3.507-1.404,7.021-2.287,10.515l1.025,0.442   c6.345-11.125,10.958-23.149,14.351-35.659c1.136-4.196,2.424-8.473,3.06-12.838c-3.913,0.743-7.753,1.53-11.515,2.363   c-0.027,2.945-0.009,5.911-0.336,8.876C100.861,129.543,100.726,130.164,100.661,130.78z"/>
	<path style="fill:#F2BA57;" d="M168.275,128.927c-0.062,0.635-0.2,1.274-0.267,1.909l-4.031,24.4   c-0.745,3.505-1.402,7.015-2.285,10.507l1.025,0.442c6.345-11.125,10.958-23.149,14.351-35.659   c1.685-6.23,3.838-12.619,3.435-19.246c-0.024-0.42-0.095-0.841-0.127-1.262c-3.705,0.166-7.376,0.37-11.018,0.61   c-0.004,0.02-0.007,0.04-0.011,0.06C168.148,116.621,168.955,122.781,168.275,128.927z"/>
	<path style="fill:#F2BA57;" d="M235.632,128.927c-0.062,0.635-0.2,1.274-0.267,1.909l-4.031,24.4   c-0.745,3.505-1.402,7.015-2.285,10.507l1.025,0.442c6.345-11.125,10.958-23.149,14.351-35.659   c1.685-6.23,3.838-12.619,3.435-19.246c-0.002-0.035-0.009-0.07-0.011-0.105c-3.664-0.295-7.356-0.561-11.091-0.781   c-0.018,0.098-0.036,0.196-0.055,0.294C235.505,116.621,236.312,122.781,235.632,128.927z"/>
	<path style="fill:#F2BA57;" d="M302.723,130.827l-4.033,24.41c-0.745,3.504-1.404,7.015-2.285,10.506l1.025,0.442   c6.345-11.125,10.958-23.149,14.351-35.659c0.811-3.002,1.722-6.043,2.413-9.128c-3.547-0.847-7.149-1.663-10.838-2.428   c-0.051,3.299,0.002,6.629-0.367,9.957C302.926,129.559,302.79,130.195,302.723,130.827z"/>
</g>
<path style="fill:#FCD462;" d="M204.8,175.169C91.692,175.169,0,209.723,0,252.348s91.692,47.8,204.8,47.8  c113.108,0,204.8-5.175,204.8-47.8S317.908,175.169,204.8,175.169z"/>
<g>
	<path style="fill:#F6C358;" d="M100.661,196.497l-4.038,24.448c-0.747,3.507-1.404,7.021-2.287,10.515l1.025,0.442   c6.345-11.125,10.958-23.149,14.351-35.659c1.136-4.196,2.424-8.473,3.06-12.838c-3.913,0.743-7.753,1.53-11.515,2.363   c-0.027,2.945-0.009,5.911-0.336,8.876C100.861,195.26,100.726,195.881,100.661,196.497z"/>
	<path style="fill:#F6C358;" d="M168.275,194.644c-0.062,0.635-0.2,1.274-0.267,1.909l-4.031,24.4   c-0.745,3.505-1.402,7.015-2.285,10.507l1.025,0.442c6.345-11.125,10.958-23.149,14.351-35.659   c1.685-6.23,3.838-12.619,3.435-19.246c-0.024-0.42-0.095-0.841-0.127-1.262c-3.705,0.166-7.376,0.37-11.018,0.61   c-0.004,0.02-0.007,0.04-0.011,0.06C168.148,182.339,168.955,188.499,168.275,194.644z"/>
	<path style="fill:#F6C358;" d="M235.632,194.644c-0.062,0.635-0.2,1.274-0.267,1.909l-4.031,24.4   c-0.745,3.505-1.402,7.015-2.285,10.507l1.025,0.442c6.345-11.125,10.958-23.149,14.351-35.659   c1.685-6.23,3.838-12.619,3.435-19.246c-0.002-0.035-0.009-0.07-0.011-0.105c-3.664-0.295-7.356-0.561-11.091-0.781   c-0.018,0.098-0.036,0.196-0.055,0.294C235.505,182.339,236.312,188.499,235.632,194.644z"/>
	<path style="fill:#F6C358;" d="M302.723,196.544l-4.033,24.41c-0.745,3.504-1.404,7.015-2.285,10.506l1.025,0.442   c6.345-11.125,10.958-23.149,14.351-35.659c0.811-3.002,1.722-6.043,2.413-9.128c-3.547-0.847-7.149-1.663-10.838-2.428   c-0.051,3.299,0.002,6.629-0.367,9.957C302.926,195.276,302.79,195.912,302.723,196.544z"/>
</g>
<g>
</g>
<g>
</g>
<g>
</g>
<g>
</g>
<g>
</g>
<g>
</g>
<g>
</g>
<g>
</g>
<g>
</g>
<g>
</g>
<g>
</g>
<g>
</g>
<g>
</g>
<g>
</g>
<g>
</g>
</svg>
