<?xml version="1.0" encoding="iso-8859-1"?>
<!-- Generator: Adobe Illustrator 19.0.0, SVG Export Plug-In . SVG Version: 6.00 Build 0)  -->
<svg xmlns="http://www.w3.org/2000/svg" xmlns:xlink="http://www.w3.org/1999/xlink" version="1.1" id="Capa_1" x="0px" y="0px" viewBox="0 0 409.6 409.6" style="enable-background:new 0 0 409.6 409.6;" xml:space="preserve">
<polygon style="fill:#EBF0F3;" points="409.6,345.389 0,345.389 77.788,199.046 331.812,199.046 "/>
<polygon style="fill:#27A2DB;" points="32.978,330.844 91.298,205.005 318.3,205.005 376.619,330.844 "/>
<g>
	<polygon style="fill:#44C4A1;" points="358.08,290.842 318.3,205.005 158.52,205.005 167.697,252.885  "/>
	<polygon style="fill:#44C4A1;" points="136.072,205.005 91.298,205.005 77.447,234.892 140.314,247.426  "/>
</g>
<polygon style="fill:#FCD462;" points="167.697,252.885 158.52,205.005 136.072,205.005 140.314,247.426 77.447,234.892   72.026,246.588 141.684,261.124 148.656,330.844 182.637,330.844 170.425,267.122 366.001,307.933 358.08,290.842 "/>
<path style="fill:#E56353;" d="M290.04,134.919c0,55.272-70.708,126.478-70.708,126.478s-70.708-72.202-70.708-126.478  c0-39.051,31.657-70.708,70.708-70.708S290.04,95.868,290.04,134.919z"/>
<circle style="fill:#D15241;" cx="219.331" cy="134.912" r="36.849"/>
<g>
</g>
<g>
</g>
<g>
</g>
<g>
</g>
<g>
</g>
<g>
</g>
<g>
</g>
<g>
</g>
<g>
</g>
<g>
</g>
<g>
</g>
<g>
</g>
<g>
</g>
<g>
</g>
<g>
</g>
</svg>
