<?xml version="1.0" encoding="iso-8859-1"?>
<!-- Generator: Adobe Illustrator 19.0.0, SVG Export Plug-In . SVG Version: 6.00 Build 0)  -->
<svg xmlns="http://www.w3.org/2000/svg" xmlns:xlink="http://www.w3.org/1999/xlink" version="1.1" id="Capa_1" x="0px" y="0px" viewBox="0 0 409.6 409.6" style="enable-background:new 0 0 409.6 409.6;" xml:space="preserve">
<path style="fill:#E56353;" d="M145.592,22.212L103.698,0.838c-5.042-2.572-11.022,1.09-11.022,6.75v156.441h57.049V28.962  C149.725,26.114,148.128,23.506,145.592,22.212z"/>
<rect x="83.945" y="95.923" style="fill:#3A556A;" width="74.511" height="168.817"/>
<g>
	<path style="fill:#64798A;" d="M234.85,214.674v179.542c0,8.496,6.888,15.384,15.385,15.384h76.342   c8.496,0,15.383-6.888,15.383-15.384V214.674H234.85z"/>
	<path style="fill:#64798A;" d="M67.646,214.674v179.542c0,8.496,6.888,15.384,15.385,15.384h76.342   c8.496,0,15.383-6.888,15.383-15.384V214.674H67.646z"/>
</g>
<rect x="234.852" y="229.555" style="fill:#E56353;" width="107.11" height="18.212"/>
<rect x="67.638" y="229.555" style="fill:#FCD462;" width="107.11" height="18.212"/>
<g>
</g>
<g>
</g>
<g>
</g>
<g>
</g>
<g>
</g>
<g>
</g>
<g>
</g>
<g>
</g>
<g>
</g>
<g>
</g>
<g>
</g>
<g>
</g>
<g>
</g>
<g>
</g>
<g>
</g>
</svg>
