<?xml version="1.0" encoding="iso-8859-1"?>
<!-- Generator: Adobe Illustrator 19.0.0, SVG Export Plug-In . SVG Version: 6.00 Build 0)  -->
<svg xmlns="http://www.w3.org/2000/svg" xmlns:xlink="http://www.w3.org/1999/xlink" version="1.1" id="Capa_1" x="0px" y="0px" viewBox="0 0 411.57 411.57" style="enable-background:new 0 0 411.57 411.57;" xml:space="preserve">
<path style="fill:#FCD462;" d="M242.3,342.005H19.833C8.878,342.005,0,350.885,0,361.839v48.746h262.133v-48.746  C262.133,350.885,253.254,342.005,242.3,342.005z"/>
<path style="fill:#64798A;" d="M214.106,299.58H48.028c-10.196,0-18.464,8.266-18.464,18.464v23.961h203.004v-23.961  C232.568,307.847,224.303,299.58,214.106,299.58z"/>
<path style="fill:#2F4859;" d="M386.168,352.813L160.081,161.909l21.643-25.632l226.087,190.904  c4.47,3.775,5.034,10.458,1.26,14.929l-7.974,9.444C397.322,356.023,390.638,356.587,386.168,352.813z"/>
<rect x="79.269" y="50.22" transform="matrix(-0.7641 -0.6452 0.6452 -0.7641 160.7702 295.3211)" style="fill:#64798A;" width="110.238" height="136.084"/>
<g>
	<path style="fill:#3A556A;" d="M242.613,78.015L155.931,4.823c-6.863-5.795-17.125-4.929-22.921,1.934l0,0   c-5.795,6.863-4.93,17.125,1.934,22.921l86.682,73.192c6.863,5.795,17.125,4.929,22.921-1.934l0,0   C250.342,94.073,249.476,83.811,242.613,78.015z"/>
	<path style="fill:#3A556A;" d="M133.832,206.845l-86.682-73.192c-6.863-5.795-17.125-4.929-22.921,1.934l0,0   c-5.795,6.863-4.93,17.125,1.934,22.921l86.682,73.192c6.863,5.795,17.125,4.929,22.921-1.934l0,0   C141.561,222.902,140.696,212.64,133.832,206.845z"/>
</g>
<g>
</g>
<g>
</g>
<g>
</g>
<g>
</g>
<g>
</g>
<g>
</g>
<g>
</g>
<g>
</g>
<g>
</g>
<g>
</g>
<g>
</g>
<g>
</g>
<g>
</g>
<g>
</g>
<g>
</g>
</svg>
