<?xml version="1.0" encoding="iso-8859-1"?>
<!-- Generator: Adobe Illustrator 19.0.0, SVG Export Plug-In . SVG Version: 6.00 Build 0)  -->
<svg xmlns="http://www.w3.org/2000/svg" xmlns:xlink="http://www.w3.org/1999/xlink" version="1.1" id="Capa_1" x="0px" y="0px" viewBox="0 0 405.289 405.289" style="enable-background:new 0 0 405.289 405.289;" xml:space="preserve">
<g>
	<path style="fill:#3A556A;" d="M240.09,76.126c6.832-6.904,6.833-18.096,0.001-25.001c-6.832-6.905-17.906-6.904-24.738,0.001   c-5.786,5.847-6.617,14.749-2.602,21.538l-18.808,19.008l6.027,6.091l18.808-19.008C225.495,82.812,234.304,81.973,240.09,76.126z"/>
	<path style="fill:#3A556A;" d="M181.853,76.126c-6.832-6.904-6.833-18.096-0.001-25.001s17.906-6.904,24.738,0.001   c5.786,5.847,6.617,14.749,2.602,21.538L228,91.672l-6.027,6.091l-18.808-19.008C196.448,82.812,187.639,81.973,181.853,76.126z"/>
</g>
<path style="fill:#E56353;" d="M393.021,308.324c-67.308,68.024-313.444,68.024-380.753,0  c-36.888-37.28,21.166-210.888,21.166-210.888h338.42C371.855,97.436,429.909,271.044,393.021,308.324z"/>
<rect x="29.435" y="86.165" style="fill:#64798A;" width="346.419" height="23.214"/>
<g>
	<rect x="66.437" y="166.549" style="fill:#D15241;" width="13.926" height="14.259"/>
	<rect x="80.43" y="180.716" style="fill:#D15241;" width="13.926" height="14.259"/>
	<rect x="94.382" y="166.549" style="fill:#D15241;" width="13.926" height="14.259"/>
	<rect x="108.396" y="180.716" style="fill:#D15241;" width="13.926" height="14.259"/>
	<rect x="122.312" y="166.549" style="fill:#D15241;" width="13.926" height="14.259"/>
	<rect x="136.341" y="180.716" style="fill:#D15241;" width="13.926" height="14.259"/>
	<rect x="150.267" y="166.549" style="fill:#D15241;" width="13.926" height="14.259"/>
	<rect x="164.286" y="180.716" style="fill:#D15241;" width="13.926" height="14.259"/>
	<rect x="178.222" y="166.549" style="fill:#D15241;" width="13.926" height="14.259"/>
	<rect x="192.226" y="180.716" style="fill:#D15241;" width="13.926" height="14.259"/>
	<rect x="206.152" y="166.549" style="fill:#D15241;" width="13.926" height="14.259"/>
	<rect x="220.155" y="180.716" style="fill:#D15241;" width="13.926" height="14.259"/>
	<rect x="234.081" y="166.549" style="fill:#D15241;" width="13.926" height="14.259"/>
	<rect x="248.11" y="180.716" style="fill:#D15241;" width="13.926" height="14.259"/>
	<rect x="262.037" y="166.549" style="fill:#D15241;" width="13.926" height="14.259"/>
	<rect x="276.065" y="180.716" style="fill:#D15241;" width="13.926" height="14.259"/>
	<path style="fill:#D15241;" d="M324.788,166.55h-31.904v28.428h31.904c7.767,0,14.064-6.364,14.064-14.214   C338.852,172.913,332.555,166.55,324.788,166.55z M324.788,187.847h-7.179V173.68h7.179c3.865,0,7.007,3.175,7.007,7.082   S328.653,187.847,324.788,187.847z"/>
</g>
<g>
</g>
<g>
</g>
<g>
</g>
<g>
</g>
<g>
</g>
<g>
</g>
<g>
</g>
<g>
</g>
<g>
</g>
<g>
</g>
<g>
</g>
<g>
</g>
<g>
</g>
<g>
</g>
<g>
</g>
</svg>
