<?xml version="1.0" encoding="iso-8859-1"?>
<!-- Generator: Adobe Illustrator 19.0.0, SVG Export Plug-In . SVG Version: 6.00 Build 0)  -->
<svg xmlns="http://www.w3.org/2000/svg" xmlns:xlink="http://www.w3.org/1999/xlink" version="1.1" id="Capa_1" x="0px" y="0px" viewBox="0 0 408.623 408.623" style="enable-background:new 0 0 408.623 408.623;" xml:space="preserve">
<polygon style="fill:#E56353;" points="204.311,19.863 220.391,0 233.166,22.133 252.154,5.031 261.309,28.89 282.74,14.969   288.049,39.966 311.394,29.569 312.728,55.089 337.411,48.471 334.736,73.886 360.151,71.211 353.534,95.895 379.054,97.229   368.656,120.573 393.654,125.883 379.733,147.314 403.592,156.468 386.489,175.457 408.623,188.232 388.76,204.311 408.623,220.391   386.489,233.166 403.592,252.154 379.733,261.309 393.654,282.74 368.656,288.049 379.054,311.394 353.534,312.728 360.151,337.411   334.736,334.736 337.411,360.151 312.728,353.534 311.394,379.054 288.049,368.656 282.74,393.654 261.309,379.733 252.154,403.592   233.166,386.489 220.391,408.623 204.311,388.76 188.232,408.623 175.457,386.489 156.468,403.592 147.314,379.733 125.883,393.654   120.573,368.656 97.229,379.054 95.895,353.534 71.211,360.151 73.886,334.736 48.471,337.411 55.089,312.728 29.569,311.394   39.966,288.049 14.969,282.74 28.89,261.309 5.031,252.154 22.133,233.166 0,220.391 19.863,204.311 0,188.232 22.133,175.457   5.031,156.468 28.89,147.314 14.969,125.883 39.966,120.573 29.569,97.229 55.089,95.895 48.471,71.211 73.886,73.886   71.211,48.471 95.895,55.089 97.229,29.569 120.573,39.966 125.883,14.969 147.314,28.89 156.468,5.031 175.457,22.133 188.232,0   "/>
<path style="fill:#D15241;" d="M204.314,358.631c-85.091,0-154.322-69.227-154.322-154.318c0-85.095,69.231-154.322,154.322-154.322  s154.315,69.227,154.315,154.322C358.629,289.404,289.405,358.631,204.314,358.631z M204.314,64.85  c-76.9,0-139.463,62.563-139.463,139.463s62.563,139.459,139.463,139.459c76.892,0,139.456-62.559,139.456-139.459  S281.207,64.85,204.314,64.85z"/>
<g>
	<path style="fill:#FFFFFF;" d="M140.238,153.414h10.95v101.794h-11.879l-36.747-74.27v74.27h-10.95V153.414h10.95l37.675,76.018   V153.414z"/>
	<path style="fill:#FFFFFF;" d="M214.751,153.414v16.165h-34.609v26.943h31.083v15.288h-31.083v27.234h35.727v16.165h-46.677   V153.414H214.751z"/>
	<path style="fill:#FFFFFF;" d="M250.108,226.665l14.477-73.251h9.832l14.477,73.251l16.334-73.251h11.781l-22.64,101.794h-10.859   l-13.638-69.755h-0.74l-13.646,69.755h-10.852l-22.648-101.794h11.788L250.108,226.665z"/>
</g>
<g>
</g>
<g>
</g>
<g>
</g>
<g>
</g>
<g>
</g>
<g>
</g>
<g>
</g>
<g>
</g>
<g>
</g>
<g>
</g>
<g>
</g>
<g>
</g>
<g>
</g>
<g>
</g>
<g>
</g>
</svg>
