<?xml version="1.0" encoding="iso-8859-1"?>
<!-- Generator: Adobe Illustrator 19.0.0, SVG Export Plug-In . SVG Version: 6.00 Build 0)  -->
<svg xmlns="http://www.w3.org/2000/svg" xmlns:xlink="http://www.w3.org/1999/xlink" version="1.1" id="Capa_1" x="0px" y="0px" viewBox="0 0 409.6 409.6" style="enable-background:new 0 0 409.6 409.6;" xml:space="preserve">
<circle style="fill:#27A2DB;" cx="204.8" cy="59.991" r="59.991"/>
<path style="fill:#44C4A1;" d="M208.245,140.34c5.475-9.049,8.683-19.622,8.683-30.97c0-33.132-26.859-59.991-59.99-59.991  s-59.99,26.859-59.99,59.991c0,11.348,3.208,21.921,8.683,30.97H208.245z"/>
<path style="fill:#E56353;" d="M303.97,140.34c5.475-9.049,8.683-19.622,8.683-30.97c0-33.132-26.859-59.991-59.99-59.991  s-59.991,26.859-59.991,59.991c0,11.348,3.209,21.921,8.684,30.97H303.97z"/>
<path style="fill:#FCD462;" d="M205.021,409.6L99.583,133.006c-0.395-1.037,0.474-2.103,1.57-1.932  c69.099,10.772,138.198,10.772,207.297-0.001c1.095-0.171,1.964,0.894,1.571,1.93L205.021,409.6z"/>
<path style="fill:#F6C358;" d="M111.84,139.12l17.975,17.975l-15.24,15.24l2.907,7.625l17.598-17.599l17.976,17.975l-17.976,17.976  l-17.133-17.132l6.487,17.018l5.38,5.38l-2.411,2.41l2.907,7.625l4.769-4.77l17.975,17.974l-12.822,12.822l2.905,7.625  l15.182-15.181l17.976,17.976l-17.976,17.976l-11.738-11.738l9.385,24.621l2.353-2.352l17.975,17.975l-10.405,10.405l2.907,7.625  l12.764-12.764l17.975,17.975l-17.973,17.974l-6.347-6.346l6.487,17.018l17.836,17.835l-7.991,7.991l2.907,7.625l10.349-10.35  l10.633,10.634l2.898-7.634l-8.265-8.266l17.973-17.974l0.184,0.184l6.669-17.569l-6.853,6.854l-17.976-17.975l17.978-17.977  l12.973,12.974l2.898-7.633l-10.605-10.605l17.976-17.976l2.522,2.522l2.898-7.633l-0.155-0.154l0.342-0.342l6.444-16.974  l-12.051,12.05l-17.976-17.976l17.975-17.974l15.313,15.313l2.898-7.634l-12.945-12.945l17.975-17.975l4.862,4.862l2.898-7.633  l-2.495-2.495l5.547-5.547l6.444-16.975l-17.256,17.258l-17.975-17.974l17.976-17.975l17.649,17.651l2.898-7.633l-15.282-15.283  l17.976-17.975l7.198,7.199l2.898-7.633l-4.831-4.831l1.96-1.961l-0.309-0.308c-4.238,0.637-8.476,1.179-12.716,1.735l0.535,0.534  l-17.976,17.975l-14.982-14.982c-5.889,0.485-11.778,0.818-17.667,1.146l-13.835,13.835l-12.88-12.88  c-3.444,0.054-6.885,0.201-10.329,0.201l17.944,17.943l-17.975,17.974l-17.975-17.975l17.94-17.942  c-3.442,0-6.885-0.148-10.329-0.201l-12.876,12.878l-13.833-13.833c-5.889-0.329-11.778-0.661-17.667-1.146l-14.982,14.98  l-17.975-17.975l0.531-0.531c-4.238-0.556-8.476-1.098-12.715-1.735l-0.307,0.307l1.96,1.959l-4.827,4.827l2.905,7.625  L111.84,139.12z M140.346,203.577l17.976-17.976l17.975,17.974l-17.976,17.976L140.346,203.577z M163.586,226.817l17.976-17.976  l17.976,17.976l-17.976,17.976L163.586,226.817z M204.804,232.082l17.975,17.975l-17.976,17.976l-17.975-17.975L204.804,232.082z   M163.586,273.3l17.976-17.976l17.975,17.975l-17.976,17.977L163.586,273.3z M222.776,343.023l-17.973,17.974l-17.976-17.975  l17.973-17.974L222.776,343.023z M204.8,314.517l-17.975-17.976l17.976-17.977l17.976,17.976L204.8,314.517z M246.02,273.298  l-17.976,17.976l-17.976-17.976l17.976-17.976L246.02,273.298z M228.044,244.791l-17.975-17.975l17.975-17.975l17.975,17.975  L228.044,244.791z M269.258,203.576l-17.975,17.975l-17.975-17.974l17.975-17.975L269.258,203.576z M251.284,139.12l17.976,17.976  l-17.976,17.975l-17.976-17.976L251.284,139.12z M228.042,162.361l17.976,17.976l-17.975,17.974l-17.976-17.976L228.042,162.361z   M222.778,203.577l-17.975,17.975l-17.976-17.976l17.975-17.975L222.778,203.577z M199.536,180.335l-17.975,17.975l-17.975-17.975  l17.975-17.975L199.536,180.335z M158.322,139.119l17.975,17.975l-17.975,17.975l-17.976-17.975L158.322,139.119z"/>
<g>
</g>
<g>
</g>
<g>
</g>
<g>
</g>
<g>
</g>
<g>
</g>
<g>
</g>
<g>
</g>
<g>
</g>
<g>
</g>
<g>
</g>
<g>
</g>
<g>
</g>
<g>
</g>
<g>
</g>
</svg>
