<?xml version="1.0" encoding="iso-8859-1"?>
<!-- Generator: Adobe Illustrator 19.0.0, SVG Export Plug-In . SVG Version: 6.00 Build 0)  -->
<svg xmlns="http://www.w3.org/2000/svg" xmlns:xlink="http://www.w3.org/1999/xlink" version="1.1" id="Capa_1" x="0px" y="0px" viewBox="0 0 409.6 409.6" style="enable-background:new 0 0 409.6 409.6;" xml:space="preserve">
<path style="fill:#E56353;" d="M409.6,358.737c0-21.729-13.629-37.906-28.539-49.102c-17.144-12.874-38.034-19.786-59.436-21.045  l-28.551-1.679c-32.819-1.93-62.601-19.663-80.145-47.467C166.002,165.079,75.846,37.56,57.457,11.639  c-1.75-2.466-5.337-2.757-7.462-0.606C-2.325,63.999,0.016,120.12,0.016,120.12l62.728,62.729  c51.015,12.753,120.027,141.319,145.871,192.835c6.521,12.998,19.789,21.183,34.331,21.183l126.066,0  C410.178,391.709,409.6,358.737,409.6,358.737z"/>
<path style="fill:#2F4859;" d="M404.684,375.959H208.769c0.011,0.02,0.024,0.037,0.035,0.056  c4.093,8.006,10.757,14.143,18.699,17.623c0.282,0.123,0.586,0.197,0.87,0.314c1.325,0.543,2.662,1.059,4.049,1.453  c0.634,0.179,1.296,0.263,1.939,0.41c1.072,0.245,2.132,0.526,3.228,0.68c1.673,0.234,3.376,0.343,5.093,0.355  c0.089,0,0.175,0.018,0.264,0.018h126.065l0.002,0c7.747-1.356,13.941-3.261,19.069-5.455  C396.449,387.232,401.559,381.477,404.684,375.959z"/>
<path style="fill:#EBF0F3;" d="M208.769,375.959h195.914c1.482-2.614,2.487-5.144,3.208-7.458H204.98  c0.084,0.165,0.153,0.304,0.237,0.468c1.209,2.374,2.374,4.675,3.439,6.8C208.691,375.835,208.737,375.893,208.769,375.959z"/>
<path style="fill:#D15241;" d="M0.016,120.12c0,0,43.785,126.688,43.047,276.747h19.681V182.849  C62.744,182.849,45.522,145.949,0.016,120.12z"/>
<path style="fill:#FCD462;" d="M100.163,279.217l-22.322,4.401c-1.453,0.287-2.748,1.098-3.641,2.278l-18.623,24.639  c-0.892,1.181-1.32,2.649-1.199,4.124l1.855,22.677c0.14,1.71,1.003,3.279,2.372,4.314l75.601,57.143  c2.654,2.006,6.433,1.48,8.438-1.173l39.091-51.718c2.005-2.653,1.48-6.432-1.174-8.438l-75.601-57.143  C103.591,279.288,101.846,278.885,100.163,279.217z"/>
<g>
	<path style="fill:#DC8744;" d="M137.383,390.691L64.5,335.603l-1.701-20.726l17.548-23.216l20.404-4.018l72.883,55.088   L137.383,390.691z M69.864,332.656l66.431,50.212l29.515-39.049l-66.431-50.212l-15.861,3.122L68.54,316.544L69.864,332.656z"/>
	<path style="fill:#DC8744;" d="M120.18,317.761c0.234,2.363-0.392,4.535-1.884,6.508c-1.493,1.975-3.423,3.17-5.786,3.594   c-2.364,0.425-4.512-0.096-6.44-1.554c-1.928-1.457-3.013-3.37-3.248-5.731c-0.234-2.363,0.396-4.532,1.888-6.506   c1.493-1.975,3.42-3.173,5.782-3.596c2.366-0.421,4.512,0.096,6.44,1.554C118.864,313.49,119.944,315.4,120.18,317.761z    M139.442,330.24l-46.68,14.002l-5.788-4.375l46.68-14.002L139.442,330.24z M111.578,322.893c0.941-0.25,1.753-0.824,2.432-1.722   c0.678-0.896,0.993-1.846,0.949-2.843c-0.049-0.998-0.436-1.776-1.167-2.328c-0.734-0.555-1.573-0.704-2.514-0.454   c-0.942,0.252-1.754,0.826-2.432,1.722c-0.679,0.898-0.995,1.847-0.949,2.843c0.048,1,0.433,1.773,1.167,2.328   C109.798,322.994,110.636,323.145,111.578,322.893z M124.259,349.401c0.234,2.363-0.395,4.53-1.886,6.504   c-1.493,1.976-3.421,3.175-5.787,3.595c-2.363,0.423-4.508-0.094-6.44-1.554c-1.928-1.457-3.009-3.367-3.246-5.733   c-0.234-2.363,0.396-4.532,1.888-6.506c1.492-1.974,3.42-3.173,5.786-3.594c2.363-0.423,4.508,0.094,6.44,1.554   C122.941,345.126,124.022,347.036,124.259,349.401z M115.678,354.689c0.942-0.252,1.751-0.828,2.428-1.725   c0.679-0.898,0.997-1.843,0.953-2.84c-0.048-1-0.436-1.776-1.167-2.328c-0.734-0.555-1.572-0.706-2.514-0.454   c-0.942,0.252-1.753,0.824-2.432,1.722c-0.678,0.896-0.993,1.846-0.949,2.843c0.044,0.997,0.433,1.773,1.167,2.328   C113.898,354.789,114.736,354.941,115.678,354.689z"/>
</g>
<ellipse style="fill:#FFFFFF;" cx="72.822" cy="304.237" rx="6.395" ry="6.395"/>
<path style="fill:#27A2DB;" d="M71.195,303.052c-2,3.684-5.949,6.076-11.113,6.735c-5.418,0.68-11.411-0.596-16.945-3.596  c-11.222-6.091-16.909-17.407-12.669-25.233c2-3.684,5.949-6.076,11.113-6.735c0.953-0.12,1.927-0.178,2.909-0.178  c4.596,0,9.476,1.302,14.036,3.775c5.827,3.159,10.113,7.73,12.34,12.489l2.422-3.204c-2.715-4.862-7.125-9.38-12.987-12.557  c-6.204-3.371-13.018-4.822-19.193-4.015c-6.385,0.811-11.324,3.884-13.913,8.651c-5.215,9.629,1.135,23.211,14.167,30.28  c5.098,2.767,10.604,4.225,15.825,4.225c1.135,0,2.262-0.069,3.367-0.211c6.276-0.797,11.127-3.8,13.751-8.429l-3.067-2.118  C71.218,302.97,71.217,303.013,71.195,303.052z"/>
<path style="fill:#D15241;" d="M62.744,290.903V182.848c0,0-17.222-36.9-62.727-62.729c0,0,24.72,71.546,36.698,170.783H62.744z"/>
<g>
</g>
<g>
</g>
<g>
</g>
<g>
</g>
<g>
</g>
<g>
</g>
<g>
</g>
<g>
</g>
<g>
</g>
<g>
</g>
<g>
</g>
<g>
</g>
<g>
</g>
<g>
</g>
<g>
</g>
</svg>
