<?xml version="1.0" encoding="iso-8859-1"?>
<!-- Generator: Adobe Illustrator 19.0.0, SVG Export Plug-In . SVG Version: 6.00 Build 0)  -->
<svg xmlns="http://www.w3.org/2000/svg" xmlns:xlink="http://www.w3.org/1999/xlink" version="1.1" id="Capa_1" x="0px" y="0px" viewBox="0 0 409.6 409.6" style="enable-background:new 0 0 409.6 409.6;" xml:space="preserve">
<path style="fill:#2D93BA;" d="M353.425,0v46.71h-8.579V0h-10.483v46.71h-8.579V0H315.3v46.71h-8.577V0h-10.485v46.71h-8.579V0  h-10.485v46.71h-8.577V0h-10.485v46.71h-8.579V0h-10.483v46.71h-8.579V0h-10.485v46.71h-8.579V0h-10.483v46.71h-8.579V0h-10.485  v46.71h-8.577V0h-10.485v46.71h-8.579V0h-10.942v156.745v0.001v71.031c0,13.85-11.227,25.077-25.076,25.077h221.086  c13.851,0,25.078-11.228,25.078-25.077V0H353.425z"/>
<path style="fill:#27A2DB;" d="M56.175,409.6v-46.71h8.579v46.71h10.483v-46.71h8.579v46.71H94.3v-46.71h8.577v46.71h10.485v-46.71  h8.579v46.71h10.485v-46.71h8.577v46.71h10.485v-46.71h8.579v46.71h10.483v-46.71h8.579v46.71h10.485v-46.71h8.579v46.71h10.483  v-46.71h8.579v46.71h10.485v-46.71h8.577v46.71h10.485v-46.71h8.579v46.71h10.942V252.855v-0.001v-71.031  c0-13.85,11.227-25.077,25.076-25.077H70.309c-13.851,0-25.078,11.228-25.078,25.077V409.6H56.175z"/>
<path style="fill:#1C75A1;" d="M316.38,227.778v-46.883c-0.5-13.409-11.452-24.15-24.985-24.15  c-13.849,0-25.076,11.228-25.076,25.077v71.033h75.139C327.607,252.855,316.38,241.627,316.38,227.778z"/>
<g>
</g>
<g>
</g>
<g>
</g>
<g>
</g>
<g>
</g>
<g>
</g>
<g>
</g>
<g>
</g>
<g>
</g>
<g>
</g>
<g>
</g>
<g>
</g>
<g>
</g>
<g>
</g>
<g>
</g>
</svg>
