<?xml version="1.0" encoding="iso-8859-1"?>
<!-- Generator: Adobe Illustrator 19.0.0, SVG Export Plug-In . SVG Version: 6.00 Build 0)  -->
<svg xmlns="http://www.w3.org/2000/svg" xmlns:xlink="http://www.w3.org/1999/xlink" version="1.1" id="Capa_1" x="0px" y="0px" viewBox="0 0 409.6 409.6" style="enable-background:new 0 0 409.6 409.6;" xml:space="preserve">
<g>
	<path style="fill:#3A556A;" d="M5.284,233.924c-1.986,0-3.89-1.127-4.787-3.047c-1.234-2.643-0.089-5.784,2.55-7.018   l244.248-114.032c21.923-10.233,46.834-9.764,68.355,1.282l60.979,31.306c2.595,1.332,3.619,4.514,2.285,7.107   c-1.33,2.593-4.516,3.61-7.104,2.285l-60.983-31.306c-18.6-9.546-40.118-9.956-59.065-1.107L7.515,233.428   C6.793,233.764,6.033,233.924,5.284,233.924z"/>
	<path style="fill:#3A556A;" d="M404.316,233.924c1.986,0,3.891-1.127,4.788-3.047c1.234-2.643,0.089-5.784-2.55-7.018   L162.305,109.828c-21.923-10.233-46.834-9.764-68.355,1.282l-60.979,31.306c-2.595,1.332-3.619,4.514-2.285,7.107   c1.33,2.593,4.516,3.61,7.104,2.285l60.983-31.306c18.6-9.546,40.118-9.956,59.065-1.107l244.248,114.032   C402.807,233.764,403.567,233.924,404.316,233.924z"/>
	<path style="fill:#3A556A;" d="M188.492,203.319l-6.028-8.668c13.28-9.236,27.312-9.23,40.585,0l-6.028,8.668   C207.295,196.552,198.225,196.552,188.492,203.319z"/>
</g>
<path style="fill:#64798A;" d="M409.6,230.026c0,42.581-34.518,77.099-77.099,77.099s-115.983-53.431-115.983-96.011  s73.403-58.187,115.983-58.187S409.6,187.445,409.6,230.026z"/>
<path style="fill:#27A2DB;" d="M332.502,300.086c-39.448,0-108.947-51.435-108.947-88.972c0-34.892,65.011-51.148,108.947-51.148  c38.63,0,70.06,31.43,70.06,70.061S371.132,300.086,332.502,300.086z"/>
<g>
	<path style="fill:#40B8E2;" d="M291.558,164.035c11.896,34.262,32.365,93.494,46.955,135.747c4.815-0.412,9.492-1.3,13.983-2.64   c-24.704-71.563-38.786-112.234-46.83-135.382C300.979,162.363,296.254,163.122,291.558,164.035z"/>
	<path style="fill:#40B8E2;" d="M280.873,166.411c11.781,33.943,30.919,89.319,46.115,133.334c1.886,0.202,3.739,0.341,5.514,0.341   c0.68,0,1.34-0.083,2.016-0.102c-14.452-41.864-34.391-99.574-46.756-135.183C285.447,165.295,283.153,165.84,280.873,166.411z"/>
</g>
<path style="fill:#64798A;" d="M0,230.026c0,42.581,34.518,77.099,77.099,77.099s115.983-53.431,115.983-96.011  s-73.403-58.187-115.983-58.187S0,187.445,0,230.026z"/>
<path style="fill:#27A2DB;" d="M77.098,300.086c39.448,0,108.947-51.435,108.947-88.972c0-34.892-65.011-51.148-108.947-51.148  c-38.63,0-70.06,31.43-70.06,70.061S38.468,300.086,77.098,300.086z"/>
<g>
	<path style="fill:#40B8E2;" d="M77.098,159.965c-4.308,0-8.508,0.448-12.603,1.197c11.523,33.193,30.85,89.116,45.226,130.746   c4.216-1.849,8.472-3.973,12.712-6.323c-22.401-64.883-35.633-103.1-43.449-125.598C78.356,159.98,77.718,159.965,77.098,159.965z"/>
	<path style="fill:#40B8E2;" d="M53.96,163.974c11.774,33.928,30.588,88.366,45.607,131.869c2.182-0.733,4.382-1.525,6.61-2.426   c-14.264-41.316-33.376-96.63-45.462-131.438C58.416,162.533,56.166,163.199,53.96,163.974z"/>
</g>
<g>
</g>
<g>
</g>
<g>
</g>
<g>
</g>
<g>
</g>
<g>
</g>
<g>
</g>
<g>
</g>
<g>
</g>
<g>
</g>
<g>
</g>
<g>
</g>
<g>
</g>
<g>
</g>
<g>
</g>
</svg>
