<?xml version="1.0" encoding="iso-8859-1"?>
<!-- Generator: Adobe Illustrator 19.0.0, SVG Export Plug-In . SVG Version: 6.00 Build 0)  -->
<svg xmlns="http://www.w3.org/2000/svg" xmlns:xlink="http://www.w3.org/1999/xlink" version="1.1" id="Capa_1" x="0px" y="0px" viewBox="0 0 409.6 409.6" style="enable-background:new 0 0 409.6 409.6;" xml:space="preserve">
<path style="fill:#E56353;" d="M342.888,51.321c-2.204-20.677-30.651-55.482-54.282-50.912  c-61.754,11.942-86.693,82.745-86.693,82.745s48.306-11.791,86.693-29.266C288.606,53.889,334.507,31.406,342.888,51.321z"/>
<path style="fill:#FFFFFF;" d="M327.929,36.619c-16.619-0.392-37.493,9.451-41.551,11.444c-25.64,11.58-59.233,23.279-76.547,28.288  c7.17-13.817,34.624-60.756,80.646-69.588c0.455-0.088,0.97-0.113,1.517-0.14c0.599-0.03,1.221-0.061,1.878-0.174  c5.036-0.866,18.986,3.128,26.244,6.4c-2.715-2.465-5.567-4.684-8.498-6.559c-6.845-2.113-14.366-3.705-18.299-3.029  c-0.495,0.085-0.994,0.106-1.488,0.13c-0.634,0.032-1.291,0.064-1.97,0.194c-52.591,10.094-81.47,68.048-84.59,74.623l-1.504,3.17  l3.403-0.919c15.999-4.318,52.895-16.956,80.688-29.514c3.901-1.914,24.215-11.403,39.999-11.091  c4.975,0.112,9.701,1.493,12.764,2.442c-0.47-1.266-0.992-2.547-1.584-3.844C335.978,37.593,332.076,36.712,327.929,36.619z"/>
<path style="fill:#D15241;" d="M288.606,53.889c-38.387,17.474-86.693,29.266-86.693,29.266l102.845-4.956  c0,0,34.915-4.72,38.003-21.241c0.319-1.707,0.344-3.606,0.128-5.636C334.507,31.406,288.606,53.889,288.606,53.889z"/>
<path style="fill:#E56353;" d="M66.713,51.321c2.204-20.677,30.651-55.482,54.282-50.912c61.754,11.942,86.693,82.745,86.693,82.745  s-48.306-11.791-86.693-29.266C120.995,53.889,75.094,31.406,66.713,51.321z"/>
<path style="fill:#FFFFFF;" d="M81.671,36.619c16.619-0.392,37.493,9.451,41.551,11.444c25.64,11.58,59.233,23.279,76.547,28.288  c-7.17-13.817-34.624-60.756-80.646-69.588c-0.455-0.088-0.97-0.113-1.517-0.14c-0.599-0.03-1.221-0.061-1.878-0.174  c-5.036-0.866-18.986,3.128-26.244,6.4c2.715-2.465,5.567-4.684,8.498-6.559c6.845-2.113,14.366-3.705,18.299-3.029  c0.495,0.085,0.994,0.106,1.488,0.13c0.634,0.032,1.291,0.064,1.97,0.194c52.591,10.094,81.47,68.048,84.59,74.623l1.504,3.17  l-3.403-0.919c-15.999-4.318-52.895-16.956-80.688-29.514c-3.901-1.914-24.215-11.403-39.999-11.091  c-4.975,0.112-9.701,1.493-12.764,2.442c0.47-1.266,0.992-2.547,1.584-3.844C73.623,37.593,77.525,36.712,81.671,36.619z"/>
<path style="fill:#D15241;" d="M120.995,53.889c38.387,17.474,86.693,29.266,86.693,29.266l-102.845-4.956  c0,0-34.915-4.72-38.003-21.241c-0.319-1.707-0.344-3.606-0.128-5.636C75.094,31.406,120.995,53.889,120.995,53.889z"/>
<g>
	<path style="fill:#27A2DB;" d="M395.38,80.733H14.222C6.367,80.733,0,87.1,0,94.955v58.765h409.6V94.955   C409.6,87.1,403.233,80.733,395.38,80.733z"/>
	<path style="fill:#27A2DB;" d="M8.642,153.719v241.659c0,7.854,6.367,14.221,14.222,14.221h363.874   c7.853,0,14.22-6.367,14.22-14.221V153.719H8.642z"/>
</g>
<polygon style="fill:#2D93BA;" points="400.959,171.609 8.642,171.751 8.642,153.719 400.959,153.719 "/>
<rect x="169.574" y="80.732" style="fill:#E56353;" width="70.4" height="328.858"/>
<g>
	<rect x="178.094" y="80.732" style="fill:#FFFFFF;" width="6.385" height="328.858"/>
	<rect x="225.121" y="80.732" style="fill:#FFFFFF;" width="6.385" height="328.858"/>
</g>
<path style="fill:#D15241;" d="M153.987,187.365c6.761-18.02,4.608-32.14,1.613-59.279c-27.185,3.966-41.478,5.458-57.321,16.505  c27.899-38.948,50.503-55.445,90.936-81.469c8.467,6.501,12.701,9.752,21.168,16.253  C195.24,124.817,184.877,150.714,153.987,187.365z"/>
<g>
	<path style="fill:#FFFFFF;" d="M193.017,66.041c-0.274-0.211-0.526-0.404-0.809-0.621c-0.138-0.106-0.298-0.229-0.439-0.337   c-28.091,19.379-59.298,43.556-79.129,71.78c3.483-1.367,7.106-2.462,10.992-3.402c23.207-29.799,41.702-42.827,70.057-66.904   C193.42,66.351,193.225,66.201,193.017,66.041z"/>
	<path style="fill:#FFFFFF;" d="M207.828,77.413c-0.14-0.108-0.3-0.231-0.439-0.337c-0.283-0.217-0.534-0.41-0.809-0.621   c-0.207-0.159-0.403-0.309-0.672-0.515c-16.298,33.335-24.313,54.41-47.478,84.243c0.065,3.973-0.089,7.733-0.541,11.427   C180.371,145.419,196.043,109.314,207.828,77.413z"/>
</g>
<path style="fill:#D15241;" d="M253.31,187.365c-6.761-18.02-4.608-32.14-1.613-59.279c27.185,3.966,41.478,5.458,57.321,16.505  c-27.899-38.948-50.503-55.445-90.936-81.469c-8.467,6.501-12.701,9.752-21.168,16.253  C212.058,124.817,222.421,150.714,253.31,187.365z"/>
<g>
	<path style="fill:#FFFFFF;" d="M214.28,66.041c0.274-0.211,0.526-0.404,0.809-0.621c0.138-0.106,0.298-0.229,0.439-0.337   c28.091,19.379,59.298,43.556,79.129,71.78c-3.483-1.367-7.106-2.462-10.992-3.402c-23.207-29.799-41.702-42.827-70.057-66.904   C213.877,66.351,214.072,66.201,214.28,66.041z"/>
	<path style="fill:#FFFFFF;" d="M199.469,77.413c0.14-0.108,0.3-0.231,0.439-0.337c0.283-0.217,0.534-0.41,0.809-0.621   c0.207-0.159,0.403-0.309,0.672-0.515c16.298,33.335,24.313,54.41,47.479,84.243c-0.065,3.973,0.089,7.733,0.541,11.427   C226.926,145.419,211.255,109.314,199.469,77.413z"/>
</g>
<path style="fill:#CE412D;" d="M204.8,52.454c-15.565,0-28.184,12.538-28.184,28.005h56.367  C232.984,64.992,220.366,52.454,204.8,52.454z"/>
<path style="fill:#FCD462;" d="M268.526,137.426l-44.825,12.08c-3.74,1.008-6.661,3.929-7.669,7.669l-12.079,44.825  c-1.012,3.756,0.059,7.766,2.81,10.517l86.08,86.08c4.246,4.246,11.13,4.245,15.376,0l56.904-56.904  c4.246-4.246,4.245-11.129,0-15.375l-86.08-86.08C276.292,137.486,272.282,136.414,268.526,137.426z"/>
<ellipse style="fill:#DC8744;" cx="232.564" cy="166.03" rx="8.361" ry="8.361"/>
<g>
	
		<rect x="257.588" y="194.548" transform="matrix(-0.7071 -0.7071 0.7071 -0.7071 382.0556 560.3272)" style="fill:#F6C358;" width="98.975" height="12.979"/>
	
		<rect x="237.827" y="214.314" transform="matrix(-0.7071 -0.7071 0.7071 -0.7071 334.3439 580.098)" style="fill:#F6C358;" width="98.975" height="12.979"/>
	
		<rect x="218.073" y="234.078" transform="matrix(-0.7071 -0.7071 0.7071 -0.7071 286.6468 599.8688)" style="fill:#F6C358;" width="98.975" height="12.979"/>
</g>
<g>
</g>
<g>
</g>
<g>
</g>
<g>
</g>
<g>
</g>
<g>
</g>
<g>
</g>
<g>
</g>
<g>
</g>
<g>
</g>
<g>
</g>
<g>
</g>
<g>
</g>
<g>
</g>
<g>
</g>
</svg>
