<?xml version="1.0" encoding="iso-8859-1"?>
<!-- Generator: Adobe Illustrator 19.0.0, SVG Export Plug-In . SVG Version: 6.00 Build 0)  -->
<svg xmlns="http://www.w3.org/2000/svg" xmlns:xlink="http://www.w3.org/1999/xlink" version="1.1" id="Capa_1" x="0px" y="0px" viewBox="0 0 408.607 408.607" style="enable-background:new 0 0 408.607 408.607;" xml:space="preserve">
<rect x="105.948" style="fill:#44C4A1;" width="151.327" height="360.602"/>
<rect x="257.28" style="fill:#3EA69B;" width="151.327" height="360.602"/>
<g>
	<polygon style="fill:#31978C;" points="408.599,360.553 105.947,360.553 257.273,290.683  "/>
	<circle style="fill:#31978C;" cx="187.561" cy="30.874" r="10.045"/>
	<circle style="fill:#31978C;" cx="326.989" cy="30.874" r="10.045"/>
	<path style="fill:#31978C;" d="M257.271,155.401c-42.057,0-76.27-36.035-76.27-80.326V28.089h13.112v46.986   c0,37.063,28.33,67.214,63.158,67.214c34.828,0,63.159-30.152,63.159-67.214V28.089h13.112v46.986   C333.541,119.366,299.327,155.401,257.271,155.401z"/>
</g>
<path style="fill:#FFFFFF;" d="M257.271,148.762c-42.057,0-76.27-34.214-76.27-76.27V28.089h13.112v44.403  c0,34.825,28.33,63.159,63.158,63.159c34.828,0,63.159-28.333,63.159-63.159V28.089h13.112v44.403  C333.541,114.549,299.327,148.762,257.271,148.762z"/>
<path style="fill:#FCD462;" d="M200.409,199.17c-1.288-12.087-17.917-32.431-31.73-29.76c-36.098,6.98-50.676,48.368-50.676,48.368  s28.237-6.892,50.676-17.107C168.679,200.671,195.51,187.529,200.409,199.17z"/>
<path style="fill:#44C4A1;" d="M191.665,190.576c-9.714-0.229-21.916,5.525-24.288,6.689c-14.988,6.769-34.624,13.608-44.745,16.536  c4.191-8.077,20.239-35.514,47.141-40.677c0.266-0.051,0.567-0.066,0.887-0.082c0.35-0.018,0.714-0.036,1.098-0.102  c2.944-0.506,11.098,1.829,15.34,3.741c-1.587-1.441-3.254-2.738-4.968-3.834c-4.001-1.235-8.398-2.166-10.696-1.771  c-0.289,0.049-0.581,0.062-0.87,0.076c-0.371,0.018-0.755,0.037-1.152,0.114c-30.742,5.9-47.623,39.777-49.446,43.621l-0.879,1.853  l1.989-0.537c9.352-2.524,30.919-9.911,47.165-17.252c2.28-1.119,14.155-6.666,23.381-6.483c2.908,0.066,5.67,0.873,7.461,1.427  c-0.275-0.74-0.58-1.489-0.926-2.247C196.37,191.146,194.089,190.63,191.665,190.576z"/>
<path style="fill:#F6C358;" d="M168.679,200.671c-22.439,10.214-50.676,17.107-50.676,17.107l60.117-2.897  c0,0,20.409-2.759,22.214-12.416c0.186-0.998,0.201-2.108,0.075-3.294C195.51,187.529,168.679,200.671,168.679,200.671z"/>
<path style="fill:#FCD462;" d="M38.973,199.17c1.288-12.087,17.917-32.431,31.73-29.76c36.098,6.98,50.676,48.368,50.676,48.368  s-28.237-6.892-50.676-17.107C70.703,200.671,43.872,187.529,38.973,199.17z"/>
<path style="fill:#44C4A1;" d="M47.717,190.576c9.714-0.229,21.916,5.525,24.288,6.689c14.987,6.769,34.624,13.608,44.745,16.536  c-4.191-8.077-20.239-35.514-47.141-40.677c-0.266-0.051-0.567-0.066-0.887-0.082c-0.35-0.018-0.714-0.036-1.098-0.102  c-2.944-0.506-11.098,1.829-15.34,3.741c1.587-1.441,3.254-2.738,4.968-3.834c4.001-1.235,8.398-2.166,10.696-1.771  c0.289,0.049,0.581,0.062,0.87,0.076c0.371,0.018,0.755,0.037,1.152,0.114c30.742,5.9,47.623,39.777,49.446,43.621l0.879,1.853  l-1.989-0.537c-9.352-2.524-30.919-9.911-47.165-17.252c-2.28-1.119-14.155-6.666-23.381-6.483c-2.908,0.066-5.67,0.873-7.461,1.427  c0.275-0.74,0.58-1.489,0.926-2.247C43.012,191.146,45.293,190.63,47.717,190.576z"/>
<path style="fill:#F6C358;" d="M70.703,200.671c22.439,10.214,50.676,17.107,50.676,17.107l-60.117-2.897  c0,0-20.409-2.759-22.214-12.416c-0.186-0.998-0.201-2.108-0.075-3.294C43.872,187.529,70.703,200.671,70.703,200.671z"/>
<rect x="0" y="216.371" style="fill:#E56353;" width="239.427" height="42.665"/>
<rect x="5.018" y="259.026" style="fill:#D15241;" width="229.325" height="149.555"/>
<polygon style="fill:#CE412D;" points="234.354,269.484 5.028,269.567 5.028,259.026 234.354,259.026 "/>
<rect x="99.113" y="216.371" style="fill:#FCD462;" width="41.165" height="192.236"/>
<g>
	<rect x="104.079" y="216.371" style="fill:#44C4A1;" width="3.732" height="192.236"/>
	<rect x="131.569" y="216.371" style="fill:#44C4A1;" width="3.732" height="192.236"/>
</g>
<path style="fill:#F6C358;" d="M89.988,278.694c3.952-10.533,2.694-18.787,0.943-34.651c-15.891,2.319-24.246,3.191-33.507,9.648  c16.308-22.766,29.521-32.41,53.156-47.622c4.949,3.8,7.424,5.7,12.373,9.501C114.102,242.132,108.044,257.27,89.988,278.694z"/>
<g>
	<path style="fill:#44C4A1;" d="M112.803,207.775c-0.16-0.123-0.308-0.236-0.473-0.363c-0.081-0.062-0.174-0.134-0.256-0.197   c-16.421,11.328-34.662,25.46-46.255,41.959c2.036-0.799,4.154-1.439,6.425-1.989c13.566-17.419,24.377-25.034,40.951-39.108   C113.039,207.956,112.924,207.868,112.803,207.775z"/>
	<path style="fill:#44C4A1;" d="M121.461,214.422c-0.082-0.063-0.176-0.135-0.256-0.197c-0.165-0.127-0.312-0.24-0.473-0.363   c-0.121-0.093-0.236-0.181-0.393-0.301c-9.527,19.486-14.212,31.805-27.753,49.243c0.038,2.323-0.052,4.52-0.316,6.68   C105.411,254.175,114.571,233.069,121.461,214.422z"/>
</g>
<path style="fill:#F6C358;" d="M148.047,278.694c-3.952-10.533-2.694-18.787-0.943-34.651c15.891,2.319,24.246,3.191,33.507,9.648  c-16.308-22.766-29.521-32.41-53.156-47.622c-4.949,3.8-7.424,5.7-12.373,9.501C123.933,242.132,129.991,257.27,148.047,278.694z"/>
<g>
	<path style="fill:#44C4A1;" d="M125.232,207.775c0.16-0.123,0.308-0.236,0.473-0.363c0.081-0.062,0.174-0.134,0.256-0.197   c16.421,11.328,34.662,25.46,46.255,41.959c-2.036-0.799-4.154-1.439-6.425-1.989c-13.566-17.419-24.377-25.034-40.951-39.108   C124.997,207.956,125.111,207.868,125.232,207.775z"/>
	<path style="fill:#44C4A1;" d="M116.574,214.422c0.082-0.063,0.176-0.135,0.256-0.197c0.165-0.127,0.312-0.24,0.473-0.363   c0.121-0.093,0.236-0.181,0.393-0.301c9.527,19.486,14.212,31.805,27.753,49.243c-0.038,2.323,0.052,4.52,0.316,6.68   C132.624,254.175,123.464,233.069,116.574,214.422z"/>
</g>
<path style="fill:#DC8744;" d="M119.691,199.832c-9.099,0-16.475,7.329-16.475,16.37h32.949  C136.165,207.161,128.789,199.832,119.691,199.832z"/>
<g>
</g>
<g>
</g>
<g>
</g>
<g>
</g>
<g>
</g>
<g>
</g>
<g>
</g>
<g>
</g>
<g>
</g>
<g>
</g>
<g>
</g>
<g>
</g>
<g>
</g>
<g>
</g>
<g>
</g>
</svg>
