<?xml version="1.0" encoding="iso-8859-1"?>
<!-- Generator: Adobe Illustrator 19.0.0, SVG Export Plug-In . SVG Version: 6.00 Build 0)  -->
<svg xmlns="http://www.w3.org/2000/svg" xmlns:xlink="http://www.w3.org/1999/xlink" version="1.1" id="Capa_1" x="0px" y="0px" viewBox="0 0 409.6 409.6" style="enable-background:new 0 0 409.6 409.6;" xml:space="preserve">
<rect x="14.884" y="152.622" style="fill:#64798A;" width="294.605" height="256.973"/>
<path style="fill:#E56353;" d="M0,147.159v19.7c0,12.796,10.372,23.169,23.168,23.169l0,0c12.797,0,23.169-10.373,23.169-23.169  v-19.7H0z"/>
<path style="fill:#EBF0F3;" d="M46.337,147.159v19.7c0,12.796,10.372,23.169,23.168,23.169s23.169-10.373,23.169-23.169v-19.7  H46.337z"/>
<path style="fill:#E56353;" d="M92.675,147.159v19.7c0,12.796,10.372,23.169,23.168,23.169c12.796,0,23.169-10.373,23.169-23.169  v-19.7H92.675z"/>
<path style="fill:#EBF0F3;" d="M139.012,147.159v19.7c0,12.796,10.372,23.169,23.168,23.169c12.796,0,23.168-10.373,23.168-23.169  v-19.7H139.012z"/>
<path style="fill:#E56353;" d="M185.348,147.159v19.7c0,12.796,10.374,23.169,23.169,23.169s23.168-10.373,23.168-23.169v-19.7  H185.348z"/>
<path style="fill:#EBF0F3;" d="M231.685,147.159v19.7c0,12.796,10.374,23.169,23.169,23.169s23.168-10.373,23.168-23.169v-19.7  H231.685z"/>
<path style="fill:#E56353;" d="M278.023,147.159v19.7c0,12.796,10.372,23.169,23.169,23.169c12.794,0,23.168-10.373,23.168-23.169  v-19.7H278.023z"/>
<polygon style="fill:#D15241;" points="68.02,97.035 30.356,97.035 0,147.16 46.337,147.16 "/>
<polygon style="fill:#E1E6E9;" points="105.684,97.035 68.02,97.035 46.337,147.16 92.674,147.16 "/>
<polygon style="fill:#D15241;" points="143.348,97.035 105.684,97.035 92.674,147.16 139.011,147.16 "/>
<polygon style="fill:#E1E6E9;" points="181.012,97.035 143.348,97.035 139.011,147.16 185.348,147.16 "/>
<polygon style="fill:#D15241;" points="218.676,97.035 181.012,97.035 185.348,147.16 231.686,147.16 "/>
<polygon style="fill:#E1E6E9;" points="256.34,97.035 218.676,97.035 231.686,147.16 278.023,147.16 "/>
<polygon style="fill:#D15241;" points="294.004,97.035 256.34,97.035 278.023,147.16 324.36,147.16 "/>
<g>
	<path style="fill:#EBF0F3;" d="M78.7,211.24c-28.652,0-51.881,23.228-51.881,51.881V409.6h103.763V263.121   C130.582,234.468,107.354,211.24,78.7,211.24z"/>
	<rect x="161.649" y="256.41" style="fill:#EBF0F3;" width="113.715" height="87.03"/>
</g>
<g>
	<rect x="170.701" y="265.441" style="fill:#27A2DB;" width="43.3" height="68.946"/>
	<rect x="223.027" y="265.441" style="fill:#27A2DB;" width="43.3" height="68.946"/>
</g>
<g>
	<polygon style="fill:#2CAFDD;" points="255.038,265.444 233.388,334.388 238.374,334.388 260.023,265.444  "/>
	<polygon style="fill:#2CAFDD;" points="250.99,265.444 229.34,334.388 230.846,334.388 252.496,265.444  "/>
	<polygon style="fill:#2CAFDD;" points="202.695,265.444 181.046,334.388 186.032,334.388 207.681,265.444  "/>
	<polygon style="fill:#2CAFDD;" points="198.648,265.444 176.998,334.388 178.504,334.388 200.154,265.444  "/>
</g>
<rect x="152.402" y="343.45" style="fill:#3A556A;" width="132.214" height="9.574"/>
<path style="fill:#D5D6DB;" d="M78.702,220.087c-23.734,0-43.039,19.305-43.039,43.033v137.634h86.072V263.12  C121.734,239.392,102.43,220.087,78.702,220.087z M115.837,263.12v15.043H81.65v-52.029  C100.748,227.646,115.837,243.641,115.837,263.12z M81.65,284.06h34.187v56.423H81.65V284.06z M75.753,340.484H41.56V284.06h34.193  V340.484z M75.753,226.134v52.029H41.56V263.12C41.56,243.641,56.65,227.646,75.753,226.134z M41.56,346.381h34.193v48.475H41.56  V346.381z M81.65,394.856v-48.475h34.187v48.475H81.65z"/>
<circle style="fill:#DC8744;" cx="119.296" cy="310.426" r="6.717"/>
<path style="opacity:0.1;enable-background:new    ;" d="M324.382,166.834v-19.661l-30.385-50.12h-103.82  c-0.081,1.785-0.271,3.541-0.271,5.345c0,64.676,52.618,117.295,117.295,117.295c0.773,0,1.518-0.101,2.287-0.116v-31.072  C318.2,185.154,324.382,176.739,324.382,166.834z"/>
<circle style="fill:#FCD462;" cx="307.2" cy="102.4" r="102.4"/>
<g>
	<path style="fill:#DC8744;" d="M279.186,74.658c2.338-3.183,3.497-6.424,3.497-9.692c0-3.269-1.245-6.044-3.734-8.343   c-2.49-2.3-5.644-3.449-9.455-3.449c-6.699,0-12.258,3.43-16.696,10.282l-11.099-6.424c3.582-5.369,7.535-9.417,11.859-12.144   c4.314-2.727,9.883-4.086,16.696-4.086c6.813,0,12.781,2.157,17.922,6.481c5.141,4.314,7.706,10.215,7.706,17.684   c0,4.21-1.093,8.22-3.269,12.03c-2.176,3.82-6.186,8.723-12.03,14.71l-19.147,19.499h37.012v13.199H242.64v-11.678l24.754-24.868   C272.915,82.251,276.849,77.851,279.186,74.658z"/>
	<path style="fill:#DC8744;" d="M343.983,91.354V76.416h13.075v14.938h9.816v12.496h-9.816v20.554h-13.075V103.85h-35.026V91.706   l30.009-48.918h15.061l-29.543,48.567H343.983z"/>
	<path style="fill:#DC8744;" d="M247.192,163.721v-24.39h4.117v10.572h12.108v-10.572h4.117v24.39h-4.117v-9.978h-12.108v9.978   H247.192z"/>
	<path style="fill:#DC8744;" d="M294.716,160.353c-2.465,2.408-5.512,3.612-9.141,3.612s-6.676-1.204-9.141-3.612   c-2.468-2.408-3.7-5.407-3.7-9.002c0-3.595,1.232-6.596,3.7-9.002c2.465-2.408,5.512-3.612,9.141-3.612s6.676,1.204,9.141,3.612   c2.468,2.405,3.7,5.407,3.7,9.002C298.416,154.946,297.183,157.945,294.716,160.353z M291.7,145.087   c-1.664-1.721-3.706-2.581-6.125-2.581s-4.461,0.86-6.125,2.581c-1.661,1.724-2.493,3.811-2.493,6.264   c0,2.453,0.832,4.541,2.493,6.264c1.664,1.721,3.706,2.581,6.125,2.581s4.461-0.86,6.125-2.581   c1.661-1.724,2.493-3.811,2.493-6.264C294.193,148.898,293.361,146.811,291.7,145.087z"/>
	<path style="fill:#DC8744;" d="M309.093,158.138c1.116,1.303,2.629,1.954,4.538,1.954c1.905,0,3.419-0.65,4.535-1.954   c1.116-1.303,1.675-3.07,1.675-5.304v-13.502h4.117v13.679c0,3.513-0.965,6.216-2.896,8.113c-1.931,1.894-4.41,2.842-7.431,2.842   c-3.024,0-5.503-0.948-7.434-2.842c-1.931-1.897-2.896-4.6-2.896-8.113v-13.679h4.117v13.502   C307.417,155.068,307.977,156.835,309.093,158.138z"/>
	<path style="fill:#DC8744;" d="M349.884,147.251c0,4.024-1.758,6.56-5.27,7.607l6.386,8.862h-5.233l-5.827-8.201h-5.41v8.201   h-4.117v-24.39h9.073c3.72,0,6.386,0.628,7.991,1.883C349.081,142.472,349.884,144.482,349.884,147.251z M344.404,150.707   c0.838-0.721,1.258-1.88,1.258-3.473c0-1.593-0.432-2.686-1.292-3.28c-0.86-0.593-2.397-0.889-4.606-0.889h-5.233v8.723h5.128   C341.984,151.789,343.569,151.428,344.404,150.707z"/>
	<path style="fill:#DC8744;" d="M363.194,142.54c-1.198,0-2.181,0.244-2.948,0.733c-0.77,0.488-1.153,1.227-1.153,2.218   c0,0.988,0.383,1.744,1.153,2.266c0.767,0.525,2.4,1.088,4.901,1.692c2.499,0.605,4.384,1.454,5.654,2.547   c1.266,1.093,1.9,2.706,1.9,4.833c0,2.13-0.801,3.856-2.408,5.182c-1.604,1.326-3.709,1.988-6.315,1.988   c-3.814,0-7.198-1.312-10.152-3.941l2.581-3.107c2.465,2.141,5.023,3.212,7.676,3.212c1.326,0,2.38-0.287,3.158-0.855   c0.781-0.571,1.17-1.326,1.17-2.269s-0.366-1.675-1.099-2.198c-0.733-0.525-1.996-1-3.785-1.431   c-1.792-0.432-3.155-0.826-4.083-1.187c-0.931-0.361-1.758-0.832-2.479-1.414c-1.443-1.093-2.161-2.766-2.161-5.023   c0-2.257,0.818-3.995,2.459-5.216c1.638-1.221,3.669-1.832,6.088-1.832c1.559,0,3.107,0.256,4.64,0.767   c1.536,0.511,2.862,1.232,3.978,2.164l-2.198,3.107c-0.721-0.653-1.698-1.187-2.93-1.607   C365.607,142.75,364.392,142.54,363.194,142.54z"/>
</g>
<g>
</g>
<g>
</g>
<g>
</g>
<g>
</g>
<g>
</g>
<g>
</g>
<g>
</g>
<g>
</g>
<g>
</g>
<g>
</g>
<g>
</g>
<g>
</g>
<g>
</g>
<g>
</g>
<g>
</g>
</svg>
