<?xml version="1.0" encoding="iso-8859-1"?>
<!-- Generator: Adobe Illustrator 19.0.0, SVG Export Plug-In . SVG Version: 6.00 Build 0)  -->
<svg xmlns="http://www.w3.org/2000/svg" xmlns:xlink="http://www.w3.org/1999/xlink" version="1.1" id="Capa_1" x="0px" y="0px" viewBox="0 0 408.627 408.627" style="enable-background:new 0 0 408.627 408.627;" xml:space="preserve">
<circle style="fill:#EBF0F3;" cx="204.314" cy="204.314" r="204.314"/>
<circle style="fill:#D5D6DB;" cx="204.314" cy="204.314" r="78.735"/>
<circle style="fill:#E1E6E9;" cx="204.314" cy="204.314" r="77.363"/>
<circle style="fill:#D5D6DB;" cx="204.314" cy="204.314" r="31.206"/>
<g>
	<path style="fill:#E1E6E9;" d="M262.872,144.131l80.113-82.334c-5.64-5.489-11.597-10.647-17.851-15.443l-69.828,91.292   C257.949,139.672,260.491,141.813,262.872,144.131z"/>
	<path style="fill:#E1E6E9;" d="M204.312,288.372c-16.259,0-31.401-4.717-44.279-12.742l-60.637,97.658   c30.484,18.997,66.43,30.012,104.916,30.012h0.003V288.372H204.312z"/>
	<path style="fill:#E1E6E9;" d="M248.594,133l60.638-97.66C278.749,16.343,242.801,5.326,204.315,5.325v114.931   C220.574,120.257,235.717,124.974,248.594,133z"/>
	<path style="fill:#E1E6E9;" d="M145.753,264.499l-80.11,82.332c5.64,5.489,11.597,10.647,17.851,15.443l69.825-91.29   C150.678,268.958,148.136,266.817,145.753,264.499z"/>
</g>
<g>
</g>
<g>
</g>
<g>
</g>
<g>
</g>
<g>
</g>
<g>
</g>
<g>
</g>
<g>
</g>
<g>
</g>
<g>
</g>
<g>
</g>
<g>
</g>
<g>
</g>
<g>
</g>
<g>
</g>
</svg>
