<?xml version="1.0" encoding="iso-8859-1"?>
<!-- Generator: Adobe Illustrator 19.0.0, SVG Export Plug-In . SVG Version: 6.00 Build 0)  -->
<svg xmlns="http://www.w3.org/2000/svg" xmlns:xlink="http://www.w3.org/1999/xlink" version="1.1" id="Capa_1" x="0px" y="0px" viewBox="0 0 409.6 409.6" style="enable-background:new 0 0 409.6 409.6;" xml:space="preserve">
<path style="fill:#EBF0F3;" d="M204.8,380.736l-116.573,4.105c0,0,6.082,6.34,7.388,13.732c0.505,2.856,2.913,5.004,5.795,5.325  c67.798,7.542,136.702,7.665,206.766-0.009c2.888-0.316,5.303-2.467,5.81-5.327c1.31-7.388,7.386-13.721,7.386-13.721L204.8,380.736  z"/>
<path style="fill:#E56353;" d="M320.086,47.242c1.857,4.051,2.818,8.454,2.818,12.91v322.987c0,12.686-236.208,12.686-236.208,0  V60.152c0-4.456,0.961-8.859,2.818-12.91l12.773-27.868V6.137h205.027v13.238L320.086,47.242z"/>
<g>
	<path style="fill:#EBF0F3;" d="M306.333,0H103.267c-5.088,0-9.212,4.125-9.212,9.212s4.125,9.212,9.212,9.212h203.066   c5.088,0,9.212-4.125,9.212-9.212S311.421,0,306.333,0z"/>
	<ellipse style="fill:#EBF0F3;" cx="204.8" cy="199.393" rx="61.798" ry="85.652"/>
</g>
<g>
	<path style="fill:#D15241;" d="M179.769,232.582c1.105-1.105,1.871-2.243,2.298-3.414c0.425-1.169,0.666-2.597,0.722-4.287   l4.189,0.058c0.217,4.242-1.112,7.803-3.986,10.677c-2.876,2.876-6.184,4.338-9.931,4.382c-3.746,0.044-7.032-1.346-9.862-4.176   c-2.83-2.83-4.223-6.153-4.176-9.973c0.044-3.817,1.541-7.201,4.488-10.148c2.947-2.947,6.497-4.322,10.65-4.123l0.193,4.271   c-1.778,0.038-3.244,0.286-4.395,0.751c-1.151,0.461-2.272,1.236-3.361,2.325c-1.922,1.922-2.914,4.158-2.978,6.707   c-0.064,2.549,0.87,4.789,2.801,6.72c1.933,1.933,4.196,2.898,6.791,2.898C175.806,235.248,177.991,234.36,179.769,232.582z"/>
	<path style="fill:#D15241;" d="M206.909,206.013c-0.044,3.8-1.481,7.114-4.311,9.944c-2.83,2.83-6.144,4.267-9.944,4.311   c-3.802,0.047-7.101-1.331-9.904-4.134c-2.803-2.803-4.183-6.105-4.134-9.904c0.044-3.8,1.481-7.114,4.311-9.944   c2.83-2.83,6.144-4.267,9.944-4.311c3.8-0.049,7.101,1.331,9.904,4.134C205.578,198.912,206.955,202.212,206.909,206.013z    M192.654,196.461c-2.639-0.044-4.902,0.877-6.789,2.763s-2.808,4.149-2.763,6.789c0.049,2.639,1.027,4.916,2.94,6.829   c1.913,1.913,4.189,2.892,6.829,2.94c2.639,0.044,4.902-0.877,6.789-2.763c1.887-1.887,2.808-4.149,2.763-6.789   c-0.049-2.639-1.027-4.916-2.94-6.829C197.569,197.489,195.293,196.51,192.654,196.461z"/>
	<path style="fill:#D15241;" d="M216.472,201.702l-19.018-19.018l3.211-3.211l15.971,15.971l8.68-8.68l3.047,3.047L216.472,201.702z   "/>
	<path style="fill:#D15241;" d="M230.238,179.283l2.422,6.231l-3.428,3.428l-10.637-27.399l3.428-3.428l27.399,10.637l-3.43,3.43   l-6.231-2.422L230.238,179.283z M235.49,168.102l-11.29-4.382l4.38,11.292L235.49,168.102z"/>
</g>
<g>
</g>
<g>
</g>
<g>
</g>
<g>
</g>
<g>
</g>
<g>
</g>
<g>
</g>
<g>
</g>
<g>
</g>
<g>
</g>
<g>
</g>
<g>
</g>
<g>
</g>
<g>
</g>
<g>
</g>
</svg>
