<?xml version="1.0" encoding="iso-8859-1"?>
<!-- Generator: Adobe Illustrator 19.0.0, SVG Export Plug-In . SVG Version: 6.00 Build 0)  -->
<svg xmlns="http://www.w3.org/2000/svg" xmlns:xlink="http://www.w3.org/1999/xlink" version="1.1" id="Capa_1" x="0px" y="0px" viewBox="0 0 409.6 409.6" style="enable-background:new 0 0 409.6 409.6;" xml:space="preserve">
<path style="fill:#FCD462;" d="M378.571,338.382c-30.902-40.775-62.703-80.945-90.617-123.863  c-9.205-14.152-18.28-29.617-18.15-46.552c0.166-22.048,15.737-40.793,21.063-62.175c4.581-18.394,1.066-38.691-9.424-54.42  c-2.696-4.041-5.885-7.918-7.15-12.621c-1.094-4.073-0.634-8.386-0.166-12.58c0.975-8.746,2.264-17.425,3.239-26.17h-23.218  c-0.56,11.321-4.355,45.277-29.645,60.588c-1.475,0.893-2.751,2.1-3.609,3.605L204.768,92.51l-16.126-28.317  c-0.859-1.505-2.135-2.712-3.609-3.605C159.744,45.277,155.992,11.321,155.448,0h-23.214c0.975,8.746,2.264,17.425,3.239,26.17  c0.468,4.194,0.928,8.507-0.166,12.58c-1.264,4.703-4.453,8.58-7.15,12.621c-10.49,15.728-14.006,36.025-9.424,54.42  c5.325,21.382,20.897,40.127,21.063,62.175c0.129,16.935-8.945,32.4-18.15,46.552c-27.914,42.919-59.715,83.089-90.617,123.863  c-7.882,10.4-16.154,22.634-13.609,35.48c5.853,5.251,14.569,4.907,22.395,4.978c7.826,0.071,16.95,1.688,20.582,8.695  c1.835,3.54,2.119,8.238,5.421,10.437c1.97,1.312,4.492,1.316,6.85,1.275c11.686-0.204,23.371-0.408,35.057-0.611  c5.343-0.093,10.858-0.155,15.804,1.887c3.889,1.605,7.175,4.416,10.965,6.246c8.286,4,17.986,2.934,27.098,1.78  c11.371-1.439,22.742-2.879,34.113-4.319c5.003-0.634,13.19-0.634,18.193,0c11.371,1.44,22.742,2.88,34.113,4.319  c9.113,1.154,18.812,2.22,27.098-1.78c3.79-1.829,7.076-4.64,10.965-6.246c4.946-2.042,10.461-1.98,15.804-1.887  c11.686,0.204,23.371,0.408,35.057,0.611c2.358,0.041,4.88,0.037,6.85-1.275c3.302-2.199,3.586-6.897,5.421-10.437  c3.632-7.007,12.756-8.624,20.582-8.695c7.826-0.071,16.542,0.274,22.395-4.978C394.725,361.016,386.453,348.782,378.571,338.382z"/>
<path style="fill:#E56353;" d="M270.449,160.517c0.712-4.529,1.976-8.942,3.564-13.292c-46.02,11.441-92.406,11.441-138.426,0  c1.588,4.351,2.852,8.765,3.564,13.295c21.835,4.942,43.738,7.474,65.646,7.474C226.702,167.994,248.61,165.46,270.449,160.517z"/>
<g>
	<path style="fill:#3EA69B;" d="M219.311,156.258c-2.444,2.47-12.067,8.19-14.511,5.719c-2.444-2.47,3.215-12.195,5.659-14.665   s6.408-2.47,8.852,0S221.755,153.788,219.311,156.258z"/>
	<path style="fill:#3EA69B;" d="M190.289,167.697c2.444-2.47,12.067-8.19,14.511-5.719c2.444,2.47-3.215,12.195-5.659,14.665   c-2.444,2.47-6.408,2.47-8.852,0S187.845,170.167,190.289,167.697z"/>
	<path style="fill:#3EA69B;" d="M210.459,176.643c-2.444-2.47-8.103-12.195-5.659-14.665c2.444-2.47,12.067,3.249,14.511,5.719   s2.444,6.476,0,8.946S212.903,179.113,210.459,176.643z"/>
	<path style="fill:#3EA69B;" d="M199.141,147.312c2.444,2.47,8.103,12.195,5.659,14.665c-2.444,2.47-12.067-3.249-14.511-5.719   c-2.444-2.47-2.444-6.476,0-8.946S196.697,144.842,199.141,147.312z"/>
</g>
<g>
	<path style="fill:#44C4A1;" d="M211.059,147.563c0,3.494-2.802,14.414-6.259,14.414c-3.457,0-6.259-10.92-6.259-14.414   c0-3.494,2.802-6.326,6.259-6.326C208.257,141.238,211.059,144.07,211.059,147.563z"/>
	<path style="fill:#44C4A1;" d="M198.541,176.392c0-3.494,2.802-14.414,6.259-14.414c3.457,0,6.259,10.92,6.259,14.414   c0,3.494-2.802,6.326-6.259,6.326C201.343,182.717,198.541,179.885,198.541,176.392z"/>
	<path style="fill:#44C4A1;" d="M219.062,168.303c-3.457,0-14.262-2.832-14.262-6.326c0-3.494,10.805-6.326,14.262-6.326   c3.457,0,6.259,2.832,6.259,6.326C225.322,165.471,222.519,168.303,219.062,168.303z"/>
	<path style="fill:#44C4A1;" d="M190.538,155.652c3.457,0,14.262,2.832,14.262,6.326c0,3.494-10.805,6.326-14.262,6.326   s-6.259-2.832-6.259-6.326C184.278,158.484,187.081,155.652,190.538,155.652z"/>
</g>
<path style="fill:#3EA69B;" d="M210.09,159.201c2.436,5.373-2.713,10.581-8.029,8.126c-1.113-0.514-2.045-1.458-2.551-2.574  c-2.436-5.373,2.713-10.581,8.029-8.126C208.652,157.141,209.584,158.085,210.09,159.201z"/>
<path style="fill:#EBF0F3;" d="M208.634,160.242c1.451,3.639-1.944,7.073-5.544,5.613c-0.948-0.384-1.745-1.192-2.124-2.142  c-1.451-3.639,1.944-7.073,5.544-5.613C207.458,158.484,208.255,159.292,208.634,160.242z"/>
<path style="fill:#64798A;" d="M207.398,160.801c0.983,2.466-1.317,4.793-3.757,3.804c-0.642-0.26-1.183-0.808-1.439-1.452  c-0.983-2.466,1.317-4.793,3.757-3.804C206.601,159.61,207.142,160.157,207.398,160.801z"/>
<g>
</g>
<g>
</g>
<g>
</g>
<g>
</g>
<g>
</g>
<g>
</g>
<g>
</g>
<g>
</g>
<g>
</g>
<g>
</g>
<g>
</g>
<g>
</g>
<g>
</g>
<g>
</g>
<g>
</g>
</svg>
