<?xml version="1.0" encoding="iso-8859-1"?>
<!-- Generator: Adobe Illustrator 19.0.0, SVG Export Plug-In . SVG Version: 6.00 Build 0)  -->
<svg xmlns="http://www.w3.org/2000/svg" xmlns:xlink="http://www.w3.org/1999/xlink" version="1.1" id="Capa_1" x="0px" y="0px" viewBox="0 0 409.6 409.6" style="enable-background:new 0 0 409.6 409.6;" xml:space="preserve">
<path style="fill:#64798A;" d="M328.326,219.212c-5.308-10.789-9.294-22.195-11.351-34.042c-2.863-16.487-3.432-31.641-3.179-43.4  c0.288-13.337,4.529-26.264,12.101-37.247c34.99-50.746-3.126-74.001-17.344-80.526V0h-15.648v34.357l-43.61,50.298L207.992,32.8V0  h-15.647v25.008c-15.477,7.726-48.598,31.12-15.233,79.514c7.573,10.983,11.815,23.911,12.102,37.247  c0.253,11.76-0.316,26.914-3.178,43.4c-2.058,11.847-6.043,23.253-11.353,34.042c-16.314,33.153-57.605,123.948-47.85,175.386  c4.752-4.6,8.128-7.049,14.171-9.741c6.043-2.692,13.576-3.023,18.918,0.878c3.473,2.536,5.611,6.496,8.73,9.455  c7.536,7.15,19.126,7.273,29.505,6.853c4.087-0.166,8.406-0.421,11.799-2.704c3.331-2.239,5.229-6.078,8.264-8.705  c8.22-7.115,21.136-2.986,30.032,3.265c8.894,6.251,17.305,14.618,28.131,15.603c16.635,1.514,30.563-15.126,47.257-14.579  c9.637,0.316,18.067,6.33,27.321,9.039c9.254,2.71,23.42,0.109,25.217-9.365C385.933,343.16,344.641,252.365,328.326,219.212z"/>
<path style="fill:#3EA69B;" d="M197.79,80.539l-23.509-23.316c-1.676-1.662-3.987-2.518-6.341-2.349l-34.9,2.503  c-2.354,0.169-4.52,1.346-5.941,3.23l-19.941,26.431c-1.191,1.579-1.769,3.535-1.628,5.508l8.803,122.748  c0.323,4.503,4.235,7.892,8.738,7.569l78.349-5.619c4.503-0.323,7.892-4.235,7.569-8.738l-8.803-122.748  C200.046,83.786,199.194,81.932,197.79,80.539z"/>
<path style="fill:#44C4A1;" d="M203.938,75.056L180.43,51.741c-1.676-1.662-3.987-2.518-6.341-2.349l-34.9,2.503  c-2.354,0.169-4.52,1.346-5.941,3.23l-19.941,26.431c-1.191,1.579-1.769,3.535-1.628,5.508l8.803,122.748  c0.323,4.503,4.235,7.892,8.738,7.569l78.349-5.619c4.503-0.323,7.892-4.235,7.569-8.738l-8.803-122.748  C206.194,78.303,205.342,76.449,203.938,75.056z"/>
<path style="fill:#FFFFFF;" d="M202.008,175.962l-73.164-23.535l-3.605-10.861l73.154,23.537L202.008,175.962z M188.138,142.533  c-1.809,3.273-4.563,5.541-8.268,6.77c-3.704,1.229-7.284,1.058-10.731-0.509c-3.445-1.558-5.769-4.153-6.973-7.769  c-1.2-3.622-0.903-7.073,0.9-10.349c1.812-3.279,4.563-5.541,8.268-6.77c3.704-1.229,7.284-1.058,10.729,0.5  c3.448,1.568,5.775,4.156,6.976,7.779C190.239,135.806,189.941,139.257,188.138,142.533z M165.154,187.286  c-1.809,3.273-4.569,5.522-8.267,6.754c-3.708,1.235-7.284,1.074-10.732-0.493c-3.448-1.568-5.775-4.156-6.976-7.779  c-1.21-3.62-0.9-7.064,0.91-10.352c1.803-3.276,4.556-5.529,8.264-6.764c3.704-1.229,7.277-1.062,10.735,0.503  c3.441,1.564,5.766,4.159,6.969,7.775C167.262,180.547,166.964,183.998,165.154,187.286z M172.375,141.508  c1.444,0.521,3.009,0.499,4.701-0.065c1.678-0.554,2.941-1.505,3.768-2.845c0.833-1.337,1.024-2.693,0.57-4.06  c-0.457-1.377-1.418-2.323-2.863-2.845c-1.448-0.515-3.013-0.492-4.695,0.068c-1.688,0.557-2.951,1.507-3.774,2.842  c-0.833,1.337-1.031,2.689-0.573,4.066S170.928,140.993,172.375,141.508z M149.279,186.48c1.448,0.515,3.013,0.492,4.695-0.068  c1.688-0.557,2.941-1.505,3.781-2.838c0.827-1.341,1.018-2.696,0.557-4.067c-0.457-1.377-1.406-2.316-2.85-2.838  c-1.458-0.512-3.019-0.496-4.707,0.061c-1.682,0.561-2.935,1.508-3.774,2.842c-0.833,1.337-1.018,2.696-0.561,4.073  C146.876,185.022,147.824,185.961,149.279,186.48z"/>
<path style="fill:#DC8744;" d="M188.931,101.045l-0.367-33.108c-0.026-2.36-1.071-4.593-2.865-6.125l-26.606-22.724  c-1.794-1.532-4.164-2.215-6.498-1.871l-32.757,4.817c-1.956,0.288-3.742,1.275-5.026,2.778l-79.923,93.578  c-2.932,3.433-2.526,8.593,0.907,11.525l59.73,51.014c3.433,2.932,8.593,2.526,11.525-0.907l79.923-93.578  C188.258,104.941,188.953,103.023,188.931,101.045z"/>
<path style="fill:#F6C358;" d="M187.951,93.047l-0.367-33.108c-0.026-2.36-1.071-4.593-2.865-6.125L158.113,31.09  c-1.794-1.532-4.164-2.215-6.498-1.871l-32.757,4.817c-1.956,0.288-3.742,1.275-5.026,2.778l-79.923,93.578  c-2.932,3.433-2.526,8.593,0.907,11.525l59.73,51.014c3.433,2.932,8.593,2.526,11.525-0.907l79.923-93.578  C187.278,96.943,187.973,95.025,187.951,93.047z"/>
<ellipse style="fill:#FFFFFF;" cx="158.551" cy="56.049" rx="9.416" ry="9.416"/>
<g>
	<path style="fill:#E56353;" d="M149.876,90.321c1.071-1.218,1.627-2.499,1.668-3.845c0.042-1.35-0.59-2.597-1.894-3.744   c-1.306-1.149-2.645-1.636-4.022-1.46c-1.377,0.171-3.582,1.174-6.614,3.016c-3.034,1.836-5.839,2.766-8.414,2.788   c-2.576,0.016-5.267-1.209-8.075-3.679c-2.808-2.47-4.372-5.289-4.685-8.462c-0.316-3.169,0.69-6.077,3.021-8.726   c3.409-3.875,8.169-5.789,14.276-5.739l1.791,6.228c-5.028,0.019-8.726,1.378-11.096,4.073c-1.185,1.347-1.752,2.748-1.695,4.201   c0.053,1.454,0.704,2.728,1.946,3.821c1.244,1.094,2.538,1.572,3.884,1.436c1.344-0.138,3.103-0.868,5.27-2.187   c2.169-1.321,3.91-2.247,5.216-2.772c1.308-0.528,2.667-0.822,4.08-0.879c2.732-0.197,5.585,1.018,8.561,3.636   c2.977,2.619,4.54,5.468,4.684,8.553c0.146,3.082-0.863,5.854-3.025,8.312c-1.394,1.584-3.114,2.86-5.159,3.825   c-2.049,0.966-4.186,1.476-6.411,1.531l-2.132-5.837c1.503,0.022,3.082-0.349,4.736-1.116   C147.441,92.53,148.805,91.539,149.876,90.321z"/>
	<path style="fill:#E56353;" d="M113.331,90.275l-5.138-8.922l3.929-4.467l22.574,39.231l-3.929,4.467l-41.789-17.388l3.932-4.47   l9.504,3.959L113.331,90.275z M108.928,105.395l17.219,7.163L116.85,96.39L108.928,105.395z"/>
	<path style="fill:#E56353;" d="M85.953,106.635l32.181,28.31l-3.68,4.184L87.43,115.356l-9.95,11.311l-5.157-4.537L85.953,106.635z   "/>
	<path style="fill:#E56353;" d="M85.167,172.42l-5.11-4.496l11.633-13.224l-8.518-7.493l-10.448,11.876l-4.833-4.252l10.448-11.876   l-8.61-7.574l-12.009,13.651l-5.11-4.496l15.689-17.835l32.181,28.31L85.167,172.42z"/>
</g>
<path style="fill:#27A2DB;" d="M209.014,16.973c-10.744-9.28-30.014-4.619-42.976,10.382c-7.789,9.01-11.891,20.135-10.977,29.755  c0.098,1.046,0.714,1.922,1.569,2.396c0.525,0.291,1.136,0.432,1.781,0.371c1.688-0.161,2.926-1.661,2.765-3.349  c-0.758-7.985,2.797-17.389,9.509-25.158c10.753-12.438,26.154-16.805,34.313-9.748c8.168,7.059,6.071,22.922-4.674,35.36  c-2.187,2.531-4.989,5.077-7.581,6.971l4.4,4.364c2.965-2.171,5.338-4.436,7.827-7.319C217.934,46,219.747,26.249,209.014,16.973z"/>
<g>
</g>
<g>
</g>
<g>
</g>
<g>
</g>
<g>
</g>
<g>
</g>
<g>
</g>
<g>
</g>
<g>
</g>
<g>
</g>
<g>
</g>
<g>
</g>
<g>
</g>
<g>
</g>
<g>
</g>
</svg>
