<?xml version="1.0" encoding="iso-8859-1"?>
<!-- Generator: Adobe Illustrator 19.0.0, SVG Export Plug-In . SVG Version: 6.00 Build 0)  -->
<svg xmlns="http://www.w3.org/2000/svg" xmlns:xlink="http://www.w3.org/1999/xlink" version="1.1" id="Capa_1" x="0px" y="0px" viewBox="0 0 409.6 409.6" style="enable-background:new 0 0 409.6 409.6;" xml:space="preserve">
<path style="fill:#FCD462;" d="M323.13,91.847l-177.255,49.727c-2.629,0.738-4.162,3.466-3.425,6.095l48.57,173.13  c0.738,2.629,3.466,4.162,6.096,3.425l177.255-49.727c2.628-0.737,4.162-3.466,3.424-6.095l-48.57-173.13  C328.487,92.642,325.758,91.109,323.13,91.847z"/>
<path style="fill:#F6C358;" d="M217.738,121.413l11.507,41.019c2.726,0.138,5.567,1.039,7.836-0.374  c1.371-0.855,2.175-2.392,3.454-3.38c2.273-1.755,5.445-1.425,8.314-1.554c4.853-0.218,9.468-1.948,14.139-3.334l-11.722-41.783  L217.738,121.413z"/>
<rect x="301.949" y="231.312" transform="matrix(-0.9628 0.2701 -0.2701 -0.9628 716.007 405.4102)" style="fill:#FFFFFF;" width="56.32" height="41.318"/>
<g>
	
		<rect x="306.26" y="242.181" transform="matrix(-0.9628 0.2701 -0.2701 -0.9628 672.4352 424.3797)" style="fill:#64798A;" width="1.516" height="32.553"/>
	
		<rect x="309.814" y="241.033" transform="matrix(-0.9628 0.2701 -0.2701 -0.9628 680.1106 421.0282)" style="fill:#64798A;" width="2.545" height="32.553"/>
	
		<rect x="313.345" y="240.184" transform="matrix(-0.9628 0.2701 -0.2701 -0.9628 685.8023 418.5452)" style="fill:#64798A;" width="1.516" height="32.553"/>
	
		<rect x="316.915" y="239.179" transform="matrix(-0.9628 0.2701 -0.2701 -0.9628 692.5394 415.6081)" style="fill:#64798A;" width="1.516" height="32.553"/>
	
		<rect x="321.676" y="237.76" transform="matrix(-0.9628 0.2701 -0.2701 -0.9628 701.9927 411.4693)" style="fill:#64798A;" width="2.017" height="32.553"/>
	
		<rect x="319.229" y="238.527" transform="matrix(-0.9628 0.2701 -0.2701 -0.9628 696.9046 413.7032)" style="fill:#64798A;" width="1.516" height="32.553"/>
	
		<rect x="324.912" y="236.928" transform="matrix(-0.9628 0.2701 -0.2701 -0.9628 707.6279 409.0296)" style="fill:#64798A;" width="1.516" height="32.553"/>
	
		<rect x="327.576" y="236.186" transform="matrix(-0.9628 0.2701 -0.2701 -0.9628 712.655 406.8542)" style="fill:#64798A;" width="1.516" height="32.553"/>
	
		<rect x="331.111" y="235.196" transform="matrix(-0.9628 0.2701 -0.2701 -0.9628 719.327 403.9573)" style="fill:#64798A;" width="1.516" height="32.553"/>
	
		<rect x="334.688" y="234.193" transform="matrix(-0.9628 0.2701 -0.2701 -0.9628 726.0767 401.0227)" style="fill:#64798A;" width="1.516" height="32.553"/>
	
		<rect x="338.221" y="233.046" transform="matrix(-0.9628 0.2701 -0.2701 -0.9628 733.7073 397.6783)" style="fill:#64798A;" width="2.54" height="32.553"/>
	
		<rect x="341.804" y="232.172" transform="matrix(-0.9628 0.2701 -0.2701 -0.9628 739.4988 395.1329)" style="fill:#64798A;" width="1.516" height="32.553"/>
	
		<rect x="345.342" y="231.213" transform="matrix(-0.9628 0.2701 -0.2701 -0.9628 746.1843 392.2948)" style="fill:#64798A;" width="1.516" height="32.553"/>
	
		<rect x="348.878" y="230.214" transform="matrix(-0.9628 0.2701 -0.2701 -0.9628 752.8557 389.3786)" style="fill:#64798A;" width="1.516" height="32.553"/>
	
		<rect x="352.459" y="229.206" transform="matrix(-0.9628 0.2701 -0.2701 -0.9628 759.6113 386.4334)" style="fill:#64798A;" width="1.516" height="32.553"/>
</g>
<rect x="307.916" y="260.274" transform="matrix(-0.9628 0.2701 -0.2701 -0.9628 723.4896 422.6974)" style="fill:#E56353;" width="49.49" height="1.71"/>
<path style="fill:#27A2DB;" d="M409.6,296.721l-202.403,56.782c-19.31,5.417-39.428-5.886-44.846-25.199L84.762,51.733  c-0.788-2.808-3.713-4.452-6.526-3.663l-27.568,7.734l-5.336-19.02L72.9,29.049c13.299-3.731,27.152,4.052,30.882,17.348  l77.589,276.571c2.475,8.823,11.667,13.99,20.49,11.515l202.403-56.782L409.6,296.721z"/>
<path style="fill:#E56353;" d="M10.619,42.292C2.885,44.462-1.625,52.49,0.544,60.224l0,0c2.17,7.734,10.198,12.244,17.931,10.075  l41.221-11.564L51.84,30.728L10.619,42.292z"/>
<g transform="matrix(0.96283 -0.27011 0.27011 0.96283 -19.224 15.177)">
	
		<ellipse transform="matrix(-0.9628 -0.2701 0.2701 -0.9628 104.6247 758.7261)" style="fill:#3A556A;" cx="104.517" cy="372.164" rx="36.198" ry="36.198"/>
	
		<ellipse transform="matrix(-0.9628 -0.2701 0.2701 -0.9628 104.6247 758.7261)" style="fill:#64798A;" cx="104.517" cy="372.164" rx="23.199" ry="23.199"/>
	
		<ellipse transform="matrix(-0.9628 -0.2701 0.2701 -0.9628 104.6247 758.7261)" style="fill:#2F4859;" cx="104.517" cy="372.164" rx="13.67" ry="13.67"/>
</g>
<g>
</g>
<g>
</g>
<g>
</g>
<g>
</g>
<g>
</g>
<g>
</g>
<g>
</g>
<g>
</g>
<g>
</g>
<g>
</g>
<g>
</g>
<g>
</g>
<g>
</g>
<g>
</g>
<g>
</g>
</svg>
