<?xml version="1.0" encoding="iso-8859-1"?>
<!-- Generator: Adobe Illustrator 19.0.0, SVG Export Plug-In . SVG Version: 6.00 Build 0)  -->
<svg xmlns="http://www.w3.org/2000/svg" xmlns:xlink="http://www.w3.org/1999/xlink" version="1.1" id="Capa_1" x="0px" y="0px" viewBox="0 0 409.6 409.6" style="enable-background:new 0 0 409.6 409.6;" xml:space="preserve">
<rect y="83.116" style="fill:#44C4A1;" width="409.6" height="243.369"/>
<g>
	<path style="fill:#3EA69B;" d="M19.515,102.644v204.342h370.572V102.644H19.515z M377.077,274.463   c-10.777,0-19.514,8.737-19.514,19.514H52.038c0-10.777-8.737-19.514-19.514-19.514V135.167c10.777,0,19.514-8.737,19.514-19.514   h305.526c0,10.777,8.737,19.514,19.514,19.514V274.463z"/>
	<path style="fill:#3EA69B;" d="M201.487,267.322v-11.008c-13.781-1.411-26.151-6.885-37.098-16.444l11.008-13.119   c8.443,7.339,17.132,11.72,26.09,13.119v-29.256c-11.364-2.712-19.684-6.271-24.961-10.701c-5.277-4.418-7.915-10.983-7.915-19.684   c0-8.688,3.031-15.806,9.118-21.329c6.087-5.535,14.002-8.553,23.758-9.057v-7.535h9.646v7.694   c11.057,0.798,21.513,4.577,31.367,11.302l-9.805,13.88c-6.639-4.725-13.818-7.645-21.562-8.75v28.348h0.454   c11.56,2.712,20.052,6.394,25.476,11.008c5.436,4.627,8.149,11.339,8.149,20.138s-3.117,15.953-9.351,21.488   c-6.234,5.522-14.469,8.541-24.728,9.044v10.861H201.487z M190.847,169.982c-2.565,2.258-3.841,5.081-3.841,8.443   c0,3.375,1.006,6.025,3.019,7.989c2,1.964,5.829,3.853,11.462,5.657v-26.09C196.959,166.386,193.412,167.724,190.847,169.982z    M222.595,236.102c2.81-2.307,4.222-5.228,4.222-8.75c0-3.51-1.104-6.308-3.313-8.369c-2.221-2.049-6.345-3.988-12.37-5.805v27.145   C215.956,239.821,219.772,238.422,222.595,236.102z"/>
	<circle style="fill:#3EA69B;" cx="344.525" cy="204.813" r="14.648"/>
	<circle style="fill:#3EA69B;" cx="65.055" cy="204.813" r="14.648"/>
</g>
<g>
</g>
<g>
</g>
<g>
</g>
<g>
</g>
<g>
</g>
<g>
</g>
<g>
</g>
<g>
</g>
<g>
</g>
<g>
</g>
<g>
</g>
<g>
</g>
<g>
</g>
<g>
</g>
<g>
</g>
</svg>
