<?xml version="1.0" encoding="iso-8859-1"?>
<!-- Generator: Adobe Illustrator 19.0.0, SVG Export Plug-In . SVG Version: 6.00 Build 0)  -->
<svg xmlns="http://www.w3.org/2000/svg" xmlns:xlink="http://www.w3.org/1999/xlink" version="1.1" id="Capa_1" x="0px" y="0px" viewBox="0 0 409.61 409.61" style="enable-background:new 0 0 409.61 409.61;" xml:space="preserve">
<path style="fill:#2F4859;" d="M339.821,166.28H18.483C8.275,166.28,0,174.555,0,184.763v206.359  c0,10.208,8.275,18.483,18.483,18.483h321.338c10.208,0,18.483-8.275,18.483-18.483V184.763  C358.304,174.555,350.029,166.28,339.821,166.28z"/>
<rect y="193.541" style="fill:#27A2DB;" width="358.303" height="40.151"/>
<rect x="134.554" y="256.159" style="fill:#FFFFFF;" width="201.267" height="27.126"/>
<g>
	<rect x="150.676" y="265.974" style="fill:#D5D6DB;" width="52.68" height="7.47"/>
	<rect x="17.802" y="370.13" style="fill:#D5D6DB;" width="116.756" height="13.046"/>
	<rect x="298.906" y="265.974" style="fill:#D5D6DB;" width="29.092" height="7.47"/>
</g>
<circle style="fill:#E56353;" cx="309.555" cy="361.58" r="26.286"/>
<circle style="fill:#FCD462;" cx="272.845" cy="361.58" r="26.286"/>
<circle style="fill:#E56353;" cx="283.904" cy="125.711" r="125.706"/>
<g>
	<path style="fill:#FFFFFF;" d="M283.892,234.658c-60.073,0-108.945-48.873-108.945-108.945c0-60.08,48.873-108.953,108.945-108.953   c60.08,0,108.953,48.873,108.953,108.953C392.845,185.785,343.972,234.658,283.892,234.658z M283.892,27.931   c-53.913,0-97.775,43.862-97.775,97.782c0,53.913,43.862,97.775,97.775,97.775c53.92,0,97.782-43.862,97.782-97.775   C381.674,71.793,337.812,27.931,283.892,27.931z"/>
	<path style="fill:#FFFFFF;" d="M261.705,68.74c5.172,5.599,7.773,12.373,7.773,20.322c0,7.935-2.63,14.738-7.862,20.396   c-5.231,5.657-11.741,8.493-19.499,8.493c-7.759,0-14.239-2.807-19.411-8.405c-5.172-5.599-7.759-12.358-7.759-20.308   s2.616-14.753,7.847-20.411c5.246-5.657,11.741-8.479,19.499-8.479C250.067,60.349,256.533,63.141,261.705,68.74z M335.192,63.42   l-92.442,126.21h-23.291l92.442-126.21H335.192z M249.611,98.54c1.925-2.469,2.895-5.51,2.895-9.125   c0-3.615-1.029-6.642-3.071-9.111c-2.057-2.469-4.555-3.703-7.494-3.703c-2.954,0-5.393,1.234-7.318,3.703   c-1.925,2.469-2.895,5.496-2.895,9.111c0,3.615,1.029,6.657,3.071,9.125c2.057,2.469,4.541,3.703,7.494,3.703   C245.247,102.243,247.687,101.009,249.611,98.54z M333.399,141.874c5.172,5.599,7.759,12.373,7.759,20.308   c0,7.95-2.616,14.753-7.861,20.411c-5.231,5.657-11.726,8.479-19.499,8.479c-7.759,0-14.224-2.792-19.411-8.39   c-5.172-5.599-7.759-12.373-7.759-20.308c0-7.95,2.616-14.753,7.862-20.411c5.231-5.657,11.726-8.493,19.499-8.493   C321.746,133.469,328.212,136.275,333.399,141.874z M321.658,172.027c1.925-2.469,2.88-5.51,2.88-9.125   c0-3.6-1.014-6.642-3.056-9.111c-2.057-2.469-4.555-3.703-7.494-3.703c-2.954,0-5.393,1.234-7.318,3.703   c-1.925,2.469-2.895,5.51-2.895,9.111c0,3.615,1.029,6.657,3.071,9.125c2.043,2.469,4.541,3.703,7.494,3.703   C317.294,175.73,319.733,174.495,321.658,172.027z"/>
</g>
<g>
</g>
<g>
</g>
<g>
</g>
<g>
</g>
<g>
</g>
<g>
</g>
<g>
</g>
<g>
</g>
<g>
</g>
<g>
</g>
<g>
</g>
<g>
</g>
<g>
</g>
<g>
</g>
<g>
</g>
</svg>
