<?xml version="1.0" encoding="iso-8859-1"?>
<!-- Generator: Adobe Illustrator 19.0.0, SVG Export Plug-In . SVG Version: 6.00 Build 0)  -->
<svg xmlns="http://www.w3.org/2000/svg" xmlns:xlink="http://www.w3.org/1999/xlink" version="1.1" id="Capa_1" x="0px" y="0px" viewBox="0 0 409.591 409.591" style="enable-background:new 0 0 409.591 409.591;" xml:space="preserve">
<rect y="31.077" style="fill:#FCD462;" width="248.218" height="248.218"/>
<polygon style="fill:#64798A;" points="409.591,162.255 409.591,332.046 0.009,332.046 0.009,272.172 262.365,272.172   262.365,60.902 325.515,60.902 "/>
<polygon style="fill:#27A2DB;" points="394.697,190.33 394.697,167.633 318.519,75.797 277.255,75.797 277.255,190.33 "/>
<rect x="277.248" y="207.205" style="fill:#3A556A;" width="7.424" height="29.025"/>
<path style="fill:#FCD462;" d="M393.09,251.509c0,9.113,7.389,16.5,16.501,16.5V235.01  C400.479,235.01,393.09,242.397,393.09,251.509z"/>
<g>
	<path style="fill:#DC8744;" d="M35.74,136.394v15.067h24.318v8.549H35.74v22.594h-9.257v-54.835H63.04l-0.077,8.625H35.74z"/>
	<path style="fill:#DC8744;" d="M117.645,145.575c0,9.047-3.952,14.748-11.849,17.104l14.358,19.925h-11.766l-13.101-18.438H83.125   v18.438h-9.257v-54.835h20.398c8.363,0,14.358,1.411,17.965,4.233C115.838,134.83,117.645,139.35,117.645,145.575z    M105.323,153.344c1.883-1.622,2.828-4.226,2.828-7.808c0-3.582-0.97-6.04-2.905-7.374c-1.934-1.334-5.388-1.998-10.355-1.998   H83.125v19.613h11.53C99.884,155.777,103.446,154.966,105.323,153.344z"/>
	<path style="fill:#DC8744;" d="M169.492,127.769v8.708h-29.259v14.512h26.278v8.236h-26.278v14.671h30.204v8.708h-39.461v-54.835   H169.492z"/>
	<path style="fill:#DC8744;" d="M220.802,127.769v8.708h-29.259v14.512h26.278v8.236h-26.278v14.671h30.204v8.708h-39.461v-54.835   H220.802z"/>
</g>
<path style="fill:#2F4859;" d="M40.007,332.596c0-29.431,23.941-53.372,53.372-53.372s53.372,23.941,53.372,53.372"/>
<circle style="fill:#3A556A;" cx="93.389" cy="332.593" r="45.921"/>
<circle style="fill:#2F4859;" cx="93.389" cy="332.593" r="25.385"/>
<g>
	<circle style="fill:#64798A;" cx="93.389" cy="332.593" r="3.983"/>
	<circle style="fill:#64798A;" cx="93.389" cy="315.185" r="3.983"/>
	<circle style="fill:#64798A;" cx="93.389" cy="350.001" r="3.983"/>
	<ellipse style="fill:#64798A;" cx="78.289" cy="341.299" rx="3.983" ry="3.983"/>
	<ellipse style="fill:#64798A;" cx="108.451" cy="323.902" rx="3.983" ry="3.983"/>
	<ellipse style="fill:#64798A;" cx="108.451" cy="341.334" rx="3.983" ry="3.983"/>
	<ellipse style="fill:#64798A;" cx="78.299" cy="323.875" rx="3.983" ry="3.983"/>
</g>
<path style="fill:#2F4859;" d="M275.14,332.596c0-29.431,23.941-53.372,53.372-53.372s53.372,23.941,53.372,53.372"/>
<circle style="fill:#3A556A;" cx="328.499" cy="332.593" r="45.921"/>
<circle style="fill:#2F4859;" cx="328.499" cy="332.593" r="25.385"/>
<g>
	<circle style="fill:#64798A;" cx="328.499" cy="332.593" r="3.983"/>
	<circle style="fill:#64798A;" cx="328.499" cy="315.185" r="3.983"/>
	<circle style="fill:#64798A;" cx="328.499" cy="350.001" r="3.983"/>
	<ellipse style="fill:#64798A;" cx="313.44" cy="341.286" rx="3.983" ry="3.983"/>
	<ellipse style="fill:#64798A;" cx="343.606" cy="323.891" rx="3.983" ry="3.983"/>
	<ellipse style="fill:#64798A;" cx="343.597" cy="341.3" rx="3.983" ry="3.983"/>
	<ellipse style="fill:#64798A;" cx="313.443" cy="323.845" rx="3.983" ry="3.983"/>
</g>
<path style="fill:#FCD462;" d="M0.009,299.644v18.257H8.03c1.785,0,3.233-1.447,3.233-3.232v-15.025H0.009z"/>
<path style="fill:#E56353;" d="M11.263,287.341c0-1.784-1.447-3.232-3.233-3.232H0.009v15.535h11.254V287.341z"/>
<g>
</g>
<g>
</g>
<g>
</g>
<g>
</g>
<g>
</g>
<g>
</g>
<g>
</g>
<g>
</g>
<g>
</g>
<g>
</g>
<g>
</g>
<g>
</g>
<g>
</g>
<g>
</g>
<g>
</g>
</svg>
