<?xml version="1.0" encoding="iso-8859-1"?>
<!-- Generator: Adobe Illustrator 19.0.0, SVG Export Plug-In . SVG Version: 6.00 Build 0)  -->
<svg xmlns="http://www.w3.org/2000/svg" xmlns:xlink="http://www.w3.org/1999/xlink" version="1.1" id="Capa_1" x="0px" y="0px" viewBox="0 0 409.585 409.585" style="enable-background:new 0 0 409.585 409.585;" xml:space="preserve">
<polygon style="fill:#FCD462;" points="183.207,125.47 0,62.533 0,303.101 183.209,366.418 "/>
<polygon style="fill:#E5B053;" points="183.207,125.47 366.418,62.533 366.418,303.101 183.209,366.418 "/>
<polygon style="fill:#F6C358;" points="183.207,0 0,62.735 183.207,125.47 366.418,62.735 "/>
<polygon style="fill:#CE7A41;" points="252.042,23.572 68.835,86.306 114.381,101.898 297.582,39.165 "/>
<polygon style="fill:#DC8744;" points="114.377,101.92 114.377,160.281 86.796,148.155 68.808,140.227 68.808,86.331 86.796,92.46   "/>
<circle style="fill:#64798A;" cx="316.81" cy="316.81" r="92.774"/>
<circle style="fill:#EBF0F3;" cx="316.81" cy="316.81" r="77.261"/>
<ellipse style="fill:#FFFFFF;" cx="316.81" cy="319.334" rx="77.261" ry="74.737"/>
<g>
	<rect x="245.862" y="314.982" style="fill:#E56353;" width="13.824" height="3.686"/>
	<rect x="373.965" y="314.982" style="fill:#E56353;" width="13.824" height="3.686"/>
	<ellipse style="fill:#E56353;" cx="351.01" cy="375.995" rx="2.621" ry="2.621"/>
	<ellipse style="fill:#E56353;" cx="282.63" cy="257.653" rx="2.621" ry="2.621"/>
	<ellipse style="fill:#E56353;" cx="257.659" cy="350.979" rx="2.621" ry="2.621"/>
	<ellipse style="fill:#E56353;" cx="376" cy="282.599" rx="2.621" ry="2.621"/>
	<ellipse style="fill:#E56353;" cx="350.981" cy="257.656" rx="2.621" ry="2.621"/>
	<ellipse style="fill:#E56353;" cx="282.613" cy="376.012" rx="2.621" ry="2.621"/>
	<ellipse style="fill:#E56353;" cx="375.975" cy="350.987" rx="2.621" ry="2.621"/>
	<ellipse style="fill:#E56353;" cx="257.619" cy="282.629" rx="2.621" ry="2.621"/>
	<rect x="314.993" y="373.914" style="fill:#E56353;" width="3.686" height="13.824"/>
	<rect x="314.972" y="245.862" style="fill:#E56353;" width="3.686" height="13.824"/>
</g>
<polygon style="fill:#3A556A;" points="304.304,320.011 301.512,316.809 304.31,313.612 352.981,315.286 354.608,316.858   352.978,318.427 "/>
<polygon style="fill:#64798A;" points="313.963,329.719 308.637,330.725 306.924,325.582 340.187,273.093 342.968,272.317   343.643,275.125 "/>
<circle style="fill:#FCD462;" cx="316.81" cy="316.81" r="3.937"/>
<g>
</g>
<g>
</g>
<g>
</g>
<g>
</g>
<g>
</g>
<g>
</g>
<g>
</g>
<g>
</g>
<g>
</g>
<g>
</g>
<g>
</g>
<g>
</g>
<g>
</g>
<g>
</g>
<g>
</g>
</svg>
