<?xml version="1.0" encoding="iso-8859-1"?>
<!-- Generator: Adobe Illustrator 19.0.0, SVG Export Plug-In . SVG Version: 6.00 Build 0)  -->
<svg xmlns="http://www.w3.org/2000/svg" xmlns:xlink="http://www.w3.org/1999/xlink" version="1.1" id="Capa_1" x="0px" y="0px" viewBox="0 0 409.6 409.6" style="enable-background:new 0 0 409.6 409.6;" xml:space="preserve">
<path style="fill:#F6C358;" d="M291.961,356.951c0,29.077-59.799,52.648-133.565,52.648c-73.766,0-133.565-23.572-133.565-52.648  v-45.96h267.13L291.961,356.951z"/>
<ellipse style="fill:#FCD462;" cx="158.397" cy="310.989" rx="133.581" ry="52.649"/>
<g>
	<path style="fill:#F6C358;" d="M158.394,356.951c-64.289,0-116.595-20.618-116.595-45.961c0-25.342,52.306-45.96,116.595-45.96   c64.293,0,116.599,20.618,116.599,45.96C274.993,336.333,222.687,356.951,158.394,356.951z M158.394,269.108   c-58.585,0-106.251,18.788-106.251,41.883c0,23.095,47.666,41.883,106.251,41.883c58.589,0,106.255-18.789,106.255-41.883   C264.649,287.896,216.983,269.108,158.394,269.108z"/>
	<path style="fill:#F6C358;" d="M154.566,339.471v-5.016c-15.931-0.64-30.23-3.137-42.884-7.487l12.725-5.978   c9.76,3.344,19.803,5.335,30.159,5.978v-13.331c-13.136-1.236-22.754-2.863-28.854-4.879c-6.1-2.016-9.15-5.005-9.15-8.966   s3.504-7.202,10.54-9.724c7.036-2.519,16.186-3.892,27.464-4.121v-3.436h11.15v3.503c12.781,0.369,24.868,2.086,36.259,5.156   l-11.334,6.322c-7.675-2.153-15.973-3.481-24.924-3.987v12.917h0.525c13.363,1.239,23.18,2.911,29.45,5.016   c6.284,2.108,9.419,5.167,9.419,9.173c0,4.009-3.603,7.275-10.81,9.791c-7.206,2.522-16.725,3.895-28.584,4.124v4.946H154.566z    M142.267,295.12c-2.965,1.029-4.44,2.312-4.44,3.847c0,1.535,1.163,2.748,3.49,3.64c2.312,0.895,6.738,1.753,13.25,2.578v-11.888   C149.331,293.482,145.232,294.089,142.267,295.12z M178.965,325.249c3.249-1.051,4.88-2.379,4.88-3.984   c0-1.602-1.277-2.874-3.83-3.814c-2.568-0.939-7.334-1.82-14.299-2.645v12.366C171.291,326.946,175.703,326.303,178.965,325.249z"/>
	<path style="fill:#F6C358;" d="M313.849,294.639c0,29.077-59.799,52.648-133.565,52.648c-73.766,0-133.565-23.572-133.565-52.648   v-45.96h267.13L313.849,294.639z"/>
</g>
<ellipse style="fill:#FCD462;" cx="180.28" cy="248.678" rx="133.581" ry="52.649"/>
<g>
	<path style="fill:#F6C358;" d="M180.282,294.639c-64.289,0-116.595-20.618-116.595-45.961c0-25.342,52.306-45.96,116.595-45.96   c64.293,0,116.599,20.618,116.599,45.96C296.881,274.021,244.575,294.639,180.282,294.639z M180.282,206.795   c-58.585,0-106.251,18.788-106.251,41.883s47.666,41.883,106.251,41.883c58.589,0,106.255-18.789,106.255-41.883   S238.871,206.795,180.282,206.795z"/>
	<path style="fill:#F6C358;" d="M176.454,277.158v-5.016c-15.931-0.64-30.23-3.137-42.884-7.487l12.725-5.978   c9.76,3.344,19.803,5.335,30.159,5.978v-13.331c-13.136-1.236-22.754-2.863-28.854-4.879c-6.1-2.016-9.15-5.005-9.15-8.966   c0-3.962,3.504-7.202,10.54-9.724c7.036-2.519,16.186-3.892,27.464-4.121v-3.436h11.15v3.503   c12.781,0.369,24.868,2.086,36.259,5.156l-11.334,6.321c-7.675-2.153-15.973-3.481-24.924-3.987v12.917h0.525   c13.363,1.239,23.18,2.91,29.45,5.016c6.284,2.108,9.419,5.167,9.419,9.173c0,4.009-3.603,7.275-10.81,9.791   c-7.206,2.522-16.725,3.895-28.584,4.124v4.946H176.454z M164.155,232.807c-2.965,1.029-4.44,2.312-4.44,3.847   c0,1.535,1.163,2.748,3.49,3.64c2.312,0.895,6.738,1.753,13.25,2.578v-11.888C171.219,231.169,167.12,231.776,164.155,232.807z    M200.853,262.936c3.249-1.051,4.88-2.379,4.88-3.984c0-1.602-1.277-2.874-3.83-3.814c-2.568-0.939-7.334-1.82-14.299-2.645v12.366   C193.179,264.633,197.591,263.99,200.853,262.936z"/>
	<path style="fill:#F6C358;" d="M267.135,225.698c0,29.077-59.799,52.648-133.565,52.648c-73.766,0-133.565-23.572-133.565-52.648   v-45.96h267.13L267.135,225.698z"/>
</g>
<ellipse style="fill:#FCD462;" cx="133.586" cy="179.763" rx="133.581" ry="52.649"/>
<g>
	<path style="fill:#F6C358;" d="M133.569,225.698c-64.289,0-116.595-20.618-116.595-45.961c0-25.342,52.306-45.96,116.595-45.96   c64.293,0,116.599,20.618,116.599,45.96C250.167,205.08,197.861,225.698,133.569,225.698z M133.569,137.855   c-58.585,0-106.251,18.788-106.251,41.883s47.666,41.883,106.251,41.883c58.589,0,106.255-18.789,106.255-41.883   S192.157,137.855,133.569,137.855z"/>
	<path style="fill:#F6C358;" d="M129.74,208.218v-5.016c-15.931-0.64-30.23-3.137-42.884-7.487l12.725-5.978   c9.76,3.344,19.803,5.335,30.159,5.978v-13.331c-13.136-1.236-22.754-2.863-28.854-4.879s-9.15-5.005-9.15-8.966   s3.504-7.202,10.54-9.724c7.036-2.519,16.186-3.892,27.464-4.121v-3.436h11.15v3.503c12.781,0.369,24.868,2.086,36.259,5.156   l-11.334,6.321c-7.675-2.153-15.973-3.481-24.924-3.987v12.917h0.525c13.363,1.239,23.18,2.911,29.45,5.016   c6.284,2.108,9.419,5.167,9.419,9.173c0,4.009-3.603,7.275-10.81,9.791c-7.206,2.522-16.725,3.895-28.584,4.124v4.946H129.74z    M117.441,163.867c-2.965,1.029-4.44,2.312-4.44,3.847c0,1.535,1.163,2.748,3.49,3.64c2.312,0.895,6.738,1.753,13.25,2.578v-11.888   C124.506,162.229,120.406,162.835,117.441,163.867z M154.14,193.995c3.249-1.051,4.88-2.379,4.88-3.984   c0-1.602-1.277-2.874-3.83-3.814c-2.568-0.939-7.334-1.82-14.299-2.645v12.366C146.465,195.692,150.877,195.049,154.14,193.995z"/>
	<path style="fill:#F6C358;" d="M324.571,167.55c0,29.077-59.799,52.648-133.565,52.648c-73.766,0-133.565-23.572-133.565-52.648   v-45.96h267.13L324.571,167.55z"/>
</g>
<ellipse style="fill:#FCD462;" cx="190.981" cy="121.59" rx="133.581" ry="52.649"/>
<g>
	<path style="fill:#F6C358;" d="M191.004,167.55c-64.289,0-116.595-20.618-116.595-45.961c0-25.342,52.306-45.96,116.595-45.96   c64.293,0,116.599,20.618,116.599,45.96C307.603,146.932,255.297,167.55,191.004,167.55z M191.004,79.706   c-58.585,0-106.251,18.788-106.251,41.883s47.666,41.883,106.251,41.883c58.589,0,106.255-18.789,106.255-41.883   S249.593,79.706,191.004,79.706z"/>
	<path style="fill:#F6C358;" d="M187.176,150.069v-5.016c-15.931-0.64-30.23-3.137-42.884-7.487l12.725-5.978   c9.76,3.344,19.803,5.335,30.159,5.978v-13.331c-13.136-1.236-22.754-2.863-28.854-4.879c-6.1-2.016-9.15-5.005-9.15-8.966   c0-3.962,3.504-7.202,10.54-9.724c7.036-2.519,16.186-3.892,27.464-4.121v-3.436h11.15v3.503   c12.781,0.369,24.868,2.086,36.259,5.156l-11.334,6.321c-7.675-2.153-15.973-3.481-24.924-3.987v12.917h0.525   c13.363,1.239,23.18,2.91,29.45,5.016c6.284,2.108,9.419,5.167,9.419,9.173c0,4.009-3.603,7.275-10.81,9.791   c-7.206,2.522-16.725,3.895-28.584,4.124v4.946H187.176z M174.876,105.719c-2.965,1.029-4.44,2.312-4.44,3.847   c0,1.535,1.163,2.748,3.49,3.64c2.312,0.895,6.738,1.753,13.25,2.578v-11.888C181.941,104.08,177.841,104.687,174.876,105.719z    M211.575,135.847c3.249-1.051,4.88-2.379,4.88-3.984c0-1.602-1.277-2.874-3.83-3.814c-2.568-0.939-7.334-1.82-14.299-2.645v12.366   C203.901,137.544,208.312,136.901,211.575,135.847z"/>
	<path style="fill:#F6C358;" d="M277.857,98.609c0,29.077-59.799,52.648-133.565,52.648c-73.766,0-133.565-23.572-133.565-52.648   v-45.96h267.13L277.857,98.609z"/>
</g>
<ellipse style="fill:#FCD462;" cx="144.287" cy="52.649" rx="133.581" ry="52.649"/>
<g>
	<path style="fill:#F6C358;" d="M144.29,98.609c-64.289,0-116.595-20.618-116.595-45.961c0-25.342,52.306-45.96,116.595-45.96   c64.293,0,116.599,20.618,116.599,45.96C260.889,77.991,208.583,98.609,144.29,98.609z M144.29,10.766   c-58.585,0-106.251,18.788-106.251,41.883S85.705,94.532,144.29,94.532c58.589,0,106.255-18.789,106.255-41.883   S202.879,10.766,144.29,10.766z"/>
	<path style="fill:#F6C358;" d="M140.462,81.129v-5.016c-15.931-0.64-30.23-3.137-42.884-7.487l12.725-5.978   c9.76,3.344,19.803,5.335,30.159,5.978V55.295c-13.136-1.236-22.754-2.863-28.854-4.879c-6.1-2.016-9.15-5.005-9.15-8.966   c0-3.962,3.504-7.202,10.54-9.724c7.036-2.519,16.186-3.892,27.464-4.121v-3.436h11.15v3.503   c12.781,0.369,24.868,2.086,36.259,5.156l-11.334,6.321c-7.675-2.153-15.973-3.481-24.924-3.987v12.917h0.525   c13.363,1.239,23.18,2.911,29.45,5.016c6.284,2.108,9.419,5.167,9.419,9.173c0,4.009-3.603,7.275-10.81,9.791   c-7.206,2.522-16.725,3.895-28.584,4.124v4.946H140.462z M128.163,36.778c-2.965,1.029-4.44,2.312-4.44,3.847   c0,1.535,1.163,2.748,3.49,3.64c2.312,0.895,6.738,1.753,13.25,2.578V34.955C135.227,35.14,131.127,35.746,128.163,36.778z    M164.861,66.906c3.249-1.051,4.88-2.379,4.88-3.984c0-1.602-1.277-2.874-3.83-3.814c-2.568-0.939-7.334-1.82-14.299-2.645V68.83   C157.187,68.603,161.599,67.96,164.861,66.906z"/>
</g>
<circle style="fill:#FCD462;" cx="267.832" cy="267.827" r="141.763"/>
<g>
	<path style="fill:#F6C358;" d="M267.843,391.591c-68.234,0-123.749-55.515-123.749-123.753   c0-68.236,55.515-123.751,123.749-123.751c68.238,0,123.753,55.515,123.753,123.751   C391.595,336.076,336.08,391.591,267.843,391.591z M267.843,155.066c-62.18,0-112.77,50.589-112.77,112.772   s50.59,112.774,112.77,112.774c62.184,0,112.774-50.59,112.774-112.774S330.026,155.066,267.843,155.066z"/>
	<path style="fill:#F6C358;" d="M263.779,344.525v-13.505c-16.908-1.724-32.085-8.447-45.515-20.16l13.505-16.095   c10.359,9.004,21.018,14.364,32.009,16.095v-35.894c-13.942-3.327-24.15-7.709-30.624-13.137   c-6.474-5.428-9.711-13.475-9.711-24.143c0-10.667,3.719-19.392,11.187-26.183c7.468-6.783,17.179-10.479,29.149-11.096v-9.252   h11.834v9.433c13.566,0.994,26.393,5.616,38.484,13.882l-12.03,17.021c-8.145-5.797-16.953-9.372-26.454-10.735v34.78h0.557   c14.183,3.335,24.602,7.837,31.257,13.505c6.67,5.676,9.997,13.912,9.997,24.7c0,10.795-3.824,19.588-11.473,26.363   c-7.649,6.79-17.751,10.487-30.338,11.104v13.317H263.779z M250.726,225.106c-3.147,2.77-4.713,6.226-4.713,10.359   s1.235,7.4,3.704,9.802c2.454,2.409,7.152,4.72,14.062,6.941v-32.009C258.224,220.695,253.872,222.328,250.726,225.106z    M289.676,306.229c3.448-2.831,5.179-6.406,5.179-10.728c0-4.314-1.355-7.739-4.065-10.268c-2.725-2.529-7.784-4.901-15.177-7.122   v33.297C281.531,310.799,286.213,309.067,289.676,306.229z"/>
</g>
<g>
</g>
<g>
</g>
<g>
</g>
<g>
</g>
<g>
</g>
<g>
</g>
<g>
</g>
<g>
</g>
<g>
</g>
<g>
</g>
<g>
</g>
<g>
</g>
<g>
</g>
<g>
</g>
<g>
</g>
</svg>
