<?xml version="1.0" encoding="iso-8859-1"?>
<!-- Generator: Adobe Illustrator 19.0.0, SVG Export Plug-In . SVG Version: 6.00 Build 0)  -->
<svg xmlns="http://www.w3.org/2000/svg" xmlns:xlink="http://www.w3.org/1999/xlink" version="1.1" id="Capa_1" x="0px" y="0px" viewBox="0 0 409.6 409.6" style="enable-background:new 0 0 409.6 409.6;" xml:space="preserve">
<circle style="fill:#FCD462;" cx="204.8" cy="204.8" r="204.8"/>
<g>
	<path style="fill:#F6C358;" d="M204.8,28.496c-97.37,0-176.304,78.934-176.304,176.304c0,97.37,78.934,176.304,176.304,176.304   c97.37,0,176.304-78.934,176.304-176.304C381.104,107.43,302.17,28.496,204.8,28.496z M204.801,361.6   c-86.462,0-156.8-70.338-156.8-156.8S118.339,48,204.801,48s156.8,70.338,156.8,156.8S291.262,361.6,204.801,361.6z"/>
	<path style="fill:#F6C358;" d="M198.734,319.24v-20.154c-25.232-2.584-47.879-12.605-67.921-30.107l20.154-24.018   c15.458,13.436,31.365,21.457,47.767,24.018v-53.564c-20.805-4.965-36.039-11.481-45.7-19.592   c-9.661-8.088-14.492-20.109-14.492-36.039c0-15.907,5.55-28.939,16.694-39.049c11.144-10.133,25.636-15.66,43.498-16.581V90.359   h17.66v14.087c20.244,1.46,39.386,8.381,57.428,20.693l-17.952,25.411c-12.155-8.65-25.299-13.998-39.476-16.02v51.901h0.831   c21.165,4.965,36.713,11.706,46.643,20.154c9.953,8.47,14.919,20.76,14.919,36.87c0,16.11-5.707,29.208-17.121,39.341   c-11.414,10.111-26.49,15.638-45.273,16.559v19.884H198.734z M179.254,141.025c-4.696,4.134-7.032,9.302-7.032,15.458   c0,6.179,1.842,11.032,5.527,14.627c3.662,3.595,10.672,7.055,20.985,10.358V133.7C190.443,134.441,183.95,136.89,179.254,141.025z    M237.379,262.082c5.145-4.224,7.729-9.571,7.729-16.02c0-6.426-2.022-11.549-6.066-15.323   c-4.067-3.752-11.616-7.302-22.648-10.627v49.699C225.223,268.89,232.211,266.328,237.379,262.082z"/>
</g>
<g>
</g>
<g>
</g>
<g>
</g>
<g>
</g>
<g>
</g>
<g>
</g>
<g>
</g>
<g>
</g>
<g>
</g>
<g>
</g>
<g>
</g>
<g>
</g>
<g>
</g>
<g>
</g>
<g>
</g>
</svg>
