<?xml version="1.0" encoding="iso-8859-1"?>
<!-- Generator: Adobe Illustrator 19.0.0, SVG Export Plug-In . SVG Version: 6.00 Build 0)  -->
<svg xmlns="http://www.w3.org/2000/svg" xmlns:xlink="http://www.w3.org/1999/xlink" version="1.1" id="Capa_1" x="0px" y="0px" viewBox="0 0 409.599 409.599" style="enable-background:new 0 0 409.599 409.599;" xml:space="preserve">
<path style="fill:#DC8744;" d="M346.533,341.385H286.49V169.081h60.043c11.781,0,21.365,9.584,21.365,21.365V320.02  C367.898,331.801,358.314,341.385,346.533,341.385z M305.529,322.347h41.005c1.283,0,2.327-1.044,2.327-2.327V190.447  c0-1.283-1.044-2.327-2.327-2.327h-41.005V322.347z"/>
<path style="fill:#F6C358;" d="M55.692,394.793v9.343c0,3.017,2.446,5.462,5.463,5.462h224.849c3.017,0,5.463-2.446,5.463-5.462  v-9.343H55.692z"/>
<path style="fill:#FCD462;" d="M300.559,128.455H46.705c-2.764,0-5.005,2.241-5.005,5.005v249.541  c0,7.935,6.432,14.367,14.367,14.367H291.09c7.935,0,14.367-6.432,14.367-14.367V133.353  C305.457,130.648,303.264,128.455,300.559,128.455z"/>
<path style="fill:#F6C358;" d="M300.559,128.455h-45.362v268.913h35.893c7.935,0,14.367-6.432,14.367-14.367V133.353  C305.457,130.648,303.264,128.455,300.559,128.455z"/>
<g>
	<path style="fill:#EBF0F3;" d="M111.513,32.757c0,0,0.057,1.493,0.067,4.055c-0.017,2.517-0.041,6.111-0.071,10.426   c0.027,4.247,0.116,9.105,0.733,14.084c0.289,2.49,0.84,4.986,1.44,7.458c0.678,2.417,1.497,4.923,2.55,7.227   c2.105,4.765,5.02,9.575,7.522,14.497c1.325,2.467,2.377,4.879,3.325,7.427c0.942,2.459,1.569,4.907,1.952,7.201   c0.821,4.59,0.427,8.568-0.323,11.121c-0.314,1.292-0.784,2.245-1.074,2.877c-0.307,0.625-0.471,0.958-0.471,0.958   s0.037-1.517-0.324-3.963c-0.323-2.452-1.289-5.759-2.983-9.425c-0.867-1.831-1.949-3.743-3.124-5.747   c-1.166-1.918-2.688-4.043-4.107-6.212c-2.982-4.343-6.438-9.163-9.003-14.926c-2.607-5.812-3.697-12.259-3.637-18.018   c-0.066-2.895,0.303-5.647,0.661-8.212c0.373-2.562,0.928-4.935,1.531-7.08c1.15-4.304,2.55-7.716,3.582-10.083   C110.805,34.064,111.513,32.757,111.513,32.757z"/>
	<path style="fill:#EBF0F3;" d="M225.74,32.757c0,0,0.057,1.493,0.067,4.055c-0.017,2.517-0.041,6.111-0.071,10.426   c0.026,4.247,0.116,9.105,0.733,14.084c0.289,2.49,0.84,4.986,1.44,7.458c0.678,2.417,1.497,4.923,2.55,7.227   c2.105,4.765,5.02,9.575,7.522,14.497c1.325,2.467,2.377,4.879,3.325,7.427c0.942,2.459,1.569,4.907,1.952,7.201   c0.822,4.59,0.426,8.568-0.324,11.121c-0.314,1.292-0.783,2.245-1.074,2.877c-0.307,0.625-0.471,0.958-0.471,0.958   s0.037-1.517-0.324-3.963c-0.323-2.452-1.289-5.759-2.983-9.425c-0.867-1.831-1.949-3.743-3.124-5.747   c-1.166-1.918-2.688-4.043-4.107-6.212c-2.982-4.343-6.438-9.163-9.003-14.926c-2.607-5.812-3.698-12.259-3.637-18.018   c-0.067-2.895,0.303-5.647,0.661-8.212c0.373-2.562,0.927-4.935,1.531-7.08c1.15-4.304,2.55-7.716,3.582-10.083   C225.031,34.064,225.74,32.757,225.74,32.757z"/>
	<path style="fill:#EBF0F3;" d="M168.416,0c0,0,0.058,1.493,0.067,4.055c-0.017,2.517-0.041,6.111-0.071,10.426   c0.027,4.247,0.116,9.105,0.734,14.084c0.289,2.49,0.839,4.986,1.44,7.458c0.678,2.417,1.496,4.923,2.55,7.227   c2.104,4.765,5.02,9.575,7.521,14.497c1.324,2.467,2.377,4.879,3.326,7.427c0.942,2.459,1.569,4.907,1.951,7.201   c0.822,4.59,0.427,8.568-0.323,11.121c-0.314,1.292-0.784,2.245-1.074,2.877c-0.307,0.625-0.47,0.958-0.47,0.958   s0.036-1.517-0.325-3.963c-0.323-2.452-1.288-5.759-2.983-9.425c-0.866-1.832-1.949-3.743-3.124-5.747   c-1.166-1.918-2.687-4.043-4.106-6.212c-2.982-4.343-6.438-9.163-9.003-14.926c-2.607-5.812-3.697-12.259-3.637-18.018   c-0.066-2.895,0.303-5.647,0.661-8.211c0.373-2.562,0.928-4.935,1.531-7.08c1.151-4.304,2.55-7.716,3.582-10.083   C167.708,1.307,168.416,0,168.416,0z"/>
</g>
<g>
</g>
<g>
</g>
<g>
</g>
<g>
</g>
<g>
</g>
<g>
</g>
<g>
</g>
<g>
</g>
<g>
</g>
<g>
</g>
<g>
</g>
<g>
</g>
<g>
</g>
<g>
</g>
<g>
</g>
</svg>
