<?xml version="1.0" encoding="iso-8859-1"?>
<!-- Generator: Adobe Illustrator 19.0.0, SVG Export Plug-In . SVG Version: 6.00 Build 0)  -->
<svg xmlns="http://www.w3.org/2000/svg" xmlns:xlink="http://www.w3.org/1999/xlink" version="1.1" id="Capa_1" x="0px" y="0px" viewBox="0 0 409.6 409.6" style="enable-background:new 0 0 409.6 409.6;" xml:space="preserve">
<rect style="fill:#FFFFFF;" width="409.6" height="409.6"/>
<g>
	<polygon style="fill:#E56353;" points="343.633,51.353 329.019,51.353 314.405,51.353 314.405,65.967 314.405,80.581    314.405,95.195 329.019,95.195 343.633,95.195 343.633,95.195 358.247,95.195 358.247,80.581 358.247,65.967 358.247,51.353  "/>
	<polygon style="fill:#E56353;" points="80.581,95.195 95.195,95.195 95.195,80.581 95.195,65.967 95.195,51.353 80.581,51.353    65.967,51.353 51.353,51.353 51.353,65.967 51.353,80.581 51.353,95.195 65.967,95.195  "/>
	<polygon style="fill:#E56353;" points="80.581,358.247 95.195,358.247 95.195,343.633 95.195,329.019 95.195,314.405    80.581,314.405 65.967,314.405 51.353,314.405 51.353,329.019 51.353,343.633 51.353,358.247 65.967,358.247  "/>
</g>
<g>
	<rect x="153.651" y="22.124" style="fill:#64798A;" width="14.612" height="14.612"/>
	<path style="fill:#64798A;" d="M372.861,22.125h-14.615h-14.613h-14.615h-14.613h-14.615h-14.615v14.614v14.614v14.614v14.614   v14.614v0v14.614v14.614h14.615h14.615h14.613h14.615h14.613h14.615h14.615v-14.614V95.195v0V80.581V65.967V51.353V36.739V22.125   H372.861z M372.861,51.353v14.614v14.614v14.614v0v14.614h-14.615h-14.613h-14.615h-14.613h-14.615V95.195v0V80.581V65.967V51.353   V36.739h14.615h14.613h14.615h14.613h14.615V51.353z"/>
	<polygon style="fill:#64798A;" points="226.721,80.581 212.108,80.581 212.108,95.195 212.108,95.195 212.108,109.809    226.721,109.809 226.721,124.423 212.108,124.423 212.108,109.809 197.493,109.809 197.493,124.423 197.493,139.037    212.108,139.037 212.108,153.651 212.108,168.265 226.721,168.265 226.721,153.651 226.721,139.037 241.335,139.037    241.335,124.423 241.335,109.809 255.95,109.809 255.95,124.423 270.562,124.423 270.562,109.809 270.562,95.195 255.95,95.195    255.95,80.581 241.335,80.581 241.335,65.967 226.721,65.967  "/>
	<polygon style="fill:#64798A;" points="168.264,95.195 182.879,95.195 182.879,80.581 197.493,80.581 197.493,65.967    182.879,65.967 182.879,51.353 197.493,51.353 197.493,65.967 212.108,65.967 212.108,51.353 226.721,51.353 241.335,51.353    241.335,65.967 255.95,65.967 255.95,51.353 270.562,51.353 270.562,36.739 255.95,36.739 255.95,22.125 241.335,22.125    226.721,22.125 212.108,22.125 197.493,22.125 197.493,36.739 182.879,36.739 168.264,36.739 168.264,51.353 153.65,51.353    139.037,51.353 139.037,65.967 153.65,65.967 153.65,80.581 168.264,80.581 168.264,95.195 153.65,95.195 153.65,109.809    168.264,109.809  "/>
	<path style="fill:#64798A;" d="M22.116,22.118v102.325h102.326V22.118H22.116z M109.844,109.773H36.713V36.715h73.131V109.773z"/>
	<polygon style="fill:#64798A;" points="95.173,226.695 95.173,241.366 65.981,241.366 65.981,255.963 36.713,255.963    36.713,241.366 51.384,241.366 51.384,226.695 36.713,226.695 36.713,212.098 22.116,212.098 22.116,139.04 65.981,139.04    65.981,168.234 36.713,168.234 36.713,197.501 65.981,197.501 65.981,226.695  "/>
	<polygon style="fill:#64798A;" points="153.65,168.265 153.65,153.651 153.65,139.037 168.264,139.037 168.264,153.651    168.264,168.265 182.879,168.265 197.493,168.265 197.493,153.651 197.493,139.037 182.879,139.037 182.879,124.423    182.879,109.809 168.264,109.809 168.264,124.423 153.65,124.423 153.65,109.809 139.037,109.809 139.037,124.423 139.037,139.037    124.422,139.037 109.81,139.037 95.195,139.037 80.581,139.037 80.581,153.651 95.195,153.651 109.81,153.651 124.422,153.651    124.422,168.265 139.037,168.265  "/>
	<polygon style="fill:#64798A;" points="314.406,168.265 314.406,182.879 329.019,182.879 343.633,182.879 343.633,168.265    329.019,168.265  "/>
	<polygon style="fill:#64798A;" points="358.246,153.651 358.246,139.037 343.633,139.037 343.633,153.651 343.633,168.265    358.246,168.265 358.246,182.879 358.246,197.493 372.861,197.493 372.861,182.879 387.475,182.879 387.475,168.265    387.475,153.651 372.861,153.651  "/>
	<rect x="153.651" y="168.264" style="fill:#64798A;" width="14.612" height="14.612"/>
	<polygon style="fill:#64798A;" points="299.792,153.651 299.792,139.037 285.177,139.037 270.562,139.037 255.95,139.037    255.95,153.651 241.335,153.651 241.335,168.265 255.95,168.265 270.562,168.265 285.177,168.265 285.177,182.879 299.792,182.879    299.792,168.265  "/>
	<rect x="299.776" y="182.881" style="fill:#64798A;" width="14.612" height="14.612"/>
	<rect x="182.881" y="182.881" style="fill:#64798A;" width="14.612" height="14.612"/>
	<polygon style="fill:#64798A;" points="139.037,212.107 139.037,197.493 153.65,197.493 153.65,182.879 139.037,182.879    124.422,182.879 124.422,197.493 109.81,197.493 109.81,182.879 124.422,182.879 124.422,168.265 109.81,168.265 95.195,168.265    80.581,168.265 80.581,182.879 80.581,197.493 95.195,197.493 95.195,212.107 95.195,226.721 109.81,226.721 109.81,212.107    124.422,212.107 124.422,226.721 109.81,226.721 109.81,241.335 124.422,241.335 124.422,255.949 109.81,255.949 95.195,255.949    95.195,270.563 109.81,270.563 124.422,270.563 139.037,270.563 139.037,255.949 139.037,241.335 153.65,241.335 153.65,226.721    139.037,226.721  "/>
	<rect x="153.651" y="212.122" style="fill:#64798A;" width="14.612" height="14.612"/>
	<polygon style="fill:#64798A;" points="343.633,197.493 329.019,197.493 329.019,212.107 329.019,226.721 343.633,226.721    343.633,212.107  "/>
	<polygon style="fill:#64798A;" points="358.246,212.107 358.246,226.721 343.633,226.721 343.633,241.335 358.246,241.335    372.861,241.335 372.861,255.949 372.861,270.563 387.475,270.563 387.475,255.949 387.475,241.335 387.475,226.721    387.475,212.107 372.861,212.107  "/>
	<rect x="22.124" y="226.714" style="fill:#64798A;" width="14.612" height="14.612"/>
	<rect x="22.124" y="255.949" style="fill:#64798A;" width="14.612" height="14.612"/>
	<rect x="65.966" y="255.949" style="fill:#64798A;" width="14.612" height="14.612"/>
	<path style="fill:#64798A;" d="M22.116,285.156v102.325h102.326V285.156H22.116z M109.844,372.885H36.713v-73.058h73.131V372.885z"/>
	<rect x="285.184" y="285.184" style="fill:#64798A;" width="14.612" height="14.612"/>
	<polygon style="fill:#64798A;" points="358.246,285.177 343.633,285.177 343.633,299.791 358.246,299.791 372.861,299.791    372.861,314.405 358.246,314.405 358.246,329.019 372.861,329.019 387.475,329.019 387.475,314.405 387.475,299.791    387.475,285.177 372.861,285.177  "/>
	<polygon style="fill:#64798A;" points="197.493,314.405 197.493,299.791 182.879,299.791 168.264,299.791 168.264,314.405    182.879,314.405  "/>
	<polygon style="fill:#64798A;" points="168.232,314.424 168.232,329.02 139.039,329.02 139.039,270.559 153.635,270.559    153.635,314.424  "/>
	<rect x="241.357" y="329.011" style="fill:#64798A;" width="14.612" height="14.612"/>
	<rect x="372.838" y="343.654" style="fill:#64798A;" width="14.612" height="14.612"/>
	<path style="fill:#64798A;" d="M329.019,329.02v-43.865h14.596v-29.193h-43.791v-14.597h-14.671v-14.671h14.671v14.671h14.596   v-29.268h-14.596v-14.597h-29.267v-14.596h-58.46v14.596h-14.598v14.597h-14.596v14.597h-14.671v43.864h14.671v14.597h14.596   v-29.193h-14.596v-14.597h14.596v14.597h14.598v58.461h-14.598v14.597h-29.267v43.865h-14.596v-29.268h-14.596v43.864h73.058   v-14.596h14.596v14.596h14.671v-14.596h14.596v14.596h14.596v-43.864h-14.596v14.596h-43.864v-14.596h14.596v-29.194h14.671   v-29.268h-14.671v-43.79h14.671v-29.268h-14.671v-14.597h14.671v14.597h29.193v29.268h-29.193v14.597h14.596v14.596h-14.596v14.597   h14.596v43.865h43.864v43.865h-14.671v14.596h29.267v-14.596h14.598v-14.671h29.193V329.02H329.019z M197.499,372.885h-14.596   v-14.671h14.596V372.885z M314.421,314.424h-43.864v-43.865h43.864V314.424z"/>
	<polygon style="fill:#64798A;" points="358.246,387.475 372.861,387.475 387.475,387.475 387.475,372.861 372.861,372.861    372.861,358.247 358.246,358.247 358.246,372.861  "/>
</g>
<g>
</g>
<g>
</g>
<g>
</g>
<g>
</g>
<g>
</g>
<g>
</g>
<g>
</g>
<g>
</g>
<g>
</g>
<g>
</g>
<g>
</g>
<g>
</g>
<g>
</g>
<g>
</g>
<g>
</g>
</svg>
