<?xml version="1.0" encoding="iso-8859-1"?>
<!-- Generator: Adobe Illustrator 19.0.0, SVG Export Plug-In . SVG Version: 6.00 Build 0)  -->
<svg xmlns="http://www.w3.org/2000/svg" xmlns:xlink="http://www.w3.org/1999/xlink" version="1.1" id="Capa_1" x="0px" y="0px" viewBox="0 0 409.585 409.585" style="enable-background:new 0 0 409.585 409.585;" xml:space="preserve">
<path style="fill:#D5D6DB;" d="M82.13,337.035H67.236V117.581C67.236,52.747,119.983,0,184.817,0s117.581,52.747,117.581,117.581  V138.7h-14.894v-21.119c0-56.623-46.064-102.687-102.687-102.687S82.13,60.958,82.13,117.581V337.035z"/>
<g>
	<path style="fill:#2F4859;" d="M200.124,398.731v6.995c0,2.131,1.727,3.859,3.86,3.859h23.396c2.131,0,3.86-1.728,3.86-3.859   v-6.995H200.124z"/>
	<path style="fill:#2F4859;" d="M359.074,398.731v6.995c0,2.131,1.727,3.859,3.86,3.859h23.396c2.131,0,3.86-1.728,3.86-3.859   v-6.995H359.074z"/>
</g>
<path style="fill:#3A556A;" d="M295.16,122.828c-46.86,0-111.065,118.743-114.429,267.627c-0.153,6.703,5.345,12.199,12.05,12.199  h204.749c6.707,0,12.209-5.499,12.05-12.205C406.087,241.568,339.455,122.828,295.16,122.828z"/>
<path style="fill:#64798A;" d="M295.157,305.038c39.786,0,74.094-23.705,90.531-58.061  c-24.225-74.846-61.998-124.149-90.528-124.149c-30.064,0-67.247,48.925-90.942,123.283  C220.49,280.934,255.038,305.038,295.157,305.038z"/>
<path style="fill:#FCD462;" d="M345.385,318.292H244.928c-4.22,0-7.642,3.422-7.642,7.642v50.852c0,4.22,3.422,7.642,7.642,7.642  h100.457c4.22,0,7.642-3.421,7.642-7.642v-50.852C353.027,321.714,349.605,318.292,345.385,318.292z"/>
<circle style="fill:#FFFFFF;" cx="271.813" cy="351.378" r="21.033"/>
<path style="fill:#E1E6E9;" d="M271.827,330.326c-1.155,0-2.267,0.161-3.373,0.34v41.388c1.105,0.179,2.218,0.34,3.373,0.34  c1.156,0,2.269-0.161,3.374-0.34v-41.388C274.096,330.487,272.984,330.326,271.827,330.326z"/>
<circle style="fill:#E56353;" cx="271.813" cy="334.38" r="1.505"/>
<g>
	<ellipse style="fill:#27A2DB;" cx="290.33" cy="332.839" rx="2.442" ry="2.442"/>
	<ellipse style="fill:#27A2DB;" cx="253.333" cy="369.881" rx="2.442" ry="2.442"/>
	<ellipse style="fill:#27A2DB;" cx="290.348" cy="369.869" rx="2.442" ry="2.442"/>
	<ellipse style="fill:#27A2DB;" cx="253.321" cy="332.851" rx="2.442" ry="2.442"/>
	<circle style="fill:#27A2DB;" cx="297.976" cy="351.378" r="2.442"/>
	<circle style="fill:#27A2DB;" cx="245.665" cy="351.378" r="2.442"/>
	<circle style="fill:#27A2DB;" cx="271.813" cy="377.541" r="2.442"/>
	<circle style="fill:#27A2DB;" cx="271.813" cy="325.215" r="2.442"/>
</g>
<path style="fill:#E56353;" d="M344.816,326.128h-19.963c-1.254,0-2.273,1.018-2.273,2.273v4.627c0,1.255,1.018,2.273,2.273,2.273  h19.963c1.255,0,2.273-1.018,2.273-2.273v-4.627C347.089,327.146,346.071,326.128,344.816,326.128z"/>
<path style="fill:#27A2DB;" d="M344.816,340.754h-19.963c-1.254,0-2.273,1.018-2.273,2.273v4.627c0,1.255,1.018,2.273,2.273,2.273  h19.963c1.255,0,2.273-1.018,2.273-2.273v-4.627C347.089,341.771,346.071,340.754,344.816,340.754z"/>
<path style="fill:#44C4A1;" d="M344.816,355.379h-19.963c-1.254,0-2.273,1.018-2.273,2.273v4.627c0,1.255,1.018,2.273,2.273,2.273  h19.963c1.255,0,2.273-1.018,2.273-2.273v-4.627C347.089,356.397,346.071,355.379,344.816,355.379z"/>
<g>
	<circle style="fill:#3A556A;" cx="336.12" cy="225.16" r="11.305"/>
	<circle style="fill:#3A556A;" cx="253.791" cy="225.16" r="11.305"/>
</g>
<path style="fill:#EBF0F3;" d="M335.226,216.253h-80.548c-4.918,0-8.903,3.987-8.903,8.905c0,4.918,3.985,8.905,8.903,8.905h80.548  c4.918,0,8.905-3.987,8.905-8.905C344.131,220.24,340.144,216.253,335.226,216.253z"/>
<path style="fill:#3A556A;" d="M82.776,332.86h-16.19c-3.227,0-5.845,2.617-5.845,5.845v45.722h27.881v-45.722  C88.622,335.477,86.005,332.86,82.776,332.86z"/>
<path style="fill:#64798A;" d="M138.279,380.49c-1.242-3.256-4.363-5.408-7.849-5.408H18.93c-3.484,0-6.607,2.152-7.847,5.408  L0,409.585h149.362L138.279,380.49z"/>
<g>
</g>
<g>
</g>
<g>
</g>
<g>
</g>
<g>
</g>
<g>
</g>
<g>
</g>
<g>
</g>
<g>
</g>
<g>
</g>
<g>
</g>
<g>
</g>
<g>
</g>
<g>
</g>
<g>
</g>
</svg>
