<?xml version="1.0" encoding="iso-8859-1"?>
<!-- Generator: Adobe Illustrator 19.0.0, SVG Export Plug-In . SVG Version: 6.00 Build 0)  -->
<svg xmlns="http://www.w3.org/2000/svg" xmlns:xlink="http://www.w3.org/1999/xlink" version="1.1" id="Capa_1" x="0px" y="0px" viewBox="0 0 409.6 409.6" style="enable-background:new 0 0 409.6 409.6;" xml:space="preserve">
<path style="fill:#DC8744;" d="M342.826,28.164H66.774c-5.442,0-9.854,4.412-9.854,9.854v361.728c0,5.442,4.412,9.854,9.854,9.854  h276.053c5.443,0,9.854-4.412,9.854-9.854V38.018C352.68,32.576,348.269,28.164,342.826,28.164z"/>
<rect x="71.834" y="50.504" style="fill:#E1E6E9;" width="265.969" height="344.218"/>
<rect x="71.834" y="43.059" style="fill:#EBF0F3;" width="265.969" height="344.218"/>
<g>
	<path style="fill:#64798A;" d="M269.321,17.507h-45.903C222.769,7.743,214.729,0,204.8,0c-9.927,0-17.97,7.743-18.617,17.507   h-45.903c-5.349,0-9.685,4.336-9.685,9.685v33.212h148.411V27.192C279.006,21.843,274.669,17.507,269.321,17.507z"/>
	<path style="fill:#64798A;" d="M139.662,121.421h-36.764V84.654h36.764V121.421z M108.484,115.835h25.593V90.239h-25.593V115.835z"/>
	<rect x="154.368" y="99.313" style="fill:#64798A;" width="141.896" height="7.45"/>
	<path style="fill:#64798A;" d="M139.662,178.052h-36.764v-36.767h36.764V178.052z M108.484,172.467h25.593V146.87h-25.593V172.467z   "/>
	<rect x="154.368" y="155.945" style="fill:#64798A;" width="141.896" height="7.45"/>
	<path style="fill:#64798A;" d="M139.662,234.683h-36.764v-36.767h36.764V234.683z M108.484,229.098h25.593v-25.596h-25.593V229.098   z"/>
	<rect x="154.368" y="212.582" style="fill:#64798A;" width="141.896" height="7.45"/>
	<path style="fill:#64798A;" d="M139.662,291.314h-36.764v-36.767h36.764V291.314z M108.484,285.729h25.593v-25.596h-25.593V285.729   z"/>
	<rect x="154.368" y="269.21" style="fill:#64798A;" width="141.896" height="7.45"/>
	<path style="fill:#64798A;" d="M139.662,347.945h-36.764v-36.767h36.764V347.945z M108.484,342.36h25.593v-25.596h-25.593V342.36z"/>
	<rect x="154.368" y="325.837" style="fill:#64798A;" width="141.896" height="7.45"/>
</g>
<g>
</g>
<g>
</g>
<g>
</g>
<g>
</g>
<g>
</g>
<g>
</g>
<g>
</g>
<g>
</g>
<g>
</g>
<g>
</g>
<g>
</g>
<g>
</g>
<g>
</g>
<g>
</g>
<g>
</g>
</svg>
