<?xml version="1.0" encoding="iso-8859-1"?>
<!-- Generator: Adobe Illustrator 19.0.0, SVG Export Plug-In . SVG Version: 6.00 Build 0)  -->
<svg xmlns="http://www.w3.org/2000/svg" xmlns:xlink="http://www.w3.org/1999/xlink" version="1.1" id="Capa_1" x="0px" y="0px" viewBox="0 0 405.289 405.289" style="enable-background:new 0 0 405.289 405.289;" xml:space="preserve">
<rect y="129.014" style="fill:#EBF0F3;" width="363.674" height="194.452"/>
<rect y="129.014" style="fill:#44C4A1;" width="363.674" height="50.903"/>
<path style="fill:#E56353;" d="M86.83,167.716c6.958,26.261-16.056,49.586-42.03,42.672c-11.384-3.03-20.522-12.29-23.54-23.677  c-6.958-26.261,16.056-49.586,42.03-42.672C74.674,147.07,83.813,156.329,86.83,167.716z"/>
<g>
	<rect x="30.147" y="235.054" style="fill:#E1E6E9;" width="200.704" height="2.284"/>
	<rect x="30.147" y="265.877" style="fill:#E1E6E9;" width="200.704" height="2.284"/>
	<rect x="255.636" y="236.181" style="fill:#E1E6E9;" width="97.239" height="30.822"/>
</g>
<path style="fill:#64798A;" d="M241.678,304.487c-0.019,0-0.045,0-0.065,0c-1.627-0.02-3.138-0.724-4.139-1.945  c-0.207-0.254-0.374-0.535-0.497-0.829c-0.93-0.418-1.853-0.894-2.744-1.449c-0.827,0.294-1.653,0.581-2.479,0.881  c-1.046,0.359-2.208,0.202-3.099-0.489c-0.788-0.6-1.266-1.534-1.311-2.519l-16.672-0.209c-0.794-0.013-2.034-0.026-3.325-0.398  c-1.285,1.821-2.77,3.569-4.488,5.188c-1.33,1.259-3.422,1.188-4.668-0.163c-1.246-1.344-1.175-3.459,0.161-4.718  c1.73-1.638,3.183-3.452,4.391-5.351c-0.207-1.064-0.181-2.049-0.161-2.728c0.336-13.521,2.299-26.99,5.831-40.041  c0.426-1.566,1.853-2.552,3.506-2.447c1.601,0.157,2.854,1.455,2.983,3.074c0.665,8.849,1.362,17.998,0.026,27.068  c-0.588,4.033-1.75,8.96-3.984,13.834l16.814,0.209l0.006-0.104c-0.387-2.036-0.22-4.105,0.581-5.951  c0.646-1.481,2.221-2.297,3.816-1.899c1.556,0.385,2.615,1.847,2.512,3.465l-0.245,3.798c0.09,0.268,0.207,0.529,0.336,0.783  l4.287,0.052c10.699-3.485,21.624-6.467,32.588-8.901c1.563-0.359,3.106,0.457,3.739,1.925c0.394,0.907,0.355,1.919-0.039,2.767  c0.426-0.033,1.072,0.026,1.44,0.059l11.765,1.07c1.821,0.17,3.157,1.795,2.996,3.628c-0.161,1.84-1.847,3.152-3.59,3.028  l-11.758-1.07c-1.53-0.137-3.848-0.346-5.747-1.958c-0.633-0.542-1.143-1.22-1.504-1.984c-6.212,1.462-12.397,3.093-18.525,4.901  c-0.006,1.025-0.484,2.01-1.324,2.649l-2.583,1.958c0.245,1.044-0.019,2.153-0.723,2.969  C244.778,303.815,243.28,304.487,241.678,304.487z"/>
<g>
	<polygon style="fill:#DC8744;" points="365.954,112.153 358.768,108.253 361.652,102.826 358.541,101.138 324.326,165.526    327.436,167.214 355.884,113.679 363.07,117.58  "/>
	<path style="fill:#DC8744;" d="M403.507,90.083l-14.548-7.896c-1.932-1.049-4.637,0.243-6.041,2.885L305.84,230.125l21.544,11.693   l77.078-145.052C405.867,94.124,405.439,91.132,403.507,90.083z"/>
</g>
<polygon style="fill:#F6C358;" points="322.069,264.13 290.371,246.925 369.991,97.089 401.69,114.294 "/>
<path style="fill:#64798A;" d="M322.07,264.13l-31.699-17.205l-4.442,8.36l-0.731,24.474c2.82-1.494,5.855-1.775,8.366-0.412  c2.512,1.363,3.955,4.075,4.28,7.276l19.784-14.132L322.07,264.13z"/>
<path style="fill:#3A556A;" d="M293.563,279.347c-2.512-1.363-5.546-1.081-8.366,0.412l-0.338,11.305  c-0.07,2.362,1.935,3.451,3.845,2.087l9.139-6.529C297.518,283.422,296.075,280.71,293.563,279.347z"/>
<g>
</g>
<g>
</g>
<g>
</g>
<g>
</g>
<g>
</g>
<g>
</g>
<g>
</g>
<g>
</g>
<g>
</g>
<g>
</g>
<g>
</g>
<g>
</g>
<g>
</g>
<g>
</g>
<g>
</g>
</svg>
