<?xml version="1.0" encoding="iso-8859-1"?>
<!-- Generator: Adobe Illustrator 19.0.0, SVG Export Plug-In . SVG Version: 6.00 Build 0)  -->
<svg xmlns="http://www.w3.org/2000/svg" xmlns:xlink="http://www.w3.org/1999/xlink" version="1.1" id="Capa_1" x="0px" y="0px" viewBox="0 0 409.6 409.6" style="enable-background:new 0 0 409.6 409.6;" xml:space="preserve">
<path style="fill:#27A2DB;" d="M293.763,0H14.874C6.66,0,0,6.7,0,14.965v185.193c0,8.265,6.66,14.965,14.874,14.965h13.945v59.86  l59.496-59.86h205.448c8.215,0,14.874-6.7,14.874-14.965V14.965C308.637,6.7,301.977,0,293.763,0z"/>
<g>
	<rect x="32.097" y="34.836" style="fill:#2D93BA;" width="244.449" height="21.345"/>
	<rect x="32.097" y="94.5" style="fill:#2D93BA;" width="244.449" height="21.345"/>
	<rect x="32.097" y="154.163" style="fill:#2D93BA;" width="244.449" height="21.345"/>
</g>
<path style="fill:#FCD462;" d="M115.837,134.617h278.888c8.215,0,14.874,6.7,14.874,14.965v185.193  c0,8.265-6.66,14.965-14.874,14.965h-13.945v59.86l-59.496-59.86H115.837c-8.215,0-14.874-6.7-14.874-14.965V149.582  C100.963,141.317,107.623,134.617,115.837,134.617z"/>
<g>
	<rect x="133.059" y="169.426" style="fill:#DC8744;" width="244.449" height="21.345"/>
	<rect x="133.059" y="229.125" style="fill:#DC8744;" width="244.449" height="21.345"/>
	<rect x="133.059" y="288.824" style="fill:#DC8744;" width="244.449" height="21.345"/>
</g>
<g>
</g>
<g>
</g>
<g>
</g>
<g>
</g>
<g>
</g>
<g>
</g>
<g>
</g>
<g>
</g>
<g>
</g>
<g>
</g>
<g>
</g>
<g>
</g>
<g>
</g>
<g>
</g>
<g>
</g>
</svg>
