<?xml version="1.0" encoding="iso-8859-1"?>
<!-- Generator: Adobe Illustrator 19.0.0, SVG Export Plug-In . SVG Version: 6.00 Build 0)  -->
<svg xmlns="http://www.w3.org/2000/svg" xmlns:xlink="http://www.w3.org/1999/xlink" version="1.1" id="Capa_1" x="0px" y="0px" viewBox="0 0 409.61 409.61" style="enable-background:new 0 0 409.61 409.61;" xml:space="preserve">
<g>
	<circle style="fill:#3A556A;" cx="136.53" cy="375.654" r="6.973"/>
	<circle style="fill:#3A556A;" cx="273.055" cy="375.654" r="6.973"/>
	<circle style="fill:#3A556A;" cx="158.93" cy="402.637" r="6.973"/>
	<circle style="fill:#3A556A;" cx="250.665" cy="402.637" r="6.973"/>
	<rect x="136.714" y="362.803" style="fill:#3A556A;" width="2.586" height="15.242"/>
	<rect x="270.31" y="362.803" style="fill:#3A556A;" width="2.586" height="15.242"/>
	<rect x="158.295" y="387.533" style="fill:#3A556A;" width="2.586" height="15.242"/>
	<rect x="248.735" y="387.533" style="fill:#3A556A;" width="2.586" height="15.242"/>
	<rect x="194.012" y="286.193" style="fill:#3A556A;" width="21.591" height="73.324"/>
</g>
<rect x="188.836" y="184.576" style="fill:#64798A;" width="31.939" height="73.861"/>
<path style="fill:#F6C358;" d="M267.61,188.214c-26.377,17.041-99.234,17.041-125.61,0  c-34.407-22.229-58.154-128.978-32.189-160.661c30.106-36.737,159.882-36.737,189.988,0  C325.764,59.236,302.018,165.984,267.61,188.214z"/>
<path style="fill:#FCD462;" d="M312.624,263.317c-38.908-19.501-178.695-20.656-215.743,0c-7.464,4.161-3.845,17.175-1.485,23.603  c0.806,2.197,2.866,3.666,5.208,3.666h208.308c2.337,0,4.394-1.469,5.206-3.659C316.53,280.421,320.292,267.16,312.624,263.317z"/>
<path style="fill:#3A556A;" d="M93.783,281.801c0.513,1.909,1.088,3.69,1.613,5.118c0.806,2.197,2.866,3.666,5.208,3.666h208.308  c2.337,0,4.394-1.469,5.206-3.659c0.531-1.43,1.115-3.216,1.64-5.126H93.783z"/>
<g>
	<path style="fill:#64798A;" d="M269.657,356.104c-43.058-3.181-86.633-3.181-129.702,0c-3.227,0.238-5.647,3.091-5.386,6.316   c0.257,3.172,3.015,5.518,6.191,5.29c11.844-0.853,23.731-1.405,35.63-1.793c-9.192,6.924-16.028,14.809-19.923,19.845   c-2.097,2.712-1.397,6.6,1.489,8.448c2.534,1.621,5.856,1.082,7.699-1.295c5.674-7.312,18.805-22.014,36.192-27.501   c1.999,0,3.916,0,5.912,0c17.319,5.469,30.501,20.196,36.199,27.513c1.851,2.374,5.174,2.908,7.707,1.284   c2.898-1.859,3.554-5.78,1.446-8.501c-3.902-5.037-10.727-12.893-19.891-19.794c11.897,0.387,23.782,0.94,35.626,1.793   c3.176,0.229,5.939-2.119,6.194-5.293C275.301,359.191,272.884,356.343,269.657,356.104z"/>
	<path style="fill:#64798A;" d="M318.997,298.338h-24.944v-7.752h24.944c3.77,0,6.836-3.066,6.836-6.832v-71.131h7.752v71.131   C333.585,291.797,327.044,298.338,318.997,298.338z"/>
</g>
<path style="fill:#F6C358;" d="M339.271,207.148h-19.123c-0.873,0-1.579,0.707-1.579,1.578v8.924c0,0.872,0.707,1.578,1.579,1.578  h19.123c0.873,0,1.579-0.707,1.579-1.578v-8.924C340.85,207.854,340.143,207.148,339.271,207.148z"/>
<path style="fill:#64798A;" d="M90.613,298.338h24.944v-7.752H90.613c-3.77,0-6.836-3.066-6.836-6.832v-71.131h-7.752v71.131  C76.025,291.797,82.566,298.338,90.613,298.338z"/>
<path style="fill:#F6C358;" d="M70.339,207.148h19.123c0.873,0,1.579,0.707,1.579,1.578v8.924c0,0.872-0.707,1.578-1.579,1.578  H70.339c-0.873,0-1.579-0.707-1.579-1.578v-8.924C68.76,207.854,69.467,207.148,70.339,207.148z"/>
<g>
</g>
<g>
</g>
<g>
</g>
<g>
</g>
<g>
</g>
<g>
</g>
<g>
</g>
<g>
</g>
<g>
</g>
<g>
</g>
<g>
</g>
<g>
</g>
<g>
</g>
<g>
</g>
<g>
</g>
</svg>
