<?xml version="1.0" encoding="iso-8859-1"?>
<!-- Generator: Adobe Illustrator 19.0.0, SVG Export Plug-In . SVG Version: 6.00 Build 0)  -->
<svg xmlns="http://www.w3.org/2000/svg" xmlns:xlink="http://www.w3.org/1999/xlink" version="1.1" id="Capa_1" x="0px" y="0px" viewBox="0 0 409.6 409.6" style="enable-background:new 0 0 409.6 409.6;" xml:space="preserve">
<polygon style="fill:#44C4A1;" points="321.812,288.893 32.195,288.893 96.986,212.648 386.604,212.648 "/>
<g>
	<path style="fill:#3EA69B;" d="M105.59,218.76l-54.401,64.019H313.21l54.401-64.019H105.59z M312.67,272.59   c-7.62,0-16.124,2.737-18.993,6.113H77.648c2.869-3.376-0.982-6.113-8.603-6.113l37.084-43.64c7.62,0,16.124-2.737,18.993-6.113   h216.029c-2.869,3.376,0.982,6.113,8.603,6.113L312.67,272.59z"/>
	<path style="fill:#3EA69B;" d="M190.416,270.352l2.931-3.449c-9.369-0.442-16.658-2.157-21.853-5.152l11.276-4.11   c4.016,2.299,8.993,3.672,14.955,4.11l7.789-9.166c-7.313-0.85-12.249-1.965-14.8-3.353c-2.555-1.384-2.673-3.441-0.356-6.167   c2.313-2.722,6.351-4.952,12.125-6.682c5.777-1.734,12.178-2.68,19.21-2.837l2.006-2.361h6.82l-2.048,2.411   c7.606,0.25,13.992,1.434,19.17,3.541l-10.628,4.348c-3.437-1.48-7.735-2.395-12.916-2.741l-7.547,8.881h0.321   c7.452,0.85,12.476,2.003,15.083,3.449c2.612,1.449,2.743,3.552,0.4,6.309c-2.342,2.757-6.451,4.998-12.333,6.732   c-5.878,1.73-12.504,2.676-19.892,2.833l-2.891,3.403H190.416z M208.808,239.856c-2.415,0.707-4.069,1.592-4.964,2.645   c-0.898,1.057-0.893,1.888,0.008,2.503c0.892,0.615,3.096,1.207,6.598,1.772l6.946-8.174   C214.086,238.73,211.223,239.149,208.808,239.856z M213.653,260.572c2.601-0.723,4.377-1.638,5.314-2.741   c0.934-1.1,0.898-1.976-0.115-2.622c-1.025-0.642-3.424-1.25-7.201-1.819l-7.227,8.504   C207.968,261.736,211.039,261.298,213.653,260.572z"/>
	<path style="fill:#3EA69B;" d="M318.569,250.77c-2.154,2.535-8.538,4.59-14.259,4.59s-8.613-2.055-6.459-4.59   c2.154-2.535,8.538-4.59,14.259-4.59C317.832,246.18,320.723,248.235,318.569,250.77z"/>
	<path style="fill:#3EA69B;" d="M120.95,250.77c-2.154,2.535-8.538,4.59-14.259,4.59s-8.613-2.055-6.459-4.59   s8.538-4.59,14.259-4.59C120.212,246.18,123.104,248.235,120.95,250.77z"/>
	<rect x="32.195" y="288.913" style="fill:#3EA69B;" width="289.638" height="27.397"/>
</g>
<polygon style="fill:#31978C;" points="386.604,212.648 386.604,239.236 321.825,316.292 321.825,288.893 "/>
<polygon style="fill:#44C4A1;" points="312.614,249.107 22.996,249.107 87.788,172.862 377.405,172.862 "/>
<g>
	<path style="fill:#3EA69B;" d="M96.392,178.974L41.99,242.993h262.022l54.401-64.019H96.392z M303.472,232.804   c-7.62,0-16.124,2.737-18.993,6.113H68.45c2.869-3.376-0.982-6.113-8.603-6.113l37.084-43.64c7.62,0,16.124-2.737,18.993-6.113   h216.029c-2.869,3.376,0.982,6.113,8.603,6.113L303.472,232.804z"/>
	<path style="fill:#3EA69B;" d="M181.218,230.566l2.931-3.449c-9.369-0.442-16.658-2.157-21.853-5.152l11.276-4.11   c4.016,2.299,8.993,3.672,14.955,4.11l7.789-9.166c-7.313-0.85-12.249-1.965-14.8-3.353c-2.555-1.384-2.673-3.441-0.356-6.167   c2.313-2.722,6.351-4.952,12.125-6.682c5.777-1.734,12.178-2.68,19.21-2.837l2.006-2.361h6.82l-2.048,2.411   c7.606,0.25,13.992,1.434,19.17,3.541l-10.628,4.348c-3.436-1.48-7.735-2.395-12.916-2.741l-7.547,8.881h0.321   c7.452,0.85,12.476,2.003,15.083,3.449c2.612,1.449,2.743,3.552,0.4,6.309c-2.343,2.757-6.451,4.998-12.333,6.732   c-5.878,1.73-12.504,2.676-19.892,2.834l-2.891,3.403H181.218z M199.609,200.071c-2.415,0.707-4.069,1.592-4.964,2.645   c-0.898,1.057-0.893,1.888,0.008,2.503c0.892,0.615,3.096,1.207,6.598,1.772l6.946-8.174   C204.888,198.944,202.024,199.363,199.609,200.071z M204.454,220.786c2.601-0.723,4.377-1.638,5.314-2.741   c0.934-1.1,0.898-1.976-0.115-2.622c-1.025-0.642-3.424-1.25-7.201-1.819l-7.227,8.504   C198.77,221.951,201.841,221.512,204.454,220.786z"/>
	<path style="fill:#3EA69B;" d="M309.371,210.984c-2.154,2.535-8.538,4.59-14.259,4.59c-5.721,0-8.613-2.055-6.459-4.59   c2.154-2.535,8.538-4.59,14.259-4.59S311.525,208.449,309.371,210.984z"/>
	<path style="fill:#3EA69B;" d="M111.751,210.984c-2.154,2.535-8.538,4.59-14.259,4.59s-8.613-2.055-6.459-4.59   s8.538-4.59,14.259-4.59C111.014,206.394,113.905,208.449,111.751,210.984z"/>
	<rect x="22.994" y="249.105" style="fill:#3EA69B;" width="289.638" height="27.397"/>
</g>
<polygon style="fill:#31978C;" points="377.405,172.862 377.405,199.45 312.627,276.507 312.627,249.107 "/>
<polygon style="fill:#44C4A1;" points="289.618,209.321 0,209.321 64.791,133.076 354.409,133.076 "/>
<g>
	<path style="fill:#3EA69B;" d="M73.395,139.188l-54.401,64.019h262.022l54.401-64.019H73.395z M280.476,193.018   c-7.62,0-16.124,2.737-18.993,6.114H45.454c2.869-3.376-0.982-6.114-8.603-6.114l37.084-43.64c7.62,0,16.124-2.737,18.993-6.113   h216.029c-2.869,3.376,0.982,6.113,8.603,6.113L280.476,193.018z"/>
	<path style="fill:#3EA69B;" d="M158.222,190.781l2.931-3.449c-9.369-0.442-16.658-2.157-21.853-5.152l11.276-4.11   c4.016,2.299,8.993,3.672,14.955,4.11l7.789-9.166c-7.313-0.85-12.249-1.965-14.8-3.353c-2.555-1.384-2.673-3.441-0.356-6.167   c2.313-2.722,6.351-4.952,12.125-6.682c5.777-1.734,12.178-2.68,19.21-2.837l2.006-2.361h6.82l-2.048,2.411   c7.606,0.25,13.992,1.434,19.17,3.541l-10.628,4.348c-3.436-1.48-7.735-2.395-12.916-2.741l-7.547,8.881h0.321   c7.452,0.85,12.476,2.003,15.083,3.449c2.612,1.449,2.743,3.552,0.4,6.309c-2.342,2.757-6.451,4.998-12.333,6.732   c-5.878,1.73-12.504,2.676-19.892,2.834l-2.891,3.403H158.222z M176.613,160.285c-2.415,0.707-4.069,1.592-4.964,2.645   c-0.898,1.057-0.893,1.888,0.008,2.503c0.892,0.615,3.096,1.207,6.598,1.772l6.946-8.174   C181.892,159.158,179.028,159.577,176.613,160.285z M181.458,181c2.601-0.723,4.377-1.638,5.314-2.741   c0.934-1.1,0.898-1.976-0.115-2.622c-1.025-0.642-3.424-1.25-7.201-1.819l-7.227,8.504   C175.774,182.165,178.845,181.726,181.458,181z"/>
	<path style="fill:#3EA69B;" d="M286.374,171.198c-2.154,2.535-8.538,4.59-14.259,4.59c-5.721,0-8.613-2.055-6.459-4.59   c2.154-2.535,8.538-4.59,14.259-4.59C285.637,166.608,288.529,168.663,286.374,171.198z"/>
	<path style="fill:#3EA69B;" d="M88.755,171.198c-2.154,2.535-8.538,4.59-14.259,4.59c-5.721,0-8.613-2.055-6.459-4.59   c2.154-2.535,8.538-4.59,14.259-4.59S90.909,168.663,88.755,171.198z"/>
	<rect y="209.322" style="fill:#3EA69B;" width="289.638" height="27.397"/>
</g>
<polygon style="fill:#31978C;" points="354.409,133.076 354.409,159.664 289.63,236.721 289.63,209.321 "/>
<polygon style="fill:#44C4A1;" points="344.809,169.536 55.191,169.536 119.982,93.29 409.6,93.29 "/>
<g>
	<path style="fill:#3EA69B;" d="M128.586,99.403l-54.401,64.019h262.022l54.401-64.019H128.586z M335.667,153.232   c-7.62,0-16.124,2.737-18.993,6.113H100.645c2.869-3.376-0.982-6.113-8.603-6.113l37.084-43.64c7.62,0,16.124-2.737,18.993-6.114   h216.029c-2.869,3.376,0.982,6.114,8.603,6.114L335.667,153.232z"/>
	<path style="fill:#3EA69B;" d="M213.413,150.995l2.931-3.449c-9.369-0.442-16.658-2.157-21.853-5.152l11.276-4.11   c4.016,2.299,8.993,3.672,14.955,4.11l7.789-9.166c-7.313-0.85-12.249-1.965-14.8-3.353c-2.555-1.384-2.673-3.441-0.356-6.167   c2.313-2.722,6.351-4.952,12.125-6.682c5.777-1.734,12.178-2.68,19.21-2.837l2.006-2.361h6.82l-2.048,2.411   c7.606,0.25,13.992,1.434,19.17,3.541l-10.628,4.348c-3.436-1.48-7.735-2.395-12.916-2.741l-7.547,8.881h0.321   c7.452,0.85,12.476,2.003,15.083,3.449c2.612,1.449,2.743,3.552,0.4,6.309c-2.342,2.757-6.451,4.998-12.333,6.732   c-5.878,1.73-12.504,2.676-19.892,2.834l-2.891,3.403H213.413z M231.804,120.499c-2.415,0.707-4.069,1.592-4.964,2.645   c-0.898,1.057-0.893,1.888,0.008,2.503c0.892,0.615,3.096,1.207,6.598,1.772l6.946-8.174   C237.083,119.372,234.219,119.791,231.804,120.499z M236.649,141.214c2.601-0.723,4.377-1.638,5.314-2.741   c0.934-1.1,0.898-1.976-0.115-2.622c-1.025-0.642-3.424-1.25-7.201-1.819l-7.227,8.504   C230.965,142.379,234.036,141.941,236.649,141.214z"/>
	<path style="fill:#3EA69B;" d="M341.565,131.412c-2.154,2.535-8.538,4.59-14.259,4.59c-5.721,0-8.613-2.055-6.459-4.59   c2.154-2.535,8.538-4.59,14.259-4.59C340.828,126.822,343.719,128.877,341.565,131.412z"/>
	<path style="fill:#3EA69B;" d="M143.946,131.412c-2.154,2.535-8.538,4.59-14.259,4.59c-5.721,0-8.613-2.055-6.459-4.59   s8.538-4.59,14.259-4.59S146.1,128.877,143.946,131.412z"/>
	<rect x="55.188" y="169.514" style="fill:#3EA69B;" width="289.638" height="27.397"/>
</g>
<polygon style="fill:#31978C;" points="409.6,93.29 409.6,119.878 344.821,196.935 344.821,169.536 "/>
<g>
</g>
<g>
</g>
<g>
</g>
<g>
</g>
<g>
</g>
<g>
</g>
<g>
</g>
<g>
</g>
<g>
</g>
<g>
</g>
<g>
</g>
<g>
</g>
<g>
</g>
<g>
</g>
<g>
</g>
</svg>
