<?xml version="1.0" encoding="iso-8859-1"?>
<!-- Generator: Adobe Illustrator 19.0.0, SVG Export Plug-In . SVG Version: 6.00 Build 0)  -->
<svg xmlns="http://www.w3.org/2000/svg" xmlns:xlink="http://www.w3.org/1999/xlink" version="1.1" id="Capa_1" x="0px" y="0px" viewBox="0 0 409.591 409.591" style="enable-background:new 0 0 409.591 409.591;" xml:space="preserve">
<rect y="66.248" style="fill:#FFFFFF;" width="409.585" height="277.094"/>
<polygon style="fill:#27A2DB;" points="404.216,80.87 394.54,80.87 399.915,66.25 409.591,66.25 "/>
<polygon style="fill:#E56353;" points="383.451,80.87 373.775,80.87 379.15,66.25 388.827,66.25 "/>
<polygon style="fill:#27A2DB;" points="362.686,80.87 353.01,80.87 358.386,66.25 368.062,66.25 "/>
<polygon style="fill:#E56353;" points="341.921,80.87 332.245,80.87 337.621,66.25 347.297,66.25 "/>
<polygon style="fill:#27A2DB;" points="321.157,80.87 311.481,80.87 316.856,66.25 326.532,66.25 "/>
<polygon style="fill:#E56353;" points="300.392,80.87 290.716,80.87 296.091,66.25 305.767,66.25 "/>
<polygon style="fill:#27A2DB;" points="279.627,80.87 269.951,80.87 275.326,66.25 285.003,66.25 "/>
<polygon style="fill:#E56353;" points="258.862,80.87 249.186,80.87 254.562,66.25 264.238,66.25 "/>
<polygon style="fill:#27A2DB;" points="238.098,80.87 228.421,80.87 233.797,66.25 243.473,66.25 "/>
<polygon style="fill:#E56353;" points="217.333,80.87 207.657,80.87 213.032,66.25 222.708,66.25 "/>
<polygon style="fill:#27A2DB;" points="196.568,80.87 186.892,80.87 192.267,66.25 201.943,66.25 "/>
<polygon style="fill:#E56353;" points="175.803,80.87 166.127,80.87 171.502,66.25 181.179,66.25 "/>
<polygon style="fill:#27A2DB;" points="155.038,80.87 145.362,80.87 150.738,66.25 160.414,66.25 "/>
<polygon style="fill:#E56353;" points="134.274,80.87 124.597,80.87 129.973,66.25 139.649,66.25 "/>
<polygon style="fill:#27A2DB;" points="113.509,80.87 103.833,80.87 109.208,66.25 118.884,66.25 "/>
<polygon style="fill:#E56353;" points="92.744,80.87 83.068,80.87 88.443,66.25 98.119,66.25 "/>
<polygon style="fill:#27A2DB;" points="71.979,80.87 62.303,80.87 67.679,66.25 77.355,66.25 "/>
<polygon style="fill:#E56353;" points="51.214,80.87 41.538,80.87 46.914,66.25 56.59,66.25 "/>
<polygon style="fill:#27A2DB;" points="30.45,80.87 20.773,80.87 26.149,66.25 35.825,66.25 "/>
<polygon style="fill:#E56353;" points="9.685,80.87 0.009,80.87 5.384,66.25 15.06,66.25 "/>
<polygon style="fill:#27A2DB;" points="404.216,343.321 394.54,343.321 399.915,328.701 409.591,328.701 "/>
<polygon style="fill:#E56353;" points="383.451,343.321 373.775,343.321 379.15,328.701 388.827,328.701 "/>
<polygon style="fill:#27A2DB;" points="362.686,343.321 353.01,343.321 358.386,328.701 368.062,328.701 "/>
<polygon style="fill:#E56353;" points="341.921,343.321 332.245,343.321 337.621,328.701 347.297,328.701 "/>
<polygon style="fill:#27A2DB;" points="321.157,343.321 311.481,343.321 316.856,328.701 326.532,328.701 "/>
<polygon style="fill:#E56353;" points="300.392,343.321 290.716,343.321 296.091,328.701 305.767,328.701 "/>
<polygon style="fill:#27A2DB;" points="279.627,343.321 269.951,343.321 275.326,328.701 285.003,328.701 "/>
<polygon style="fill:#E56353;" points="258.862,343.321 249.186,343.321 254.562,328.701 264.238,328.701 "/>
<polygon style="fill:#27A2DB;" points="238.098,343.321 228.421,343.321 233.797,328.701 243.473,328.701 "/>
<polygon style="fill:#E56353;" points="217.333,343.321 207.657,343.321 213.032,328.701 222.708,328.701 "/>
<polygon style="fill:#27A2DB;" points="196.568,343.321 186.892,343.321 192.267,328.701 201.943,328.701 "/>
<polygon style="fill:#E56353;" points="175.803,343.321 166.127,343.321 171.502,328.701 181.179,328.701 "/>
<polygon style="fill:#27A2DB;" points="155.038,343.321 145.362,343.321 150.738,328.701 160.414,328.701 "/>
<polygon style="fill:#E56353;" points="134.274,343.321 124.597,343.321 129.973,328.701 139.649,328.701 "/>
<polygon style="fill:#27A2DB;" points="113.509,343.321 103.833,343.321 109.208,328.701 118.884,328.701 "/>
<polygon style="fill:#E56353;" points="92.744,343.321 83.068,343.321 88.443,328.701 98.119,328.701 "/>
<polygon style="fill:#27A2DB;" points="71.979,343.321 62.303,343.321 67.679,328.701 77.355,328.701 "/>
<polygon style="fill:#E56353;" points="51.214,343.321 41.538,343.321 46.914,328.701 56.59,328.701 "/>
<polygon style="fill:#27A2DB;" points="30.45,343.321 20.773,343.321 26.149,328.701 35.825,328.701 "/>
<polygon style="fill:#E56353;" points="9.685,343.321 0.009,343.321 5.384,328.701 15.06,328.701 "/>
<polygon style="fill:#27A2DB;" points="409.591,86.224 409.591,95.9 394.971,90.525 394.971,80.848 "/>
<polygon style="fill:#E56353;" points="409.591,106.989 409.591,116.665 394.971,111.289 394.971,101.613 "/>
<polygon style="fill:#27A2DB;" points="409.591,127.754 409.591,137.43 394.971,132.054 394.971,122.378 "/>
<polygon style="fill:#E56353;" points="409.591,148.518 409.591,158.194 394.971,152.819 394.971,143.143 "/>
<polygon style="fill:#27A2DB;" points="409.591,169.283 409.591,178.959 394.971,173.584 394.971,163.908 "/>
<polygon style="fill:#E56353;" points="409.591,190.048 409.591,199.724 394.971,194.349 394.971,184.672 "/>
<polygon style="fill:#27A2DB;" points="409.591,210.813 409.591,220.489 394.971,215.113 394.971,205.437 "/>
<polygon style="fill:#E56353;" points="409.591,231.578 409.591,241.254 394.971,235.878 394.971,226.202 "/>
<polygon style="fill:#27A2DB;" points="409.591,252.342 409.591,262.018 394.971,256.643 394.971,246.967 "/>
<polygon style="fill:#E56353;" points="409.591,273.107 409.591,282.783 394.971,277.408 394.971,267.732 "/>
<polygon style="fill:#27A2DB;" points="409.591,293.872 409.591,303.548 394.971,298.173 394.971,288.496 "/>
<polygon style="fill:#E56353;" points="409.591,314.637 409.591,324.313 394.971,318.937 394.971,309.261 "/>
<polygon style="fill:#27A2DB;" points="0.009,86.224 0.009,95.9 14.629,90.525 14.629,80.848 "/>
<polygon style="fill:#E56353;" points="0.009,106.989 0.009,116.665 14.629,111.289 14.629,101.613 "/>
<polygon style="fill:#27A2DB;" points="0.009,127.754 0.009,137.43 14.629,132.054 14.629,122.378 "/>
<polygon style="fill:#E56353;" points="0.009,148.518 0.009,158.194 14.629,152.819 14.629,143.143 "/>
<polygon style="fill:#27A2DB;" points="0.009,169.283 0.009,178.959 14.629,173.584 14.629,163.908 "/>
<polygon style="fill:#E56353;" points="0.009,190.048 0.009,199.724 14.629,194.349 14.629,184.672 "/>
<polygon style="fill:#27A2DB;" points="0.009,210.813 0.009,220.489 14.629,215.113 14.629,205.437 "/>
<polygon style="fill:#E56353;" points="0.009,231.578 0.009,241.254 14.629,235.878 14.629,226.202 "/>
<polygon style="fill:#27A2DB;" points="0.009,252.342 0.009,262.018 14.629,256.643 14.629,246.967 "/>
<polygon style="fill:#E56353;" points="0.009,273.107 0.009,282.783 14.629,277.408 14.629,267.732 "/>
<polygon style="fill:#27A2DB;" points="0.009,293.872 0.009,303.548 14.629,298.173 14.629,288.496 "/>
<polygon style="fill:#E56353;" points="0.009,314.637 0.009,324.313 14.629,318.937 14.629,309.261 "/>
<rect x="32.835" y="103.563" style="fill:#27A2DB;" width="66.714" height="11.172"/>
<g>
	<rect x="32.835" y="131.846" style="fill:#64798A;" width="79.764" height="11.172"/>
	<rect x="32.835" y="160.139" style="fill:#64798A;" width="133.427" height="11.172"/>
</g>
<rect x="239.068" y="247.077" style="fill:#E56353;" width="110.899" height="11.172"/>
<g>
	<rect x="239.068" y="275.385" style="fill:#64798A;" width="79.764" height="11.172"/>
	<rect x="239.068" y="303.653" style="fill:#64798A;" width="133.427" height="11.172"/>
</g>
<path style="fill:#44C4A1;" d="M370.97,103.584v-4.173h-2.389c0,3.959-3.21,7.168-7.169,7.168c-3.957,0-7.167-3.209-7.167-7.168  c0,3.959-3.21,7.168-7.169,7.168c-3.959,0-7.167-3.209-7.167-7.168c0,3.959-3.21,7.168-7.169,7.168  c-3.959,0-7.169-3.209-7.169-7.168c0,3.959-3.208,7.168-7.167,7.168s-7.169-3.209-7.169-7.168c0,3.959-3.21,7.168-7.167,7.168  c-3.959,0-7.169-3.209-7.169-7.168h-2.39v4.173c3.959,0,7.169,2.86,7.169,6.387c0,3.527-3.21,6.387-7.169,6.387  c3.959,0,7.169,2.86,7.169,6.387c0,3.527-3.21,6.387-7.169,6.387c3.959,0,7.169,2.86,7.169,6.387c0,3.528-3.21,6.387-7.169,6.387  c3.959,0,7.169,2.86,7.169,6.387c0,3.528-3.21,6.387-7.169,6.387c3.959,0,7.169,2.859,7.169,6.387c0,3.527-3.21,6.387-7.169,6.387  c3.959,0,7.169,2.86,7.169,6.387c0,3.527-3.21,6.387-7.169,6.387c3.959,0,7.169,2.86,7.169,6.387c0,3.528-3.21,6.387-7.169,6.387  v4.174h2.39c0-3.959,3.21-7.168,7.169-7.168c3.957,0,7.167,3.209,7.167,7.168c0-3.959,3.21-7.168,7.169-7.168  s7.167,3.209,7.167,7.168c0-3.959,3.21-7.168,7.169-7.168c3.959,0,7.169,3.209,7.169,7.168c0-3.959,3.208-7.168,7.167-7.168  c3.959,0,7.169,3.209,7.169,7.168c0-3.959,3.21-7.168,7.167-7.168c3.959,0,7.169,3.209,7.169,7.168h2.389v-4.174  c-3.959,0-7.169-2.859-7.169-6.387c0-3.527,3.21-6.387,7.169-6.387c-3.959,0-7.169-2.86-7.169-6.387c0-3.527,3.21-6.387,7.169-6.387  c-3.959,0-7.169-2.86-7.169-6.387c0-3.528,3.21-6.387,7.169-6.387c-3.959,0-7.169-2.86-7.169-6.387c0-3.527,3.21-6.387,7.169-6.387  c-3.959,0-7.169-2.859-7.169-6.387c0-3.527,3.21-6.387,7.169-6.387c-3.959,0-7.169-2.86-7.169-6.387c0-3.527,3.21-6.387,7.169-6.387  c-3.959,0-7.169-2.86-7.169-6.387C363.801,106.444,367.011,103.584,370.97,103.584z"/>
<g>
</g>
<g>
</g>
<g>
</g>
<g>
</g>
<g>
</g>
<g>
</g>
<g>
</g>
<g>
</g>
<g>
</g>
<g>
</g>
<g>
</g>
<g>
</g>
<g>
</g>
<g>
</g>
<g>
</g>
</svg>
