<?xml version="1.0" encoding="iso-8859-1"?>
<!-- Generator: Adobe Illustrator 19.0.0, SVG Export Plug-In . SVG Version: 6.00 Build 0)  -->
<svg xmlns="http://www.w3.org/2000/svg" xmlns:xlink="http://www.w3.org/1999/xlink" version="1.1" id="Capa_1" x="0px" y="0px" viewBox="0 0 409.615 409.615" style="enable-background:new 0 0 409.615 409.615;" xml:space="preserve">
<path style="fill:#44C4A1;" d="M303.957,167.98c45.471,0,85.118,25.324,105.643,62.591V33.207c0-9.803-7.946-17.749-17.749-17.749  H17.748C7.946,15.458,0,23.404,0,33.207v233.349c0,9.802,7.946,17.749,17.748,17.749h165.891  C185.883,219.803,238.919,167.98,303.957,167.98z"/>
<path style="fill:#FCD462;" d="M80.719,65.143H38.515c-4.152,0-7.518,3.366-7.518,7.519v42.204c0,4.152,3.366,7.519,7.518,7.519  h42.204c4.153,0,7.52-3.366,7.52-7.519V72.662C88.239,68.51,84.872,65.143,80.719,65.143z"/>
<g>
	<rect x="30.976" y="149.867" style="fill:#EBF0F3;" width="122.245" height="15.206"/>
	<rect x="30.976" y="196.254" style="fill:#EBF0F3;" width="150.38" height="15.206"/>
</g>
<g>
	<rect x="30.976" y="242.334" style="fill:#3A556A;" width="61.123" height="15.206"/>
	<rect x="124.621" y="242.334" style="fill:#3A556A;" width="61.123" height="15.206"/>
	<rect x="218.245" y="242.334" style="fill:#3A556A;" width="61.123" height="15.206"/>
	<rect x="311.869" y="242.334" style="fill:#3A556A;" width="61.123" height="15.206"/>
</g>
<circle style="fill:#FCD462;" cx="358.554" cy="68.782" r="32.625"/>
<circle style="fill:#EBF0F3;" cx="314.112" cy="68.782" r="32.625"/>
<path style="fill:#3EA69B;" d="M409.6,266.556v-35.984c-20.525-37.268-60.172-62.591-105.643-62.591  c-65.038,0-118.075,51.823-120.318,116.324h208.212C401.654,284.304,409.6,276.358,409.6,266.556z"/>
<circle style="fill:#EBF0F3;" cx="303.974" cy="288.517" r="105.641"/>
<path style="fill:#64798A;" d="M364.22,228.938v64.923c0,0-5.76,57.791-60.261,71.69c-54.499-13.899-60.259-71.69-60.259-71.69  v-64.923c45.08,3.566,60.259-17.466,60.259-17.466S319.14,232.504,364.22,228.938z"/>
<path style="fill:#FFFFFF;" d="M299.666,286.479v-49.015c-8.901,4.665-21.199,8.839-37.675,9.907v39.108H299.666z"/>
<path style="fill:#E56353;" d="M308.257,286.479h37.675v-39.108c-16.476-1.068-28.774-5.242-37.675-9.907V286.479z"/>
<path style="fill:#FFFFFF;" d="M308.257,295.07v49.724c28.004-11.861,35.545-40.376,37.282-49.724H308.257z"/>
<path style="fill:#E56353;" d="M299.666,295.07h-37.278c1.764,9.472,9.334,37.886,37.278,49.724V295.07z"/>
<g>
</g>
<g>
</g>
<g>
</g>
<g>
</g>
<g>
</g>
<g>
</g>
<g>
</g>
<g>
</g>
<g>
</g>
<g>
</g>
<g>
</g>
<g>
</g>
<g>
</g>
<g>
</g>
<g>
</g>
</svg>
