<?xml version="1.0" encoding="iso-8859-1"?>
<!-- Generator: Adobe Illustrator 19.0.0, SVG Export Plug-In . SVG Version: 6.00 Build 0)  -->
<svg xmlns="http://www.w3.org/2000/svg" xmlns:xlink="http://www.w3.org/1999/xlink" version="1.1" id="Capa_1" x="0px" y="0px" viewBox="0 0 409.6 409.6" style="enable-background:new 0 0 409.6 409.6;" xml:space="preserve">
<path style="fill:#D5D6DB;" d="M254.388,152.962c-10.04,12.776-14.028,29.286-10.928,45.236l23.286,119.814l19.002-3.693  L254.388,152.962z"/>
<path style="fill:#3A556A;" d="M311.173,409.177c12.418-2.414,20.556-14.493,18.142-26.912l-1.665-8.568  c-3.145-16.181-18.863-26.783-35.031-23.641l-1.862,0.362l-5.303-37.632c-0.868-5.407-6.037-9.024-11.409-7.98  c-5.373,1.044-8.822,6.337-7.59,11.673l17.565,73.245l0.252,1.296C286.685,403.438,298.754,411.59,311.173,409.177z   M308.728,396.595c-5.486,1.066-10.808-2.535-11.874-8.021l-0.252-1.296l-3.84-24.193l2.303-0.447  c9.235-1.795,18.206,4.257,20.004,13.504l1.665,8.568C317.799,390.196,314.213,395.528,308.728,396.595z"/>
<path style="fill:#F6C358;" d="M22.342,0c0,12.339-10.003,22.342-22.342,22.342v228.017c12.339,0,22.342,10.003,22.342,22.342  h255.175V0H22.342z"/>
<path style="fill:#31978C;" d="M387.258,0H277.516v272.701h109.742c0-12.339,10.004-22.342,22.342-22.342V22.342  C397.262,22.342,387.258,12.339,387.258,0z"/>
<path style="fill:#FCD462;" d="M38.684,22.34c-3.92,6.771-9.571,12.422-16.342,16.342V234.02c6.771,3.92,12.422,9.571,16.342,16.342  h238.833V22.34C277.516,22.34,38.684,22.34,38.684,22.34z"/>
<path style="fill:#44C4A1;" d="M370.916,22.34h-93.4v228.022h93.4c3.92-6.771,9.571-12.422,16.342-16.342V38.681  C380.487,34.761,374.836,29.11,370.916,22.34z"/>
<g>
	<circle style="fill:#FFFFFF;" cx="277.76" cy="3.476" r="2.975"/>
	<circle style="fill:#FFFFFF;" cx="277.76" cy="19.108" r="2.975"/>
	<circle style="fill:#FFFFFF;" cx="277.76" cy="34.739" r="2.975"/>
	<circle style="fill:#FFFFFF;" cx="277.76" cy="50.376" r="2.975"/>
	<circle style="fill:#FFFFFF;" cx="277.76" cy="66.007" r="2.975"/>
	<circle style="fill:#FFFFFF;" cx="277.76" cy="81.638" r="2.975"/>
	<circle style="fill:#FFFFFF;" cx="277.76" cy="97.27" r="2.975"/>
	<circle style="fill:#FFFFFF;" cx="277.76" cy="112.896" r="2.975"/>
	<circle style="fill:#FFFFFF;" cx="277.76" cy="128.512" r="2.975"/>
	<circle style="fill:#FFFFFF;" cx="277.76" cy="144.179" r="2.975"/>
	<circle style="fill:#FFFFFF;" cx="277.76" cy="159.795" r="2.975"/>
	<circle style="fill:#FFFFFF;" cx="277.76" cy="175.411" r="2.975"/>
	<circle style="fill:#FFFFFF;" cx="277.76" cy="191.078" r="2.975"/>
	<circle style="fill:#FFFFFF;" cx="277.76" cy="206.694" r="2.975"/>
	<circle style="fill:#FFFFFF;" cx="277.76" cy="222.31" r="2.975"/>
	<circle style="fill:#FFFFFF;" cx="277.76" cy="237.978" r="2.975"/>
	<circle style="fill:#FFFFFF;" cx="277.76" cy="253.594" r="2.975"/>
	<circle style="fill:#FFFFFF;" cx="277.76" cy="269.21" r="2.975"/>
	<rect x="321.28" y="54.764" style="fill:#FFFFFF;" width="16.538" height="163.174"/>
</g>
<rect x="33.823" y="47.401" style="fill:#E56353;" width="171.663" height="25.441"/>
<g>
	<rect x="33.823" y="100.183" style="fill:#64798A;" width="221.85" height="12.723"/>
	<rect x="33.823" y="140.237" style="fill:#64798A;" width="221.85" height="12.723"/>
	<rect x="33.823" y="180.326" style="fill:#64798A;" width="221.85" height="12.723"/>
</g>
<path style="fill:#EBF0F3;" d="M310.138,155.142c8.977,13.544,11.622,30.321,7.246,45.97l-32.869,117.547l-18.643-5.213  L310.138,155.142z"/>
<path style="fill:#64798A;" d="M261.162,390.016l0.356-1.271l23.413-71.591c1.659-5.219-1.353-10.773-6.624-12.247  c-5.271-1.474-10.714,1.715-12.015,7.034l-8.32,37.082l-1.827-0.511c-15.862-4.435-32.384,4.866-36.823,20.74l-2.351,8.406  c-3.407,12.183,3.73,24.88,15.914,28.286C245.067,409.352,257.755,402.199,261.162,390.016z M229.314,381.11l2.351-8.406  c2.537-9.073,11.967-14.382,21.027-11.848l2.259,0.632l-5.778,23.805l-0.356,1.271c-1.505,5.382-7.1,8.542-12.482,7.037  C230.954,392.096,227.809,386.492,229.314,381.11z"/>
<ellipse style="fill:#2F4859;" cx="275.707" cy="314.308" rx="6.922" ry="6.922"/>
<path style="fill:#3A556A;" d="M282.548,315.348c0.048-0.326,0.043-0.645,0.046-0.965l-13.503-2.006  c-0.09,0.307-0.189,0.61-0.237,0.936c-0.048,0.325-0.043,0.644-0.045,0.964l13.503,2.006  C282.402,315.977,282.5,315.673,282.548,315.348z"/>
<g>
</g>
<g>
</g>
<g>
</g>
<g>
</g>
<g>
</g>
<g>
</g>
<g>
</g>
<g>
</g>
<g>
</g>
<g>
</g>
<g>
</g>
<g>
</g>
<g>
</g>
<g>
</g>
<g>
</g>
</svg>
