<?xml version="1.0" encoding="iso-8859-1"?>
<!-- Generator: Adobe Illustrator 19.0.0, SVG Export Plug-In . SVG Version: 6.00 Build 0)  -->
<svg xmlns="http://www.w3.org/2000/svg" xmlns:xlink="http://www.w3.org/1999/xlink" version="1.1" id="Capa_1" x="0px" y="0px" viewBox="0 0 409.6 409.6" style="enable-background:new 0 0 409.6 409.6;" xml:space="preserve">
<path style="fill:#DC8744;" d="M409.6,293.917l-28.815,81.048c-3.165,8.903-15.762,13.057-25.818,8.539  c-23.486-10.55-70.435-25.186-150.166-25.186S78.12,372.954,54.634,383.504c-10.057,4.518-22.653,0.363-25.818-8.539L0,293.917  l160.286-75.287l202.071,41.384L409.6,293.917z"/>
<path style="fill:#FCD462;" d="M201.95,38.316C90.23,38.941,0,76.071,0,165.854l0,127.209c0,0.392,0.516,0.637,0.949,0.457  c135.901-56.716,271.801-56.716,407.703,0c0.432,0.18,0.949-0.065,0.949-0.457V167.112C409.6,75.453,316.364,37.676,201.95,38.316z"/>
<path style="fill:#F6C358;" d="M204.8,38.361c-0.58,0-1.142-0.03-1.722-0.027c-54.588,0.772-98.631,37.918-98.631,127.521v95.475  c33.451-6.873,66.902-10.347,100.353-10.347s66.902,3.474,100.353,10.347v-94.218C305.153,76.223,260.218,38.368,204.8,38.361z"/>
<path style="fill:#DC8744;" d="M241.745,33.19c0,4.935-16.541,5.171-36.945,5.171s-36.945-0.235-36.945-5.171  s16.541-8.936,36.945-8.936S241.745,28.255,241.745,33.19z"/>
<g>
</g>
<g>
</g>
<g>
</g>
<g>
</g>
<g>
</g>
<g>
</g>
<g>
</g>
<g>
</g>
<g>
</g>
<g>
</g>
<g>
</g>
<g>
</g>
<g>
</g>
<g>
</g>
<g>
</g>
</svg>
