<?xml version="1.0" encoding="iso-8859-1"?>
<!-- Generator: Adobe Illustrator 19.0.0, SVG Export Plug-In . SVG Version: 6.00 Build 0)  -->
<svg xmlns="http://www.w3.org/2000/svg" xmlns:xlink="http://www.w3.org/1999/xlink" version="1.1" id="Capa_1" x="0px" y="0px" viewBox="0 0 409.616 409.616" style="enable-background:new 0 0 409.616 409.616;" xml:space="preserve">
<path style="fill:#E56353;" d="M409.585,24.375v360.881c0,13.405-10.874,24.352-24.352,24.352H24.425  C10.947,409.608,0,398.661,0,385.256V24.375C0,10.896,10.947,0.023,24.425,0.023h360.808  C398.711,0.023,409.585,10.896,409.585,24.375z"/>
<path style="fill:#D15241;" d="M409.616,24.37c0-13.455-10.909-24.362-24.363-24.362H24.392c-13.454,0-24.361,10.907-24.361,24.362  V204.8h409.585V24.37z"/>
<circle style="fill:#EBF0F3;" cx="204.808" cy="204.803" r="149.965"/>
<circle style="fill:#3A556A;" cx="204.808" cy="204.803" r="109.512"/>
<circle style="fill:#64798A;" cx="204.808" cy="204.803" r="78.894"/>
<circle style="fill:#3A556A;" cx="204.808" cy="204.803" r="37.524"/>
<g>
	<circle style="fill:#64798A;" cx="204.808" cy="186.171" r="9.892"/>
	<ellipse style="fill:#64798A;" cx="204.808" cy="223.701" rx="14.213" ry="9.636"/>
</g>
<path style="fill:#FCD462;" d="M371.857,25.521h-28.534c-2.762,0-5.002,2.239-5.002,5.001v28.535c0,2.762,2.24,5.001,5.002,5.001  h28.534c2.764,0,5.002-2.239,5.002-5.001V30.521C376.859,27.76,374.621,25.521,371.857,25.521z"/>
<g>
</g>
<g>
</g>
<g>
</g>
<g>
</g>
<g>
</g>
<g>
</g>
<g>
</g>
<g>
</g>
<g>
</g>
<g>
</g>
<g>
</g>
<g>
</g>
<g>
</g>
<g>
</g>
<g>
</g>
</svg>
