<?xml version="1.0" encoding="iso-8859-1"?>
<!-- Generator: Adobe Illustrator 19.0.0, SVG Export Plug-In . SVG Version: 6.00 Build 0)  -->
<svg xmlns="http://www.w3.org/2000/svg" xmlns:xlink="http://www.w3.org/1999/xlink" version="1.1" id="Capa_1" x="0px" y="0px" viewBox="0 0 409.6 409.6" style="enable-background:new 0 0 409.6 409.6;" xml:space="preserve">
<path style="fill:#64798A;" d="M102.11,121.373c3.845-7.362,18.367-18.312,34.339-28.775c2.988-1.957,3.618-6.235,1.359-9.5  L82.555,3.235c-1.906-2.755-5.25-3.937-8.062-2.814C57.662,7.146,2.424,30.856,0.375,53.164  c-9.12,99.335,150.049,329.391,246.22,355.879c21.597,5.947,63.26-37.384,75.486-50.764c2.043-2.235,2.116-5.781,0.209-8.537  l-55.254-79.862c-2.259-3.266-6.485-4.183-9.37-2.077c-15.422,11.258-30.79,20.987-39.034,21.989  C141.441,299.176,66.115,190.301,102.11,121.373z"/>
<g>
	<path style="fill:#FCD462;" d="M114.876,108.035L48.461,12.04c-3.962,1.962-8.018,4.08-12.053,6.337l68.528,99.047   C107.346,114.567,110.723,111.403,114.876,108.035z"/>
	<path style="fill:#FCD462;" d="M291.852,387.588c3.535-2.981,6.947-6.029,10.18-9.045l-66.415-95.994   c-4.616,2.699-8.768,4.743-12.292,5.992L291.852,387.588z"/>
</g>
<rect x="376.163" y="133.984" transform="matrix(-0.9116 0.4111 -0.4111 -0.9116 801.8575 149.5764)" style="fill:#CE412D;" width="17.362" height="54.062"/>
<polygon style="fill:#E56353;" points="311.998,164.218 301.483,140.904 275.155,210.488 344.739,236.815 334.224,213.5   388.027,189.235 365.801,139.953 "/>
<rect x="291.251" y="48.759" transform="matrix(-0.9116 0.4111 -0.4111 -0.9116 604.5025 21.5698)" style="fill:#31978C;" width="17.362" height="54.062"/>
<polygon style="fill:#44C4A1;" points="372.757,72.597 383.272,95.911 409.6,26.327 340.016,0 350.531,23.314 296.728,47.58   318.954,96.862 "/>
<g>
</g>
<g>
</g>
<g>
</g>
<g>
</g>
<g>
</g>
<g>
</g>
<g>
</g>
<g>
</g>
<g>
</g>
<g>
</g>
<g>
</g>
<g>
</g>
<g>
</g>
<g>
</g>
<g>
</g>
</svg>
