<?xml version="1.0" encoding="iso-8859-1"?>
<!-- Generator: Adobe Illustrator 19.0.0, SVG Export Plug-In . SVG Version: 6.00 Build 0)  -->
<svg xmlns="http://www.w3.org/2000/svg" xmlns:xlink="http://www.w3.org/1999/xlink" version="1.1" id="Capa_1" x="0px" y="0px" viewBox="0 0 409.6 409.6" style="enable-background:new 0 0 409.6 409.6;" xml:space="preserve">
<path style="fill:#D5D6DB;" d="M0,392.325c0,9.541,7.735,17.275,17.275,17.275h375.051c9.54,0,17.275-7.734,17.275-17.275V118.982H0  V392.325z"/>
<path style="fill:#EBF0F3;" d="M0,377.43c0,9.541,7.735,17.275,17.275,17.275h375.051c9.54,0,17.275-7.734,17.275-17.275V83.666H0  V377.43z"/>
<path style="fill:#E56353;" d="M409.6,54.342c0-9.541-7.735-17.275-17.275-17.275H17.275C7.735,37.067,0,44.801,0,54.342v51.43  h409.6V54.342z"/>
<g>
	<rect y="105.774" style="fill:#D15241;" width="409.6" height="13.21"/>
	<circle style="fill:#D15241;" cx="82.944" cy="64.722" r="18.944"/>
	<circle style="fill:#D15241;" cx="140.708" cy="64.722" r="18.944"/>
	<circle style="fill:#D15241;" cx="326.748" cy="64.722" r="18.944"/>
	<circle style="fill:#D15241;" cx="268.902" cy="64.722" r="18.944"/>
</g>
<g>
	<path style="fill:#EBF0F3;" d="M82.85,0C73.997,0,66.82,7.177,66.82,16.03v48.577c0,8.853,7.176,16.03,16.029,16.03   s16.031-7.177,16.031-16.03V16.03C98.88,7.177,91.703,0,82.85,0z"/>
	<path style="fill:#EBF0F3;" d="M140.708,0c-8.853,0-16.029,7.177-16.029,16.03v48.577c0,8.853,7.176,16.03,16.029,16.03   c8.853,0,16.031-7.177,16.031-16.03V16.03C156.739,7.177,149.561,0,140.708,0z"/>
	<path style="fill:#EBF0F3;" d="M268.89,0c-8.853,0-16.029,7.177-16.029,16.03v48.577c0,8.853,7.176,16.03,16.029,16.03   s16.031-7.177,16.031-16.03V16.03C284.921,7.177,277.743,0,268.89,0z"/>
	<path style="fill:#EBF0F3;" d="M326.749,0c-8.853,0-16.029,7.177-16.029,16.03v48.577c0,8.853,7.176,16.03,16.029,16.03   s16.031-7.177,16.031-16.03V16.03C342.78,7.177,335.602,0,326.749,0z"/>
</g>
<rect x="278.272" y="138.496" style="fill:#44C4A1;" width="41.718" height="41.718"/>
<rect x="341.197" y="138.496" style="fill:#E56353;" width="41.718" height="41.718"/>
<g>
	<rect x="26.696" y="200.397" style="fill:#D5D6DB;" width="41.718" height="41.718"/>
	<rect x="89.59" y="200.397" style="fill:#D5D6DB;" width="41.718" height="41.718"/>
	<rect x="152.489" y="200.397" style="fill:#D5D6DB;" width="41.718" height="41.718"/>
	<rect x="215.398" y="200.397" style="fill:#D5D6DB;" width="41.718" height="41.718"/>
</g>
<rect x="278.272" y="200.397" style="fill:#44C4A1;" width="41.718" height="41.718"/>
<rect x="341.197" y="200.397" style="fill:#E56353;" width="41.718" height="41.718"/>
<g>
	<rect x="26.696" y="262.298" style="fill:#27A2DB;" width="41.718" height="41.718"/>
	<rect x="89.59" y="262.298" style="fill:#27A2DB;" width="41.718" height="41.718"/>
</g>
<g>
	<rect x="152.489" y="262.298" style="fill:#D5D6DB;" width="41.718" height="41.718"/>
	<rect x="215.398" y="262.298" style="fill:#D5D6DB;" width="41.718" height="41.718"/>
</g>
<rect x="278.272" y="262.298" style="fill:#44C4A1;" width="41.718" height="41.718"/>
<rect x="341.197" y="262.298" style="fill:#E56353;" width="41.718" height="41.718"/>
<g>
	<rect x="26.696" y="324.198" style="fill:#D5D6DB;" width="41.718" height="41.718"/>
	<rect x="89.59" y="324.198" style="fill:#D5D6DB;" width="41.718" height="41.718"/>
	<rect x="152.489" y="324.198" style="fill:#D5D6DB;" width="41.718" height="41.718"/>
</g>
<g>
</g>
<g>
</g>
<g>
</g>
<g>
</g>
<g>
</g>
<g>
</g>
<g>
</g>
<g>
</g>
<g>
</g>
<g>
</g>
<g>
</g>
<g>
</g>
<g>
</g>
<g>
</g>
<g>
</g>
</svg>
