<?xml version="1.0" encoding="iso-8859-1"?>
<!-- Generator: Adobe Illustrator 19.0.0, SVG Export Plug-In . SVG Version: 6.00 Build 0)  -->
<svg xmlns="http://www.w3.org/2000/svg" xmlns:xlink="http://www.w3.org/1999/xlink" version="1.1" id="Capa_1" x="0px" y="0px" viewBox="0 0 409.6 409.6" style="enable-background:new 0 0 409.6 409.6;" xml:space="preserve">
<path style="fill:#EBF0F3;" d="M333.9,0H75.7c-7.8,0-14.1,6.3-14.1,14.1v381.4c0,7.8,6.3,14.1,14.1,14.1h258.2  c7.8,0,14.1-6.3,14.1-14.1V14.1C348,6.3,341.7,0,333.9,0z"/>
<rect x="84" y="22.3" style="fill:#27A2DB;" width="241.7" height="86.4"/>
<rect x="84" y="91.9" style="fill:#2D93BA;" width="241.7" height="16.8"/>
<rect x="61.6" y="122.8" style="fill:#D5D6DB;" width="286.4" height="12.3"/>
<rect x="84" y="147.9" style="fill:#FCD462;" width="101.4" height="101.4"/>
<rect x="224.3" y="147.9" style="fill:#44C4A1;" width="101.4" height="101.4"/>
<rect x="84" y="283" style="fill:#27A2DB;" width="101.4" height="101.4"/>
<rect x="224.3" y="283" style="fill:#E56353;" width="101.4" height="101.4"/>
<polygon style="fill:#DC8744;" points="171.3,189.3 143.9,189.3 143.9,161.9 125.4,161.9 125.4,189.3 98,189.3 98,207.8   125.4,207.8 125.4,235.2 143.9,235.2 143.9,207.8 171.3,207.8 "/>
<g>
	<rect x="238.3" y="345.3" style="fill:#FFFFFF;" width="73.3" height="18.4"/>
	<rect x="238.3" y="303.8" style="fill:#FFFFFF;" width="73.3" height="18.4"/>
	<rect x="98" y="324.5" style="fill:#FFFFFF;" width="73.3" height="18.4"/>
</g>
<rect id="SVGCleanerId_0" x="265.772" y="161.944" transform="matrix(0.7071 0.7071 -0.7071 0.7071 220.9641 -136.2679)" style="fill:#FFFFFF;" width="18.4" height="73.299"/>
<g transform="matrix(0 1 -1 0 667.9 113.61)">
	
		<rect id="SVGCleanerId_0_1_" x="265.707" y="161.932" transform="matrix(-0.7071 0.7071 -0.7071 -0.7071 609.7137 144.6122)" style="fill:#FFFFFF;" width="18.4" height="73.299"/>
</g>
<g>
</g>
<g>
</g>
<g>
</g>
<g>
</g>
<g>
</g>
<g>
</g>
<g>
</g>
<g>
</g>
<g>
</g>
<g>
</g>
<g>
</g>
<g>
</g>
<g>
</g>
<g>
</g>
<g>
</g>
</svg>
