<?xml version="1.0" encoding="iso-8859-1"?>
<!-- Generator: Adobe Illustrator 19.0.0, SVG Export Plug-In . SVG Version: 6.00 Build 0)  -->
<svg xmlns="http://www.w3.org/2000/svg" xmlns:xlink="http://www.w3.org/1999/xlink" version="1.1" id="Capa_1" x="0px" y="0px" viewBox="0 0 409.599 409.599" style="enable-background:new 0 0 409.599 409.599;" xml:space="preserve">
<path style="fill:#64798A;" d="M336.159,0H73.439c-10.322,0-18.69,8.368-18.69,18.692v372.216c0,10.323,8.368,18.691,18.69,18.691  h262.72c10.323,0,18.692-8.369,18.692-18.691V18.692C354.851,8.368,346.482,0,336.159,0z"/>
<rect x="87.091" y="32.358" style="fill:#27A2DB;" width="235.392" height="90.721"/>
<rect x="87.091" y="106.03" style="fill:#2D93BA;" width="235.392" height="17.044"/>
<g>
	<circle style="fill:#EBF0F3;" cx="106.465" cy="186.163" r="19.364"/>
	<circle style="fill:#EBF0F3;" cx="172.021" cy="186.163" r="19.364"/>
	<circle style="fill:#EBF0F3;" cx="237.568" cy="186.163" r="19.364"/>
</g>
<circle style="fill:#FCD462;" cx="303.155" cy="186.163" r="19.364"/>
<g>
	<circle style="fill:#EBF0F3;" cx="106.465" cy="243.963" r="19.364"/>
	<circle style="fill:#EBF0F3;" cx="172.021" cy="243.963" r="19.364"/>
	<circle style="fill:#EBF0F3;" cx="237.568" cy="243.963" r="19.364"/>
</g>
<circle style="fill:#44C4A1;" cx="303.155" cy="243.963" r="19.364"/>
<g>
	<circle style="fill:#EBF0F3;" cx="106.465" cy="301.757" r="19.364"/>
	<circle style="fill:#EBF0F3;" cx="172.021" cy="301.757" r="19.364"/>
	<circle style="fill:#EBF0F3;" cx="237.568" cy="301.757" r="19.364"/>
	<circle style="fill:#EBF0F3;" cx="106.465" cy="359.526" r="19.364"/>
	<circle style="fill:#EBF0F3;" cx="172.021" cy="359.526" r="19.364"/>
	<circle style="fill:#EBF0F3;" cx="237.568" cy="359.526" r="19.364"/>
</g>
<path style="fill:#E56353;" d="M318.366,282.394h-30.463c-2.283,0-4.131,1.849-4.131,4.13v88.258c0,2.281,1.848,4.13,4.131,4.13  h30.463c2.282,0,4.131-1.849,4.131-4.13v-88.258C322.498,284.243,320.648,282.394,318.366,282.394z"/>
<g>
</g>
<g>
</g>
<g>
</g>
<g>
</g>
<g>
</g>
<g>
</g>
<g>
</g>
<g>
</g>
<g>
</g>
<g>
</g>
<g>
</g>
<g>
</g>
<g>
</g>
<g>
</g>
<g>
</g>
</svg>
