<?xml version="1.0" encoding="iso-8859-1"?>
<!-- Generator: Adobe Illustrator 19.0.0, SVG Export Plug-In . SVG Version: 6.00 Build 0)  -->
<svg xmlns="http://www.w3.org/2000/svg" xmlns:xlink="http://www.w3.org/1999/xlink" version="1.1" id="Capa_1" x="0px" y="0px" viewBox="0 0 409.6 409.6" style="enable-background:new 0 0 409.6 409.6;" xml:space="preserve">
<rect x="204.032" y="15.77" style="fill:#FFFFFF;" width="1.536" height="4.316"/>
<path style="fill:#FCD462;" d="M204.8,0c0,0-5.525,8.336-5.525,11.388c0,3.051,2.474,5.525,5.525,5.525  c3.052,0,5.525-2.474,5.525-5.525C210.325,8.336,204.8,0,204.8,0z"/>
<path style="fill:#F6C358;" d="M204.8,6.337c0,0-3.455,5.212-3.455,7.121c0,1.908,1.547,3.455,3.455,3.455  c1.909,0,3.455-1.547,3.455-3.455C208.255,11.55,204.8,6.337,204.8,6.337z"/>
<path style="fill:#E56353;" d="M213.999,81.375V20.681c0-1.252-1.015-2.267-2.269-2.267h-13.862c-1.252,0-2.268,1.015-2.268,2.267  v60.694H213.999z"/>
<g>
	<polygon style="fill:#D15241;" points="213.999,29.855 195.601,21.095 195.601,26.303 213.999,35.063  "/>
	<polygon style="fill:#D15241;" points="195.601,39.243 213.999,48.004 213.999,42.796 195.601,34.036  "/>
	<polygon style="fill:#D15241;" points="195.601,52.183 213.999,60.944 213.999,55.737 195.601,46.975  "/>
	<polygon style="fill:#D15241;" points="195.601,65.124 213.999,73.885 213.999,68.677 195.601,59.916  "/>
</g>
<rect x="294.963" y="15.77" style="fill:#FFFFFF;" width="1.536" height="4.316"/>
<path style="fill:#FCD462;" d="M295.727,0c0,0-5.525,8.336-5.525,11.388c0,3.051,2.474,5.525,5.525,5.525  c3.052,0,5.525-2.474,5.525-5.525C301.252,8.336,295.727,0,295.727,0z"/>
<path style="fill:#F6C358;" d="M295.727,6.337c0,0-3.455,5.212-3.455,7.121c0,1.908,1.547,3.455,3.455,3.455  c1.909,0,3.455-1.547,3.455-3.455C299.182,11.55,295.727,6.337,295.727,6.337z"/>
<path style="fill:#E56353;" d="M304.926,81.375V20.681c0-1.252-1.015-2.267-2.269-2.267h-13.862c-1.252,0-2.267,1.015-2.267,2.267  v60.694H304.926z"/>
<g>
	<polygon style="fill:#D15241;" points="304.926,29.855 286.527,21.095 286.527,26.303 304.926,35.063  "/>
	<polygon style="fill:#D15241;" points="286.527,39.243 304.926,48.004 304.926,42.796 286.527,34.036  "/>
	<polygon style="fill:#D15241;" points="286.527,52.183 304.926,60.944 304.926,55.737 286.527,46.975  "/>
	<polygon style="fill:#D15241;" points="286.527,65.124 304.926,73.885 304.926,68.677 286.527,59.916  "/>
</g>
<rect x="113.101" y="15.77" style="fill:#FFFFFF;" width="1.536" height="4.316"/>
<path style="fill:#FCD462;" d="M113.873,0c0,0-5.525,8.336-5.525,11.388c0,3.051,2.474,5.525,5.525,5.525  c3.052,0,5.525-2.474,5.525-5.525C119.399,8.336,113.873,0,113.873,0z"/>
<path style="fill:#F6C358;" d="M113.873,6.337c0,0-3.455,5.212-3.455,7.121c0,1.908,1.547,3.455,3.455,3.455  c1.909,0,3.455-1.547,3.455-3.455C117.328,11.55,113.873,6.337,113.873,6.337z"/>
<path style="fill:#E56353;" d="M123.072,81.375V20.681c0-1.252-1.015-2.267-2.269-2.267h-13.862c-1.252,0-2.267,1.015-2.267,2.267  v60.694H123.072z"/>
<g>
	<polygon style="fill:#D15241;" points="123.072,29.855 104.674,21.095 104.674,26.303 123.072,35.063  "/>
	<polygon style="fill:#D15241;" points="104.674,39.243 123.072,48.004 123.072,42.796 104.674,34.036  "/>
	<polygon style="fill:#D15241;" points="104.674,52.183 123.072,60.944 123.072,55.737 104.674,46.975  "/>
	<polygon style="fill:#D15241;" points="104.674,65.124 123.072,73.885 123.072,68.677 104.674,59.916  "/>
</g>
<path style="fill:#FCD462;" d="M74.357,76.391c-7.614,0-13.787,6.173-13.787,13.787v158.038h288.46V90.166  c0-7.608-6.168-13.776-13.776-13.776H74.357z"/>
<path style="fill:#FFFFFF;" d="M74.357,76.391c-7.614,0-13.787,6.173-13.787,13.787v42.791c0.182,15.74,13.059,28.458,28.843,28.458  c15.895,0,28.876-12.892,28.876-28.787c0,15.895,12.892,28.787,28.788,28.787c15.984,0,28.876-12.892,28.876-28.787  c0,15.895,12.892,28.787,28.788,28.787c15.984,0,28.876-12.892,28.876-28.787c0,15.895,12.892,28.787,28.876,28.787  c15.894,0,28.788-12.892,28.788-28.787c0,17.901,16.464,31.994,35.012,28.151c13.464-2.789,22.739-15.308,22.739-29.058l0-41.566  c0-7.608-6.168-13.776-13.776-13.776H74.357z"/>
<rect x="60.57" y="99.01" style="fill:#E56353;" width="288.461" height="13.573"/>
<path style="fill:#FCD462;" d="M392.905,237.775H16.695c-7.615,0-13.787,6.173-13.787,13.787V409.6h403.783V251.562  C406.692,243.948,400.519,237.775,392.905,237.775z"/>
<path style="fill:#FFFFFF;" d="M392.905,237.775H16.695c-7.615,0-13.787,6.173-13.787,13.787v42.791  c0.182,15.74,13.059,28.458,28.843,28.458c15.895,0,28.876-12.892,28.876-28.787c0,15.895,12.892,28.787,28.788,28.787  c15.984,0,28.876-12.892,28.876-28.787c0,15.895,12.892,28.787,28.788,28.787c15.984,0,28.876-12.892,28.876-28.787  c0,15.895,12.892,28.787,28.876,28.787c15.894,0,28.788-12.892,28.788-28.787c0,15.895,12.981,28.787,28.875,28.787  c15.895,0,28.876-12.892,28.876-28.787c0,15.895,12.893,28.787,28.788,28.787c15.894,0,28.876-12.892,28.876-28.787  c0,15.895,12.892,28.787,28.787,28.787c15.973,0,28.854-12.874,28.873-28.755v-42.494  C406.692,243.948,400.519,237.775,392.905,237.775z"/>
<rect x="2.908" y="260.398" style="fill:#E56353;" width="403.784" height="13.573"/>
<g>
</g>
<g>
</g>
<g>
</g>
<g>
</g>
<g>
</g>
<g>
</g>
<g>
</g>
<g>
</g>
<g>
</g>
<g>
</g>
<g>
</g>
<g>
</g>
<g>
</g>
<g>
</g>
<g>
</g>
</svg>
