<?xml version="1.0" encoding="iso-8859-1"?>
<!-- Generator: Adobe Illustrator 19.0.0, SVG Export Plug-In . SVG Version: 6.00 Build 0)  -->
<svg xmlns="http://www.w3.org/2000/svg" xmlns:xlink="http://www.w3.org/1999/xlink" version="1.1" id="Capa_1" x="0px" y="0px" viewBox="0 0 409.6 409.6" style="enable-background:new 0 0 409.6 409.6;" xml:space="preserve">
<g>
	<path style="fill:#FCD462;" d="M28.91,403.423c0,3.412,2.765,6.177,6.178,6.177h52.096c3.411,0,6.177-2.765,6.177-6.177V374.45   H28.91V403.423z"/>
	<path style="fill:#FCD462;" d="M312.265,374.45v28.972c0,3.412,2.765,6.177,6.178,6.177h52.095c3.412,0,6.177-2.765,6.177-6.177   V374.45H312.265z"/>
</g>
<path style="fill:#DC8744;" d="M398.976,0H10.624C4.756,0,0,4.756,0,10.624v369.204c0,5.867,4.756,10.624,10.624,10.624h388.353  c5.867,0,10.624-4.756,10.624-10.624V10.624C409.6,4.756,404.844,0,398.976,0z"/>
<g>
	<path style="fill:#FCD462;" d="M364.915,37.238H44.683c-4.113,0-7.447,3.334-7.447,7.447V169.16c0,4.113,3.335,7.447,7.447,7.447   h320.233c4.113,0,7.447-3.335,7.447-7.447V44.685C372.363,40.572,369.028,37.238,364.915,37.238z"/>
	<path style="fill:#FCD462;" d="M364.915,213.843H44.683c-4.113,0-7.447,3.334-7.447,7.447v124.475c0,4.113,3.335,7.447,7.447,7.447   h320.233c4.113,0,7.447-3.335,7.447-7.447V221.29C372.363,217.177,369.028,213.843,364.915,213.843z"/>
</g>
<g>
	<circle style="fill:#2F4859;" cx="146.77" cy="106.921" r="8.187"/>
	<circle style="fill:#2F4859;" cx="262.81" cy="106.921" r="8.187"/>
</g>
<path style="fill:#3A556A;" d="M262.159,100.48c-44.615-6.771-70.085-6.778-114.704-0.007c-3.178,0.482-5.563,3.236-5.563,6.45  s2.384,5.967,5.563,6.449c44.62,6.77,70.09,6.765,114.705-0.007c3.174-0.482,5.547-3.231,5.547-6.442  S265.333,100.962,262.159,100.48z"/>
<path style="fill:#64798A;" d="M242.493,103.558h-75.386c-1.858,0-3.365,1.506-3.365,3.364c0,1.858,1.507,3.364,3.365,3.364h75.386  c1.858,0,3.364-1.506,3.364-3.364C245.856,105.064,244.351,103.558,242.493,103.558z"/>
<g>
	<circle style="fill:#2F4859;" cx="146.77" cy="283.546" r="8.187"/>
	<circle style="fill:#2F4859;" cx="262.81" cy="283.546" r="8.187"/>
</g>
<path style="fill:#3A556A;" d="M262.159,277.086c-44.615-6.771-70.085-6.778-114.704-0.007c-3.178,0.482-5.563,3.236-5.563,6.45  c0,3.214,2.384,5.967,5.563,6.449c44.62,6.77,70.09,6.765,114.705-0.007c3.174-0.482,5.547-3.231,5.547-6.442  C267.707,280.316,265.333,277.568,262.159,277.086z"/>
<path style="fill:#64798A;" d="M242.493,280.164h-75.386c-1.858,0-3.365,1.506-3.365,3.364c0,1.858,1.507,3.364,3.365,3.364h75.386  c1.858,0,3.364-1.506,3.364-3.364C245.856,281.67,244.351,280.164,242.493,280.164z"/>
<g>
</g>
<g>
</g>
<g>
</g>
<g>
</g>
<g>
</g>
<g>
</g>
<g>
</g>
<g>
</g>
<g>
</g>
<g>
</g>
<g>
</g>
<g>
</g>
<g>
</g>
<g>
</g>
<g>
</g>
</svg>
