<?xml version="1.0" encoding="iso-8859-1"?>
<!-- Generator: Adobe Illustrator 19.0.0, SVG Export Plug-In . SVG Version: 6.00 Build 0)  -->
<svg xmlns="http://www.w3.org/2000/svg" xmlns:xlink="http://www.w3.org/1999/xlink" version="1.1" id="Capa_1" x="0px" y="0px" viewBox="0 0 409.677 409.677" style="enable-background:new 0 0 409.677 409.677;" xml:space="preserve">
<path style="fill:#F6C358;" d="M0.077,265.112v57.282c0,17.058,13.829,30.887,30.887,30.887H378.79  c17.058,0,30.886-13.829,30.886-30.887v-57.282H0.077z"/>
<path style="fill:#D15241;" d="M370.793,187.344H38.961c-21.475,0-38.885,17.409-38.885,38.884  c0,21.475,17.409,38.884,38.885,38.884h331.832c21.475,0,38.884-17.409,38.884-38.884  C409.677,204.752,392.268,187.344,370.793,187.344z"/>
<path style="fill:#FFFFFF;" d="M43.502,239.217c-12.633,0-23.149-4.116-29.927-11.975c-2.691-3.116-2.342-7.818,0.771-10.505  c3.113-2.687,7.818-2.345,10.502,0.775c8.16,9.451,25.12,6.578,30.138,5.476c3.876-0.858,7.731-1.967,11.585-3.073  c9.367-2.687,19.149-5.44,29.484-5.073c6.327,0.24,12.247,1.625,17.971,2.967c4.684,1.095,9.105,2.131,13.476,2.487  c8.342,0.684,16.895-1.051,25.978-2.865c12.524-2.513,25.491-5.098,38.72-1.465c2.465,0.676,4.865,1.567,7.258,2.465  c2.545,0.953,4.945,1.851,7.265,2.364c5.949,1.313,12.509,0.36,19.447-0.651c4.08-0.593,8.291-1.207,12.625-1.396  c7.484-0.331,14.705,0.629,21.687,1.556c5.942,0.789,11.469,1.48,17.113,1.495c3.229-0.022,6.451-0.305,9.673-0.582  c4.735-0.4,9.629-0.815,14.713-0.545c3.767,0.207,7.367,0.778,10.844,1.335c2.669,0.425,5.331,0.858,8.022,1.08  c7.855,0.655,16.022-0.48,24.662-1.68c13.244-1.847,26.945-3.753,40.495,0.96c3.884,1.349,5.942,5.593,4.589,9.476  c-1.353,3.891-5.6,5.953-9.476,4.589c-10.175-3.538-21.535-1.949-33.549-0.273c-9.069,1.262-18.451,2.549-27.956,1.771  c-3.055-0.255-6.095-0.731-9.127-1.215c-3.251-0.52-6.32-1.007-9.316-1.171c-4.044-0.225-8.218,0.138-12.633,0.513  c-3.607,0.309-7.222,0.611-10.836,0.636c-6.793,0.047-12.996-0.804-19.171-1.622c-6.633-0.88-12.902-1.709-19.076-1.444  c-3.585,0.156-7.251,0.691-11.142,1.255c-7.964,1.16-16.196,2.356-24.8,0.458c-3.345-0.738-6.364-1.869-9.28-2.964  c-1.971-0.742-3.942-1.491-5.971-2.047c-9.833-2.691-20.531-0.553-31.855,1.705c-9.702,1.938-19.709,3.96-30.109,3.105  c-5.476-0.444-10.655-1.658-15.665-2.829c-5.265-1.233-10.247-2.4-15.127-2.582c-8.109-0.309-16.196,2.029-24.829,4.505  c-4.145,1.189-8.298,2.375-12.48,3.298C53.066,238.664,48.135,239.217,43.502,239.217z"/>
<polyline style="fill:#44C4A1;" points="74.695,187.344 128.067,253.44 154.269,187.344 "/>
<path style="fill:#F6C358;" d="M398.123,187.344c8.416,0,13.822-8.652,10.47-16.372C379.655,104.331,299.408,56.396,204.879,56.396  c-94.822,0-175.273,48.233-203.982,115.196c-3.203,7.471,2.589,15.752,10.717,15.752H398.123z"/>
<g>
	<circle style="fill:#DC8744;" cx="188.843" cy="92.608" r="2.099"/>
	<circle style="fill:#DC8744;" cx="272.115" cy="102.541" r="3.246"/>
	<circle style="fill:#DC8744;" cx="325.619" cy="142.635" r="5.171"/>
	<circle style="fill:#DC8744;" cx="186.918" cy="156.772" r="4.009"/>
	<circle style="fill:#DC8744;" cx="242.112" cy="110.738" r="4.966"/>
	<circle style="fill:#DC8744;" cx="92.188" cy="138.79" r="4.777"/>
	<circle style="fill:#DC8744;" cx="142.809" cy="110.738" r="11.459"/>
	<circle style="fill:#DC8744;" cx="262.848" cy="154.765" r="2.007"/>
</g>
<g>
</g>
<g>
</g>
<g>
</g>
<g>
</g>
<g>
</g>
<g>
</g>
<g>
</g>
<g>
</g>
<g>
</g>
<g>
</g>
<g>
</g>
<g>
</g>
<g>
</g>
<g>
</g>
<g>
</g>
</svg>
