<?xml version="1.0" encoding="iso-8859-1"?>
<!-- Generator: Adobe Illustrator 19.0.0, SVG Export Plug-In . SVG Version: 6.00 Build 0)  -->
<svg xmlns="http://www.w3.org/2000/svg" xmlns:xlink="http://www.w3.org/1999/xlink" version="1.1" id="Capa_1" x="0px" y="0px" viewBox="0 0 402.153 402.153" style="enable-background:new 0 0 402.153 402.153;" xml:space="preserve">
<path style="fill:#FCD462;" d="M201.076,0C136.513,0,84.171,59.299,84.171,132.446c0,30.415,9.052,58.43,24.267,80.786  c16.669,24.485,27.091,52.668,27.091,82.287v0.287c0,10.544,8.549,19.091,19.092,19.091h92.911c10.543,0,19.092-8.547,19.092-19.091  v-0.286c0-29.62,10.422-57.801,27.088-82.287c15.218-22.356,24.27-50.372,24.27-80.787C317.981,59.299,265.64,0,201.076,0z"/>
<path style="fill:#EBF0F3;" d="M154.622,314.897v62.526c0,5.845,3.2,11.22,8.338,14.005l16.229,8.798  c2.331,1.264,4.94,1.925,7.593,1.925h28.46c2.651,0,5.26-0.662,7.591-1.925l16.229-8.798c5.138-2.785,8.34-8.16,8.34-14.005v-62.526  H154.622z"/>
<g>
	<path style="fill:#E1E6E9;" d="M246.906,359.732l-92.892,12.062c-2.532,0.329-4.31,2.724-3.969,5.351   c0.341,2.626,2.671,4.488,5.204,4.159l92.892-12.062c2.532-0.329,4.308-2.724,3.967-5.35   C251.767,361.266,249.438,359.403,246.906,359.732z"/>
	<path style="fill:#E1E6E9;" d="M246.906,339.873l-92.892,12.062c-2.532,0.329-4.31,2.724-3.969,5.351   c0.341,2.626,2.671,4.488,5.204,4.159l92.892-12.062c2.532-0.329,4.308-2.724,3.967-5.35   C251.767,341.407,249.438,339.544,246.906,339.873z"/>
	<path style="fill:#E1E6E9;" d="M246.906,320.013l-92.892,12.062c-2.532,0.329-4.31,2.724-3.969,5.351   c0.341,2.626,2.671,4.488,5.204,4.159l92.892-12.062c2.532-0.329,4.308-2.724,3.967-5.35   C251.767,321.547,249.438,319.685,246.906,320.013z"/>
</g>
<path style="fill:#F6C358;" d="M255.505,95.888c-2.829-1.429-6.291-0.905-8.567,1.335l-20.327,19.938l-20.32-19.938  c-2.895-2.844-7.535-2.844-10.429,0l-20.32,19.938l-20.327-19.938c-2.291-2.251-5.767-2.775-8.633-1.298  c-2.858,1.473-4.444,4.618-3.935,7.793l33.825,211.18h7.551l7.344-1.177l-30.436-190.029l9.396,9.218  c2.895,2.844,7.535,2.844,10.429,0l20.32-19.938l20.32,19.938c2.895,2.844,7.535,2.844,10.429,0l9.92-9.735L215.098,313.87  l7.365,1.028h7.527l29.536-211.33C259.971,100.411,258.349,97.324,255.505,95.888z"/>
<g>
</g>
<g>
</g>
<g>
</g>
<g>
</g>
<g>
</g>
<g>
</g>
<g>
</g>
<g>
</g>
<g>
</g>
<g>
</g>
<g>
</g>
<g>
</g>
<g>
</g>
<g>
</g>
<g>
</g>
</svg>
