<?xml version="1.0" encoding="iso-8859-1"?>
<!-- Generator: Adobe Illustrator 19.0.0, SVG Export Plug-In . SVG Version: 6.00 Build 0)  -->
<svg xmlns="http://www.w3.org/2000/svg" xmlns:xlink="http://www.w3.org/1999/xlink" version="1.1" id="Capa_1" x="0px" y="0px" viewBox="0 0 409.583 409.583" style="enable-background:new 0 0 409.583 409.583;" xml:space="preserve">
<path style="fill:#EBF0F3;" d="M264.364,330.506c-2.663-12.457-3.105-25.297-1.149-37.88c6.043-38.837,0.491-77.612,0.491-77.612  v-77.909c7.054-30.413-30.407-110.623-30.407-110.623h-57.014c0,0-37.461,80.211-30.413,110.623v77.909  c0,0-5.546,38.776,0.491,77.612c1.957,12.583,1.514,25.423-1.149,37.88c-3.954,18.518-8.094,45.815-6.587,67.474  c0.303,4.353,3.665,7.876,8.004,8.346c39.435,4.276,78.241,4.392,116.372,0.043c4.316-0.492,7.646-4.009,7.949-8.342  C272.465,376.361,268.326,349.038,264.364,330.506z"/>
<path style="fill:#D15241;" d="M174.7,3.348l0,26.64c0-2.861,60.183-2.861,60.183,0V3.348C234.883-1.116,174.7-1.116,174.7,3.348z"/>
<rect x="145.876" y="137.105" style="fill:#27A2DB;" width="118.016" height="83.128"/>
<g>
	<path style="fill:#FFFFFF;" d="M158.652,196.914h-4.912v-36.487h7.659l8.783,22.914l8.78-22.914h7.618v36.487h-4.912v-28.5   l-10.155,25.314h-2.747l-10.115-25.314V196.914z"/>
	<path style="fill:#FFFFFF;" d="M194.656,160.427h4.912v36.487h-4.912V160.427z"/>
	<path style="fill:#FFFFFF;" d="M207.644,196.914v-36.487h4.912v30.641h13.278v5.845H207.644z"/>
	<path style="fill:#FFFFFF;" d="M231.203,160.427h4.912v17.799l13.319-17.799h6.243L243.98,176.4l11.863,20.514h-5.826   l-9.657-15.973l-4.244,5.743v10.229h-4.912V160.427z"/>
</g>
<g>
</g>
<g>
</g>
<g>
</g>
<g>
</g>
<g>
</g>
<g>
</g>
<g>
</g>
<g>
</g>
<g>
</g>
<g>
</g>
<g>
</g>
<g>
</g>
<g>
</g>
<g>
</g>
<g>
</g>
</svg>
