<?xml version="1.0" encoding="iso-8859-1"?>
<!-- Generator: Adobe Illustrator 19.0.0, SVG Export Plug-In . SVG Version: 6.00 Build 0)  -->
<svg xmlns="http://www.w3.org/2000/svg" xmlns:xlink="http://www.w3.org/1999/xlink" version="1.1" id="Capa_1" x="0px" y="0px" viewBox="0 0 409.62 409.62" style="enable-background:new 0 0 409.62 409.62;" xml:space="preserve">
<path style="fill:#1C75A1;" d="M349.275,38.524H42.216v352.933c0,10.02,8.123,18.143,18.143,18.143h288.917  c10.012,0,18.128-8.116,18.128-18.128V56.653C367.404,46.641,359.287,38.524,349.275,38.524z"/>
<path style="fill:#EBF0F3;" d="M309.888,353.402v17.976H62.53c-7.203,0-13.042,5.839-13.042,13.042v0  c0,7.203,5.839,13.042,13.042,13.042h286.745c10.012,0,18.129-8.117,18.129-18.129v-25.931H309.888z"/>
<path style="fill:#27A2DB;" d="M349.275,0H60.359c-10.02,0-18.143,8.123-18.143,18.143v352.933h307.059  c10.012,0,18.128-8.116,18.128-18.128V18.129C367.404,8.117,359.287,0,349.275,0z"/>
<rect x="80.707" style="fill:#FCD462;" width="20.634" height="371.098"/>
<rect x="80.707" y="371.098" style="fill:#F6C358;" width="20.634" height="38.523"/>
<polygon style="fill:#E56353;" points="288.179,409.6 271.095,399.816 254.011,409.6 254.011,375.432 288.179,375.432 "/>
<g>
	<rect x="152.904" y="82.483" style="fill:#2D93BA;" width="144.435" height="10.87"/>
	<rect x="152.904" y="117.427" style="fill:#2D93BA;" width="144.435" height="10.87"/>
	<rect x="152.904" y="152.371" style="fill:#2D93BA;" width="144.435" height="10.87"/>
</g>
<g>
</g>
<g>
</g>
<g>
</g>
<g>
</g>
<g>
</g>
<g>
</g>
<g>
</g>
<g>
</g>
<g>
</g>
<g>
</g>
<g>
</g>
<g>
</g>
<g>
</g>
<g>
</g>
<g>
</g>
</svg>
