<?xml version="1.0" encoding="iso-8859-1"?>
<!-- Generator: Adobe Illustrator 19.0.0, SVG Export Plug-In . SVG Version: 6.00 Build 0)  -->
<svg xmlns="http://www.w3.org/2000/svg" xmlns:xlink="http://www.w3.org/1999/xlink" version="1.1" id="Capa_1" x="0px" y="0px" viewBox="0 0 409.585 409.585" style="enable-background:new 0 0 409.585 409.585;" xml:space="preserve">
<path style="fill:#64798A;" d="M358.738,170.981L217.136,23.59c-6.516-6.778-18.167-6.778-24.683,0L50.851,170.981l-10.734-10.32  L181.719,13.27c6.087-6.338,14.283-9.829,23.076-9.829c8.792,0,16.988,3.491,23.076,9.829l141.602,147.391L358.738,170.981z"/>
<circle style="fill:#FCD462;" cx="204.793" cy="23.139" r="23.137"/>
<path style="fill:#1C75A1;" d="M387.115,128.678H22.47c-12.41,0-22.47,10.061-22.47,22.47v235.965c0,12.41,10.06,22.47,22.47,22.47  h364.645c12.41,0,22.47-10.06,22.47-22.47V151.149C409.585,138.739,399.525,128.678,387.115,128.678z"/>
<polygon style="fill:#EBF0F3;" points="22.465,387.242 22.341,151.149 387.113,151.018 387.244,387.115 387.113,387.242 "/>
<polygon style="fill:#E1E6E9;" points="124.724,387.242 272.092,151.149 387.113,151.018 387.244,387.115 387.113,387.242 "/>
<g>
	<path style="fill:#E56353;" d="M76.444,299.95c4.053,0,7.546-0.848,10.478-2.554c2.924-1.706,5.986-4.433,9.186-8.175l7.578,9.734   c-7.383,10.232-16.35,15.35-26.893,15.35c-10.551,0-19.299-4.245-26.251-12.73c-6.953-8.485-10.429-19.219-10.429-32.198   s3.541-23.79,10.632-32.447c7.083-8.647,16.033-12.974,26.844-12.974s19.843,4.991,27.096,14.974l-7.481,10.232   c-3.33-3.991-6.473-6.779-9.438-8.363c-2.957-1.579-6.433-2.371-10.429-2.371c-7.05,0-12.971,2.854-17.763,8.551   c-4.792,5.697-7.188,12.979-7.188,21.84c0,8.861,2.38,16.264,7.14,22.21C64.285,296.979,69.921,299.95,76.444,299.95z"/>
	<path style="fill:#E56353;" d="M118.062,313.304v-87.232h11.777v73.252h31.839v13.979H118.062z"/>
	<path style="fill:#E56353;" d="M230.938,301.26c-7.05,8.612-15.765,12.918-26.146,12.918c-10.38,0-19.096-4.306-26.146-12.918   c-7.058-8.607-10.583-19.341-10.583-32.193c0-12.857,3.525-23.586,10.583-32.198c7.05-8.612,15.765-12.913,26.146-12.913   c10.38,0,19.096,4.301,26.146,12.913c7.058,8.612,10.583,19.341,10.583,32.198C241.522,281.919,237.997,292.653,230.938,301.26z    M222.312,246.663c-4.76-6.154-10.6-9.231-17.52-9.231c-6.92,0-12.76,3.077-17.52,9.231c-4.752,6.159-7.131,13.624-7.131,22.403   s2.38,16.244,7.131,22.398c4.76,6.159,10.6,9.237,17.52,9.237c6.92,0,12.76-3.077,17.52-9.237   c4.752-6.154,7.131-13.619,7.131-22.398S227.064,252.823,222.312,246.663z"/>
	<path style="fill:#E56353;" d="M277.503,237.554c-3.428,0-6.238,0.873-8.431,2.62c-2.201,1.752-3.298,4.392-3.298,7.926   c0,3.539,1.096,6.241,3.298,8.109c2.193,1.874,6.863,3.895,14.019,6.053c7.148,2.168,12.541,5.205,16.172,9.11   c3.623,3.915,5.434,9.673,5.434,17.285c0,7.612-2.291,13.791-6.888,18.534c-4.589,4.743-10.608,7.114-18.064,7.114   c-10.908,0-20.59-4.702-29.037-14.101l7.383-11.11c7.05,7.657,14.368,11.481,21.955,11.481c3.793,0,6.806-1.016,9.032-3.057   c2.234-2.036,3.346-4.743,3.346-8.109c0-3.372-1.048-5.992-3.143-7.866c-2.096-1.869-5.71-3.575-10.827-5.113   c-5.125-1.539-9.024-2.955-11.68-4.245c-2.664-1.29-5.028-2.97-7.091-5.052c-4.126-3.91-6.181-9.902-6.181-17.97   c0-8.069,2.339-14.289,7.034-18.656c4.687-4.367,10.494-6.55,17.414-6.55c4.459,0,8.886,0.914,13.272,2.742   c4.394,1.833,8.187,4.413,11.379,7.739l-6.287,11.105c-2.063-2.326-4.857-4.24-8.382-5.738   C284.407,238.305,280.931,237.554,277.503,237.554z"/>
	<path style="fill:#E56353;" d="M368.27,226.073v13.852h-37.225v23.089h33.431v13.101h-33.431v23.338h38.427v13.852h-50.204v-87.232   H368.27z"/>
</g>
<g>
</g>
<g>
</g>
<g>
</g>
<g>
</g>
<g>
</g>
<g>
</g>
<g>
</g>
<g>
</g>
<g>
</g>
<g>
</g>
<g>
</g>
<g>
</g>
<g>
</g>
<g>
</g>
<g>
</g>
</svg>
