<?xml version="1.0" encoding="iso-8859-1"?>
<!-- Generator: Adobe Illustrator 19.0.0, SVG Export Plug-In . SVG Version: 6.00 Build 0)  -->
<svg xmlns="http://www.w3.org/2000/svg" xmlns:xlink="http://www.w3.org/1999/xlink" version="1.1" id="Capa_1" x="0px" y="0px" viewBox="0 0 409.6 409.6" style="enable-background:new 0 0 409.6 409.6;" xml:space="preserve">
<circle style="fill:#EBF0F3;" cx="204.8" cy="204.8" r="204.8"/>
<g>
	<path style="fill:#27A2DB;" d="M351.806,91.918c-6.245,4.611-11.409,8.629-19.645,7.845c-13.384-1.273-19.001-13.098-29.736-18.896   c-6.835-3.692-15.056-3.318-22.811-2.849c-6.41,10.733-8.483,23.976-5.656,36.154c-5.48-1.505-9.975,4.786-10.974,10.38   c-0.998,5.595-0.668,11.954-4.494,16.154c-2.934,3.218-7.585,4.252-10.947,7.018c-2.425,1.996-4.091,4.889-4.602,7.986   c-0.899,5.448,3.066,11.883,8.581,11.628c4.257-0.197,7.448-4.042,9.142-7.952c1.696-3.909,2.52-8.248,4.955-11.744   c5.328-7.647,16.781-8.585,25.338-4.894c8.557,3.691,15.045,10.822,21.745,17.299c6.7,6.477,14.441,12.74,23.691,13.871   c-8.61,8.232-21.418,11.816-33.049,9.248c-8.408-1.856-16.073-6.664-24.637-7.563c-8.486-0.891-17.118,2.282-23.726,7.684   c-9.061,7.409-14.475,18.941-14.907,30.639c-0.296,7.999,2.625,17.238,10.123,20.035c9.638,3.593,20.489-5.499,30.244-2.249   c5.717,1.904,9.371,7.703,10.668,13.587c1.298,5.883,0.701,11.99,0.583,18.014c-0.224,11.613,1.371,23.259,4.711,34.384   c2.438,8.118,8.503,17.526,16.801,15.8c4.267-0.887,7.33-4.592,9.583-8.321c12.008-19.886,10.451-45.069,18.551-66.842   c7.78-20.915,24.318-37.77,43.454-49.247c5.664-3.398,11.707-6.477,16.087-11.421c2.396-2.702,4.153-5.824,5.446-9.169   c-5.406-30.206-17.421-58.101-34.516-82.159C365.406,85.345,358.639,86.872,351.806,91.918z"/>
	<path style="fill:#27A2DB;" d="M221.232,32.485c-20.378-0.566-40.746-0.73-61.13-0.196c-5.787,0.152-16.913-1.745-15.9,7.243   c0.773,6.853,15.837,10.597,21.096,13.085c1.636,0.775,3.367,1.631,4.297,3.184c1.057,1.764,0.829,3.977,0.643,6.025   c-0.632,7.037-0.307,14.159,0.964,21.109c8.008-0.864,13.937-7.472,20.258-12.465c6.507-5.141,14.052-8.849,20.548-14.003   c6.499-5.155,12.116-12.36,12.448-20.647c0.038-0.93-0.035-1.966-0.703-2.614C223.111,32.582,222.127,32.515,221.232,32.485z"/>
	<path style="fill:#27A2DB;" d="M21.064,149.821c-0.463,7.359-2.04,14.678-1.586,22.038c0.833,13.429,8.265,25.428,15.481,36.784   c5.949,9.364,13.644,19.781,24.731,20.166c-4.735-7.493-6.709-16.692-5.46-25.468c0.189-1.329,0.48-2.712,1.344-3.74   c1.409-1.672,3.838-1.898,5.915-2.586c5.024-1.664,8.339-6.323,11.429-10.623c14.894-20.736,32.694-39.382,52.713-55.227   c9.575-7.578,19.888-14.765,26.471-25.051c-6.121-7.748-17.26-9.664-27.041-8.299c-9.779,1.365-19.004,5.368-28.7,7.238   c-3.729,0.719-8.26,0.833-10.576-2.178c-2.541-3.302-0.736-8.065,1.342-11.676c3.721-6.46,8.127-12.524,13.123-18.058   c5.427-6.015,13.678-11.796,21.024-8.381c4.187,1.946,8.038,6.742,12.319,5.012c3.34-1.349,3.931-6.216,1.993-9.251   c-1.941-3.035-5.468-4.608-8.851-5.842c-5.911-2.155-12.203-3.802-18.447-3.043c-6.245,0.76-12.453,4.354-14.851,10.17   c-0.993,2.412-1.546,5.393-3.874,6.572c-1.702,0.863-3.752,0.395-5.586-0.144c-7.828-2.304-15.352-5.621-22.36-9.804   C43.095,76.55,28.017,98.15,17.406,122.18C20.356,131.056,21.65,140.484,21.064,149.821z"/>
	<path style="fill:#27A2DB;" d="M165.755,271.745c-18.784-10.661-38.299-25.818-58.247-33.847   c-9.472-3.812-12.104,0.093-14.809,9.167c-1.578,5.291-2.426,9.128-5.649,13.706c-2.585,3.671-6.717,6.153-7.221,11.032   c-0.407,3.921,1.909,7.548,4.124,10.808c5.161,7.592,10.358,15.228,16.77,21.798c2.365,2.423,4.908,4.718,6.782,7.539   c1.968,2.964,3.118,6.407,3.821,9.895c3.76,18.641-4.304,40.228,6.624,55.791c5.817-17.854,12.2-36.596,26.264-49.036   c8.153-7.211,18.422-11.824,26.115-19.525c7.692-7.701,12.177-20.623,5.732-29.394C173.472,276.16,169.554,273.901,165.755,271.745   z"/>
</g>
<g>
</g>
<g>
</g>
<g>
</g>
<g>
</g>
<g>
</g>
<g>
</g>
<g>
</g>
<g>
</g>
<g>
</g>
<g>
</g>
<g>
</g>
<g>
</g>
<g>
</g>
<g>
</g>
<g>
</g>
</svg>
