<?xml version="1.0" encoding="iso-8859-1"?>
<!-- Generator: Adobe Illustrator 19.0.0, SVG Export Plug-In . SVG Version: 6.00 Build 0)  -->
<svg xmlns="http://www.w3.org/2000/svg" xmlns:xlink="http://www.w3.org/1999/xlink" version="1.1" id="Capa_1" x="0px" y="0px" viewBox="0 0 409.6 409.6" style="enable-background:new 0 0 409.6 409.6;" xml:space="preserve">
<path style="fill:#27A2DB;" d="M297.744,28.164H21.691c-5.442,0-9.854,4.412-9.854,9.854v361.728c0,5.442,4.412,9.854,9.854,9.854  h276.052c5.443,0,9.854-4.412,9.854-9.854V38.018C307.597,32.576,303.187,28.164,297.744,28.164z"/>
<rect x="26.731" y="50.503" style="fill:#E1E6E9;" width="265.969" height="344.218"/>
<rect x="26.731" y="43.059" style="fill:#EBF0F3;" width="265.969" height="344.218"/>
<g>
	<path style="fill:#64798A;" d="M224.238,17.507h-45.903C177.687,7.743,169.646,0,159.717,0c-9.927,0-17.97,7.743-18.617,17.507   H95.197c-5.349,0-9.685,4.336-9.685,9.685v33.211h148.411V27.192C233.923,21.843,229.587,17.507,224.238,17.507z"/>
	<path style="fill:#64798A;" d="M94.579,121.421H57.816V84.653h36.764V121.421z M63.401,115.835h25.593V90.239H63.401V115.835z"/>
	<rect x="109.286" y="99.312" style="fill:#64798A;" width="141.896" height="7.45"/>
	<path style="fill:#64798A;" d="M94.579,178.052H57.816v-36.767h36.764V178.052z M63.401,172.466h25.593V146.87H63.401V172.466z"/>
	<rect x="109.286" y="155.945" style="fill:#64798A;" width="141.896" height="7.45"/>
	<path style="fill:#64798A;" d="M94.579,234.683H57.816v-36.767h36.764V234.683z M63.401,229.097h25.593v-25.596H63.401V229.097z"/>
	<rect x="109.286" y="212.582" style="fill:#64798A;" width="141.896" height="7.45"/>
	<path style="fill:#64798A;" d="M94.579,291.314H57.816v-36.767h36.764V291.314z M63.401,285.728h25.593v-25.596H63.401V285.728z"/>
	<rect x="109.286" y="269.209" style="fill:#64798A;" width="141.896" height="7.45"/>
	<path style="fill:#64798A;" d="M94.579,347.945H57.816v-36.767h36.764V347.945z M63.401,342.359h25.593v-25.596H63.401V342.359z"/>
	<rect x="109.286" y="325.836" style="fill:#64798A;" width="141.896" height="7.45"/>
</g>
<g>
	<circle style="fill:#E56353;" cx="308.674" cy="320.512" r="89.088"/>
	<polygon style="fill:#E56353;" points="77.171,113.16 67.571,103.56 72.836,98.294 77.564,103.022 98.116,85.429 102.96,91.087     "/>
	<polygon style="fill:#E56353;" points="77.171,167.165 67.571,157.565 72.836,152.299 77.564,157.026 98.116,139.434    102.96,145.092  "/>
	<polygon style="fill:#E56353;" points="77.171,221.169 67.571,211.569 72.836,206.304 77.564,211.031 98.116,193.439    102.96,199.097  "/>
</g>
<g>
	<path style="fill:#FFFFFF;" d="M344.536,358.987c-5.51,0-10.216,3.426-12.152,8.253h-29.311c-1.936-4.827-6.645-8.253-12.161-8.253   c-5.51,0-10.216,3.426-12.152,8.253h-4.976c-3.588,0-6.512-2.919-6.512-6.507s2.923-6.507,6.512-6.507h86.428l12.043-66.95H265.44   l-3.429-16.581h-16.962v8.962h9.662l13.777,66.599c-5.922,2.173-10.18,7.814-10.18,14.477c0,8.529,6.941,15.47,15.474,15.47h4.738   c1.732,5.217,6.6,9.015,12.39,9.015c5.796,0,10.667-3.797,12.399-9.015h28.836c1.732,5.217,6.6,9.015,12.39,9.015   c5.796,0,10.667-3.797,12.399-9.015h7.145v-8.962h-7.382C354.761,362.413,350.052,358.987,344.536,358.987z M361.541,296.238   l-8.822,49.026h-75.291l-10.135-49.026H361.541z M290.911,376.256c-2.284,0-4.149-1.864-4.149-4.153s1.864-4.153,4.149-4.153   c2.293,0,4.157,1.864,4.157,4.153S293.204,376.256,290.911,376.256z M344.536,376.256c-2.284,0-4.149-1.864-4.149-4.153   s1.864-4.153,4.149-4.153c2.293,0,4.157,1.864,4.157,4.153S346.829,376.256,344.536,376.256z"/>
	<rect x="282.511" y="307.353" style="fill:#FFFFFF;" width="8.96" height="27.305"/>
	<rect x="300.073" y="307.353" style="fill:#FFFFFF;" width="8.96" height="27.305"/>
	<rect x="317.583" y="307.353" style="fill:#FFFFFF;" width="8.96" height="27.305"/>
	<rect x="335.094" y="307.353" style="fill:#FFFFFF;" width="8.96" height="27.305"/>
</g>
<path style="fill:#FCD462;" d="M307.361,59.796L174.038,203.035c-0.973,1.045-1.664,2.322-2.006,3.71l-5.971,24.193  c3.687,0.436,7.276,1.952,10.202,4.675c2.926,2.724,4.696,6.195,5.395,9.841l23.704-7.687c1.359-0.441,2.583-1.222,3.556-2.267  L342.241,92.262C346.794,87.369,311.914,54.903,307.361,59.796z"/>
<path style="fill:#DC8744;" d="M298.735,92.376L185.709,213.808c-2.988,3.21-2.808,8.236,0.403,11.224  c3.211,2.989,8.236,2.808,11.224-0.402l113.026-121.432L298.735,92.376z"/>
<g>
	<path style="fill:#F6C358;" d="M287.109,81.555L174.083,202.987c-2.988,3.21-2.808,8.236,0.403,11.224   c3.211,2.989,8.236,2.808,11.224-0.402L298.736,92.377L287.109,81.555z"/>
	<path style="fill:#F6C358;" d="M310.362,103.198L197.336,224.63c-2.988,3.21-2.808,8.236,0.403,11.224   c3.211,2.989,8.236,2.808,11.224-0.402l113.026-121.432L310.362,103.198z"/>
</g>
<path style="fill:#64798A;" d="M166.062,230.938l-3.88,15.72c-0.599,2.423,1.699,4.562,4.074,3.792l15.402-4.996  c-0.699-3.646-2.469-7.118-5.395-9.841C173.338,232.89,169.749,231.374,166.062,230.938z"/>
<path style="fill:#E56353;" d="M342.241,92.262c4.553-4.893-30.327-37.359-34.88-32.466L290.41,78.009l34.88,32.466L342.241,92.262z  "/>
<g>
</g>
<g>
</g>
<g>
</g>
<g>
</g>
<g>
</g>
<g>
</g>
<g>
</g>
<g>
</g>
<g>
</g>
<g>
</g>
<g>
</g>
<g>
</g>
<g>
</g>
<g>
</g>
<g>
</g>
</svg>
