<?xml version="1.0" encoding="iso-8859-1"?>
<!-- Generator: Adobe Illustrator 19.0.0, SVG Export Plug-In . SVG Version: 6.00 Build 0)  -->
<svg xmlns="http://www.w3.org/2000/svg" xmlns:xlink="http://www.w3.org/1999/xlink" version="1.1" id="Capa_1" x="0px" y="0px" viewBox="0 0 409.6 409.6" style="enable-background:new 0 0 409.6 409.6;" xml:space="preserve">
<path style="fill:#64798A;" d="M305.136,24.148H104.464c-5.966,0-10.803,4.837-10.803,10.804v363.845  c0,5.967,4.837,10.804,10.803,10.804h200.672c5.966,0,10.803-4.837,10.803-10.804V34.951  C315.939,28.985,311.102,24.148,305.136,24.148z"/>
<rect x="287.539" y="24.146" style="fill:#3A556A;" width="5.458" height="385.434"/>
<path style="fill:#44C4A1;" d="M267.453,97.607H119.968c-4.114,0-7.447,3.334-7.447,7.447v78.064c0,4.113,3.334,7.447,7.447,7.447  h147.484c4.114,0,7.447-3.335,7.447-7.447v-78.064C274.9,100.941,271.566,97.607,267.453,97.607z"/>
<path style="fill:#3EA69B;" d="M112.521,178.946v4.173c0,4.113,3.334,7.447,7.447,7.447h147.484c4.114,0,7.447-3.335,7.447-7.447  v-4.173H112.521z"/>
<path style="fill:#27A2DB;" d="M271.176,238.597h-19.372c-2.056,0-3.724,1.667-3.724,3.724v19.372c0,2.057,1.667,3.724,3.724,3.724  h19.372c2.057,0,3.724-1.667,3.724-3.724V242.32C274.9,240.264,273.233,238.597,271.176,238.597z"/>
<rect x="114.959" y="213.079" style="fill:#FCD462;" width="26.819" height="11.648"/>
<rect x="159.334" y="213.079" style="fill:#27A2DB;" width="26.819" height="11.648"/>
<rect x="203.704" y="213.079" style="fill:#44C4A1;" width="26.819" height="11.648"/>
<rect x="248.064" y="213.079" style="fill:#E56353;" width="26.819" height="11.648"/>
<path style="fill:#FCD462;" d="M271.176,280.045h-19.372c-2.056,0-3.724,1.667-3.724,3.724v19.372c0,2.057,1.667,3.724,3.724,3.724  h19.372c2.057,0,3.724-1.667,3.724-3.724v-19.372C274.9,281.712,273.233,280.045,271.176,280.045z"/>
<g>
	<path style="fill:#EBF0F3;" d="M138.054,238.597h-19.372c-2.057,0-3.724,1.667-3.724,3.724v19.372c0,2.057,1.666,3.724,3.724,3.724   h19.372c2.056,0,3.724-1.667,3.724-3.724V242.32C141.778,240.264,140.111,238.597,138.054,238.597z"/>
	<path style="fill:#EBF0F3;" d="M182.428,238.597h-19.372c-2.057,0-3.724,1.667-3.724,3.724v19.372c0,2.057,1.666,3.724,3.724,3.724   h19.372c2.056,0,3.724-1.667,3.724-3.724V242.32C186.152,240.264,184.484,238.597,182.428,238.597z"/>
	<path style="fill:#EBF0F3;" d="M226.803,238.597H207.43c-2.056,0-3.724,1.667-3.724,3.724v19.372c0,2.057,1.667,3.724,3.724,3.724   h19.373c2.056,0,3.724-1.667,3.724-3.724V242.32C230.526,240.264,228.859,238.597,226.803,238.597z"/>
	<path style="fill:#EBF0F3;" d="M138.054,280.045h-19.372c-2.057,0-3.724,1.667-3.724,3.724v19.372c0,2.057,1.666,3.724,3.724,3.724   h19.372c2.056,0,3.724-1.667,3.724-3.724v-19.372C141.778,281.712,140.111,280.045,138.054,280.045z"/>
	<path style="fill:#EBF0F3;" d="M182.428,280.045h-19.372c-2.057,0-3.724,1.667-3.724,3.724v19.372c0,2.057,1.666,3.724,3.724,3.724   h19.372c2.056,0,3.724-1.667,3.724-3.724v-19.372C186.152,281.712,184.484,280.045,182.428,280.045z"/>
	<path style="fill:#EBF0F3;" d="M226.803,280.045H207.43c-2.056,0-3.724,1.667-3.724,3.724v19.372c0,2.057,1.667,3.724,3.724,3.724   h19.373c2.056,0,3.724-1.667,3.724-3.724v-19.372C230.526,281.712,228.859,280.045,226.803,280.045z"/>
	<path style="fill:#EBF0F3;" d="M138.054,321.494h-19.372c-2.057,0-3.724,1.667-3.724,3.724v19.372c0,2.056,1.666,3.724,3.724,3.724   h19.372c2.056,0,3.724-1.667,3.724-3.724v-19.372C141.778,323.161,140.111,321.494,138.054,321.494z"/>
	<path style="fill:#EBF0F3;" d="M182.428,321.494h-19.372c-2.057,0-3.724,1.667-3.724,3.724v19.372c0,2.056,1.666,3.724,3.724,3.724   h19.372c2.056,0,3.724-1.667,3.724-3.724v-19.372C186.152,323.161,184.484,321.494,182.428,321.494z"/>
	<path style="fill:#EBF0F3;" d="M226.803,321.494H207.43c-2.056,0-3.724,1.667-3.724,3.724v19.372c0,2.056,1.667,3.724,3.724,3.724   h19.373c2.056,0,3.724-1.667,3.724-3.724v-19.372C230.526,323.161,228.859,321.494,226.803,321.494z"/>
	<path style="fill:#EBF0F3;" d="M138.054,362.942h-19.372c-2.057,0-3.724,1.667-3.724,3.724v19.372c0,2.056,1.666,3.724,3.724,3.724   h19.372c2.056,0,3.724-1.667,3.724-3.724v-19.372C141.778,364.609,140.111,362.942,138.054,362.942z"/>
	<path style="fill:#EBF0F3;" d="M182.428,362.942h-19.372c-2.057,0-3.724,1.667-3.724,3.724v19.372c0,2.056,1.666,3.724,3.724,3.724   h19.372c2.056,0,3.724-1.667,3.724-3.724v-19.372C186.152,364.609,184.484,362.942,182.428,362.942z"/>
	<path style="fill:#EBF0F3;" d="M226.803,362.942H207.43c-2.056,0-3.724,1.667-3.724,3.724v19.372c0,2.056,1.667,3.724,3.724,3.724   h19.373c2.056,0,3.724-1.667,3.724-3.724v-19.372C230.526,364.609,228.859,362.942,226.803,362.942z"/>
</g>
<path style="fill:#E56353;" d="M271.176,321.494h-19.372c-2.056,0-3.724,1.667-3.724,3.724v60.82c0,2.056,1.667,3.724,3.724,3.724  h19.372c2.057,0,3.724-1.667,3.724-3.724v-60.82C274.9,323.161,273.233,321.494,271.176,321.494z"/>
<rect x="112.522" y="73.206" style="fill:#3A556A;" width="162.381" height="9.61"/>
<path style="fill:#EBF0F3;" d="M267.839,76.538c-59.301,0-88.954,0-148.257,0c-4.164-30.055-4.176-46.465,0-76.538  c59.304,0,88.956,0,148.257,0C263.69,30.073,263.672,46.483,267.839,76.538z"/>
<g>
	<rect x="136.709" y="13.199" style="fill:#E1E6E9;" width="113.818" height="7.009"/>
	<rect x="132.69" y="36.557" style="fill:#E1E6E9;" width="113.818" height="7.009"/>
	<rect x="136.709" y="59.899" style="fill:#E1E6E9;" width="113.818" height="7.009"/>
</g>
<g>
</g>
<g>
</g>
<g>
</g>
<g>
</g>
<g>
</g>
<g>
</g>
<g>
</g>
<g>
</g>
<g>
</g>
<g>
</g>
<g>
</g>
<g>
</g>
<g>
</g>
<g>
</g>
<g>
</g>
</svg>
