<?xml version="1.0" encoding="iso-8859-1"?>
<!-- Generator: Adobe Illustrator 19.0.0, SVG Export Plug-In . SVG Version: 6.00 Build 0)  -->
<svg xmlns="http://www.w3.org/2000/svg" xmlns:xlink="http://www.w3.org/1999/xlink" version="1.1" id="Capa_1" x="0px" y="0px" viewBox="0 0 409.6 409.6" style="enable-background:new 0 0 409.6 409.6;" xml:space="preserve">
<g>
	<path style="fill:#DC8744;" d="M306.676,267.319l-16.294-4.985c14.072-46.03,34.426-101.065,53.133-143.629   c32.645-74.319,44.52-77.748,53.815-74.885c9.636,2.946,17.209,14.263,7.464,76.591c-6.141,39.257-17.675,87.954-31.63,133.606   l-16.294-4.985c27.486-89.914,38.237-165.028,34.967-185.628C375.22,83.026,334.412,176.602,306.676,267.319z"/>
	<path style="fill:#DC8744;" d="M102.916,267.319C75.18,176.602,34.38,83.022,17.761,63.404   c-3.279,20.6,7.473,95.718,34.959,185.628l-16.294,4.985c-13.955-45.648-25.48-94.345-31.622-133.606   C-4.94,58.083,2.633,46.765,12.269,43.82c9.287-2.838,21.17,0.562,53.815,74.885c18.698,42.56,39.053,97.595,53.125,143.629   L102.916,267.319z"/>
	<path style="fill:#DC8744;" d="M368.347,63.824l-5.54,3.664c-1.021,0.597-102.169,67.318-121.086,135.488   c-4.516,16.361-19.685,27.779-36.897,27.779c-17.213,0-32.465-11.418-36.982-27.779C148.925,134.721,47.777,68.085,46.756,67.488   l-5.54-3.664L62.519,0l6.903,0.681c101.232,11.248,169.573,11.248,270.805,0L347.044,0L368.347,63.824z"/>
</g>
<g>
	<path style="fill:#FCD462;" d="M406.118,314.468c-5.109-27.786-17.558-61.134-37.197-71.403   c-32.071-16.785-101.09,26.729-153.307,66.169l5.136,6.802l0.025,9.95c10.493,10.657,10.523,29.942,0.103,40.663l0.022,8.684   l-4.604,7.176c3.637,2.33,7.215,3.994,10.951,5.089c39.036,11.434,84.621,21.998,119.747,21.998   c22.11,0,40.076-4.186,49.646-14.979C411.427,377.949,411.228,342.283,406.118,314.468z"/>
	<path style="fill:#FCD462;" d="M188.698,375.336l0.01-4.138c-18.551-9.76-18.49-40.035,0.124-49.71l0.014-5.454l-0.002-0.002   l5.134-6.798c-52.209-39.452-121.153-82.974-153.307-66.169c-19.63,10.269-32.079,43.617-37.189,71.403   c-5.109,27.815-5.309,63.481,9.478,80.149c9.57,10.797,27.528,14.983,49.646,14.983c35.117-0.004,80.71-10.572,119.738-22.002   c3.703-1.086,7.39-2.8,10.959-5.093l-4.61-7.168L188.698,375.336z"/>
</g>
<path style="fill:#DC8744;" d="M204.796,392.645c-19.115,0-34.085-20.587-34.085-46.867c0-26.279,14.97-46.867,34.085-46.867  s34.085,20.587,34.085,46.867C238.881,372.057,223.91,392.645,204.796,392.645z M204.796,315.954  c-8.064,0-17.042,12.249-17.042,29.824c0,17.575,8.979,29.824,17.042,29.824c8.064,0,17.042-12.249,17.042-29.824  C221.838,328.203,212.859,315.954,204.796,315.954z"/>
<g>
</g>
<g>
</g>
<g>
</g>
<g>
</g>
<g>
</g>
<g>
</g>
<g>
</g>
<g>
</g>
<g>
</g>
<g>
</g>
<g>
</g>
<g>
</g>
<g>
</g>
<g>
</g>
<g>
</g>
</svg>
