<?xml version="1.0" encoding="iso-8859-1"?>
<!-- Generator: Adobe Illustrator 19.0.0, SVG Export Plug-In . SVG Version: 6.00 Build 0)  -->
<svg xmlns="http://www.w3.org/2000/svg" xmlns:xlink="http://www.w3.org/1999/xlink" version="1.1" id="Capa_1" x="0px" y="0px" viewBox="0 0 409.599 409.599" style="enable-background:new 0 0 409.599 409.599;" xml:space="preserve">
<polygon style="fill:#DC8744;" points="379.259,174.019 30.341,174.019 31.873,193.292 377.726,193.292 "/>
<path style="fill:#F6C358;" d="M386.459,179.708H23.141C10.36,179.708,0,169.347,0,156.567V135.53  c0-12.78,10.36-23.141,23.141-23.141h363.318c12.78,0,23.141,10.36,23.141,23.141v21.037  C409.599,169.347,399.239,179.708,386.459,179.708z"/>
<path style="fill:#FCD462;" d="M31.873,193.292l14.488,182.177c1.087,13.67,12.498,24.209,26.21,24.209h264.458  c13.712,0,25.123-10.539,26.21-24.209l14.488-182.177H31.873z"/>
<g>
	<path style="fill:#F6C358;" d="M107.555,224.139c-5.198,0-9.411,4.213-9.411,9.411v129.66c0,5.197,4.213,9.411,9.411,9.411   c5.197,0,9.411-4.213,9.411-9.411V233.55C116.966,228.352,112.752,224.139,107.555,224.139z"/>
	<path style="fill:#F6C358;" d="M156.177,224.139c-5.198,0-9.411,4.213-9.411,9.411v129.66c0,5.197,4.213,9.411,9.411,9.411   c5.197,0,9.411-4.213,9.411-9.411V233.55C165.588,228.352,161.375,224.139,156.177,224.139z"/>
	<path style="fill:#F6C358;" d="M204.8,224.139c-5.198,0-9.411,4.213-9.411,9.411v129.66c0,5.197,4.213,9.411,9.411,9.411   c5.197,0,9.411-4.213,9.411-9.411V233.55C214.211,228.352,209.997,224.139,204.8,224.139z"/>
	<path style="fill:#F6C358;" d="M253.422,224.139c-5.198,0-9.411,4.213-9.411,9.411v129.66c0,5.197,4.213,9.411,9.411,9.411   c5.197,0,9.411-4.213,9.411-9.411V233.55C262.833,228.352,258.62,224.139,253.422,224.139z"/>
	<path style="fill:#F6C358;" d="M302.045,224.139c-5.198,0-9.411,4.213-9.411,9.411v129.66c0,5.197,4.213,9.411,9.411,9.411   c5.197,0,9.411-4.213,9.411-9.411V233.55C311.456,228.352,307.242,224.139,302.045,224.139z"/>
</g>
<g>
	<path style="fill:#EFB652;" d="M156.643,137.231l-23.682-24.841h-55.62l50.164,52.62c7.671,8.046,20.412,8.35,28.457,0.68v0   C164.008,158.018,164.314,145.277,156.643,137.231z"/>
	<path style="fill:#EFB652;" d="M252.957,137.231l23.682-24.841h55.62l-50.164,52.62c-7.671,8.046-20.412,8.35-28.457,0.68v0   C245.591,158.018,245.286,145.277,252.957,137.231z"/>
</g>
<circle style="fill:#EBF0F3;" cx="350.464" cy="34.84" r="24.919"/>
<path style="fill:#DC8744;" d="M251.139,139.431L334.42,22.654c6.455-9.051,19.025-11.155,28.076-4.7l0.001,0  c9.05,6.454,11.155,19.024,4.7,28.075l-83.281,116.776c-6.455,9.051-19.024,11.155-28.075,4.701l-0.001-0.001  C246.79,161.052,244.684,148.482,251.139,139.431z"/>
<circle style="fill:#C67239;" cx="269.209" cy="148.218" r="12.82"/>
<circle style="fill:#EBF0F3;" cx="59.156" cy="34.84" r="24.919"/>
<path style="fill:#DC8744;" d="M158.46,139.431L75.179,22.654c-6.455-9.051-19.025-11.155-28.075-4.7l-0.001,0  c-9.05,6.454-11.155,19.024-4.7,28.075l83.281,116.776c6.455,9.051,19.024,11.155,28.075,4.701l0.001-0.001  C162.81,161.052,164.915,148.482,158.46,139.431z"/>
<g>
	<circle style="fill:#C67239;" cx="140.416" cy="148.218" r="12.82"/>
	<circle style="fill:#C67239;" cx="59.156" cy="34.84" r="7.511"/>
	<circle style="fill:#C67239;" cx="350.464" cy="34.84" r="7.511"/>
</g>
<g>
</g>
<g>
</g>
<g>
</g>
<g>
</g>
<g>
</g>
<g>
</g>
<g>
</g>
<g>
</g>
<g>
</g>
<g>
</g>
<g>
</g>
<g>
</g>
<g>
</g>
<g>
</g>
<g>
</g>
</svg>
