<?xml version="1.0" encoding="iso-8859-1"?>
<!-- Generator: Adobe Illustrator 19.0.0, SVG Export Plug-In . SVG Version: 6.00 Build 0)  -->
<svg xmlns="http://www.w3.org/2000/svg" xmlns:xlink="http://www.w3.org/1999/xlink" version="1.1" id="Capa_1" x="0px" y="0px" viewBox="0 0 410.118 410.118" style="enable-background:new 0 0 410.118 410.118;" xml:space="preserve">
<polygon style="fill:#DC8744;" points="368.048,83.042 41.552,83.042 42.986,101.077 366.614,101.077 "/>
<g>
	<path style="fill:#FCD462;" d="M387.849,88.365H21.751c-4.744,0-8.59-3.846-8.59-8.59V33.963c0-4.744,3.846-8.59,8.59-8.59h366.098   c4.744,0,8.59,3.846,8.59,8.59v45.812C396.439,84.519,392.593,88.365,387.849,88.365z"/>
	<path style="fill:#FCD462;" d="M42.986,101.077l13.557,170.47C57.56,284.338,68.237,294.2,81.068,294.2h247.464   c12.831,0,23.508-9.862,24.526-22.653l13.557-170.47C366.614,101.077,42.986,101.077,42.986,101.077z"/>
</g>
<g>
	<path style="fill:#DC8744;" d="M113.804,129.941c-4.864,0-8.806,3.943-8.806,8.806v121.328c0,4.863,3.943,8.806,8.806,8.806   c4.863,0,8.806-3.943,8.806-8.806V138.747C122.61,133.884,118.668,129.941,113.804,129.941z"/>
	<path style="fill:#DC8744;" d="M159.302,129.941c-4.864,0-8.806,3.943-8.806,8.806v121.328c0,4.863,3.943,8.806,8.806,8.806   c4.863,0,8.806-3.943,8.806-8.806V138.747C168.108,133.884,164.166,129.941,159.302,129.941z"/>
	<path style="fill:#DC8744;" d="M204.8,129.941c-4.864,0-8.806,3.943-8.806,8.806v121.328c0,4.863,3.943,8.806,8.806,8.806   c4.863,0,8.806-3.943,8.806-8.806V138.747C213.606,133.884,209.664,129.941,204.8,129.941z"/>
	<path style="fill:#DC8744;" d="M250.298,129.941c-4.864,0-8.806,3.943-8.806,8.806v121.328c0,4.863,3.943,8.806,8.806,8.806   c4.863,0,8.806-3.943,8.806-8.806V138.747C259.104,133.884,255.161,129.941,250.298,129.941z"/>
	<path style="fill:#DC8744;" d="M295.796,129.941c-4.864,0-8.806,3.943-8.806,8.806v121.328c0,4.863,3.943,8.806,8.806,8.806   c4.863,0,8.806-3.943,8.806-8.806V138.747C304.602,133.884,300.659,129.941,295.796,129.941z"/>
</g>
<path style="fill:#E56353;" d="M293.312,43.611l108.532,78.955c8.412,6.12,10.27,17.9,4.15,26.312l0,0.001  c-6.119,8.411-17.899,10.27-26.311,4.15L271.151,74.074c-8.412-6.12-10.27-17.899-4.151-26.311l0.001-0.001  C273.12,39.351,284.901,37.491,293.312,43.611z"/>
<ellipse style="fill:#D15241;" cx="284.923" cy="60.409" rx="11.996" ry="11.996"/>
<path style="fill:#E56353;" d="M116.288,45.11L7.756,124.065c-8.412,6.12-10.27,17.9-4.15,26.312l0,0.001  c6.119,8.411,17.899,10.27,26.311,4.15l108.532-78.955c8.412-6.12,10.27-17.899,4.151-26.311l-0.001-0.001  C136.48,40.849,124.699,38.99,116.288,45.11z"/>
<ellipse style="fill:#D15241;" cx="124.673" cy="61.906" rx="11.996" ry="11.996"/>
<path style="fill:#E56353;" d="M231.218,295.295c0,49.402,40.049,89.45,89.451,89.45v-178.9  C271.267,205.846,231.218,245.894,231.218,295.295z"/>
<path style="fill:#D15241;" d="M320.669,205.846v178.9c49.402,0,89.449-40.048,89.449-89.45S370.071,205.846,320.669,205.846z"/>
<rect x="259.695" y="278.275" style="fill:#FFFFFF;" width="121.948" height="34.084"/>
<g>
</g>
<g>
</g>
<g>
</g>
<g>
</g>
<g>
</g>
<g>
</g>
<g>
</g>
<g>
</g>
<g>
</g>
<g>
</g>
<g>
</g>
<g>
</g>
<g>
</g>
<g>
</g>
<g>
</g>
</svg>
