<?xml version="1.0" encoding="iso-8859-1"?>
<!-- Generator: Adobe Illustrator 19.0.0, SVG Export Plug-In . SVG Version: 6.00 Build 0)  -->
<svg xmlns="http://www.w3.org/2000/svg" xmlns:xlink="http://www.w3.org/1999/xlink" version="1.1" id="Capa_1" x="0px" y="0px" viewBox="0 0 410.103 410.103" style="enable-background:new 0 0 410.103 410.103;" xml:space="preserve">
<polygon style="fill:#D15241;" points="368.035,83.039 41.55,83.039 42.984,101.073 366.601,101.073 "/>
<g>
	<path style="fill:#E56353;" d="M387.834,88.362H21.751c-4.744,0-8.59-3.846-8.59-8.59v-45.81c0-4.744,3.846-8.59,8.59-8.59h366.084   c4.744,0,8.59,3.846,8.59,8.59v45.81C396.424,84.516,392.578,88.362,387.834,88.362z"/>
	<path style="fill:#E56353;" d="M42.984,101.073L56.54,271.537c1.017,12.791,11.694,22.652,24.525,22.652H328.52   c12.831,0,23.507-9.861,24.525-22.652l13.556-170.464C366.601,101.073,42.984,101.073,42.984,101.073z"/>
</g>
<g>
	<path style="fill:#D15241;" d="M113.8,129.936c-4.864,0-8.806,3.942-8.806,8.806v121.324c0,4.863,3.942,8.806,8.806,8.806   c4.863,0,8.806-3.942,8.806-8.806V138.742C122.606,133.879,118.663,129.936,113.8,129.936z"/>
	<path style="fill:#D15241;" d="M159.296,129.936c-4.864,0-8.806,3.942-8.806,8.806v121.324c0,4.863,3.942,8.806,8.806,8.806   c4.863,0,8.806-3.942,8.806-8.806V138.742C168.102,133.879,164.16,129.936,159.296,129.936z"/>
	<path style="fill:#D15241;" d="M204.793,129.936c-4.864,0-8.806,3.942-8.806,8.806v121.324c0,4.863,3.942,8.806,8.806,8.806   c4.863,0,8.806-3.942,8.806-8.806V138.742C213.598,133.879,209.656,129.936,204.793,129.936z"/>
	<path style="fill:#D15241;" d="M250.289,129.936c-4.864,0-8.806,3.942-8.806,8.806v121.324c0,4.863,3.942,8.806,8.806,8.806   c4.863,0,8.806-3.942,8.806-8.806V138.742C259.095,133.879,255.152,129.936,250.289,129.936z"/>
	<path style="fill:#D15241;" d="M295.785,129.936c-4.864,0-8.806,3.942-8.806,8.806v121.324c0,4.863,3.942,8.806,8.806,8.806   c4.863,0,8.806-3.942,8.806-8.806V138.742C304.591,133.879,300.648,129.936,295.785,129.936z"/>
</g>
<path style="fill:#EBF0F3;" d="M293.302,43.61l108.528,78.952c8.412,6.12,10.269,17.899,4.15,26.311l0,0.001  c-6.119,8.411-17.899,10.269-26.31,4.15L271.141,74.071c-8.412-6.12-10.27-17.899-4.15-26.31l0.001-0.001  C273.11,39.349,284.89,37.49,293.302,43.61z"/>
<ellipse style="fill:#D5D6DB;" cx="284.92" cy="60.401" rx="11.996" ry="11.996"/>
<path style="fill:#EBF0F3;" d="M116.283,45.108L7.755,124.06c-8.412,6.12-10.269,17.899-4.15,26.311l0,0.001  c6.119,8.411,17.899,10.269,26.31,4.15l108.528-78.952c8.412-6.12,10.27-17.899,4.151-26.31l-0.001-0.001  C136.475,40.848,124.695,38.988,116.283,45.108z"/>
<ellipse style="fill:#D5D6DB;" cx="124.666" cy="61.898" rx="11.996" ry="11.996"/>
<path style="fill:#44C4A1;" d="M231.21,295.285c0,49.4,40.048,89.447,89.448,89.447V205.838  C271.257,205.838,231.21,245.885,231.21,295.285z"/>
<path style="fill:#3EA69B;" d="M320.657,205.838v178.893c49.4,0,89.446-40.047,89.446-89.447S370.057,205.838,320.657,205.838z"/>
<polygon style="fill:#FFFFFF;" points="381.629,278.243 337.699,278.243 337.699,234.312 303.613,234.312 303.613,278.243   259.684,278.243 259.684,312.326 303.613,312.326 303.613,356.257 337.699,356.257 337.699,312.326 381.629,312.326 "/>
<g>
</g>
<g>
</g>
<g>
</g>
<g>
</g>
<g>
</g>
<g>
</g>
<g>
</g>
<g>
</g>
<g>
</g>
<g>
</g>
<g>
</g>
<g>
</g>
<g>
</g>
<g>
</g>
<g>
</g>
</svg>
