<?xml version="1.0" encoding="iso-8859-1"?>
<!-- Generator: Adobe Illustrator 19.0.0, SVG Export Plug-In . SVG Version: 6.00 Build 0)  -->
<svg xmlns="http://www.w3.org/2000/svg" xmlns:xlink="http://www.w3.org/1999/xlink" version="1.1" id="Capa_1" x="0px" y="0px" viewBox="0 0 409.6 409.6" style="enable-background:new 0 0 409.6 409.6;" xml:space="preserve">
<g>
	<rect x="2.148" style="fill:#64798A;" width="13.066" height="194.918"/>
	<rect x="34.829" style="fill:#64798A;" width="13.066" height="194.918"/>
	<rect x="64.248" style="fill:#64798A;" width="19.599" height="194.918"/>
	<rect x="100.206" style="fill:#64798A;" width="13.066" height="194.918"/>
	<rect x="132.887" style="fill:#64798A;" width="13.066" height="194.918"/>
	<rect x="165.573" style="fill:#64798A;" width="13.066" height="194.918"/>
	<rect x="191.736" style="fill:#64798A;" width="26.132" height="194.918"/>
	<rect x="230.956" style="fill:#64798A;" width="13.066" height="194.918"/>
	<rect x="263.621" style="fill:#64798A;" width="13.066" height="194.918"/>
	<rect x="299.564" style="fill:#64798A;" width="6.533" height="194.918"/>
	<rect x="332.27" style="fill:#64798A;" width="6.533" height="194.918"/>
	<rect x="361.669" style="fill:#64798A;" width="13.066" height="194.918"/>
	<rect x="394.386" style="fill:#64798A;" width="13.066" height="194.918"/>
</g>
<rect x="2.148" y="57.139" style="fill:#E56353;" width="405.299" height="15.314"/>
<path style="fill:#27A2DB;" d="M92.495,88.473l8.848,92.196c0.649,6.758,5.83,12.169,12.493,13.044l20.133,2.645  c29.082,3.821,45.865,28.858,45.865,58.497v5.138c0,17.223-2.842,33.161-15.409,44.792c-12.667,11.724-20.313,28.882-19.281,47.848  c1.669,30.63,26.866,55.69,57.195,56.917c34.111,1.379,62.193-26.159,62.193-60.326c0-17.858-7.683-33.882-19.884-44.92  c-12.755-11.538-15.586-27.625-15.586-44.925v-4.47c0-29.663,16.816-54.712,45.927-58.505l20.746-2.703  c6.669-0.869,11.859-6.282,12.508-13.046l8.847-92.183H92.495z"/>
<polygon style="fill:#E56353;" points="317.089,88.473 92.495,88.473 94.593,110.329 314.992,110.329 "/>
<g>
</g>
<g>
</g>
<g>
</g>
<g>
</g>
<g>
</g>
<g>
</g>
<g>
</g>
<g>
</g>
<g>
</g>
<g>
</g>
<g>
</g>
<g>
</g>
<g>
</g>
<g>
</g>
<g>
</g>
</svg>
