<?xml version="1.0" encoding="iso-8859-1"?>
<!-- Generator: Adobe Illustrator 19.0.0, SVG Export Plug-In . SVG Version: 6.00 Build 0)  -->
<svg xmlns="http://www.w3.org/2000/svg" xmlns:xlink="http://www.w3.org/1999/xlink" version="1.1" id="Capa_1" x="0px" y="0px" viewBox="0 0 409.615 409.615" style="enable-background:new 0 0 409.615 409.615;" xml:space="preserve">
<rect x="19.802" y="136.259" style="fill:#EBF0F3;" width="370.022" height="273.357"/>
<rect x="281.362" y="146.719" style="fill:#3A556A;" width="38.359" height="215.91"/>
<g>
	<rect x="277" y="353.26" style="fill:#64798A;" width="47.063" height="13.373"/>
	<rect x="276.641" y="136.259" style="fill:#64798A;" width="47.846" height="13.599"/>
</g>
<rect x="89.894" y="146.719" style="fill:#3A556A;" width="38.359" height="215.91"/>
<g>
	<rect x="85.542" y="353.26" style="fill:#64798A;" width="47.063" height="13.373"/>
	<rect x="85.153" y="136.259" style="fill:#64798A;" width="47.846" height="13.599"/>
</g>
<polygon style="fill:#E56353;" points="382.208,0 27.404,0 0.008,136.26 409.608,136.26 "/>
<path style="fill:#D15241;" d="M204.809,16.604c-66.084,0-119.658,53.572-119.658,119.656h239.313  C324.464,70.176,270.893,16.604,204.809,16.604z"/>
<rect x="141.309" y="178.877" style="fill:#D5D6DB;" width="127.002" height="190.771"/>
<rect x="152.481" y="190.049" style="fill:#27A2DB;" width="104.653" height="176.589"/>
<g>
	<polygon style="fill:#38B5E0;" points="168.03,366.637 229.04,190.046 230.514,190.046 169.504,366.637  "/>
	<polygon style="fill:#38B5E0;" points="173.371,366.637 234.38,190.046 241.585,190.046 180.576,366.637  "/>
</g>
<rect x="45.13" y="365.978" style="fill:#3A556A;" width="319.334" height="26.865"/>
<rect x="19.802" y="387.789" style="fill:#2F4859;" width="370.022" height="21.816"/>
<g>
</g>
<g>
</g>
<g>
</g>
<g>
</g>
<g>
</g>
<g>
</g>
<g>
</g>
<g>
</g>
<g>
</g>
<g>
</g>
<g>
</g>
<g>
</g>
<g>
</g>
<g>
</g>
<g>
</g>
</svg>
