<?xml version="1.0" encoding="iso-8859-1"?>
<!-- Generator: Adobe Illustrator 19.0.0, SVG Export Plug-In . SVG Version: 6.00 Build 0)  -->
<svg xmlns="http://www.w3.org/2000/svg" xmlns:xlink="http://www.w3.org/1999/xlink" version="1.1" id="Capa_1" x="0px" y="0px" viewBox="0 0 409.6 409.6" style="enable-background:new 0 0 409.6 409.6;" xml:space="preserve">
<rect x="74.266" style="fill:#1C75A1;" width="261.064" height="394.184"/>
<g>
	<path style="fill:#27A2DB;" d="M36.787,72.375v322.986c0,7.864,6.375,14.239,14.239,14.239h307.547   c7.864,0,14.239-6.375,14.239-14.239V72.375H36.787z"/>
	<polygon style="fill:#27A2DB;" points="312.813,26.551 335.333,49.463 335.333,0  "/>
</g>
<polygon style="fill:#2D93BA;" points="372.812,72.375 312.813,72.375 312.813,26.552 "/>
<polygon style="fill:#27A2DB;" points="96.786,26.551 74.267,49.463 74.267,0 "/>
<polygon style="fill:#2D93BA;" points="36.787,72.375 96.786,72.375 96.786,26.552 "/>
<g>
	<circle style="fill:#1C75A1;" cx="139.162" cy="115.308" r="12.749"/>
	<circle style="fill:#1C75A1;" cx="270.444" cy="115.308" r="12.749"/>
	<path style="fill:#1C75A1;" d="M204.797,245.498c-40.305,0-73.091-34.785-73.091-77.542v-52.647H146.6v52.647   c0,34.545,26.109,62.647,58.196,62.647s58.196-28.102,58.196-62.647v-52.647h14.895v52.647   C277.888,210.712,245.102,245.498,204.797,245.498z"/>
</g>
<path style="fill:#FFFFFF;" d="M204.797,237.709c-40.305,0-73.091-32.789-73.091-73.091v-49.309H146.6v49.309  c0,32.091,26.109,58.196,58.196,58.196s58.196-26.105,58.196-58.196v-49.309h14.895v49.309  C277.888,204.92,245.102,237.709,204.797,237.709z"/>
<g>
</g>
<g>
</g>
<g>
</g>
<g>
</g>
<g>
</g>
<g>
</g>
<g>
</g>
<g>
</g>
<g>
</g>
<g>
</g>
<g>
</g>
<g>
</g>
<g>
</g>
<g>
</g>
<g>
</g>
</svg>
