<?xml version="1.0" encoding="iso-8859-1"?>
<!-- Generator: Adobe Illustrator 19.0.0, SVG Export Plug-In . SVG Version: 6.00 Build 0)  -->
<svg xmlns="http://www.w3.org/2000/svg" xmlns:xlink="http://www.w3.org/1999/xlink" version="1.1" id="Capa_1" x="0px" y="0px" viewBox="0 0 409.585 409.585" style="enable-background:new 0 0 409.585 409.585;" xml:space="preserve">
<path style="fill:#EBF0F3;" d="M393.5,222.753l-44.573-8.61c-4.592-0.887-8.346-4.185-9.818-8.624l-17.957-54.164  c-1.753-5.288-6.698-8.859-12.269-8.859h-76.427v140.421h171.519v-47.473C403.975,229.251,399.581,223.928,393.5,222.753z"/>
<polygon style="fill:#27A2DB;" points="326.748,208.41 308.883,155.135 245.093,155.135 245.093,208.41 "/>
<rect x="5.632" y="66.959" style="fill:#44C4A1;" width="226.816" height="215.962"/>
<g>
	<rect y="275.876" style="fill:#64798A;" width="409.585" height="22.502"/>
	<rect x="245.094" y="222.659" style="fill:#64798A;" width="18.294" height="5.207"/>
</g>
<g>
	<rect x="28.933" y="87.081" style="fill:#31978C;" width="5.053" height="168.556"/>
	<rect x="50.826" y="87.081" style="fill:#31978C;" width="5.053" height="168.556"/>
	<rect x="72.704" y="87.081" style="fill:#31978C;" width="5.053" height="168.556"/>
	<rect x="94.618" y="87.081" style="fill:#31978C;" width="5.053" height="168.556"/>
	<rect x="116.516" y="87.081" style="fill:#31978C;" width="5.053" height="168.556"/>
	<rect x="138.394" y="87.081" style="fill:#31978C;" width="5.053" height="168.556"/>
	<rect x="160.307" y="87.081" style="fill:#31978C;" width="5.053" height="168.556"/>
	<rect x="182.2" y="87.081" style="fill:#31978C;" width="5.053" height="168.556"/>
	<rect x="204.099" y="87.081" style="fill:#31978C;" width="5.053" height="168.556"/>
</g>
<circle style="fill:#FFFFFF;" cx="119.04" cy="174.94" r="53.934"/>
<g>
	<polygon style="fill:#E56353;" points="139.209,151.478 103.236,151.478 103.236,142.496 86.507,159.227 103.236,175.957    103.236,166.974 139.209,166.974  "/>
	<polygon style="fill:#E56353;" points="98.873,198.393 134.845,198.393 134.845,207.375 151.575,190.645 134.845,173.914    134.845,182.897 98.873,182.897  "/>
</g>
<path style="fill:#3A556A;" d="M309.264,268.996c-18.297,0-33.687,12.494-38.199,29.387h76.399  C342.952,281.489,327.562,268.996,309.264,268.996z"/>
<circle style="fill:#2F4859;" cx="309.248" cy="308.572" r="34.053"/>
<circle style="fill:#3A556A;" cx="309.248" cy="308.572" r="20.531"/>
<g>
	<ellipse style="fill:#2F4859;" cx="309.248" cy="294.748" rx="6.543" ry="3.825"/>
	<ellipse style="fill:#2F4859;" cx="309.248" cy="322.412" rx="6.543" ry="3.825"/>
	<ellipse style="fill:#2F4859;" cx="323.123" cy="308.572" rx="3.825" ry="6.543"/>
	<ellipse style="fill:#2F4859;" cx="295.424" cy="308.572" rx="3.825" ry="6.543"/>
	<circle style="fill:#2F4859;" cx="309.555" cy="308.572" r="5.617"/>
</g>
<path style="fill:#3A556A;" d="M63.327,268.996c-18.297,0-33.687,12.494-38.199,29.387h76.399  C97.015,281.489,81.624,268.996,63.327,268.996z"/>
<circle style="fill:#2F4859;" cx="63.329" cy="308.572" r="34.053"/>
<circle style="fill:#3A556A;" cx="63.329" cy="308.572" r="20.531"/>
<g>
	<ellipse style="fill:#2F4859;" cx="63.329" cy="294.748" rx="6.543" ry="3.825"/>
	<ellipse style="fill:#2F4859;" cx="63.329" cy="322.412" rx="6.543" ry="3.825"/>
	<ellipse style="fill:#2F4859;" cx="77.158" cy="308.572" rx="3.825" ry="6.543"/>
	<ellipse style="fill:#2F4859;" cx="49.49" cy="308.572" rx="3.825" ry="6.543"/>
	<circle style="fill:#2F4859;" cx="63.621" cy="308.572" r="5.617"/>
</g>
<path style="fill:#3A556A;" d="M142.792,268.996c-18.297,0-33.687,12.494-38.199,29.387h76.399  C176.479,281.489,161.089,268.996,142.792,268.996z"/>
<circle style="fill:#2F4859;" cx="142.792" cy="308.572" r="34.053"/>
<circle style="fill:#3A556A;" cx="142.792" cy="308.572" r="20.531"/>
<g>
	<ellipse style="fill:#2F4859;" cx="142.792" cy="294.748" rx="6.543" ry="3.825"/>
	<ellipse style="fill:#2F4859;" cx="142.792" cy="322.412" rx="6.543" ry="3.825"/>
	<ellipse style="fill:#2F4859;" cx="156.631" cy="308.572" rx="3.825" ry="6.543"/>
	<ellipse style="fill:#2F4859;" cx="128.973" cy="308.572" rx="3.825" ry="6.543"/>
	<circle style="fill:#2F4859;" cx="143.084" cy="308.572" r="5.617"/>
</g>
<g>
</g>
<g>
</g>
<g>
</g>
<g>
</g>
<g>
</g>
<g>
</g>
<g>
</g>
<g>
</g>
<g>
</g>
<g>
</g>
<g>
</g>
<g>
</g>
<g>
</g>
<g>
</g>
<g>
</g>
</svg>
