<?xml version="1.0" encoding="iso-8859-1"?>
<!-- Generator: Adobe Illustrator 19.0.0, SVG Export Plug-In . SVG Version: 6.00 Build 0)  -->
<svg xmlns="http://www.w3.org/2000/svg" xmlns:xlink="http://www.w3.org/1999/xlink" version="1.1" id="Capa_1" x="0px" y="0px" viewBox="0 0 409.6 409.6" style="enable-background:new 0 0 409.6 409.6;" xml:space="preserve">
<rect x="146.724" y="103.066" style="fill:#44C4A1;" width="187.873" height="306.514"/>
<g>
	<polygon style="fill:#3EA69B;" points="372.098,27.022 184.225,27.022 146.723,103.087 334.595,103.087  "/>
	<rect x="334.592" y="103.066" style="fill:#3EA69B;" width="75.003" height="306.514"/>
</g>
<g>
	<polygon style="fill:#31978C;" points="372.098,27.022 334.595,103.087 409.6,103.087  "/>
	<rect x="184.223" style="fill:#31978C;" width="187.873" height="27.023"/>
</g>
<rect x="146.724" y="213.258" style="fill:#EBF0F3;" width="187.873" height="86.175"/>
<g>
	<rect x="146.724" y="221.594" style="fill:#FCD462;" width="187.873" height="6.2"/>
	<rect x="146.724" y="284.877" style="fill:#FCD462;" width="187.873" height="6.2"/>
</g>
<rect x="334.592" y="213.258" style="fill:#E1E6E9;" width="75.003" height="86.175"/>
<g>
	<rect x="334.592" y="221.594" style="fill:#F6C358;" width="75.003" height="6.2"/>
	<rect x="334.592" y="284.877" style="fill:#F6C358;" width="75.003" height="6.2"/>
</g>
<path style="fill:#44C4A1;" d="M132.26,189.416c-4.203,3.807-8.47,8.704-12.151,13.581c-3.708,4.964-7.039,10.244-9.727,15.865  c-2.609,5.641-4.549,11.602-5.548,17.834c-0.857,6.246-0.431,12.658,1.082,19.008c-2.592-5.942-4.262-12.451-4.527-19.181  c-0.131-6.699,0.786-13.459,2.511-20.021c1.797-6.536,4.354-12.85,7.396-18.926c3.137-6.118,6.45-11.79,10.91-17.608  C126.552,180.935,130.126,183.597,132.26,189.416z"/>
<path style="fill:#E56353;" d="M151.255,213.337c-14.173-1.053-28.037,4.502-40.121,14.762c-4.162,3.535-10.407,3.535-14.568,0  c-12.084-10.26-25.948-15.816-40.121-14.762C19.535,216.08-5.302,262.21,0.968,316.371c6.271,54.161,41.274,95.844,78.185,93.101  c6.236-0.463,12.122-2.179,17.575-4.958c4.484-2.286,9.758-2.286,14.242,0c5.452,2.779,11.339,4.495,17.577,4.958  c36.909,2.743,71.91-38.94,78.181-93.101C212.999,262.21,188.163,216.08,151.255,213.337z"/>
<path style="fill:#44C4A1;" d="M103.767,230.23L49.33,175.792C46.943,208.244,71.317,232.618,103.767,230.23z"/>
<path style="fill:#3EA69B;" d="M103.767,230.23c2.388-32.45-21.986-56.824-54.438-54.438L103.767,230.23z"/>
<g>
</g>
<g>
</g>
<g>
</g>
<g>
</g>
<g>
</g>
<g>
</g>
<g>
</g>
<g>
</g>
<g>
</g>
<g>
</g>
<g>
</g>
<g>
</g>
<g>
</g>
<g>
</g>
<g>
</g>
</svg>
