<?xml version="1.0" encoding="iso-8859-1"?>
<!-- Generator: Adobe Illustrator 19.0.0, SVG Export Plug-In . SVG Version: 6.00 Build 0)  -->
<svg xmlns="http://www.w3.org/2000/svg" xmlns:xlink="http://www.w3.org/1999/xlink" version="1.1" id="Capa_1" x="0px" y="0px" viewBox="0 0 409.585 409.585" style="enable-background:new 0 0 409.585 409.585;" xml:space="preserve">
<path style="fill:#3A556A;" d="M178.682,374.529c-1.903,0-3.797-0.331-5.636-1.039l-80.693-31.087  c-5.517-2.133-9.425-7.154-10.73-13.792c-1.011-5.158-0.386-11.061,1.756-16.615l14.04-36.466l17.58,6.767l-14.05,36.476  c-1.168,3.016-1.057,5.388-0.8,6.455l78.624,30.288c0.901-0.607,2.584-2.299,3.751-5.324l14.04-36.457l17.58,6.767l-14.05,36.466  C195.94,367.715,187.233,374.529,178.682,374.529z"/>
<rect y="147.346" style="fill:#64798A;" width="35.994" height="114.903"/>
<rect x="384" y="20.682" style="fill:#CE412D;" width="25.585" height="368.21"/>
<g>
	<polygon style="fill:#EBF0F3;" points="35.98,262.249 384.015,388.903 384.015,20.692 35.98,147.345  "/>
	<polygon style="fill:#EBF0F3;" points="35.98,262.249 384.015,388.903 384.015,20.692 35.98,147.345  "/>
</g>
<polygon style="fill:#E1E6E9;" points="35.979,201.365 35.979,245.554 384.014,348.335 384.014,224.497 "/>
<g>
</g>
<g>
</g>
<g>
</g>
<g>
</g>
<g>
</g>
<g>
</g>
<g>
</g>
<g>
</g>
<g>
</g>
<g>
</g>
<g>
</g>
<g>
</g>
<g>
</g>
<g>
</g>
<g>
</g>
</svg>
