<?xml version="1.0" encoding="iso-8859-1"?>
<!-- Generator: Adobe Illustrator 19.0.0, SVG Export Plug-In . SVG Version: 6.00 Build 0)  -->
<svg xmlns="http://www.w3.org/2000/svg" xmlns:xlink="http://www.w3.org/1999/xlink" version="1.1" id="Capa_1" x="0px" y="0px" viewBox="0 0 409.601 409.601" style="enable-background:new 0 0 409.601 409.601;" xml:space="preserve">
<g>
	<path style="fill:#64798A;" d="M274.209,348.915l33.532,55.273c3.221,5.309,10.137,7.001,15.445,3.781   c5.31-3.221,7.002-10.136,3.781-15.445l-33.532-55.273L274.209,348.915z"/>
	<path style="fill:#64798A;" d="M135.399,348.915l-33.532,55.273c-3.221,5.309-10.137,7.001-15.445,3.781   c-5.31-3.221-7.002-10.136-3.782-15.445l33.532-55.273L135.399,348.915z"/>
</g>
<circle style="fill:#27A2DB;" cx="204.804" cy="209.624" r="171.689"/>
<circle style="fill:#EBF0F3;" cx="204.804" cy="209.624" r="141.42"/>
<ellipse style="fill:#FFFFFF;" cx="204.804" cy="213.869" rx="141.42" ry="137.175"/>
<g>
	
		<rect x="369.133" y="16.855" transform="matrix(-0.7071 -0.7071 0.7071 -0.7071 618.6689 310.4506)" style="fill:#D15241;" width="8.996" height="20.48"/>
	<ellipse style="fill:#D15241;" cx="387.947" cy="12.773" rx="12.759" ry="12.759"/>
</g>
<path style="fill:#E56353;" d="M374.672,26.045c-25.205-25.205-66.069-25.204-91.273,0l91.272,91.272  C399.875,92.113,399.876,51.249,374.672,26.045z"/>
<g>
	
		<rect x="31.521" y="16.883" transform="matrix(0.7071 -0.7071 0.7071 0.7071 -8.6292 33.4132)" style="fill:#D15241;" width="8.996" height="20.48"/>
	<ellipse style="fill:#D15241;" cx="21.655" cy="12.759" rx="12.759" ry="12.759"/>
</g>
<g>
	<path style="fill:#E56353;" d="M34.936,26.045c25.205-25.205,66.069-25.204,91.273,0l-91.272,91.272   C9.732,92.113,9.732,51.249,34.936,26.045z"/>
	<circle style="fill:#E56353;" cx="204.804" cy="88.065" r="10.962"/>
	<circle style="fill:#E56353;" cx="204.804" cy="331.163" r="10.962"/>
	<circle style="fill:#E56353;" cx="326.353" cy="209.624" r="10.962"/>
	<circle style="fill:#E56353;" cx="83.255" cy="209.624" r="10.962"/>
</g>
<polygon style="fill:#3A556A;" points="230.259,215.677 235.824,209.296 230.248,202.924 133.251,206.259 130.008,209.392   133.256,212.519 "/>
<polygon style="fill:#64798A;" points="211.01,235.024 221.626,237.029 225.038,226.778 158.748,122.173 153.205,120.626   151.861,126.221 "/>
<circle style="fill:#FCD462;" cx="205.316" cy="209.302" r="7.844"/>
<g>
</g>
<g>
</g>
<g>
</g>
<g>
</g>
<g>
</g>
<g>
</g>
<g>
</g>
<g>
</g>
<g>
</g>
<g>
</g>
<g>
</g>
<g>
</g>
<g>
</g>
<g>
</g>
<g>
</g>
</svg>
