<?xml version="1.0" encoding="iso-8859-1"?>
<!-- Generator: Adobe Illustrator 19.0.0, SVG Export Plug-In . SVG Version: 6.00 Build 0)  -->
<svg xmlns="http://www.w3.org/2000/svg" xmlns:xlink="http://www.w3.org/1999/xlink" version="1.1" id="Capa_1" x="0px" y="0px" viewBox="0 0 409.6 409.6" style="enable-background:new 0 0 409.6 409.6;" xml:space="preserve">
<path style="fill:#F6C358;" d="M163.319,294.12h-0.004v-26.811H83.547v26.811l-16.373,4.188c3.514,27.944,27.36,49.56,56.258,49.56  c28.896,0,52.744-21.616,56.256-49.56L163.319,294.12z"/>
<rect x="99.717" y="316.058" style="fill:#E1E6E9;" width="48.159" height="65.915"/>
<path style="fill:#FCD462;" d="M181.15,194.277c-0.874-2.588-6.494-37.433-7.666-39.812H68.043  c-1.172,2.378-1.456,37.224-2.33,39.812c-7.663,0.009-13.873,6.457-13.873,18.311c0,11.537,5.883,23.941,13.263,24.611  c7.868,28.622,31.003,51.865,58.329,51.865c27.325,0,50.46-23.243,58.328-51.865c7.38-0.67,13.263-13.074,13.263-24.611  C195.023,200.734,188.813,194.286,181.15,194.277z"/>
<path style="fill:#64798A;" d="M186.524,139.576c0,0-9.252-18.892-63.335-19.178c-54.084,0.286-63.336,19.178-63.336,19.178  c-4.86,10.886,2.298,64.725,2.298,64.725l6.301-19.189c2.737-9.16,9.447-10.886,9.447-10.886h43.674  c2.339,0,4.633-0.645,6.628-1.866l21.29-13.021c-1.053,7.204-2.656,15.127,2.005,14.886h16.984c0,0,6.709,1.726,9.446,10.886  l6.301,19.189C184.226,204.3,191.386,150.462,186.524,139.576z"/>
<polygon style="fill:#D15241;" points="141.588,373.894 106.01,373.894 114.268,338.481 123.618,336.392 123.826,336.341   124.033,336.392 133.33,338.481 "/>
<polygon style="fill:#E56353;" points="133.367,338.905 140.821,326.765 134.235,316.039 113.363,316.039 106.777,326.765   114.231,338.905 "/>
<path style="fill:#27A2DB;" d="M83.547,294.12L29.8,307.877C15.33,311.602,4.943,324.21,4.084,339.11L0,409.6h123.428v-35.706  L83.547,294.12z"/>
<path style="fill:#2D93BA;" d="M242.846,339.11c-0.86-14.9-11.318-27.508-25.789-31.233l-53.738-13.757l-39.891,79.773V409.6  h123.428L242.846,339.11z"/>
<g>
	<polygon style="fill:#FFFFFF;" points="83.541,294.12 103.485,338.697 123.429,316.045  "/>
	<polygon style="fill:#FFFFFF;" points="123.334,316.045 143.278,338.697 163.221,294.12  "/>
</g>
<polygon style="fill:#1C75A1;" points="123.431,373.894 163.319,294.12 181.772,320.112 163.678,322.877 169.961,337.453 "/>
<polygon style="fill:#2D93BA;" points="123.429,373.894 83.541,294.12 65.088,320.112 83.182,322.877 76.899,337.453 "/>
<rect x="162.289" y="381.952" style="fill:#1C75A1;" width="45.711" height="6.881"/>
<path style="fill:#D15241;" d="M302.312,0c-59.254,0-107.288,39.164-107.288,87.476c0,29.765,18.271,56.02,46.128,71.82  c-4.25,13.319-11.325,28.974-22.625,38.171c0,0,36.867-2.995,63.673-24.106c6.521,1.01,13.23,1.59,20.112,1.59  c59.254,0,107.288-39.164,107.288-87.475C409.6,39.164,361.565,0,302.312,0z"/>
<g>
	<polygon style="fill:#FFFFFF;" points="358.407,67.179 366.885,93.273 394.322,93.273 372.125,109.4 380.604,135.494    358.407,119.367 336.209,135.494 344.688,109.4 322.491,93.273 349.928,93.273  "/>
	<polygon style="fill:#FFFFFF;" points="244.989,67.179 253.467,93.273 280.905,93.273 258.707,109.4 267.186,135.494    244.989,119.367 222.792,135.494 231.27,109.4 209.073,93.273 236.51,93.273  "/>
	<polygon style="fill:#FFFFFF;" points="302.312,19.105 310.79,45.199 338.227,45.199 316.03,61.326 324.509,87.42 302.312,71.293    280.115,87.42 288.593,61.326 266.396,45.199 293.833,45.199  "/>
</g>
<g>
</g>
<g>
</g>
<g>
</g>
<g>
</g>
<g>
</g>
<g>
</g>
<g>
</g>
<g>
</g>
<g>
</g>
<g>
</g>
<g>
</g>
<g>
</g>
<g>
</g>
<g>
</g>
<g>
</g>
</svg>
