<?xml version="1.0" encoding="iso-8859-1"?>
<!-- Generator: Adobe Illustrator 19.0.0, SVG Export Plug-In . SVG Version: 6.00 Build 0)  -->
<svg xmlns="http://www.w3.org/2000/svg" xmlns:xlink="http://www.w3.org/1999/xlink" version="1.1" id="Capa_1" x="0px" y="0px" viewBox="0 0 409.6 409.6" style="enable-background:new 0 0 409.6 409.6;" xml:space="preserve">
<g>
	<rect y="0" style="fill:#64798A;" width="12.539" height="238.515"/>
	<rect x="30.541" y="0" style="fill:#64798A;" width="21.079" height="238.515"/>
	<rect x="61.087" y="0" style="fill:#64798A;" width="12.539" height="238.515"/>
	<rect x="91.628" y="0" style="fill:#64798A;" width="12.539" height="238.515"/>
	<rect x="132.628" y="0" style="fill:#64798A;" width="16.686" height="238.515"/>
	<rect x="111.473" y="0" style="fill:#64798A;" width="12.539" height="238.515"/>
	<rect x="160.154" y="0" style="fill:#64798A;" width="12.539" height="238.515"/>
	<rect x="183.26" y="0" style="fill:#64798A;" width="12.539" height="238.515"/>
	<rect x="213.801" y="0" style="fill:#64798A;" width="12.539" height="238.515"/>
	<rect x="244.347" y="0" style="fill:#64798A;" width="12.539" height="238.515"/>
	<rect x="274.893" y="0" style="fill:#64798A;" width="21.023" height="238.515"/>
	<rect x="305.459" y="0" style="fill:#64798A;" width="12.539" height="238.515"/>
	<rect x="335.974" y="0" style="fill:#64798A;" width="12.539" height="238.515"/>
	<rect x="366.541" y="0" style="fill:#64798A;" width="12.539" height="238.515"/>
	<rect x="397.056" y="0" style="fill:#64798A;" width="12.539" height="238.515"/>
</g>
<rect y="182.676" style="fill:#E56353;" width="409.6" height="12.539"/>
<rect x="258.967" y="255.732" transform="matrix(-0.7071 0.7071 -0.7071 -0.7071 668.9642 277.0658)" style="fill:#3A556A;" width="36.265" height="42.696"/>
<ellipse style="opacity:0.53;fill:#FFFFFF;enable-background:new    ;" cx="190.865" cy="190.874" rx="82.228" ry="82.228"/>
<path style="fill:#31978C;" d="M268.022,113.769c-42.596-42.596-111.658-42.596-154.254,0s-42.596,111.658,0,154.253  c42.596,42.596,111.657,42.596,154.254,0C310.618,225.426,310.618,156.365,268.022,113.769z M249.037,249.037  c-32.11,32.111-84.172,32.111-116.283,0s-32.111-84.173,0-116.283c32.111-32.111,84.173-32.111,116.283,0  C281.148,164.865,281.148,216.926,249.037,249.037z"/>
<path style="fill:#27A2DB;" d="M408.749,370.074c7.032,7.032-31.644,45.708-38.676,38.676L269.198,307.874  c-7.032-7.032,31.644-45.708,38.676-38.676L408.749,370.074z"/>
<g>
	
		<rect x="275.998" y="295.242" transform="matrix(-0.7071 0.7071 -0.7071 -0.7071 732.326 303.3035)" style="fill:#FCD462;" width="54.697" height="16.159"/>
	
		<rect x="347.289" y="366.538" transform="matrix(-0.7071 0.7071 -0.7071 -0.7071 904.4403 374.6039)" style="fill:#FCD462;" width="54.697" height="16.159"/>
</g>
<g>
</g>
<g>
</g>
<g>
</g>
<g>
</g>
<g>
</g>
<g>
</g>
<g>
</g>
<g>
</g>
<g>
</g>
<g>
</g>
<g>
</g>
<g>
</g>
<g>
</g>
<g>
</g>
<g>
</g>
</svg>
