<?xml version="1.0" encoding="iso-8859-1"?>
<!-- Generator: Adobe Illustrator 19.0.0, SVG Export Plug-In . SVG Version: 6.00 Build 0)  -->
<svg xmlns="http://www.w3.org/2000/svg" xmlns:xlink="http://www.w3.org/1999/xlink" version="1.1" id="Capa_1" x="0px" y="0px" viewBox="0 0 409.6 409.6" style="enable-background:new 0 0 409.6 409.6;" xml:space="preserve">
<path style="fill:#EBF0F3;" d="M409.594,18.469v372.646c0,10.202-8.266,18.468-18.468,18.468H18.479  c-10.201,0-18.468-8.266-18.468-18.468V18.469C0.011,8.266,8.278,0,18.479,0h372.646C401.328,0,409.594,8.266,409.594,18.469z"/>
<path style="fill:#64798A;" d="M409.589,18.496c0-10.205-8.273-18.478-18.478-18.478H18.485C8.28,0.017,0.006,8.29,0.006,18.496  v36.321h409.583V18.496z"/>
<circle style="fill:#EBF0F3;" cx="297.37" cy="27.418" r="13.42"/>
<circle style="fill:#FCD462;" cx="336.794" cy="27.418" r="13.42"/>
<circle style="fill:#E56353;" cx="376.166" cy="27.418" r="13.42"/>
<path style="fill:#E1E6E9;" d="M0.006,54.817v336.305c0,10.205,8.273,18.478,18.478,18.478H122.4V54.817H0.006z"/>
<g>
	<rect x="18.017" y="83.988" style="fill:#D5D6DB;" width="83.256" height="8.94"/>
	<rect x="18.017" y="118.323" style="fill:#D5D6DB;" width="83.256" height="8.94"/>
	<rect x="18.017" y="152.653" style="fill:#D5D6DB;" width="83.256" height="8.94"/>
	<rect x="18.017" y="186.988" style="fill:#D5D6DB;" width="83.256" height="8.94"/>
	<rect x="18.017" y="221.338" style="fill:#D5D6DB;" width="83.256" height="8.94"/>
</g>
<rect x="169.267" y="92.928" style="fill:#FFFFFF;" width="176.507" height="250.424"/>
<rect x="169.267" y="357.376" style="fill:#E56353;" width="176.507" height="27.233"/>
<path style="fill:#64798A;" d="M312.028,224.497c-2.342-4.76-4.101-9.793-5.008-15.02c-1.263-7.274-1.514-13.961-1.403-19.149  c0.127-5.884,1.998-11.589,5.339-16.435c15.438-22.391-1.379-32.651-7.653-35.531v-10.588h-6.904v15.159l-19.242,22.193  l-18.224-22.88v-14.472h-6.904v11.034c-6.829,3.409-21.443,13.731-6.721,35.084c3.341,4.846,5.213,10.55,5.34,16.435  c0.112,5.189-0.14,11.875-1.402,19.149c-0.908,5.227-2.667,10.26-5.009,15.02c-7.198,14.628-25.417,54.689-21.113,77.385  c2.097-2.03,3.586-3.11,6.252-4.298c2.666-1.188,5.99-1.334,8.347,0.387c1.532,1.119,2.476,2.866,3.852,4.172  c3.325,3.155,8.439,3.209,13.019,3.024c1.803-0.073,3.709-0.186,5.206-1.193c1.47-0.988,2.307-2.682,3.646-3.841  c3.627-3.139,9.326-1.317,13.251,1.441c3.924,2.758,7.636,6.45,12.412,6.885c7.34,0.668,13.485-6.674,20.851-6.433  c4.252,0.139,7.972,2.793,12.055,3.988c4.083,1.196,10.334,0.048,11.127-4.132C337.446,279.186,319.227,239.125,312.028,224.497z"/>
<path style="fill:#3EA69B;" d="M254.432,163.31l-10.373-10.288c-0.739-0.733-1.759-1.111-2.798-1.037l-15.399,1.104  c-1.038,0.074-1.994,0.594-2.621,1.425l-8.798,11.662c-0.525,0.697-0.781,1.56-0.718,2.43l3.884,54.16  c0.142,1.987,1.869,3.482,3.855,3.34l34.57-2.479c1.987-0.142,3.482-1.869,3.34-3.855l-3.884-54.16  C255.427,164.743,255.051,163.925,254.432,163.31z"/>
<path style="fill:#44C4A1;" d="M257.145,160.891l-10.373-10.288c-0.739-0.733-1.759-1.111-2.798-1.037l-15.399,1.104  c-1.038,0.074-1.994,0.594-2.621,1.425l-8.798,11.662c-0.525,0.697-0.781,1.56-0.718,2.43l3.884,54.16  c0.142,1.987,1.869,3.482,3.855,3.339l34.57-2.479c1.987-0.142,3.482-1.869,3.34-3.855l-3.884-54.16  C258.14,162.324,257.764,161.506,257.145,160.891z"/>
<path style="fill:#FFFFFF;" d="M256.293,205.414l-32.282-10.384l-1.591-4.792l32.278,10.385L256.293,205.414z M250.173,190.664  c-0.798,1.444-2.013,2.445-3.648,2.987c-1.635,0.542-3.214,0.467-4.735-0.225c-1.52-0.687-2.545-1.832-3.077-3.428  c-0.53-1.598-0.398-3.121,0.397-4.566c0.8-1.447,2.013-2.445,3.648-2.987c1.635-0.542,3.214-0.467,4.734,0.22  c1.521,0.692,2.548,1.834,3.078,3.432C251.1,187.696,250.968,189.218,250.173,190.664z M240.032,210.41  c-0.798,1.444-2.016,2.436-3.648,2.98c-1.636,0.545-3.214,0.474-4.735-0.218c-1.521-0.692-2.548-1.834-3.078-3.432  c-0.534-1.597-0.397-3.117,0.401-4.568c0.795-1.445,2.01-2.439,3.646-2.985c1.635-0.542,3.211-0.468,4.737,0.222  c1.518,0.69,2.544,1.835,3.075,3.431C240.962,207.436,240.83,208.959,240.032,210.41z M243.218,190.212  c0.637,0.23,1.328,0.22,2.074-0.029c0.741-0.245,1.298-0.664,1.663-1.255c0.368-0.59,0.452-1.188,0.251-1.791  c-0.202-0.608-0.626-1.025-1.263-1.255c-0.639-0.227-1.329-0.217-2.071,0.03c-0.745,0.246-1.302,0.665-1.665,1.254  c-0.368,0.59-0.455,1.186-0.253,1.794C242.155,189.567,242.579,189.985,243.218,190.212z M233.027,210.054  c0.639,0.227,1.329,0.217,2.071-0.03c0.745-0.246,1.298-0.664,1.668-1.252c0.365-0.592,0.449-1.19,0.246-1.794  c-0.202-0.608-0.62-1.022-1.257-1.252c-0.643-0.226-1.332-0.219-2.077,0.027c-0.742,0.247-1.295,0.665-1.665,1.254  c-0.368,0.59-0.449,1.19-0.247,1.797C231.967,209.411,232.385,209.826,233.027,210.054z"/>
<path style="fill:#DC8744;" d="M250.523,172.358l-0.162-14.608c-0.012-1.041-0.472-2.026-1.264-2.703l-11.739-10.026  c-0.792-0.676-1.837-0.977-2.867-0.826l-14.454,2.126c-0.863,0.127-1.651,0.563-2.218,1.226l-35.264,41.29  c-1.294,1.515-1.114,3.791,0.4,5.085l26.355,22.509c1.515,1.294,3.791,1.115,5.085-0.4l35.264-41.289  C250.226,174.077,250.533,173.231,250.523,172.358z"/>
<path style="fill:#F6C358;" d="M250.091,168.829l-0.162-14.608c-0.012-1.041-0.472-2.026-1.264-2.703l-11.739-10.026  c-0.792-0.676-1.837-0.977-2.867-0.826l-14.454,2.126c-0.863,0.127-1.651,0.563-2.218,1.226l-35.264,41.29  c-1.294,1.515-1.115,3.791,0.4,5.085l26.355,22.509c1.515,1.294,3.791,1.115,5.085-0.4l35.264-41.289  C249.793,170.548,250.1,169.702,250.091,168.829z"/>
<ellipse style="fill:#FFFFFF;" cx="237.112" cy="152.497" rx="4.157" ry="4.157"/>
<g>
	<path style="fill:#E56353;" d="M233.291,167.626c0.473-0.537,0.718-1.103,0.736-1.697c0.018-0.596-0.26-1.146-0.836-1.652   c-0.576-0.507-1.167-0.722-1.775-0.644c-0.607,0.075-1.58,0.518-2.918,1.331c-1.338,0.81-2.576,1.22-3.713,1.23   c-1.137,0.007-2.324-0.533-3.563-1.623c-1.239-1.09-1.929-2.334-2.067-3.734c-0.139-1.398,0.305-2.681,1.333-3.85   c1.504-1.71,3.604-2.554,6.299-2.532l0.79,2.748c-2.219,0.009-3.85,0.608-4.896,1.797c-0.523,0.595-0.773,1.212-0.748,1.853   c0.023,0.642,0.311,1.204,0.859,1.686c0.549,0.483,1.12,0.694,1.714,0.634c0.593-0.061,1.369-0.383,2.325-0.965   c0.957-0.583,1.725-0.991,2.301-1.223c0.577-0.233,1.177-0.363,1.8-0.388c1.205-0.087,2.464,0.449,3.777,1.604   c1.313,1.155,2.003,2.413,2.067,3.774c0.065,1.36-0.381,2.583-1.335,3.668c-0.615,0.699-1.374,1.262-2.276,1.688   c-0.904,0.426-1.847,0.651-2.829,0.676l-0.941-2.576c0.663,0.01,1.36-0.154,2.09-0.492   C232.217,168.601,232.818,168.164,233.291,167.626z"/>
	<path style="fill:#E56353;" d="M217.166,167.606l-2.267-3.936l1.734-1.971l9.96,17.31l-1.734,1.971l-18.438-7.672l1.735-1.972   l4.193,1.747L217.166,167.606z M215.223,174.278l7.597,3.16l-4.102-7.134L215.223,174.278z"/>
	<path style="fill:#E56353;" d="M205.086,174.825l14.199,12.491l-1.624,1.846l-11.924-10.489l-4.39,4.991l-2.276-2.002   L205.086,174.825z"/>
	<path style="fill:#E56353;" d="M204.739,203.851l-2.255-1.984l5.133-5.835l-3.758-3.306l-4.61,5.24l-2.133-1.876l4.61-5.24   l-3.799-3.342l-5.299,6.023l-2.255-1.984l6.922-7.869l14.199,12.491L204.739,203.851z"/>
</g>
<path style="fill:#27A2DB;" d="M259.384,135.263c-4.74-4.095-13.243-2.038-18.962,4.581c-3.437,3.976-5.246,8.884-4.844,13.129  c0.043,0.462,0.315,0.848,0.692,1.057c0.231,0.128,0.501,0.191,0.786,0.164c0.745-0.071,1.291-0.733,1.22-1.478  c-0.334-3.523,1.234-7.672,4.196-11.1c4.744-5.488,11.54-7.415,15.14-4.301c3.604,3.115,2.679,10.114-2.062,15.602  c-0.965,1.117-2.201,2.24-3.345,3.076l1.941,1.925c1.308-0.958,2.355-1.957,3.454-3.229  C263.32,148.071,264.12,139.356,259.384,135.263z"/>
<g>
</g>
<g>
</g>
<g>
</g>
<g>
</g>
<g>
</g>
<g>
</g>
<g>
</g>
<g>
</g>
<g>
</g>
<g>
</g>
<g>
</g>
<g>
</g>
<g>
</g>
<g>
</g>
<g>
</g>
</svg>
