<?xml version="1.0" encoding="iso-8859-1"?>
<!-- Generator: Adobe Illustrator 19.0.0, SVG Export Plug-In . SVG Version: 6.00 Build 0)  -->
<svg xmlns="http://www.w3.org/2000/svg" xmlns:xlink="http://www.w3.org/1999/xlink" version="1.1" id="Capa_1" x="0px" y="0px" viewBox="0 0 409.583 409.583" style="enable-background:new 0 0 409.583 409.583;" xml:space="preserve">
<path style="fill:#64798A;" d="M314.68,0H94.892c-7.662,0-13.874,6.212-13.874,13.874v381.834c0,7.663,6.212,13.874,13.874,13.874  H314.68c7.663,0,13.875-6.212,13.875-13.874V13.874C328.555,6.212,322.343,0,314.68,0z"/>
<rect x="81.015" y="41.771" style="fill:#E1E6E9;" width="247.552" height="302.643"/>
<rect x="93.221" y="41.771" style="fill:#FFFFFF;" width="223.119" height="302.643"/>
<g>
	<path style="fill:#3A556A;" d="M204.786,400.051c-12.843,0-23.286-10.447-23.286-23.286s10.443-23.286,23.286-23.286   c12.843,0,23.286,10.447,23.286,23.286S217.629,400.051,204.786,400.051z M204.786,364.649c-6.683,0-12.116,5.436-12.116,12.116   s5.432,12.116,12.116,12.116c6.683,0,12.116-5.436,12.116-12.116S211.47,364.649,204.786,364.649z"/>
	<path style="fill:#3A556A;" d="M246.27,15.316h-82.967c-3.54,0-6.411,2.87-6.411,6.411c0,3.541,2.871,6.411,6.411,6.411h82.967   c3.541,0,6.411-2.87,6.411-6.411C252.681,18.186,249.811,15.316,246.27,15.316z"/>
	<circle style="fill:#3A556A;" cx="142.066" cy="21.726" r="6.41"/>
</g>
<circle style="fill:#64798A;" cx="179.391" cy="269.252" r="14.766"/>
<circle style="fill:#EBF0F3;" cx="179.391" cy="269.252" r="8.284"/>
<circle style="fill:#64798A;" cx="272.985" cy="269.252" r="14.766"/>
<circle style="fill:#EBF0F3;" cx="272.985" cy="269.252" r="8.284"/>
<path style="fill:#E1E6E9;" d="M138.123,128.627v6.481h24.77v10.466h-21.409v6.481h21.409v11.26h-16.65v6.481h16.65v11.26h-13.007  v6.481h13.007v11.26h-8.526v6.481h8.526v16.835l-3.794,0.37l0.627,6.45l125.835-12.27l21.102-88.038H138.123z M295.938,145.574  h-24.6v-10.466h27.109L295.938,145.574z M220.358,181.057v-11.26h19.01v11.26H220.358z M239.369,187.538v11.26h-19.01v-11.26  H239.369z M220.358,163.315v-11.26h19.01v11.26H220.358z M245.85,152.055h19.007v11.26H245.85V152.055z M245.85,145.574v-10.466  h19.007v10.466H245.85z M239.369,145.574h-19.01v-10.466h19.01V145.574z M213.877,145.574h-19.01v-10.466h19.01V145.574z   M213.877,152.055v11.26h-19.01v-11.26H213.877z M213.877,169.797v11.26h-19.01v-11.26H213.877z M213.877,187.538v11.26h-19.01  v-11.26H213.877z M213.877,205.279v11.863l-19.01,1.854v-13.717H213.877z M220.358,205.279h19.01v9.377l-19.01,1.854V205.279z   M245.85,205.279h19.007v6.891l-19.007,1.854V205.279z M245.85,198.798v-11.26h19.007v11.26H245.85z M245.85,181.057v-11.26h19.007  v11.26H245.85z M271.339,169.797h18.792l-2.7,11.26h-16.092V169.797z M271.339,163.315v-11.26h23.045l-2.699,11.26H271.339z   M169.375,135.108h19.01v10.466h-19.01V135.108z M169.375,152.055h19.01v11.26h-19.01V152.055z M169.375,169.797h19.01v11.26h-19.01  V169.797z M169.375,187.538h19.01v11.26h-19.01V187.538z M169.375,205.279h19.01v14.349l-19.01,1.854V205.279z M271.339,211.538  v-6.259h10.285l-1.29,5.382L271.339,211.538z M283.177,198.798h-11.838v-11.26h14.538L283.177,198.798z"/>
<path style="fill:#27A2DB;" d="M295.823,243.416H159.26c-3.744,0-6.779-3.035-6.779-6.779v-0.402c0-3.493,2.645-6.454,6.126-6.749  c1.182-0.1,2.261-0.707,2.95-1.659c0.674-0.932,0.915-2.111,0.655-3.239L134.18,103.526h-15.001v6.481h9.849l26.292,113.556  c-5.465,1.674-9.32,6.717-9.32,12.672v0.402c0,7.323,5.937,13.26,13.26,13.26h136.563c1.79,0,3.241-1.451,3.241-3.241  C299.064,244.867,297.613,243.416,295.823,243.416z"/>
<path style="fill:#E56353;" d="M107.576,102.107c-2.578,0-4.667,2.09-4.667,4.667c0,2.577,2.09,4.667,4.667,4.667h17.413v-9.334  H107.576z"/>
<g>
</g>
<g>
</g>
<g>
</g>
<g>
</g>
<g>
</g>
<g>
</g>
<g>
</g>
<g>
</g>
<g>
</g>
<g>
</g>
<g>
</g>
<g>
</g>
<g>
</g>
<g>
</g>
<g>
</g>
</svg>
