<?xml version="1.0" encoding="iso-8859-1"?>
<!-- Generator: Adobe Illustrator 19.0.0, SVG Export Plug-In . SVG Version: 6.00 Build 0)  -->
<svg xmlns="http://www.w3.org/2000/svg" xmlns:xlink="http://www.w3.org/1999/xlink" version="1.1" id="Capa_1" x="0px" y="0px" viewBox="0 0 404.014 404.014" style="enable-background:new 0 0 404.014 404.014;" xml:space="preserve">
<path style="fill:#F6C358;" d="M258.498,240.466h-0.005v-37.972H145.521v37.972l-23.188,5.931  c4.976,39.576,38.749,115.232,79.675,115.232c40.924,0,74.699-75.657,79.673-115.233L258.498,240.466z"/>
<path style="fill:#FCD462;" d="M283.751,99.063c-1.238-3.665-9.198-53.015-10.857-56.383H123.564  c-1.66,3.368-2.062,52.718-3.3,56.383c-10.853,0.013-19.648,9.145-19.648,25.933c0,16.34,8.332,33.906,18.784,34.855  c11.143,40.536,43.908,73.453,82.608,73.453c38.699,0,71.465-32.917,82.608-73.453c10.452-0.949,18.784-18.516,18.784-34.855  C303.398,108.208,294.604,99.075,283.751,99.063z"/>
<path style="fill:#2D93BA;" d="M285.809,98.373l-11.929,33.554c-1.31,3.686-6.525,5.406-10.689,3.535  c-9.723-4.368-29.16-10.427-62.168-10.427s-52.445,6.059-62.168,10.427c-4.163,1.87-9.378,0.15-10.689-3.535l-11.929-33.554  l66.357-31.168l83.656,17.133L285.809,98.373z"/>
<path style="fill:#27A2DB;" d="M199.843,0.003c-46.251,0.259-83.606,15.63-83.606,52.8V98.02c0,0.162,0.214,0.264,0.393,0.189  c56.262-23.48,112.524-23.48,168.786,0c0.179,0.075,0.393-0.027,0.393-0.189V53.324C285.809,15.378,247.21-0.262,199.843,0.003z"/>
<polygon style="fill:#1C75A1;" points="201.023,19.607 207.915,33.571 223.325,35.81 212.174,46.68 214.806,62.027 201.023,54.781   187.24,62.027 189.872,46.68 178.722,35.81 194.132,33.571 "/>
<path style="fill:#E56353;" d="M371.081,304.222c-1.219-21.132-15.973-39.045-36.479-44.29l-41.511-10.617l-19.057-4.963  l-72.026,102.383l-72.031-102.382l-19.052,4.962l-41.511,10.617c-20.506,5.245-35.261,23.158-36.48,44.29l-5.755,99.792h349.659  L371.081,304.222z"/>
<polygon style="fill:#CE412D;" points="274.033,244.352 258.969,240.428 202.007,318.278 145.046,240.429 129.976,244.353   202.007,346.735 "/>
<path style="fill:#FFFFFF;" d="M320.569,334.331h-61.695c-2.554,0-4.627,2.071-4.627,4.627v14.652c0,2.555,2.073,4.627,4.627,4.627  h61.695c2.555,0,4.626-2.072,4.626-4.627v-14.652C325.195,336.402,323.124,334.331,320.569,334.331z"/>
<g>
</g>
<g>
</g>
<g>
</g>
<g>
</g>
<g>
</g>
<g>
</g>
<g>
</g>
<g>
</g>
<g>
</g>
<g>
</g>
<g>
</g>
<g>
</g>
<g>
</g>
<g>
</g>
<g>
</g>
</svg>
