<?xml version="1.0" encoding="iso-8859-1"?>
<!-- Generator: Adobe Illustrator 19.0.0, SVG Export Plug-In . SVG Version: 6.00 Build 0)  -->
<svg xmlns="http://www.w3.org/2000/svg" xmlns:xlink="http://www.w3.org/1999/xlink" version="1.1" id="Capa_1" x="0px" y="0px" viewBox="0 0 409.6 409.6" style="enable-background:new 0 0 409.6 409.6;" xml:space="preserve">
<rect x="325.449" y="256.981" transform="matrix(-0.0591 0.9983 -0.9983 -0.0591 674.5643 -106.9646)" style="fill:#64798A;" width="124.487" height="14.889"/>
<path style="fill:#3A556A;" d="M369.963,298.984v55.344c15.282,0,27.671-12.389,27.671-27.672S385.245,298.984,369.963,298.984z"/>
<rect x="14.465" y="202.139" transform="matrix(-0.9983 0.0591 -0.0591 -0.9983 59.4026 527.0096)" style="fill:#64798A;" width="14.889" height="124.487"/>
<g>
	<path style="fill:#3A556A;" d="M39.637,298.984v55.344c-15.282,0-27.671-12.389-27.671-27.672S24.355,298.984,39.637,298.984z"/>
	<path style="fill:#3A556A;" d="M295.738,256.532c-4.302,0-7.788,3.487-7.788,7.787v124.779c0,4.301,3.485,7.787,7.788,7.787h14.415   V256.532H295.738z"/>
</g>
<path style="fill:#27A2DB;" d="M363.132,271.571h-14.415v110.274h14.415c4.302,0,7.788-3.487,7.788-7.788v-94.699  C370.919,275.057,367.434,271.571,363.132,271.571z"/>
<path style="fill:#FCD462;" d="M348.919,252.497c-11.566-6.492-23.967-9.257-37.137-8.582c-2.783,0.142-4.935,2.311-4.935,4.778  v156.131c0,2.576,2.341,4.775,5.255,4.776c13.202,0.007,25.46-2.663,36.642-8.353c1.666-0.848,2.674-2.479,2.674-4.179V256.593  C351.417,254.96,350.475,253.372,348.919,252.497z"/>
<path style="fill:#E56353;" d="M321.104,244.051v165.084c2.725-0.267,5.392-0.716,8.028-1.239V245.237  C326.485,244.707,323.822,244.26,321.104,244.051z"/>
<path style="fill:#3A556A;" d="M113.862,256.532c4.302,0,7.788,3.487,7.788,7.787v124.779c0,4.301-3.485,7.787-7.788,7.787H99.447  V256.532H113.862z"/>
<path style="fill:#27A2DB;" d="M46.468,271.571h14.415v110.274H46.468c-4.302,0-7.788-3.487-7.788-7.788v-94.699  C38.681,275.057,42.166,271.571,46.468,271.571z"/>
<path style="fill:#FCD462;" d="M60.681,252.497c11.566-6.492,23.967-9.257,37.137-8.582c2.783,0.142,4.935,2.311,4.935,4.778  v156.131c0,2.576-2.341,4.775-5.255,4.776c-13.202,0.007-25.46-2.663-36.642-8.353c-1.666-0.848-2.674-2.479-2.674-4.179V256.593  C58.183,254.96,59.125,253.372,60.681,252.497z"/>
<path style="fill:#E56353;" d="M88.496,244.051v165.084c-2.725-0.267-5.392-0.716-8.028-1.239V245.237  C83.115,244.707,85.778,244.26,88.496,244.051z"/>
<path style="fill:#3A556A;" d="M390.249,224.151c-10.689,0-19.351-8.663-19.351-19.351c0-91.587-74.511-166.097-166.097-166.097  S38.703,113.213,38.703,204.8c0,10.689-8.663,19.351-19.351,19.351S0,215.489,0,204.8C0,91.874,91.874,0,204.8,0  s204.8,91.874,204.8,204.8C409.6,215.489,400.937,224.151,390.249,224.151z"/>
<g>
</g>
<g>
</g>
<g>
</g>
<g>
</g>
<g>
</g>
<g>
</g>
<g>
</g>
<g>
</g>
<g>
</g>
<g>
</g>
<g>
</g>
<g>
</g>
<g>
</g>
<g>
</g>
<g>
</g>
</svg>
