<?xml version="1.0" encoding="iso-8859-1"?>
<!-- Generator: Adobe Illustrator 19.0.0, SVG Export Plug-In . SVG Version: 6.00 Build 0)  -->
<svg xmlns="http://www.w3.org/2000/svg" xmlns:xlink="http://www.w3.org/1999/xlink" version="1.1" id="Capa_1" x="0px" y="0px" viewBox="0 0 409.585 409.585" style="enable-background:new 0 0 409.585 409.585;" xml:space="preserve">
<rect x="149.343" y="319.691" style="fill:#E1E6E9;" width="110.915" height="57.943"/>
<path style="fill:#3A556A;" d="M409.585,21.757c0-8.226-6.668-14.894-14.894-14.894H14.894C6.669,6.863,0,13.531,0,21.757v240.295  h409.585V21.757z"/>
<rect x="22.341" y="29.208" style="fill:#64798A;" width="364.902" height="232.858"/>
<path style="fill:#EBF0F3;" d="M0,262.052v47.582c0,8.226,6.669,14.894,14.894,14.894h379.797c8.226,0,14.894-6.668,14.894-14.894  v-47.582H0z"/>
<g>
	<circle style="fill:#E1E6E9;" cx="204.792" cy="293.272" r="15.928"/>
	<rect x="115.955" y="390.859" style="fill:#E1E6E9;" width="177.679" height="11.863"/>
</g>
<polygon style="fill:#D5D6DB;" points="260.249,373.654 149.336,373.654 115.954,390.87 293.631,390.87 "/>
<path style="fill:#E1E6E9;" d="M358.216,63.688v24.498c0,14.122,11.449,25.57,25.57,25.57c14.122,0,25.57-11.448,25.57-25.57V63.688  H358.216z"/>
<path style="fill:#D15241;" d="M307.076,63.688v24.498c0,14.122,11.449,25.57,25.57,25.57c14.122,0,25.57-11.448,25.57-25.57V63.688  H307.076z"/>
<path style="fill:#E1E6E9;" d="M255.935,63.688v24.498c0,14.122,11.449,25.57,25.57,25.57c14.122,0,25.57-11.448,25.57-25.57V63.688  H255.935z"/>
<path style="fill:#D15241;" d="M204.795,63.688v24.498c0,14.122,11.449,25.57,25.57,25.57c14.122,0,25.57-11.448,25.57-25.57V63.688  H204.795z"/>
<path style="fill:#E1E6E9;" d="M153.654,63.688v24.498c0,14.122,11.449,25.57,25.57,25.57c14.122,0,25.57-11.448,25.57-25.57V63.688  H153.654z"/>
<path style="fill:#D15241;" d="M102.514,63.688v24.498c0,14.122,11.449,25.57,25.57,25.57c14.122,0,25.57-11.448,25.57-25.57V63.688  H102.514z"/>
<path style="fill:#E1E6E9;" d="M51.373,63.688v24.498c0,14.122,11.449,25.57,25.57,25.57c14.122,0,25.57-11.448,25.57-25.57V63.688  H51.373z"/>
<path style="fill:#D15241;" d="M0.233,63.688v24.498c0,14.122,11.449,25.57,25.57,25.57c14.122,0,25.57-11.448,25.57-25.57V63.688  H0.233z"/>
<polygon style="fill:#E56353;" points="89.729,29.205 51.374,29.205 0.233,63.688 51.374,63.688 "/>
<polygon style="fill:#EBF0F3;" points="128.084,29.205 89.729,29.205 51.374,63.688 102.514,63.688 "/>
<polygon style="fill:#E56353;" points="166.439,29.205 128.084,29.205 102.514,63.688 153.654,63.688 "/>
<polygon style="fill:#EBF0F3;" points="204.795,29.205 166.439,29.205 153.654,63.688 204.795,63.688 "/>
<polygon style="fill:#E56353;" points="243.15,29.205 204.795,29.205 204.795,63.688 255.935,63.688 "/>
<polygon style="fill:#EBF0F3;" points="281.505,29.205 243.15,29.205 255.935,63.688 307.075,63.688 "/>
<polygon style="fill:#E56353;" points="319.86,29.205 281.505,29.205 307.075,63.688 358.216,63.688 "/>
<polygon style="fill:#EBF0F3;" points="358.216,29.205 319.86,29.205 358.216,63.688 409.356,63.688 "/>
<g>
	<path style="fill:#FFFFFF;" d="M152.8,215.331c-5.509,0-10.216,3.426-12.152,8.253h-29.31c-1.936-4.827-6.645-8.253-12.161-8.253   c-5.509,0-10.216,3.426-12.152,8.253H82.05c-3.588,0-6.511-2.919-6.511-6.507c0-3.588,2.923-6.507,6.511-6.507h86.425   l12.043-66.948H73.707l-3.429-16.58H53.317v8.962h9.662l13.777,66.597c-5.922,2.173-10.18,7.814-10.18,14.476   c0,8.529,6.94,15.469,15.473,15.469h4.738c1.732,5.217,6.6,9.014,12.389,9.014c5.796,0,10.666-3.797,12.398-9.014h28.835   c1.732,5.217,6.6,9.014,12.389,9.014c5.796,0,10.666-3.797,12.398-9.014h7.145v-8.962h-7.382   C163.025,218.757,158.316,215.331,152.8,215.331z M169.805,152.584l-8.822,49.024H85.695L75.56,152.584H169.805z M99.177,232.599   c-2.284,0-4.148-1.864-4.148-4.153c0-2.289,1.864-4.153,4.148-4.153c2.293,0,4.157,1.864,4.157,4.153   C103.334,230.735,101.47,232.599,99.177,232.599z M152.8,232.599c-2.284,0-4.148-1.864-4.148-4.153   c0-2.289,1.864-4.153,4.148-4.153c2.293,0,4.157,1.864,4.157,4.153C156.957,230.735,155.093,232.599,152.8,232.599z"/>
	<rect x="90.785" y="163.705" style="fill:#FFFFFF;" width="8.96" height="27.3"/>
	<rect x="108.332" y="163.705" style="fill:#FFFFFF;" width="8.96" height="27.3"/>
	<rect x="125.842" y="163.705" style="fill:#FFFFFF;" width="8.96" height="27.3"/>
	<rect x="143.404" y="163.705" style="fill:#FFFFFF;" width="8.96" height="27.3"/>
</g>
<path style="fill:#FCD462;" d="M313.906,198.195h-64.803c-8.577,0-15.53,6.953-15.53,15.531v0c0,8.577,6.953,15.531,15.53,15.531  h64.803c8.578,0,15.532-6.953,15.532-15.531v0C329.438,205.148,322.484,198.195,313.906,198.195z"/>
<g>
	<path style="fill:#DC8744;" d="M260.264,224.247h-9.305v-21.256h8.271c1.44,0,2.683,0.171,3.727,0.517   c1.042,0.344,1.819,0.809,2.326,1.398c0.973,1.094,1.458,2.331,1.458,3.71c0,1.663-0.527,2.9-1.581,3.71   c-0.384,0.285-0.648,0.463-0.789,0.532c-0.141,0.072-0.396,0.188-0.76,0.349c1.317,0.285,2.366,0.879,3.148,1.779   c0.78,0.903,1.171,2.022,1.171,3.361c0,1.48-0.507,2.789-1.522,3.923C265.211,223.589,263.162,224.247,260.264,224.247z    M254.548,211.809h4.561c2.596,0,3.893-0.881,3.893-2.646c0-1.012-0.314-1.742-0.943-2.19c-0.629-0.445-1.601-0.668-2.92-0.668   h-4.591V211.809z M254.548,220.933h5.625c1.319,0,2.326-0.208,3.027-0.624c0.698-0.416,1.049-1.203,1.049-2.358   c0-1.883-1.512-2.826-4.531-2.826h-5.17V220.933z"/>
	<path style="fill:#DC8744;" d="M277.202,219.382c0.973,1.136,2.292,1.703,3.955,1.703c1.661,0,2.98-0.567,3.952-1.703   c0.973-1.136,1.46-2.675,1.46-4.623v-11.768h3.588v11.921c0,3.061-0.841,5.417-2.524,7.07c-1.683,1.651-3.843,2.477-6.476,2.477   c-2.636,0-4.796-0.827-6.479-2.477c-1.683-1.653-2.524-4.009-2.524-7.07v-11.921h3.588v11.768   C275.741,216.707,276.229,218.246,277.202,219.382z"/>
	<path style="fill:#DC8744;" d="M304.144,224.247h-3.648v-8.392l-7.907-12.864h3.923l5.808,9.669l5.808-9.669h3.922l-7.907,12.864   V224.247z"/>
</g>
<g>
</g>
<g>
</g>
<g>
</g>
<g>
</g>
<g>
</g>
<g>
</g>
<g>
</g>
<g>
</g>
<g>
</g>
<g>
</g>
<g>
</g>
<g>
</g>
<g>
</g>
<g>
</g>
<g>
</g>
</svg>
