<?xml version="1.0" encoding="iso-8859-1"?>
<!-- Generator: Adobe Illustrator 19.0.0, SVG Export Plug-In . SVG Version: 6.00 Build 0)  -->
<svg xmlns="http://www.w3.org/2000/svg" xmlns:xlink="http://www.w3.org/1999/xlink" version="1.1" id="Capa_1" x="0px" y="0px" viewBox="0 0 409.585 409.585" style="enable-background:new 0 0 409.585 409.585;" xml:space="preserve">
<path style="fill:#EBF0F3;" d="M326.438,7.416C326.482,3.351,323.156,0,319.091,0H90.494c-4.065,0-7.391,3.351-7.347,7.416  c0.58,52.841,7.338,102.09,18.648,143.965c11.48,42.498,15.707,87.307,12.314,131.783l-7.66,100.434  c-0.731,9.57,5,18.128,12.967,19.364c56.918,8.831,113.834,8.831,170.752,0c7.967-1.236,13.698-9.795,12.967-19.364l-7.66-100.434  c-3.393-44.477,0.836-89.286,12.316-131.785C319.1,109.506,325.858,60.257,326.438,7.416z"/>
<path style="fill:#E56353;" d="M306.83,77.451c-52.651,2.819-113.429-12.613-113.429-12.613  c-28.868-7.975-64.309-8.019-92.664-6.049c2.905,31.379,8.074,61.45,15.436,88.708c12.021,44.478,16.319,90.506,12.785,136.802  L121.3,384.74c-0.16,2.109,0.705,3.476,0.4,3.505c27.57,4.276,55.525,6.443,83.088,6.443c27.57,0,55.525-2.167,82.455-6.211  c0.335-0.262,1.2-1.629,1.04-3.745L280.625,284.3c-3.534-46.275,0.771-92.302,12.785-136.802  C299.299,125.702,303.768,102.082,306.83,77.451z"/>
<g>
	<path style="fill:#D15241;" d="M198.594,330.919l-22.931-14.698c-5.239-3.358-12.21-1.833-15.569,3.407l-14.698,22.93   c-3.359,5.24-1.834,12.211,3.405,15.569l22.931,14.698c5.239,3.358,12.211,1.834,15.57-3.406L202,346.489   C205.359,341.249,203.833,334.277,198.594,330.919z"/>
	<path style="fill:#D15241;" d="M258.764,282.082l-22.931-14.698c-5.239-3.358-12.21-1.833-15.569,3.407l-14.698,22.93   c-3.359,5.24-1.834,12.211,3.405,15.569l22.931,14.698c5.239,3.358,12.211,1.834,15.57-3.406l14.698-22.93   C265.53,292.412,264.004,285.441,258.764,282.082z"/>
	<path style="fill:#D15241;" d="M198.594,242.68l-22.931-14.698c-5.239-3.358-12.21-1.833-15.569,3.407l-14.698,22.93   c-3.359,5.24-1.834,12.211,3.405,15.569l22.931,14.698c5.239,3.358,12.211,1.834,15.57-3.406L202,258.25   C205.359,253.01,203.833,246.038,198.594,242.68z"/>
	<path style="fill:#D15241;" d="M263.71,196.962l-22.931-14.698c-5.239-3.358-12.21-1.833-15.569,3.407l-14.698,22.93   c-3.359,5.24-1.834,12.211,3.405,15.569l22.931,14.698c5.239,3.358,12.211,1.834,15.57-3.406l14.698-22.93   C270.475,207.292,268.949,200.321,263.71,196.962z"/>
</g>
<g>
</g>
<g>
</g>
<g>
</g>
<g>
</g>
<g>
</g>
<g>
</g>
<g>
</g>
<g>
</g>
<g>
</g>
<g>
</g>
<g>
</g>
<g>
</g>
<g>
</g>
<g>
</g>
<g>
</g>
</svg>
