<?xml version="1.0" encoding="iso-8859-1"?>
<!-- Generator: Adobe Illustrator 19.0.0, SVG Export Plug-In . SVG Version: 6.00 Build 0)  -->
<svg xmlns="http://www.w3.org/2000/svg" xmlns:xlink="http://www.w3.org/1999/xlink" version="1.1" id="Capa_1" x="0px" y="0px" viewBox="0 0 409.641 409.641" style="enable-background:new 0 0 409.641 409.641;" xml:space="preserve">
<path style="fill:#27A2DB;" d="M393.109,109.717H16.541c-9.122,0-16.516,7.395-16.516,16.516v238.793  c0,9.122,7.395,16.516,16.516,16.516h376.567c9.122,0,16.516-7.395,16.516-16.516V126.232  C409.625,117.111,402.23,109.717,393.109,109.717z"/>
<path style="fill:#FCD462;" d="M85.484,147.787H33.156c-4.232,0-7.662,3.43-7.662,7.662v52.328c0,4.232,3.429,7.663,7.662,7.663  h52.328c4.232,0,7.664-3.431,7.664-7.663v-52.328C93.148,151.217,89.716,147.787,85.484,147.787z"/>
<g>
	<rect x="25.493" y="243.572" style="fill:#FFFFFF;" width="169.933" height="14.894"/>
	<rect x="25.493" y="286.785" style="fill:#FFFFFF;" width="127.432" height="14.894"/>
	<rect x="25.493" y="333.889" style="fill:#FFFFFF;" width="46.49" height="14.894"/>
	<rect x="109.082" y="333.889" style="fill:#FFFFFF;" width="46.49" height="14.894"/>
	<rect x="192.614" y="333.889" style="fill:#FFFFFF;" width="46.49" height="14.894"/>
	<rect x="276.178" y="333.889" style="fill:#FFFFFF;" width="46.49" height="14.894"/>
</g>
<circle style="fill:#EBF0F3;" cx="301.65" cy="166.71" r="31.457"/>
<g>
	<circle style="fill:#E56353;" cx="352.282" cy="166.71" r="31.457"/>
	<rect x="169.6" y="108.814" style="fill:#E56353;" width="70.4" height="272.742"/>
</g>
<g>
	<rect x="178.12" y="108.814" style="fill:#FFFFFF;" width="6.385" height="272.742"/>
	<rect x="225.147" y="108.814" style="fill:#FFFFFF;" width="6.385" height="272.742"/>
</g>
<rect y="209.954" style="fill:#E56353;" width="409.6" height="70.4"/>
<g>
	<rect x="0.015" y="218.494" style="fill:#FFFFFF;" width="409.6" height="6.385"/>
	<rect x="0.041" y="265.521" style="fill:#FFFFFF;" width="409.6" height="6.385"/>
</g>
<path style="fill:#E56353;" d="M342.913,79.406c-2.204-20.677-30.651-55.482-54.282-50.912  c-61.754,11.942-86.693,82.745-86.693,82.745s48.306-11.791,86.693-29.266C288.631,81.974,334.532,59.491,342.913,79.406z"/>
<path style="fill:#FFFFFF;" d="M327.954,64.704c-16.619-0.392-37.493,9.451-41.551,11.444c-25.64,11.58-59.233,23.279-76.547,28.288  c7.17-13.817,34.624-60.756,80.646-69.588c0.455-0.088,0.97-0.113,1.517-0.14c0.599-0.03,1.221-0.061,1.878-0.174  c5.036-0.866,18.986,3.128,26.244,6.4c-2.715-2.465-5.567-4.684-8.498-6.559c-6.845-2.113-14.366-3.705-18.299-3.029  c-0.495,0.085-0.994,0.106-1.488,0.13c-0.634,0.032-1.291,0.064-1.97,0.194c-52.591,10.094-81.47,68.048-84.59,74.623l-1.504,3.17  l3.403-0.919c15.999-4.318,52.895-16.956,80.688-29.514c3.901-1.914,24.215-11.403,39.999-11.091  c4.975,0.112,9.701,1.493,12.764,2.442c-0.47-1.266-0.992-2.547-1.584-3.844C336.002,65.678,332.1,64.797,327.954,64.704z"/>
<path style="fill:#D15241;" d="M288.631,81.974c-38.387,17.474-86.693,29.266-86.693,29.266l102.845-4.956  c0,0,34.915-4.72,38.003-21.241c0.319-1.707,0.344-3.606,0.128-5.636C334.532,59.491,288.631,81.974,288.631,81.974z"/>
<path style="fill:#E56353;" d="M66.737,79.406c2.204-20.677,30.651-55.482,54.282-50.912c61.754,11.942,86.693,82.745,86.693,82.745  s-48.306-11.791-86.693-29.266C121.019,81.974,75.118,59.491,66.737,79.406z"/>
<path style="fill:#FFFFFF;" d="M81.696,64.704c16.619-0.392,37.493,9.451,41.551,11.444c25.64,11.58,59.233,23.279,76.547,28.288  c-7.17-13.817-34.624-60.756-80.646-69.588c-0.455-0.088-0.97-0.113-1.517-0.14c-0.599-0.03-1.221-0.061-1.878-0.174  c-5.036-0.866-18.987,3.128-26.244,6.4c2.715-2.465,5.567-4.684,8.498-6.559c6.845-2.113,14.366-3.705,18.299-3.029  c0.495,0.085,0.994,0.106,1.488,0.13c0.634,0.032,1.291,0.064,1.97,0.194c52.591,10.094,81.47,68.048,84.59,74.623l1.504,3.17  l-3.403-0.919c-15.999-4.318-52.895-16.956-80.688-29.514c-3.901-1.914-24.215-11.403-39.999-11.091  c-4.975,0.112-9.701,1.493-12.764,2.442c0.47-1.266,0.992-2.547,1.584-3.844C73.648,65.678,77.55,64.797,81.696,64.704z"/>
<g>
	<path style="fill:#D15241;" d="M121.019,81.974c38.387,17.474,86.693,29.266,86.693,29.266l-102.845-4.956   c0,0-34.915-4.72-38.003-21.241c-0.319-1.707-0.344-3.606-0.128-5.636C75.118,59.491,121.019,81.974,121.019,81.974z"/>
	<path style="fill:#D15241;" d="M154.012,215.45c6.761-18.02,4.608-32.14,1.613-59.279c-27.185,3.966-41.478,5.458-57.321,16.505   c27.899-38.948,50.503-55.445,90.936-81.469c8.467,6.501,12.701,9.752,21.168,16.253   C195.264,152.902,184.901,178.799,154.012,215.45z"/>
</g>
<g>
	<path style="fill:#FFFFFF;" d="M193.042,94.126c-0.274-0.211-0.526-0.404-0.809-0.621c-0.138-0.106-0.298-0.229-0.439-0.337   c-28.091,19.379-59.298,43.556-79.13,71.78c3.483-1.367,7.106-2.462,10.992-3.402c23.207-29.799,41.702-42.827,70.057-66.904   C193.445,94.436,193.25,94.286,193.042,94.126z"/>
	<path style="fill:#FFFFFF;" d="M207.853,105.498c-0.14-0.108-0.3-0.231-0.439-0.337c-0.283-0.217-0.534-0.41-0.809-0.621   c-0.207-0.159-0.403-0.309-0.672-0.515c-16.298,33.335-24.313,54.41-47.479,84.243c0.065,3.973-0.089,7.733-0.541,11.427   C180.396,173.504,196.067,137.399,207.853,105.498z"/>
</g>
<path style="fill:#D15241;" d="M253.335,215.45c-6.761-18.02-4.608-32.14-1.613-59.279c27.185,3.966,41.478,5.458,57.321,16.505  c-27.899-38.948-50.503-55.445-90.936-81.469c-8.467,6.501-12.701,9.752-21.168,16.253  C212.082,152.902,222.445,178.799,253.335,215.45z"/>
<g>
	<path style="fill:#FFFFFF;" d="M214.305,94.126c0.274-0.211,0.526-0.404,0.809-0.621c0.138-0.106,0.298-0.229,0.439-0.337   c28.091,19.379,59.298,43.556,79.13,71.78c-3.483-1.367-7.106-2.462-10.992-3.402c-23.207-29.799-41.702-42.827-70.057-66.904   C213.902,94.436,214.097,94.286,214.305,94.126z"/>
	<path style="fill:#FFFFFF;" d="M199.494,105.498c0.14-0.108,0.3-0.231,0.439-0.337c0.283-0.217,0.534-0.41,0.809-0.621   c0.207-0.159,0.403-0.309,0.672-0.515c16.298,33.335,24.313,54.41,47.479,84.243c-0.065,3.973,0.089,7.733,0.541,11.427   C226.951,173.504,211.279,137.399,199.494,105.498z"/>
</g>
<path style="fill:#CE412D;" d="M204.825,80.539c-15.565,0-28.184,12.538-28.184,28.005h56.367  C233.009,93.077,220.39,80.539,204.825,80.539z"/>
<g>
</g>
<g>
</g>
<g>
</g>
<g>
</g>
<g>
</g>
<g>
</g>
<g>
</g>
<g>
</g>
<g>
</g>
<g>
</g>
<g>
</g>
<g>
</g>
<g>
</g>
<g>
</g>
<g>
</g>
</svg>
