<?xml version="1.0" encoding="iso-8859-1"?>
<!-- Generator: Adobe Illustrator 19.0.0, SVG Export Plug-In . SVG Version: 6.00 Build 0)  -->
<svg xmlns="http://www.w3.org/2000/svg" xmlns:xlink="http://www.w3.org/1999/xlink" version="1.1" id="Capa_1" x="0px" y="0px" viewBox="0 0 433.124 433.124" style="enable-background:new 0 0 433.124 433.124;" xml:space="preserve">
<path style="fill:#27A2DB;" d="M364.678,322.863l61.23-84.125c9.621-13.218,9.621-31.133,0-44.351l-61.229-84.125  c-7.092-9.744-18.416-15.508-30.468-15.508H24.2c-13.365,0-24.2,10.835-24.2,24.2v195.219c0,13.365,10.834,24.199,24.199,24.199  h310.012C346.262,338.371,357.587,332.606,364.678,322.863z"/>
<g>
	<rect x="29.789" y="124.556" style="fill:#FFFFFF;" width="250.982" height="184.038"/>
	<ellipse style="fill:#FFFFFF;" cx="391.258" cy="216.496" rx="20.818" ry="20.818"/>
</g>
<g>
	<rect x="45.032" y="144.037" style="fill:#64798A;" width="6.748" height="145.05"/>
	<rect x="61.472" y="144.037" style="fill:#64798A;" width="11.351" height="145.05"/>
	<rect x="77.917" y="144.037" style="fill:#64798A;" width="6.748" height="145.05"/>
	<rect x="94.348" y="144.037" style="fill:#64798A;" width="6.748" height="145.05"/>
	<rect x="116.43" y="144.037" style="fill:#64798A;" width="8.98" height="145.05"/>
	<rect x="105.048" y="144.037" style="fill:#64798A;" width="6.748" height="145.05"/>
	<rect x="131.263" y="144.037" style="fill:#64798A;" width="6.748" height="145.05"/>
	<rect x="143.684" y="144.037" style="fill:#64798A;" width="6.748" height="145.05"/>
	<rect x="160.124" y="144.037" style="fill:#64798A;" width="6.748" height="145.05"/>
	<rect x="176.575" y="144.037" style="fill:#64798A;" width="6.748" height="145.05"/>
	<rect x="193.01" y="144.037" style="fill:#64798A;" width="11.32" height="145.05"/>
	<rect x="209.455" y="144.037" style="fill:#64798A;" width="6.748" height="145.05"/>
	<rect x="225.896" y="144.037" style="fill:#64798A;" width="6.748" height="145.05"/>
	<rect x="242.316" y="144.037" style="fill:#64798A;" width="6.748" height="145.05"/>
	<rect x="258.802" y="144.037" style="fill:#64798A;" width="6.748" height="145.05"/>
</g>
<rect x="45.032" y="255.116" style="fill:#E56353;" width="220.518" height="7.624"/>
<g>
</g>
<g>
</g>
<g>
</g>
<g>
</g>
<g>
</g>
<g>
</g>
<g>
</g>
<g>
</g>
<g>
</g>
<g>
</g>
<g>
</g>
<g>
</g>
<g>
</g>
<g>
</g>
<g>
</g>
</svg>
