<?xml version="1.0" encoding="iso-8859-1"?>
<!-- Generator: Adobe Illustrator 19.0.0, SVG Export Plug-In . SVG Version: 6.00 Build 0)  -->
<svg xmlns="http://www.w3.org/2000/svg" xmlns:xlink="http://www.w3.org/1999/xlink" version="1.1" id="Capa_1" x="0px" y="0px" viewBox="0 0 409.6 409.6" style="enable-background:new 0 0 409.6 409.6;" xml:space="preserve">
<path style="fill:#3EA69B;" d="M244.469,112.58l-58.423-16.446c-4.164-1.172-8.631-0.487-12.253,1.878l-53.703,35.067  c-3.622,2.365-6.045,6.18-6.646,10.463l-8.437,60.104c-0.504,3.59,0.311,7.24,2.292,10.275l123.338,188.884  c4.525,6.929,13.81,8.878,20.739,4.354l120.563-78.726c6.929-4.525,8.878-13.81,4.354-20.739L252.955,118.811  C250.973,115.776,247.958,113.563,244.469,112.58z"/>
<path style="fill:#44C4A1;" d="M249.443,98.323l-58.423-16.446c-4.164-1.172-8.631-0.487-12.253,1.878l-53.703,35.067  c-3.622,2.365-6.045,6.18-6.646,10.463l-8.437,60.104c-0.504,3.59,0.311,7.24,2.292,10.275l123.338,188.884  c4.525,6.929,13.81,8.878,20.739,4.354l120.563-78.726c6.929-4.525,8.878-13.81,4.354-20.739L257.929,104.554  C255.947,101.519,252.932,99.305,249.443,98.323z"/>
<path style="fill:#FFFFFF;" d="M336.143,261.753l-138.197,27.391l-15.442-14.198l138.183-27.377L336.143,261.753z M284.167,220.521  c0.013,6.854-2.382,12.941-7.225,18.207c-4.843,5.266-10.731,8.177-17.652,8.733c-6.907,0.569-12.941-1.522-18.088-6.246  c-5.147-4.737-7.741-10.533-7.767-17.387c-0.013-6.867,2.382-12.941,7.225-18.207s10.731-8.177,17.638-8.746  c6.92-0.556,12.954,1.522,18.102,6.259C281.547,207.871,284.141,213.667,284.167,220.521z M287.158,312.697  c0.013,6.854-2.408,12.915-7.238,18.181c-4.843,5.28-10.718,8.204-17.638,8.76c-6.92,0.556-12.954-1.522-18.102-6.259  c-5.161-4.724-7.728-10.52-7.754-17.4c-0.026-6.854,2.382-12.915,7.225-18.194c4.843-5.266,10.718-8.177,17.652-8.746  c6.907-0.556,12.941,1.535,18.088,6.259C284.538,300.02,287.131,305.816,287.158,312.697z M257.994,232.907  c2.779-0.45,5.266-1.879,7.476-4.287c2.197-2.382,3.374-5.028,3.507-7.913c0.146-2.885-0.754-5.227-2.699-7.013  c-1.958-1.8-4.34-2.461-7.119-2.011c-2.779,0.463-5.266,1.892-7.463,4.287c-2.21,2.395-3.387,5.041-3.52,7.913  c-0.146,2.885,0.741,5.227,2.699,7.026C252.834,232.708,255.215,233.37,257.994,232.907z M260.998,325.532  c2.779-0.463,5.266-1.892,7.463-4.287c2.21-2.395,3.374-5.028,3.533-7.913c0.132-2.885-0.767-5.227-2.726-7.013  c-1.958-1.8-4.314-2.461-7.092-2.011c-2.792,0.476-5.28,1.892-7.489,4.287c-2.197,2.395-3.361,5.028-3.52,7.913  c-0.146,2.885,0.767,5.227,2.726,7.026C255.851,325.333,258.206,325.995,260.998,325.532z"/>
<path style="fill:#DC8744;" d="M248.52,153.328l-30.05-52.733c-2.142-3.758-5.803-6.407-10.042-7.267l-62.861-12.741  c-4.239-0.859-8.644,0.155-12.079,2.783l-48.21,36.871c-2.879,2.202-4.863,5.373-5.583,8.926L34.882,350.258  c-1.644,8.111,3.598,16.018,11.709,17.662l141.121,28.603c8.111,1.644,16.018-3.598,17.662-11.709l44.812-221.091  C250.907,160.17,250.314,156.477,248.52,153.328z"/>
<path style="fill:#F6C358;" d="M239.832,141.382l-30.05-52.733c-2.142-3.758-5.803-6.407-10.042-7.267l-62.861-12.741  c-4.239-0.859-8.644,0.155-12.079,2.783l-48.21,36.871c-2.879,2.202-4.863,5.373-5.583,8.926L26.194,338.312  c-1.644,8.111,3.598,16.018,11.709,17.662l141.121,28.603c8.111,1.644,16.018-3.598,17.662-11.709l44.812-221.091  C242.219,148.224,241.626,144.531,239.832,141.382z"/>
<circle style="fill:#FFFFFF;" cx="159.795" cy="108.237" r="17.265"/>
<g>
	<path style="fill:#E56353;" d="M176.386,170.894c0.633-2.905,0.384-5.454-0.749-7.647c-1.135-2.201-3.256-3.637-6.366-4.315   c-3.115-0.679-5.694-0.268-7.745,1.239c-2.054,1.499-4.695,5.069-7.916,10.719c-3.228,5.641-6.897,9.629-11.004,11.957   c-4.114,2.319-9.516,2.749-16.215,1.289c-6.698-1.46-11.714-4.586-15.038-9.392c-3.326-4.799-4.301-10.354-2.924-16.672   c2.015-9.244,7.941-16.546,17.773-21.902l8.414,8.388c-8.041,4.506-12.757,9.974-14.159,16.402   c-0.701,3.214-0.363,5.963,1.022,8.24c1.379,2.283,3.556,3.745,6.518,4.391c2.967,0.647,5.467,0.261,7.502-1.155   c2.032-1.417,4.201-4.153,6.5-8.194c2.301-4.048,4.267-7.08,5.893-9.083c1.627-2.01,3.543-3.691,5.756-5.04   c4.203-2.747,9.855-3.339,16.956-1.791c7.101,1.548,12.143,4.723,15.119,9.539c2.977,4.809,3.826,10.149,2.548,16.013   c-0.824,3.779-2.446,7.355-4.864,10.721c-2.425,3.372-5.395,6.092-8.912,8.159l-8.612-7.457c2.428-1.302,4.628-3.303,6.598-6.003   C174.45,176.601,175.753,173.799,176.386,170.894z"/>
	<path style="fill:#E56353;" d="M117.777,203.341l-16.173-9.726l2.322-10.655l71.088,42.784l-2.322,10.655l-82.445,9.32   l2.324-10.662l18.754-2.113L117.777,203.341z M124.177,231.492l33.969-3.844l-29.287-17.638L124.177,231.492z"/>
	<path style="fill:#E56353;" d="M88.46,253.924l76.766,16.732l-2.175,9.98l-64.464-14.05l-5.881,26.981l-12.302-2.681L88.46,253.924   z"/>
	<path style="fill:#E56353;" d="M145.742,360.051l-12.19-2.657l6.875-31.544l-20.319-4.429l-6.175,28.33l-11.529-2.513l6.175-28.33   l-20.538-4.476l-7.097,32.563l-12.19-2.657l9.273-42.543l76.766,16.732L145.742,360.051z"/>
</g>
<path style="fill:#64798A;" d="M205.891,0.721c-25.476-5.312-52.211,19.306-59.635,54.881c-4.465,21.371-1.138,42.849,8.886,57.454  c1.089,1.589,2.854,2.444,4.646,2.444c1.1,0,2.205-0.319,3.184-0.99c2.562-1.76,3.211-5.265,1.452-7.828  c-8.32-12.122-10.992-30.356-7.148-48.78c6.164-29.501,26.961-50.207,46.316-46.157c19.372,4.044,30.128,31.332,23.975,60.828  c-1.254,6.002-3.477,12.575-5.946,17.918l10.934,3.078c2.821-6.117,4.607-11.859,6.032-18.694  C246.016,39.303,231.345,6.035,205.891,0.721z"/>
<g>
</g>
<g>
</g>
<g>
</g>
<g>
</g>
<g>
</g>
<g>
</g>
<g>
</g>
<g>
</g>
<g>
</g>
<g>
</g>
<g>
</g>
<g>
</g>
<g>
</g>
<g>
</g>
<g>
</g>
</svg>
