<?xml version="1.0" encoding="iso-8859-1"?>
<!-- Generator: Adobe Illustrator 19.0.0, SVG Export Plug-In . SVG Version: 6.00 Build 0)  -->
<svg xmlns="http://www.w3.org/2000/svg" xmlns:xlink="http://www.w3.org/1999/xlink" version="1.1" id="Capa_1" x="0px" y="0px" viewBox="0 0 409.6 409.6" style="enable-background:new 0 0 409.6 409.6;" xml:space="preserve">
<rect x="32.901" style="fill:#3EA69B;" width="171.899" height="409.6"/>
<rect x="204.8" style="fill:#31978C;" width="171.899" height="409.6"/>
<polygon style="fill:#44C4A1;" points="376.7,409.6 32.9,409.6 204.8,330.23 "/>
<g>
	<circle style="fill:#29897B;" cx="125.609" cy="35.108" r="11.407"/>
	<circle style="fill:#29897B;" cx="284.006" cy="35.108" r="11.407"/>
	<path style="fill:#29897B;" d="M204.797,176.556c-47.775,0-86.64-40.935-86.64-91.247V31.934h14.895v53.375   c0,42.102,32.182,76.353,71.745,76.353s71.745-34.251,71.745-76.353V31.934h14.895v53.375   C291.437,135.622,252.572,176.556,204.797,176.556z"/>
</g>
<path style="fill:#FFFFFF;" d="M204.797,169.014c-47.775,0-86.64-38.865-86.64-86.64v-50.44h14.895v50.44  c0,39.56,32.182,71.745,71.745,71.745s71.745-32.185,71.745-71.745v-50.44h14.895v50.44  C291.437,130.149,252.572,169.014,204.797,169.014z"/>
<g>
</g>
<g>
</g>
<g>
</g>
<g>
</g>
<g>
</g>
<g>
</g>
<g>
</g>
<g>
</g>
<g>
</g>
<g>
</g>
<g>
</g>
<g>
</g>
<g>
</g>
<g>
</g>
<g>
</g>
</svg>
