<?xml version="1.0" encoding="iso-8859-1"?>
<!-- Generator: Adobe Illustrator 19.0.0, SVG Export Plug-In . SVG Version: 6.00 Build 0)  -->
<svg xmlns="http://www.w3.org/2000/svg" xmlns:xlink="http://www.w3.org/1999/xlink" version="1.1" id="Capa_1" x="0px" y="0px" viewBox="0 0 409.62 409.62" style="enable-background:new 0 0 409.62 409.62;" xml:space="preserve">
<rect x="117.468" y="355.996" style="fill:#E1E6E9;" width="87.245" height="33.864"/>
<path style="fill:#3A556A;" d="M322.178,121.643c0-6.471-5.245-11.716-11.716-11.716H11.716C5.246,109.928,0,115.173,0,121.643  v189.015h322.178V121.643z"/>
<rect x="17.577" y="127.501" style="fill:#64798A;" width="287.027" height="183.158"/>
<path style="fill:#EBF0F3;" d="M0,310.658v37.428c0,6.47,5.246,11.716,11.716,11.716h298.747c6.471,0,11.716-5.245,11.716-11.716  v-37.428H0z"/>
<g>
	<circle style="fill:#E1E6E9;" cx="161.091" cy="335.209" r="12.529"/>
	<rect x="91.208" y="400.284" style="fill:#E1E6E9;" width="139.776" height="9.334"/>
</g>
<polygon style="fill:#D5D6DB;" points="204.711,386.729 117.467,386.729 91.209,400.271 230.969,400.271 "/>
<rect x="195.533" y="0.003" style="fill:#FCD462;" width="107.028" height="255.022"/>
<rect x="302.592" y="0.003" style="fill:#F6C358;" width="107.028" height="255.022"/>
<g>
	<polygon style="fill:#DC8744;" points="409.6,255.023 195.547,255.023 302.574,205.607  "/>
	<circle style="fill:#DC8744;" cx="253.286" cy="21.865" r="7.101"/>
	<circle style="fill:#DC8744;" cx="351.898" cy="21.865" r="7.101"/>
	<path style="fill:#DC8744;" d="M302.572,109.928c-29.745,0-53.943-25.486-53.943-56.811V19.885h9.273v33.231   c0,26.213,20.037,47.538,44.669,47.538s44.669-21.325,44.669-47.538V19.885h9.273v33.231   C356.515,84.442,332.317,109.928,302.572,109.928z"/>
</g>
<g>
	<path style="fill:#FFFFFF;" d="M302.572,105.232c-29.745,0-53.943-24.198-53.943-53.943V19.885h9.273V51.29   c0,24.63,20.037,44.669,44.669,44.669s44.669-20.039,44.669-44.669V19.885h9.273V51.29   C356.515,81.034,332.317,105.232,302.572,105.232z"/>
	<polygon style="fill:#FFFFFF;" points="136.67,187.71 96.328,187.71 106.488,197.87 69.232,235.127 89.253,255.149 126.51,217.892    136.67,228.052  "/>
</g>
<g>
</g>
<g>
</g>
<g>
</g>
<g>
</g>
<g>
</g>
<g>
</g>
<g>
</g>
<g>
</g>
<g>
</g>
<g>
</g>
<g>
</g>
<g>
</g>
<g>
</g>
<g>
</g>
<g>
</g>
</svg>
