<?xml version="1.0" encoding="iso-8859-1"?>
<!-- Generator: Adobe Illustrator 19.0.0, SVG Export Plug-In . SVG Version: 6.00 Build 0)  -->
<svg xmlns="http://www.w3.org/2000/svg" xmlns:xlink="http://www.w3.org/1999/xlink" version="1.1" id="Capa_1" x="0px" y="0px" viewBox="0 0 409.604 409.604" style="enable-background:new 0 0 409.604 409.604;" xml:space="preserve">
<rect x="15.076" y="97.894" style="fill:#FCD462;" width="379.443" height="311.711"/>
<rect x="33.758" y="190.566" style="fill:#EBF0F3;" width="127.596" height="219.028"/>
<rect x="42.601" y="200.499" style="fill:#DC8744;" width="109.911" height="209.08"/>
<rect x="190.671" y="205.516" style="fill:#FFFFFF;" width="185.754" height="126.582"/>
<g>
	<rect x="287.644" y="213.785" style="fill:#27A2DB;" width="80.425" height="50.852"/>
	<rect x="198.945" y="213.785" style="fill:#27A2DB;" width="80.425" height="50.852"/>
	<rect x="287.644" y="272.947" style="fill:#27A2DB;" width="80.425" height="50.852"/>
	<rect x="198.945" y="272.947" style="fill:#27A2DB;" width="80.425" height="50.852"/>
</g>
<path style="fill:#D15241;" d="M0.003,81.453v16.204c0,18.855,15.281,34.133,34.133,34.133s34.133-15.277,34.133-34.133V81.453  H0.003z"/>
<path style="fill:#E1E6E9;" d="M68.268,81.453v16.204c0,18.855,15.283,34.133,34.134,34.133s34.134-15.277,34.134-34.133V81.453  H68.268z"/>
<path style="fill:#D15241;" d="M136.537,81.453v16.204c0,18.855,15.281,34.133,34.133,34.133s34.133-15.277,34.133-34.133V81.453  H136.537z"/>
<path style="fill:#E1E6E9;" d="M204.802,81.453v16.204c0,18.855,15.281,34.133,34.133,34.133s34.133-15.277,34.133-34.133V81.453  H204.802z"/>
<path style="fill:#D15241;" d="M273.067,81.453v16.204c0,18.855,15.283,34.133,34.134,34.133c18.852,0,34.134-15.277,34.134-34.133  V81.453H273.067z"/>
<path style="fill:#E1E6E9;" d="M341.336,81.453v16.204c0,18.855,15.281,34.133,34.133,34.133c18.852,0,34.133-15.277,34.133-34.133  V81.453H341.336z"/>
<polygon style="fill:#E56353;" points="68.269,81.454 0.003,81.454 65.942,0 112.229,0 "/>
<polygon style="fill:#EBF0F3;" points="136.536,81.454 68.269,81.454 112.229,0 158.516,0 "/>
<polygon style="fill:#E56353;" points="204.802,81.454 136.536,81.454 158.516,0 204.802,0 "/>
<polygon style="fill:#EBF0F3;" points="273.069,81.454 204.802,81.454 204.802,0 251.089,0 "/>
<polygon style="fill:#E56353;" points="341.335,81.454 273.069,81.454 251.089,0 297.376,0 "/>
<polygon style="fill:#EBF0F3;" points="409.602,81.454 341.335,81.454 297.376,0 343.662,0 "/>
<g>
</g>
<g>
</g>
<g>
</g>
<g>
</g>
<g>
</g>
<g>
</g>
<g>
</g>
<g>
</g>
<g>
</g>
<g>
</g>
<g>
</g>
<g>
</g>
<g>
</g>
<g>
</g>
<g>
</g>
</svg>
