<?xml version="1.0" encoding="iso-8859-1"?>
<!-- Generator: Adobe Illustrator 19.0.0, SVG Export Plug-In . SVG Version: 6.00 Build 0)  -->
<svg xmlns="http://www.w3.org/2000/svg" xmlns:xlink="http://www.w3.org/1999/xlink" version="1.1" id="Capa_1" x="0px" y="0px" viewBox="0 0 409.599 409.599" style="enable-background:new 0 0 409.599 409.599;" xml:space="preserve">
<path style="fill:#E56353;" d="M307.897,384.521c-8.108,7.848-19.252,11.651-30.142,14.44c-23.813,6.073-48.383,9.623-72.956,10.637  c-24.57-1.014-49.14-4.564-72.95-10.637c-10.894-2.789-22.294-6.592-30.399-14.44c-11.398-11.15-14.184-29.134-11.651-44.836  c2.786-15.962,9.879-30.656,16.212-45.597c7.093-17.477,12.665-35.721,17.984-53.952c4.054-14.187,7.854-36.581,7.601-51.529  c-0.254-7.087-3.547-13.927-9.375-17.73c-43.822-27.86-16.716-84.1-4.051-105.374c3.547-5.826,5.318-12.665,5.318-19.505V0h39.264  c0,0-11.651,78.822,42.047,102.638C258.503,78.822,246.852,0,246.852,0h39.261v45.997c0,6.84,1.772,13.68,5.319,19.505  c12.415,21.274,39.768,77.514-4.054,105.374c-5.826,3.803-9.116,10.643-9.369,17.73c-0.254,14.947,3.29,37.342,7.597,51.529  c5.322,18.231,10.894,36.475,17.987,53.952c6.079,14.941,13.423,29.635,16.209,45.597  C322.337,355.387,319.548,373.371,307.897,384.521z"/>
<path style="fill:#FCD462;" d="M179.99,219.167l11.782,9.12l13.029-16.836l13.029,16.836l11.782-9.12l-13.58-17.547  c19.321-0.515,40.331-2.656,62.051-7.333c-0.075-1.978-0.105-3.887-0.075-5.68c0.128-3.571,1.035-7.075,2.641-10.164  c-66.086,15.529-127.415,5.335-151.75-0.076c1.635,3.109,2.567,6.636,2.695,10.24c0.03,1.775-0.005,3.665-0.083,5.622  c14.21,2.927,35.924,6.396,62.137,7.287L179.99,219.167z"/>
<g>
</g>
<g>
</g>
<g>
</g>
<g>
</g>
<g>
</g>
<g>
</g>
<g>
</g>
<g>
</g>
<g>
</g>
<g>
</g>
<g>
</g>
<g>
</g>
<g>
</g>
<g>
</g>
<g>
</g>
</svg>
