<?xml version="1.0" encoding="iso-8859-1"?>
<!-- Generator: Adobe Illustrator 19.0.0, SVG Export Plug-In . SVG Version: 6.00 Build 0)  -->
<svg xmlns="http://www.w3.org/2000/svg" xmlns:xlink="http://www.w3.org/1999/xlink" version="1.1" id="Capa_1" x="0px" y="0px" viewBox="0 0 409.6 409.6" style="enable-background:new 0 0 409.6 409.6;" xml:space="preserve">
<path style="fill:#64798A;" d="M99.765,57.714H54.312c-4.167,0-7.545,3.378-7.545,7.545v18.055h60.544V65.258  C107.311,61.091,103.932,57.714,99.765,57.714z"/>
<path style="fill:#E1E6E9;" d="M392.365,78.471H17.236c-9.519,0-17.236,7.716-17.236,17.235v238.946  c0,9.518,7.716,17.235,17.236,17.235h375.128c9.518,0,17.235-7.716,17.235-17.235V95.706  C409.599,86.187,401.883,78.471,392.365,78.471z"/>
<rect y="144.128" style="fill:#27A2DB;" width="409.6" height="142.121"/>
<rect y="153.595" style="fill:#2D93BA;" width="409.6" height="123.187"/>
<circle style="opacity:0.31;fill:#64798A;enable-background:new    ;" cx="204.8" cy="225.106" r="114.207"/>
<path style="fill:#D5D6DB;" d="M369.379,100.424H341.95c-6.637,0-12.016,5.38-12.016,12.016s5.38,12.016,12.016,12.016h27.428  c6.637,0,12.016-5.38,12.016-12.016S376.015,100.424,369.379,100.424z"/>
<circle style="fill:#64798A;" cx="341.965" cy="112.44" r="12.017"/>
<circle style="fill:#E56353;" cx="37.366" cy="112.44" r="12.017"/>
<circle style="fill:#64798A;" cx="204.8" cy="215.194" r="114.207"/>
<circle style="fill:#3A556A;" cx="204.8" cy="215.194" r="87.808"/>
<circle style="fill:#D5D6DB;" cx="204.8" cy="215.194" r="79.775"/>
<circle style="fill:#E1E6E9;" cx="204.8" cy="215.194" r="55.721"/>
<circle style="fill:#64798A;" cx="204.8" cy="215.194" r="26.86"/>
<g>
	<circle style="fill:#FFFFFF;" cx="188.764" cy="231.219" r="10.824"/>
	<circle style="fill:#FFFFFF;" cx="223.939" cy="201.83" r="7.726"/>
</g>
<g>
</g>
<g>
</g>
<g>
</g>
<g>
</g>
<g>
</g>
<g>
</g>
<g>
</g>
<g>
</g>
<g>
</g>
<g>
</g>
<g>
</g>
<g>
</g>
<g>
</g>
<g>
</g>
<g>
</g>
</svg>
