<?xml version="1.0" encoding="iso-8859-1"?>
<!-- Generator: Adobe Illustrator 19.0.0, SVG Export Plug-In . SVG Version: 6.00 Build 0)  -->
<svg xmlns="http://www.w3.org/2000/svg" xmlns:xlink="http://www.w3.org/1999/xlink" version="1.1" id="Capa_1" x="0px" y="0px" viewBox="0 0 409.6 409.6" style="enable-background:new 0 0 409.6 409.6;" xml:space="preserve">
<path style="fill:#FCD462;" d="M384.237,0H25.363C11.355,0,0.001,11.355,0.001,25.363v358.875c0,14.007,11.355,25.363,25.362,25.363  h358.875c14.007,0,25.362-11.356,25.362-25.363V25.363C409.599,11.355,398.245,0,384.237,0z"/>
<rect x="166.528" style="fill:#C1473A;" width="76.544" height="409.6"/>
<rect y="166.528" style="fill:#EF685E;" width="409.6" height="76.544"/>
<polygon style="fill:#CE412D;" points="312.707,316.132 270.157,314.783 252.035,353.305 179.991,235.717 240.663,198.544 "/>
<polygon style="fill:#D15241;" points="155.721,352.777 140.121,313.167 97.573,311.769 177.05,199.072 235.198,240.08 "/>
<g>
	<path style="fill:#DB594F;" d="M193.705,228.544c0,0-51.406,44.45-82.457,29.479c-27.746-13.377-29.031-112.914,0-123.21   c31.786-11.273,82.457,29.479,82.457,29.479V228.544z"/>
	<path style="fill:#DB594F;" d="M215.895,165.402c0,0,51.406-44.45,82.457-29.479c27.746,13.377,29.031,112.914,0,123.21   c-31.786,11.273-82.457-29.479-82.457-29.479V165.402z"/>
</g>
<g>
	<path style="fill:#D15241;" d="M216.868,172.656c0,0,56.471-52.128,82.457-29.479c25.159,21.928-12.204,37.55-30.582,37.22   c-33.72-0.604-56.349-3.067-56.349-3.067L216.868,172.656z"/>
	<path style="fill:#D15241;" d="M193.412,172.656c0,0-56.471-52.128-82.457-29.479c-25.159,21.928,12.204,37.55,30.582,37.22   c33.72-0.604,56.349-3.067,56.349-3.067L193.412,172.656z"/>
</g>
<path style="fill:#EBF0F3;" d="M205.14,148.336c-10.229,0-18.521,8.292-18.521,18.521v60.232c0,10.229,8.292,18.521,18.521,18.521  c10.229,0,18.521-8.292,18.521-18.521v-60.232C223.66,156.628,215.369,148.336,205.14,148.336z"/>
<g>
</g>
<g>
</g>
<g>
</g>
<g>
</g>
<g>
</g>
<g>
</g>
<g>
</g>
<g>
</g>
<g>
</g>
<g>
</g>
<g>
</g>
<g>
</g>
<g>
</g>
<g>
</g>
<g>
</g>
</svg>
