<?xml version="1.0" encoding="iso-8859-1"?>
<!-- Generator: Adobe Illustrator 19.0.0, SVG Export Plug-In . SVG Version: 6.00 Build 0)  -->
<svg xmlns="http://www.w3.org/2000/svg" xmlns:xlink="http://www.w3.org/1999/xlink" version="1.1" id="Capa_1" x="0px" y="0px" viewBox="0 0 409.599 409.599" style="enable-background:new 0 0 409.599 409.599;" xml:space="preserve">
<path style="fill:#3A556A;" d="M323.116,0H86.481c-6.475,0-11.725,5.249-11.725,11.725v386.148c0,6.476,5.249,11.725,11.725,11.725  h236.637c6.476,0,11.725-5.249,11.725-11.725V11.725C334.843,5.249,329.593,0,323.116,0z"/>
<rect x="97.095" y="31.748" style="fill:#EBF0F3;" width="215.398" height="307.113"/>
<rect x="97.095" y="316.339" style="fill:#E1E6E9;" width="215.398" height="22.523"/>
<circle style="fill:#EBF0F3;" cx="204.799" cy="372.94" r="21.156"/>
<g>
	<path style="fill:#64798A;" d="M209.861,365.654h-10.124c-1.221,0-2.211,0.989-2.211,2.211v10.124c0,1.222,0.99,2.211,2.211,2.211   h10.124c1.221,0,2.211-0.989,2.211-2.211v-10.124C212.072,366.643,211.082,365.654,209.861,365.654z"/>
	<path style="fill:#64798A;" d="M230.486,10.457h-51.373c-3.407,0-6.169,2.762-6.169,6.169c0,3.407,2.762,6.169,6.169,6.169h51.373   c3.406,0,6.169-2.762,6.169-6.169C236.655,13.219,233.892,10.457,230.486,10.457z"/>
</g>
<g>
</g>
<g>
</g>
<g>
</g>
<g>
</g>
<g>
</g>
<g>
</g>
<g>
</g>
<g>
</g>
<g>
</g>
<g>
</g>
<g>
</g>
<g>
</g>
<g>
</g>
<g>
</g>
<g>
</g>
</svg>
