<?xml version="1.0" encoding="iso-8859-1"?>
<!-- Generator: Adobe Illustrator 19.0.0, SVG Export Plug-In . SVG Version: 6.00 Build 0)  -->
<svg xmlns="http://www.w3.org/2000/svg" xmlns:xlink="http://www.w3.org/1999/xlink" version="1.1" id="Capa_1" x="0px" y="0px" viewBox="0 0 409.6 409.6" style="enable-background:new 0 0 409.6 409.6;" xml:space="preserve">
<path style="fill:#EBF0F3;" d="M38.577,167.346v158.223c0,6.385,5.155,11.562,11.514,11.562h257.387  c6.359,0,11.514-5.176,11.514-11.562V167.346H38.577z"/>
<rect x="38.579" y="167.347" style="fill:#E1E6E9;" width="280.417" height="18.867"/>
<path style="fill:#E56353;" d="M326.252,124.162H31.318c-5.105,0-9.243,4.155-9.243,9.281v27.842c0,5.126,4.138,9.281,9.243,9.281  h294.934c5.104,0,9.243-4.155,9.243-9.281v-27.842C335.495,128.317,331.357,124.162,326.252,124.162z"/>
<g>
	<path style="fill:#E1E6E9;" d="M79.57,204.901c-2.645,0-4.79,2.153-4.79,4.81v103.963c0,2.657,2.145,4.81,4.79,4.81   c2.646,0,4.791-2.154,4.791-4.81V209.711C84.362,207.054,82.216,204.901,79.57,204.901z"/>
	<path style="fill:#E1E6E9;" d="M112.642,204.901c-2.645,0-4.79,2.153-4.79,4.81v103.963c0,2.657,2.145,4.81,4.79,4.81   c2.646,0,4.791-2.154,4.791-4.81V209.711C117.433,207.054,115.288,204.901,112.642,204.901z"/>
	<path style="fill:#E1E6E9;" d="M145.713,204.901c-2.645,0-4.79,2.153-4.79,4.81v103.963c0,2.657,2.145,4.81,4.79,4.81   c2.646,0,4.791-2.154,4.791-4.81V209.711C150.504,207.054,148.359,204.901,145.713,204.901z"/>
	<path style="fill:#E1E6E9;" d="M178.784,204.901c-2.645,0-4.79,2.153-4.79,4.81v103.963c0,2.657,2.145,4.81,4.79,4.81   c2.646,0,4.791-2.154,4.791-4.81V209.711C183.576,207.054,181.43,204.901,178.784,204.901z"/>
	<path style="fill:#E1E6E9;" d="M211.856,204.901c-2.645,0-4.79,2.153-4.79,4.81v103.963c0,2.657,2.145,4.81,4.79,4.81   c2.646,0,4.791-2.154,4.791-4.81V209.711C216.647,207.054,214.502,204.901,211.856,204.901z"/>
	<path style="fill:#E1E6E9;" d="M244.927,204.901c-2.645,0-4.79,2.153-4.79,4.81v103.963c0,2.657,2.145,4.81,4.79,4.81   c2.646,0,4.791-2.154,4.791-4.81V209.711C249.719,207.054,247.573,204.901,244.927,204.901z"/>
	<path style="fill:#E1E6E9;" d="M277.999,204.901c-2.645,0-4.79,2.153-4.79,4.81v103.963c0,2.657,2.145,4.81,4.79,4.81   c2.646,0,4.791-2.154,4.791-4.81V209.711C282.79,207.054,280.645,204.901,277.999,204.901z"/>
</g>
<path style="fill:#3A556A;" d="M329.78,268.941c-5.272-6.796-4.059-16.596,2.71-21.89c6.768-5.293,16.529-4.075,21.801,2.721  c5.272,6.796,4.059,16.596-2.71,21.89C344.812,276.956,335.052,275.737,329.78,268.941z"/>
<path style="fill:#D15241;" d="M244.273,157.091c-5.272-6.796-4.059-16.596,2.71-21.89c6.768-5.293,16.529-4.075,21.801,2.721  c5.272,6.796,4.059,16.596-2.71,21.89C259.306,165.105,249.545,163.887,244.273,157.091z"/>
<path style="fill:#D5D6DB;" d="M348.914,268.224c4.878-3.815,5.752-10.878,1.953-15.776l-85.332-111.626  c-3.799-4.898-10.834-5.775-15.712-1.96c-4.878,3.815-5.753,10.878-1.953,15.776l85.332,111.626  C337.001,271.161,344.036,272.039,348.914,268.224z"/>
<path style="fill:#3A556A;" d="M27.79,268.941c5.272-6.796,4.059-16.596-2.71-21.89s-16.529-4.075-21.801,2.721  c-5.272,6.796-4.059,16.596,2.71,21.89S22.518,275.737,27.79,268.941z"/>
<path style="fill:#D15241;" d="M113.297,157.091c5.272-6.796,4.059-16.596-2.71-21.89c-6.768-5.293-16.529-4.075-21.801,2.721  s-4.059,16.596,2.71,21.89C98.264,165.105,108.025,163.887,113.297,157.091z"/>
<path style="fill:#D5D6DB;" d="M8.656,268.224c-4.878-3.815-5.752-10.878-1.953-15.776l85.332-111.626  c3.799-4.898,10.834-5.775,15.712-1.96c4.878,3.815,5.753,10.878,1.953,15.776L24.368,266.264  C20.569,271.161,13.534,272.039,8.656,268.224z"/>
<polygon style="fill:#F6C358;" points="211.857,62.603 211.857,0 165.449,0 165.449,62.603 144.385,62.603 188.652,106.87   232.919,62.603 "/>
<path style="fill:#44C4A1;" d="M243.759,326.679c0,45.796,37.125,82.92,82.92,82.92V243.759  C280.883,243.759,243.759,280.883,243.759,326.679z"/>
<path style="fill:#3EA69B;" d="M326.679,243.759V409.6c45.796,0,82.921-37.125,82.921-82.92S372.475,243.759,326.679,243.759z"/>
<polygon style="fill:#FFFFFF;" points="387.074,308.043 345.316,308.043 345.316,266.285 308.043,266.285 308.043,308.043   266.285,308.043 266.285,345.315 308.043,345.315 308.043,387.073 345.316,387.073 345.316,345.315 387.074,345.315 "/>
<g>
</g>
<g>
</g>
<g>
</g>
<g>
</g>
<g>
</g>
<g>
</g>
<g>
</g>
<g>
</g>
<g>
</g>
<g>
</g>
<g>
</g>
<g>
</g>
<g>
</g>
<g>
</g>
<g>
</g>
</svg>
