<?xml version="1.0" encoding="iso-8859-1"?>
<!-- Generator: Adobe Illustrator 19.0.0, SVG Export Plug-In . SVG Version: 6.00 Build 0)  -->
<svg xmlns="http://www.w3.org/2000/svg" xmlns:xlink="http://www.w3.org/1999/xlink" version="1.1" id="Capa_1" x="0px" y="0px" viewBox="0 0 409.6 409.6" style="enable-background:new 0 0 409.6 409.6;" xml:space="preserve">
<polygon style="fill:#44C4A1;" points="334.719,263.535 0,263.535 74.881,175.416 409.6,175.416 "/>
<g>
	<path style="fill:#3EA69B;" d="M84.825,182.48l-62.873,73.988h302.826l62.873-73.988H84.825z M324.153,244.692   c-8.807,0-18.634,3.163-21.95,7.066H52.532c3.316-3.902-1.135-7.066-9.942-7.066l42.859-50.436c8.807,0,18.634-3.163,21.95-7.066   H357.07c-3.316,3.902,1.135,7.066,9.942,7.066L324.153,244.692z"/>
	<path style="fill:#3EA69B;" d="M182.861,242.107l3.387-3.986c-10.828-0.511-19.252-2.493-25.256-5.954l13.032-4.75   c4.642,2.657,10.394,4.243,17.284,4.75l9.002-10.593c-8.452-0.982-14.156-2.271-17.105-3.875c-2.953-1.6-3.089-3.977-0.412-7.127   c2.673-3.146,7.34-5.723,14.014-7.723c6.677-2.004,14.074-3.097,22.202-3.279l2.318-2.728h7.882l-2.367,2.786   c8.79,0.289,16.171,1.657,22.155,4.092l-12.283,5.025c-3.972-1.711-8.94-2.768-14.928-3.168l-8.722,10.264h0.371   c8.612,0.982,14.419,2.315,17.432,3.986c3.019,1.675,3.17,4.106,0.463,7.292c-2.707,3.186-7.456,5.776-14.253,7.78   c-6.794,2-14.451,3.093-22.99,3.275l-3.342,3.932H182.861z M204.117,206.862c-2.791,0.818-4.702,1.84-5.737,3.057   c-1.038,1.222-1.032,2.182,0.009,2.893c1.03,0.711,3.578,1.395,7.626,2.048l8.027-9.447   C210.217,205.56,206.907,206.044,204.117,206.862z M209.716,230.803c3.006-0.835,5.058-1.893,6.142-3.168   c1.08-1.271,1.038-2.284-0.133-3.03c-1.185-0.742-3.958-1.444-8.323-2.102l-8.352,9.829   C203.146,232.149,206.696,231.643,209.716,230.803z"/>
	<path style="fill:#3EA69B;" d="M330.971,219.474c-2.49,2.93-9.868,5.305-16.48,5.305c-6.612,0-9.954-2.375-7.465-5.305   c2.49-2.93,9.868-5.305,16.48-5.305C330.118,214.17,333.46,216.545,330.971,219.474z"/>
	<path style="fill:#3EA69B;" d="M102.576,219.474c-2.49,2.93-9.868,5.305-16.48,5.305c-6.612,0-9.954-2.375-7.465-5.305   c2.49-2.93,9.868-5.305,16.48-5.305S105.066,216.545,102.576,219.474z"/>
	<rect x="0" y="263.526" style="fill:#3EA69B;" width="334.746" height="31.667"/>
</g>
<polygon style="fill:#31978C;" points="409.6,175.416 409.6,206.145 334.734,295.201 334.734,263.535 "/>
<polygon style="fill:#44C4A1;" points="334.719,217.553 0,217.553 74.881,129.434 409.6,129.434 "/>
<g>
	<path style="fill:#3EA69B;" d="M84.825,136.499l-62.873,73.988h302.826l62.873-73.988H84.825z M324.153,198.711   c-8.807,0-18.634,3.163-21.95,7.066H52.532c3.316-3.902-1.135-7.066-9.942-7.066l42.859-50.436c8.807,0,18.634-3.163,21.95-7.066   H357.07c-3.316,3.902,1.135,7.066,9.942,7.066L324.153,198.711z"/>
	<path style="fill:#3EA69B;" d="M182.861,196.125l3.387-3.986c-10.828-0.511-19.252-2.493-25.256-5.954l13.032-4.75   c4.642,2.657,10.394,4.243,17.284,4.75l9.002-10.593c-8.452-0.982-14.156-2.271-17.105-3.875c-2.953-1.6-3.089-3.977-0.412-7.127   c2.673-3.146,7.34-5.723,14.014-7.723c6.677-2.004,14.074-3.097,22.202-3.279l2.318-2.728h7.882l-2.367,2.786   c8.79,0.289,16.171,1.657,22.155,4.092l-12.283,5.025c-3.972-1.711-8.94-2.768-14.928-3.168l-8.722,10.264h0.371   c8.612,0.982,14.419,2.315,17.432,3.986c3.019,1.675,3.17,4.106,0.463,7.292c-2.707,3.186-7.456,5.776-14.253,7.78   c-6.794,2-14.451,3.093-22.99,3.275l-3.342,3.932H182.861z M204.117,160.88c-2.791,0.818-4.702,1.84-5.737,3.057   c-1.038,1.222-1.032,2.182,0.009,2.893c1.03,0.711,3.578,1.395,7.626,2.048l8.027-9.447   C210.217,159.578,206.907,160.063,204.117,160.88z M209.716,184.821c3.006-0.835,5.058-1.893,6.142-3.168   c1.08-1.271,1.038-2.284-0.133-3.03c-1.185-0.742-3.958-1.444-8.323-2.102l-8.352,9.829   C203.146,186.168,206.696,185.661,209.716,184.821z"/>
	<path style="fill:#3EA69B;" d="M330.971,173.493c-2.49,2.93-9.868,5.305-16.48,5.305c-6.612,0-9.954-2.375-7.465-5.305   c2.49-2.93,9.868-5.305,16.48-5.305C330.118,168.188,333.46,170.563,330.971,173.493z"/>
	<path style="fill:#3EA69B;" d="M102.576,173.493c-2.49,2.93-9.868,5.305-16.48,5.305c-6.612,0-9.954-2.375-7.465-5.305   c2.49-2.93,9.868-5.305,16.48-5.305S105.066,170.563,102.576,173.493z"/>
	<rect x="0" y="217.549" style="fill:#3EA69B;" width="334.746" height="31.667"/>
</g>
<polygon style="fill:#31978C;" points="409.6,129.434 409.6,160.163 334.734,249.219 334.734,217.553 "/>
<polygon style="fill:#44C4A1;" points="334.719,171.572 0,171.572 74.881,83.453 409.6,83.453 "/>
<g>
	<path style="fill:#3EA69B;" d="M84.825,90.517l-62.873,73.988h302.826l62.873-73.988H84.825z M324.153,152.729   c-8.807,0-18.634,3.163-21.95,7.066H52.532c3.316-3.902-1.135-7.066-9.942-7.066l42.859-50.436c8.807,0,18.634-3.163,21.95-7.066   H357.07c-3.316,3.902,1.135,7.066,9.942,7.066L324.153,152.729z"/>
	<path style="fill:#3EA69B;" d="M182.861,150.144l3.387-3.986c-10.828-0.511-19.252-2.493-25.256-5.954l13.032-4.75   c4.642,2.657,10.394,4.243,17.284,4.75l9.002-10.593c-8.452-0.982-14.156-2.271-17.105-3.875c-2.953-1.6-3.089-3.977-0.412-7.127   c2.673-3.146,7.34-5.723,14.014-7.723c6.677-2.004,14.074-3.097,22.202-3.279l2.318-2.728h7.882l-2.367,2.786   c8.79,0.289,16.171,1.657,22.155,4.092l-12.283,5.025c-3.972-1.711-8.94-2.768-14.928-3.168l-8.722,10.264h0.371   c8.612,0.982,14.419,2.315,17.432,3.986c3.019,1.675,3.17,4.106,0.463,7.292c-2.707,3.186-7.456,5.776-14.253,7.78   c-6.794,2-14.451,3.093-22.99,3.275l-3.342,3.932H182.861z M204.117,114.899c-2.791,0.818-4.702,1.84-5.737,3.057   c-1.038,1.222-1.032,2.182,0.009,2.893c1.03,0.711,3.578,1.395,7.626,2.048l8.027-9.447   C210.217,113.597,206.907,114.081,204.117,114.899z M209.716,138.84c3.006-0.835,5.058-1.893,6.142-3.168   c1.08-1.271,1.038-2.284-0.133-3.03c-1.185-0.742-3.958-1.444-8.323-2.102l-8.352,9.829   C203.146,140.186,206.696,139.679,209.716,138.84z"/>
	<path style="fill:#3EA69B;" d="M330.971,127.511c-2.49,2.93-9.868,5.305-16.48,5.305c-6.612,0-9.954-2.375-7.465-5.305   c2.49-2.93,9.868-5.305,16.48-5.305C330.118,122.206,333.46,124.581,330.971,127.511z"/>
	<path style="fill:#3EA69B;" d="M102.576,127.511c-2.49,2.93-9.868,5.305-16.48,5.305c-6.612,0-9.954-2.375-7.465-5.305   c2.49-2.93,9.868-5.305,16.48-5.305S105.066,124.581,102.576,127.511z"/>
	<rect x="0" y="171.571" style="fill:#3EA69B;" width="334.746" height="31.667"/>
</g>
<polygon style="fill:#31978C;" points="409.6,83.453 409.6,114.182 334.734,203.238 334.734,171.572 "/>
<polygon style="fill:#44C4A1;" points="334.719,125.59 0,125.59 74.881,37.471 409.6,37.471 "/>
<g>
	<path style="fill:#3EA69B;" d="M84.825,44.536l-62.873,73.988h302.826l62.873-73.988H84.825z M324.153,106.748   c-8.807,0-18.634,3.163-21.95,7.066H52.532c3.316-3.902-1.135-7.066-9.942-7.066l42.859-50.436c8.807,0,18.634-3.163,21.95-7.066   H357.07c-3.316,3.902,1.135,7.066,9.942,7.066L324.153,106.748z"/>
	<path style="fill:#3EA69B;" d="M182.861,104.162l3.387-3.986c-10.828-0.511-19.252-2.493-25.256-5.954l13.032-4.75   c4.642,2.657,10.394,4.243,17.284,4.75l9.002-10.593c-8.452-0.982-14.156-2.271-17.105-3.875c-2.953-1.6-3.089-3.977-0.412-7.127   c2.673-3.146,7.34-5.723,14.014-7.723c6.677-2.004,14.074-3.097,22.202-3.279l2.318-2.728h7.882l-2.367,2.786   c8.79,0.289,16.171,1.657,22.155,4.092l-12.283,5.025c-3.972-1.711-8.94-2.768-14.928-3.168l-8.722,10.264h0.371   c8.612,0.982,14.419,2.315,17.432,3.986c3.019,1.675,3.17,4.106,0.463,7.292c-2.707,3.186-7.456,5.776-14.253,7.78   c-6.794,2-14.451,3.093-22.99,3.275l-3.342,3.932H182.861z M204.117,68.917c-2.791,0.818-4.702,1.84-5.737,3.057   c-1.038,1.222-1.032,2.182,0.009,2.893c1.03,0.711,3.578,1.395,7.626,2.048l8.027-9.447   C210.217,67.615,206.907,68.099,204.117,68.917z M209.716,92.858c3.006-0.835,5.058-1.893,6.142-3.168   c1.08-1.271,1.038-2.284-0.133-3.03c-1.185-0.742-3.958-1.444-8.323-2.102l-8.352,9.829   C203.146,94.204,206.696,93.698,209.716,92.858z"/>
	<path style="fill:#3EA69B;" d="M330.971,81.53c-2.49,2.93-9.868,5.305-16.48,5.305c-6.612,0-9.954-2.375-7.465-5.305   c2.49-2.93,9.868-5.305,16.48-5.305C330.118,76.225,333.46,78.6,330.971,81.53z"/>
	<path style="fill:#3EA69B;" d="M102.576,81.53c-2.49,2.93-9.868,5.305-16.48,5.305c-6.612,0-9.954-2.375-7.465-5.305   c2.49-2.93,9.868-5.305,16.48-5.305S105.066,78.6,102.576,81.53z"/>
	<rect x="0" y="125.588" style="fill:#3EA69B;" width="334.746" height="31.667"/>
</g>
<polygon style="fill:#31978C;" points="409.6,37.471 409.6,68.2 334.734,157.256 334.734,125.59 "/>
<path style="fill:#F6C358;" d="M347.22,344.212c0,15.418-31.708,27.917-70.822,27.917c-39.114,0-70.822-12.499-70.822-27.917v-24.37  H347.22L347.22,344.212z"/>
<ellipse style="fill:#FCD462;" cx="276.398" cy="319.846" rx="70.82" ry="27.914"/>
<g>
	<path style="fill:#F6C358;" d="M276.397,344.212c-34.089,0-61.824-10.932-61.824-24.37c0-13.438,27.735-24.37,61.824-24.37   c34.091,0,61.826,10.932,61.826,24.37C338.223,333.28,310.488,344.212,276.397,344.212z M276.397,297.634   c-31.065,0-56.339,9.962-56.339,22.208c0,12.246,25.275,22.208,56.339,22.208c31.066,0,56.341-9.963,56.341-22.208   C332.738,307.596,307.463,297.634,276.397,297.634z"/>
	<path style="fill:#F6C358;" d="M274.367,334.944v-2.66c-8.447-0.339-16.029-1.663-22.739-3.97l6.747-3.17   c5.175,1.773,10.501,2.829,15.992,3.17v-7.069c-6.965-0.655-12.065-1.518-15.3-2.587c-3.234-1.069-4.852-2.654-4.852-4.754   s1.858-3.819,5.589-5.156c3.731-1.336,8.583-2.064,14.563-2.185v-1.822h5.912v1.858c6.777,0.196,13.186,1.106,19.226,2.734   l-6.01,3.352c-4.069-1.142-8.47-1.846-13.216-2.114v6.849h0.278c7.086,0.657,12.291,1.543,15.616,2.66   c3.332,1.118,4.995,2.74,4.995,4.864c0,2.126-1.911,3.857-5.732,5.192c-3.821,1.337-8.868,2.065-15.157,2.187v2.623H274.367z    M267.845,311.427c-1.572,0.546-2.354,1.226-2.354,2.04s0.617,1.457,1.85,1.93c1.226,0.474,3.573,0.93,7.025,1.367v-6.304   C271.591,310.558,269.417,310.88,267.845,311.427z M287.305,327.402c1.723-0.557,2.588-1.262,2.588-2.113   c0-0.849-0.677-1.524-2.031-2.022c-1.361-0.498-3.889-0.965-7.582-1.402v6.557C283.235,328.302,285.574,327.961,287.305,327.402z"/>
	<path style="fill:#F6C358;" d="M358.826,311.171c0,15.418-31.708,27.917-70.822,27.917c-39.114,0-70.822-12.499-70.822-27.917   v-24.37h141.644L358.826,311.171z"/>
</g>
<ellipse style="fill:#FCD462;" cx="288" cy="286.822" rx="70.82" ry="27.914"/>
<g>
	<path style="fill:#F6C358;" d="M288.003,311.171c-34.089,0-61.824-10.933-61.824-24.37c0-13.438,27.735-24.37,61.824-24.37   c34.091,0,61.826,10.933,61.826,24.37C349.829,300.239,322.094,311.171,288.003,311.171z M288.003,264.593   c-31.065,0-56.339,9.962-56.339,22.208c0,12.246,25.275,22.208,56.339,22.208c31.066,0,56.341-9.963,56.341-22.208   C344.344,274.555,319.069,264.593,288.003,264.593z"/>
	<path style="fill:#F6C358;" d="M285.973,301.903v-2.66c-8.447-0.34-16.029-1.663-22.739-3.97l6.747-3.17   c5.175,1.773,10.501,2.829,15.992,3.17v-7.069c-6.965-0.655-12.065-1.518-15.3-2.587s-4.852-2.654-4.852-4.754   s1.858-3.819,5.589-5.156c3.731-1.336,8.583-2.064,14.563-2.185V271.7h5.912v1.858c6.777,0.196,13.186,1.106,19.226,2.734   l-6.01,3.352c-4.069-1.142-8.47-1.846-13.216-2.114v6.849h0.278c7.086,0.657,12.291,1.543,15.616,2.66   c3.332,1.118,4.995,2.74,4.995,4.864c0,2.126-1.911,3.857-5.732,5.192c-3.821,1.337-8.868,2.065-15.157,2.187v2.623H285.973z    M279.451,278.386c-1.572,0.546-2.354,1.226-2.354,2.04c0,0.814,0.617,1.457,1.85,1.93c1.226,0.474,3.573,0.93,7.026,1.367v-6.304   C283.197,277.517,281.023,277.839,279.451,278.386z M298.911,294.361c1.723-0.557,2.588-1.262,2.588-2.113   c0-0.849-0.677-1.524-2.031-2.022c-1.361-0.498-3.889-0.965-7.582-1.402v6.557C294.841,295.261,297.181,294.92,298.911,294.361z"/>
	<path style="fill:#F6C358;" d="M334.056,274.616c0,15.418-31.708,27.917-70.822,27.917c-39.114,0-70.822-12.499-70.822-27.917   v-24.37h141.644V274.616z"/>
</g>
<ellipse style="fill:#FCD462;" cx="263.219" cy="250.245" rx="70.82" ry="27.914"/>
<g>
	<path style="fill:#F6C358;" d="M263.233,274.616c-34.089,0-61.824-10.933-61.824-24.37c0-13.438,27.735-24.37,61.824-24.37   c34.091,0,61.826,10.933,61.826,24.37C325.059,263.683,297.324,274.616,263.233,274.616z M263.233,228.037   c-31.065,0-56.339,9.962-56.339,22.208s25.275,22.208,56.339,22.208c31.066,0,56.341-9.963,56.341-22.208   S294.3,228.037,263.233,228.037z"/>
	<path style="fill:#F6C358;" d="M261.203,265.347v-2.66c-8.447-0.339-16.029-1.663-22.739-3.97l6.747-3.17   c5.175,1.773,10.501,2.829,15.992,3.17v-7.069c-6.965-0.655-12.065-1.518-15.3-2.587c-3.234-1.069-4.852-2.654-4.852-4.754   c0-2.101,1.858-3.819,5.589-5.156c3.731-1.336,8.583-2.064,14.563-2.185v-1.822h5.912v1.858c6.777,0.196,13.186,1.106,19.226,2.734   l-6.01,3.352c-4.069-1.142-8.47-1.846-13.216-2.114v6.849h0.278c7.086,0.657,12.291,1.543,15.616,2.66   c3.332,1.118,4.995,2.74,4.995,4.864c0,2.126-1.911,3.857-5.732,5.192c-3.821,1.337-8.868,2.065-15.157,2.187v2.623H261.203z    M254.681,241.83c-1.572,0.546-2.354,1.226-2.354,2.04c0,0.814,0.617,1.457,1.85,1.93c1.226,0.474,3.573,0.93,7.026,1.367v-6.304   C258.427,240.962,256.254,241.283,254.681,241.83z M274.141,257.806c1.723-0.557,2.588-1.262,2.588-2.113   c0-0.849-0.677-1.524-2.031-2.022c-1.361-0.498-3.889-0.965-7.582-1.402v6.557C270.071,258.706,272.411,258.365,274.141,257.806z"/>
	<path style="fill:#F6C358;" d="M364.511,243.783c0,15.418-31.708,27.917-70.822,27.917c-39.114,0-70.822-12.499-70.822-27.917   v-24.37h141.644L364.511,243.783z"/>
</g>
<ellipse style="fill:#FCD462;" cx="293.683" cy="219.412" rx="70.82" ry="27.914"/>
<g>
	<path style="fill:#F6C358;" d="M293.688,243.783c-34.089,0-61.824-10.933-61.824-24.37c0-13.438,27.735-24.37,61.824-24.37   c34.091,0,61.826,10.932,61.826,24.37C355.514,232.851,327.779,243.783,293.688,243.783z M293.688,197.204   c-31.065,0-56.339,9.962-56.339,22.208s25.275,22.208,56.339,22.208c31.066,0,56.341-9.963,56.341-22.208   S324.754,197.204,293.688,197.204z"/>
	<path style="fill:#F6C358;" d="M291.658,234.514v-2.66c-8.447-0.339-16.029-1.663-22.739-3.97l6.747-3.17   c5.175,1.773,10.501,2.829,15.992,3.17v-7.069c-6.965-0.655-12.065-1.518-15.3-2.587c-3.234-1.069-4.852-2.654-4.852-4.754   c0-2.101,1.858-3.819,5.589-5.156c3.731-1.336,8.583-2.064,14.563-2.185v-1.822h5.912v1.858c6.777,0.196,13.186,1.106,19.226,2.734   l-6.01,3.352c-4.069-1.142-8.47-1.846-13.216-2.114v6.849h0.278c7.086,0.657,12.291,1.543,15.616,2.66   c3.332,1.118,4.995,2.74,4.995,4.864c0,2.126-1.911,3.857-5.732,5.192c-3.821,1.337-8.868,2.065-15.157,2.187v2.623H291.658z    M285.136,210.997c-1.572,0.546-2.354,1.226-2.354,2.04c0,0.814,0.617,1.457,1.85,1.93c1.226,0.474,3.573,0.93,7.026,1.367v-6.304   C288.882,210.129,286.708,210.45,285.136,210.997z M304.596,226.973c1.723-0.557,2.588-1.262,2.588-2.113   c0-0.849-0.677-1.524-2.031-2.022c-1.361-0.498-3.889-0.965-7.582-1.402v6.557C300.526,227.873,302.866,227.532,304.596,226.973z"/>
	<path style="fill:#F6C358;" d="M339.741,207.228c0,15.418-31.708,27.917-70.822,27.917c-39.114,0-70.822-12.499-70.822-27.917   v-24.37h141.644L339.741,207.228z"/>
</g>
<ellipse style="fill:#FCD462;" cx="268.902" cy="182.856" rx="70.82" ry="27.914"/>
<g>
	<path style="fill:#F6C358;" d="M268.918,207.228c-34.089,0-61.824-10.933-61.824-24.37c0-13.438,27.735-24.37,61.824-24.37   c34.091,0,61.826,10.933,61.826,24.37C330.744,196.295,303.009,207.228,268.918,207.228z M268.918,160.649   c-31.065,0-56.339,9.962-56.339,22.208s25.275,22.208,56.339,22.208c31.066,0,56.341-9.963,56.341-22.208   S299.985,160.649,268.918,160.649z"/>
	<path style="fill:#F6C358;" d="M266.888,197.959v-2.66c-8.447-0.339-16.029-1.663-22.739-3.97l6.747-3.17   c5.175,1.773,10.501,2.829,15.992,3.17v-7.069c-6.965-0.655-12.065-1.518-15.3-2.587c-3.234-1.069-4.852-2.654-4.852-4.754   s1.858-3.819,5.589-5.156c3.731-1.336,8.583-2.064,14.563-2.185v-1.822h5.912v1.858c6.777,0.196,13.186,1.106,19.226,2.734   l-6.01,3.352c-4.069-1.142-8.47-1.846-13.216-2.114v6.849h0.278c7.086,0.657,12.291,1.543,15.616,2.66   c3.332,1.118,4.995,2.74,4.995,4.864c0,2.126-1.911,3.857-5.732,5.192c-3.821,1.337-8.868,2.065-15.157,2.187v2.623H266.888z    M260.367,174.442c-1.572,0.546-2.354,1.226-2.354,2.04s0.617,1.457,1.85,1.93c1.226,0.474,3.573,0.93,7.026,1.367v-6.304   C264.113,173.573,261.939,173.895,260.367,174.442z M279.826,190.417c1.723-0.557,2.588-1.262,2.588-2.113   c0-0.849-0.677-1.524-2.031-2.022c-1.361-0.498-3.889-0.965-7.582-1.402v6.557C275.757,191.317,278.096,190.976,279.826,190.417z"/>
</g>
<path style="fill:#FCD462;" d="M408.554,284.23c8.439,51.445-35.408,95.292-86.853,86.853c-31.153-5.11-56.28-30.237-61.39-61.39  c-8.439-51.445,35.408-95.292,86.853-86.853C378.317,227.95,403.443,253.077,408.554,284.23z"/>
<g>
	<path style="fill:#F6C358;" d="M334.431,362.58c-36.181,0-65.617-29.437-65.617-65.619c0-36.182,29.437-65.618,65.617-65.618   c36.183,0,65.619,29.437,65.619,65.618C400.051,333.144,370.614,362.58,334.431,362.58z M334.431,237.164   c-32.971,0-59.796,26.824-59.796,59.797s26.825,59.798,59.796,59.798c32.973,0,59.798-26.825,59.798-59.798   S367.404,237.164,334.431,237.164z"/>
	<path style="fill:#F6C358;" d="M332.277,337.623v-7.161c-8.965-0.914-17.013-4.479-24.134-10.69l7.161-8.534   c5.493,4.774,11.145,7.616,16.973,8.534V300.74c-7.393-1.764-12.806-4.088-16.238-6.966s-5.149-7.145-5.149-12.801   c0-5.656,1.972-10.283,5.932-13.883c3.96-3.597,9.109-5.556,15.456-5.884v-4.906h6.275v5.002   c7.193,0.527,13.995,2.978,20.406,7.361l-6.379,9.025c-4.319-3.074-8.989-4.97-14.027-5.692v18.442h0.295   c7.52,1.768,13.045,4.155,16.574,7.161c3.537,3.01,5.301,7.377,5.301,13.097c0,5.724-2.028,10.387-6.083,13.979   c-4.056,3.601-9.413,5.561-16.087,5.888v7.061H332.277z M325.355,274.302c-1.669,1.469-2.499,3.301-2.499,5.493   s0.655,3.924,1.964,5.197c1.301,1.277,3.792,2.503,7.457,3.68V271.7C329.331,271.963,327.024,272.829,325.355,274.302z    M346.008,317.317c1.828-1.501,2.746-3.397,2.746-5.688c0-2.287-0.719-4.104-2.155-5.445c-1.445-1.341-4.127-2.599-8.047-3.776   v17.655C341.689,319.74,344.172,318.822,346.008,317.317z"/>
</g>
<g>
</g>
<g>
</g>
<g>
</g>
<g>
</g>
<g>
</g>
<g>
</g>
<g>
</g>
<g>
</g>
<g>
</g>
<g>
</g>
<g>
</g>
<g>
</g>
<g>
</g>
<g>
</g>
<g>
</g>
</svg>
