<?xml version="1.0" encoding="iso-8859-1"?>
<!-- Generator: Adobe Illustrator 19.0.0, SVG Export Plug-In . SVG Version: 6.00 Build 0)  -->
<svg xmlns="http://www.w3.org/2000/svg" xmlns:xlink="http://www.w3.org/1999/xlink" version="1.1" id="Capa_1" x="0px" y="0px" viewBox="0 0 409.6 409.6" style="enable-background:new 0 0 409.6 409.6;" xml:space="preserve">
<rect x="17.659" y="63.785" style="fill:#EBF0F3;" width="374.272" height="332.221"/>
<rect x="8.335" y="85.207" style="fill:#E1E6E9;" width="43.658" height="52.019"/>
<path style="fill:#D5D6DB;" d="M8.336,137.227v6.038c0,12.056,9.773,21.829,21.829,21.829s21.829-9.773,21.829-21.829v-6.038H8.336z  "/>
<rect x="52.019" y="85.207" style="fill:#E56353;" width="43.658" height="52.019"/>
<path style="fill:#D15241;" d="M51.995,137.227v6.038c0,12.056,9.773,21.829,21.829,21.829s21.829-9.773,21.829-21.829v-6.038  H51.995z"/>
<rect x="95.652" y="85.207" style="fill:#E1E6E9;" width="43.658" height="52.019"/>
<path style="fill:#D5D6DB;" d="M95.653,137.227v6.038c0,12.056,9.773,21.829,21.829,21.829s21.829-9.773,21.829-21.829v-6.038  H95.653z"/>
<rect x="139.315" y="85.207" style="fill:#E56353;" width="43.658" height="52.019"/>
<path style="fill:#D15241;" d="M139.312,137.227v6.038c0,12.056,9.773,21.829,21.829,21.829c12.056,0,21.829-9.773,21.829-21.829  v-6.038H139.312z"/>
<rect x="182.968" y="85.207" style="fill:#E1E6E9;" width="43.658" height="52.019"/>
<path style="fill:#D5D6DB;" d="M182.971,137.227v6.038c0,12.056,9.773,21.829,21.829,21.829s21.829-9.773,21.829-21.829v-6.038  H182.971z"/>
<rect x="226.611" y="85.207" style="fill:#E56353;" width="43.658" height="52.019"/>
<path style="fill:#D15241;" d="M226.629,137.227v6.038c0,12.056,9.773,21.829,21.829,21.829s21.829-9.773,21.829-21.829v-6.038  H226.629z"/>
<rect x="270.29" y="85.207" style="fill:#E1E6E9;" width="43.658" height="52.019"/>
<path style="fill:#D5D6DB;" d="M270.288,137.227v6.038c0,12.056,9.773,21.829,21.829,21.829s21.829-9.773,21.829-21.829v-6.038  H270.288z"/>
<rect x="313.958" y="85.207" style="fill:#E56353;" width="43.658" height="52.019"/>
<path style="fill:#D15241;" d="M313.947,137.227v6.038c0,12.056,9.773,21.829,21.829,21.829s21.829-9.773,21.829-21.829v-6.038  H313.947z"/>
<rect x="357.581" y="85.207" style="fill:#E1E6E9;" width="43.658" height="52.019"/>
<path style="fill:#D5D6DB;" d="M357.605,137.227v6.038c0,12.056,9.773,21.829,21.829,21.829s21.829-9.773,21.829-21.829v-6.038  H357.605z"/>
<rect x="17.659" y="382.321" style="fill:#FCD462;" width="374.272" height="13.809"/>
<g>
	<rect x="12.022" y="59.725" style="fill:#64798A;" width="385.536" height="13.599"/>
	<rect x="76.262" y="0.01" style="fill:#64798A;" width="257.075" height="73.313"/>
</g>
<rect x="91.187" y="15.007" style="fill:#EBF0F3;" width="227.277" height="43.32"/>
<rect x="37.888" y="202.353" style="fill:#64798A;" width="73.81" height="104.34"/>
<rect x="45.855" y="209.797" style="fill:#3FB7E0;" width="57.928" height="89.441"/>
<g>
	<polygon style="fill:#64D4F2;" points="51.227,299.248 83.875,209.808 87.586,209.808 54.938,299.248  "/>
	<polygon style="fill:#64D4F2;" points="58.635,299.248 91.283,209.808 98.361,209.808 65.714,299.248  "/>
</g>
<rect x="297.882" y="202.353" style="fill:#64798A;" width="73.81" height="104.34"/>
<rect x="305.848" y="209.823" style="fill:#3FB7E0;" width="57.928" height="89.441"/>
<g>
	<polygon style="fill:#64D4F2;" points="311.243,299.248 343.89,209.808 347.601,209.808 314.954,299.248  "/>
	<polygon style="fill:#64D4F2;" points="318.651,299.248 351.299,209.808 358.377,209.808 325.729,299.248  "/>
</g>
<rect y="395.991" style="fill:#64798A;" width="409.6" height="13.599"/>
<path style="fill:#DC8744;" d="M204.8,182.667c-35.491,0-64.26,28.77-64.26,64.261V396.01h128.522V246.928  C269.061,211.437,240.291,182.667,204.8,182.667z"/>
<rect x="151.711" y="299.274" style="fill:#F6C358;" width="44.017" height="85.586"/>
<path style="fill:#3FB7E0;" d="M257.891,281.1v-34.169c0-29.273-23.818-53.091-53.091-53.091s-53.091,23.818-53.091,53.091V281.1  H257.891z"/>
<rect x="213.878" y="299.274" style="fill:#F6C358;" width="44.017" height="85.586"/>
<g>
	<path style="fill:#64D4F2;" d="M211.951,194.38l-31.655,86.72h4.395l31.4-86.023C214.732,194.781,213.345,194.569,211.951,194.38z"/>
	<path style="fill:#64D4F2;" d="M220.092,196.108L189.069,281.1h8.382l29.978-82.124   C225.065,197.857,222.631,196.873,220.092,196.108z"/>
</g>
<g>
</g>
<g>
</g>
<g>
</g>
<g>
</g>
<g>
</g>
<g>
</g>
<g>
</g>
<g>
</g>
<g>
</g>
<g>
</g>
<g>
</g>
<g>
</g>
<g>
</g>
<g>
</g>
<g>
</g>
</svg>
