<?xml version="1.0" encoding="iso-8859-1"?>
<!-- Generator: Adobe Illustrator 19.0.0, SVG Export Plug-In . SVG Version: 6.00 Build 0)  -->
<svg xmlns="http://www.w3.org/2000/svg" xmlns:xlink="http://www.w3.org/1999/xlink" version="1.1" id="Capa_1" x="0px" y="0px" viewBox="0 0 409.6 409.6" style="enable-background:new 0 0 409.6 409.6;" xml:space="preserve">
<path style="fill:#E1E6E9;" d="M147.523,344.974c-4.515-0.387-8.018-4.023-8.018-8.45v-82.548c0-3.717,2.49-6.952,6.123-8.058  c29.888-9.095,52.403-49.198,52.403-97.3c0-3.311-0.117-6.579-0.326-9.806H67.774c-0.208,3.227-0.327,6.495-0.327,9.806  c0,48.101,22.518,88.204,52.403,97.3c3.633,1.106,6.123,4.34,6.123,8.057v82.548c0,4.427-3.503,8.064-8.018,8.45  c-17.391,1.488-29.872,5.523-29.872,10.279c0,6.022,19.994,10.904,44.656,10.904s44.656-4.882,44.656-10.904  C177.395,350.497,164.915,346.463,147.523,344.974z"/>
<path style="fill:#E56353;" d="M79.72,168.284c4.9,33.503,21.88,61.036,43.346,67.567c0.041,0.012,0.082,0.025,0.123,0.038  c6.277,1.953,12.834,1.952,19.111-0.004c0.04-0.012,0.079-0.024,0.119-0.036c21.462-6.529,38.441-34.061,43.341-67.565H79.72z"/>
<path style="fill:#2F4859;" d="M359.247,110.228V6.172c0-3.409-2.829-6.172-6.319-6.172h-44.946c-3.489,0-6.319,2.763-6.319,6.172  v104.057c-28.252,11.139-48.198,38.159-48.198,69.745v225.203c0,2.443,2.027,4.424,4.529,4.424h144.922  c2.501,0,4.529-1.98,4.529-4.423V179.973C407.445,148.387,387.499,121.367,359.247,110.228z"/>
<g>
	<path style="fill:#FCD462;" d="M359.247,6.172c0-3.409-2.829-6.172-6.319-6.172h-44.946c-3.489,0-6.319,2.763-6.319,6.172v42.099   h57.583V6.172z"/>
	<path style="fill:#FCD462;" d="M359.247,54.987h-57.583v7.556c18.532,0,39.55,0,57.583,0V54.987z"/>
</g>
<rect x="301.665" y="48.271" style="fill:#E56353;" width="57.585" height="6.717"/>
<path style="fill:#EBF0F3;" d="M228.85,388.417c-4.515-0.387-8.018-4.023-8.018-8.45v-82.547c0-3.717,2.49-6.952,6.123-8.058  c29.888-9.095,52.403-49.198,52.403-97.3c0-3.311-0.117-6.579-0.326-9.806H149.1c-0.208,3.227-0.327,6.495-0.327,9.806  c0,48.101,22.518,88.204,52.403,97.3c3.633,1.106,6.123,4.34,6.123,8.057v82.548c0,4.427-3.503,8.064-8.018,8.45  c-17.391,1.488-29.872,5.523-29.872,10.279c0,6.022,19.994,10.904,44.656,10.904s44.656-4.882,44.656-10.904  C258.721,393.94,246.241,389.905,228.85,388.417z"/>
<path style="fill:#E56353;" d="M161.046,211.726c4.9,33.503,21.88,61.036,43.346,67.567c0.041,0.012,0.082,0.025,0.123,0.038  c6.277,1.953,12.834,1.952,19.111-0.004c0.04-0.012,0.079-0.024,0.119-0.036c21.462-6.529,38.441-34.061,43.341-67.565H161.046z"/>
<path style="fill:#EBF0F3;" d="M82.231,388.417c-4.515-0.387-8.018-4.023-8.018-8.45v-82.547c0-3.717,2.49-6.952,6.123-8.058  c29.888-9.095,52.403-49.198,52.403-97.3c0-3.311-0.117-6.579-0.326-9.806H2.482c-0.208,3.227-0.327,6.495-0.327,9.806  c0,48.101,22.518,88.204,52.403,97.3c3.633,1.106,6.123,4.34,6.123,8.057v82.548c0,4.427-3.503,8.064-8.018,8.45  c-17.391,1.488-29.872,5.523-29.872,10.279c0,6.022,19.994,10.904,44.656,10.904s44.656-4.882,44.656-10.904  C112.103,393.94,99.623,389.905,82.231,388.417z"/>
<path style="fill:#E56353;" d="M14.428,211.726c4.9,33.503,21.88,61.036,43.346,67.567c0.041,0.012,0.082,0.025,0.123,0.038  c6.277,1.953,12.834,1.952,19.111-0.004c0.04-0.012,0.079-0.024,0.119-0.036c21.462-6.529,38.441-34.061,43.341-67.565H14.428z"/>
<g>
</g>
<g>
</g>
<g>
</g>
<g>
</g>
<g>
</g>
<g>
</g>
<g>
</g>
<g>
</g>
<g>
</g>
<g>
</g>
<g>
</g>
<g>
</g>
<g>
</g>
<g>
</g>
<g>
</g>
</svg>
