<?xml version="1.0" encoding="iso-8859-1"?>
<!-- Generator: Adobe Illustrator 19.0.0, SVG Export Plug-In . SVG Version: 6.00 Build 0)  -->
<svg xmlns="http://www.w3.org/2000/svg" xmlns:xlink="http://www.w3.org/1999/xlink" version="1.1" id="Capa_1" x="0px" y="0px" viewBox="0 0 409.6 409.6" style="enable-background:new 0 0 409.6 409.6;" xml:space="preserve">
<rect x="0" y="297.677" style="fill:#EBF0F3;" width="409.6" height="21.074"/>
<g>
	<polygon style="fill:#E1E6E9;" points="409.6,318.757 0,318.757 38.823,327.511 370.777,327.511  "/>
	<rect x="165.734" y="306.473" style="fill:#E1E6E9;" width="78.08" height="3.492"/>
</g>
<path style="fill:#64798A;" d="M376.912,82.089H32.688c-5.641,0-10.214,4.573-10.214,10.214v205.381h364.651V92.303  C387.125,86.662,382.553,82.089,376.912,82.089z"/>
<rect x="37.366" y="96.983" style="fill:#27A2DB;" width="334.848" height="185.805"/>
<rect x="37.366" y="276.787" style="fill:#2D93BA;" width="334.848" height="5.99"/>
<g>
	<path style="fill:#FFFFFF;" d="M107.875,215.101c-0.081-0.547-0.096-1.867,1.417-2.327l65.343-18.129l6.582-40.56H101.48   l-3.778-20.614H80.082v6.362h12.32l12.488,68.143c-2.476,1.802-3.789,4.805-3.308,8.057c0.634,4.265,4.088,7.244,8.4,7.244h65.533   v-6.362h-65.533C108.326,216.915,107.956,215.644,107.875,215.101z M107.304,185.863h7.831v18.688l-4.193,1.163L107.304,185.863z    M159.917,182.682h-8.015v-8.819h8.015V182.682z M163.098,173.863h8.463l-1.431,8.819h-7.032V173.863z M129.511,185.863h8.015   v12.476l-8.015,2.223V185.863z M126.33,201.445l-8.014,2.223v-17.805h8.014V201.445z M137.526,182.682h-8.015v-8.819h8.015V182.682   z M140.707,173.863h8.014v8.819h-8.014V173.863z M140.707,185.863h8.014v9.37l-8.014,2.223V185.863z M151.902,185.863h8.015v6.265   l-8.015,2.223V185.863z M151.902,170.682v-10.236h8.015v10.236H151.902z M148.721,170.682h-8.014v-10.236h8.014V170.682z    M137.526,170.682h-8.015v-10.236h8.015V170.682z M126.33,170.682h-8.014v-10.236h8.014V170.682z M126.33,173.863v8.819h-8.014   v-8.819H126.33z M115.135,182.682h-8.414l-1.616-8.819h10.031V182.682z M163.098,191.246v-5.382h6.516l-0.607,3.743   L163.098,191.246z M172.076,170.682h-8.979v-10.236h10.639L172.076,170.682z M115.135,160.447v10.236h-10.613l-1.876-10.236   H115.135z"/>
	<circle style="fill:#FFFFFF;" cx="162.714" cy="236.8" r="9.487"/>
	<circle style="fill:#FFFFFF;" cx="118.426" cy="236.8" r="9.487"/>
	<rect x="293.581" y="209.3" style="fill:#FFFFFF;" width="35.942" height="12.708"/>
	<rect x="231.168" y="140.564" style="fill:#FFFFFF;" width="98.355" height="24.279"/>
	<rect x="231.168" y="175.309" style="fill:#FFFFFF;" width="98.355" height="24.279"/>
</g>
<g>
	<rect x="231.168" y="195.277" style="fill:#EBF0F3;" width="98.355" height="4.301"/>
	<rect x="231.168" y="160.563" style="fill:#EBF0F3;" width="98.355" height="4.301"/>
</g>
<g>
</g>
<g>
</g>
<g>
</g>
<g>
</g>
<g>
</g>
<g>
</g>
<g>
</g>
<g>
</g>
<g>
</g>
<g>
</g>
<g>
</g>
<g>
</g>
<g>
</g>
<g>
</g>
<g>
</g>
</svg>
