<?xml version="1.0" encoding="iso-8859-1"?>
<!-- Generator: Adobe Illustrator 19.0.0, SVG Export Plug-In . SVG Version: 6.00 Build 0)  -->
<svg xmlns="http://www.w3.org/2000/svg" xmlns:xlink="http://www.w3.org/1999/xlink" version="1.1" id="Capa_1" x="0px" y="0px" viewBox="0 0 409.6 409.6" style="enable-background:new 0 0 409.6 409.6;" xml:space="preserve">
<g>
	<path style="fill:#64798A;" d="M25.518,313.4c-2.674,3.05-2.523,7.651,0.345,10.52c2.868,2.868,7.47,3.019,10.521,0.345   l30.023-26.323L51.84,283.375L25.518,313.4z"/>
	<path style="fill:#64798A;" d="M384.082,313.4l-26.322-30.025l-14.567,14.567l30.023,26.323c3.051,2.674,7.653,2.522,10.521-0.345   C386.605,321.051,386.756,316.45,384.082,313.4z"/>
</g>
<g>
	<path style="fill:#F6C358;" d="M206.471,259.731h-180.8V92.625c0-5.081,4.119-9.2,9.2-9.2h162.4c5.081,0,9.2,4.119,9.2,9.2V259.731   z"/>
	<path style="fill:#F6C358;" d="M387.271,259.731h-180.8V92.625c0-5.081,4.119-9.2,9.2-9.2h162.4c5.081,0,9.2,4.119,9.2,9.2V259.731   z"/>
</g>
<path style="fill:#DC8744;" d="M358.611,226.6c0-8.769-151.934-8.769-151.934,0c0-10.663-155.334-10.663-155.334,0l0,21.625H358.61  L358.611,226.6z"/>
<path style="fill:#FCD462;" d="M400.36,166.624h-32.864c-5.103,0-9.24,4.137-9.24,9.24v72.361H51.342v-72.361  c0-5.103-4.137-9.24-9.24-9.24H9.24c-5.103,0-9.24,4.137-9.24,9.24V290.33c0,5.103,4.137,9.24,9.24,9.24H400.36  c5.103,0,9.24-4.138,9.24-9.24V175.865C409.6,170.761,405.463,166.624,400.36,166.624z"/>
<g>
	<path style="fill:#DC8744;" d="M38.165,175.217H13.177c-2.378,0-4.303,1.927-4.303,4.304v54.143c0,2.377,1.926,4.304,4.303,4.304   h24.988c2.378,0,4.304-1.927,4.304-4.304v-54.143C42.469,177.143,40.543,175.217,38.165,175.217z"/>
	<path style="fill:#DC8744;" d="M165.428,286.391v-24.988c0-2.378-1.927-4.303-4.304-4.303H36.702c-2.377,0-4.304,1.926-4.304,4.303   v24.988c0,2.378,1.927,4.304,4.304,4.304h124.423C163.502,290.696,165.428,288.769,165.428,286.391z"/>
	<path style="fill:#DC8744;" d="M377.202,286.391v-24.988c0-2.378-1.927-4.303-4.304-4.303H248.476   c-2.377,0-4.304,1.926-4.304,4.303v24.988c0,2.378,1.927,4.304,4.304,4.304h124.423   C375.275,290.696,377.202,288.769,377.202,286.391z"/>
	<path style="fill:#DC8744;" d="M396.421,175.217h-24.988c-2.378,0-4.303,1.927-4.303,4.304v54.143c0,2.377,1.926,4.304,4.303,4.304   h24.988c2.378,0,4.304-1.927,4.304-4.304v-54.143C400.725,177.143,398.799,175.217,396.421,175.217z"/>
</g>
<g>
</g>
<g>
</g>
<g>
</g>
<g>
</g>
<g>
</g>
<g>
</g>
<g>
</g>
<g>
</g>
<g>
</g>
<g>
</g>
<g>
</g>
<g>
</g>
<g>
</g>
<g>
</g>
<g>
</g>
</svg>
