<?xml version="1.0" encoding="iso-8859-1"?>
<!-- Generator: Adobe Illustrator 19.0.0, SVG Export Plug-In . SVG Version: 6.00 Build 0)  -->
<svg xmlns="http://www.w3.org/2000/svg" xmlns:xlink="http://www.w3.org/1999/xlink" version="1.1" id="Capa_1" x="0px" y="0px" viewBox="0 0 409.6 409.6" style="enable-background:new 0 0 409.6 409.6;" xml:space="preserve">
<polygon style="fill:#FCD462;" points="204.8,68.356 214.112,56.784 221.901,69.432 232.59,59.118 238.732,72.643 250.63,63.75   255.028,77.938 267.947,70.606 270.532,85.233 284.268,79.579 285,94.415 299.335,90.526 298.202,105.337 312.912,103.276   309.932,117.827 324.784,117.626 320.003,131.69 334.764,133.352 328.258,146.705 342.694,150.204 334.566,162.637 348.449,167.917   338.827,179.233 351.939,186.212 340.975,196.233 353.109,204.8 340.975,213.367 351.939,223.388 338.827,230.367 348.449,241.683   334.566,246.963 342.694,259.396 328.258,262.895 334.764,276.248 320.003,277.91 324.784,291.974 309.932,291.773 312.912,306.324   298.202,304.263 299.335,319.074 285,315.185 284.268,330.021 270.532,324.367 267.947,338.994 255.028,331.662 250.63,345.85   238.732,336.957 232.59,350.482 221.901,340.168 214.112,352.816 204.8,341.244 195.488,352.816 187.699,340.168 177.01,350.482   170.868,336.957 158.97,345.85 154.572,331.662 141.653,338.994 139.068,324.367 125.332,330.021 124.6,315.185 110.265,319.074   111.398,304.263 96.688,306.324 99.668,291.773 84.816,291.974 89.597,277.91 74.836,276.248 81.342,262.895 66.906,259.396   75.034,246.963 61.151,241.683 70.773,230.367 57.661,223.388 68.625,213.367 56.491,204.8 68.625,196.233 57.661,186.212   70.773,179.233 61.151,167.917 75.034,162.637 66.906,150.204 81.342,146.705 74.836,133.352 89.597,131.69 84.816,117.626   99.668,117.827 96.688,103.276 111.398,105.337 110.265,90.526 124.6,94.415 125.332,79.579 139.068,85.233 141.653,70.606   154.572,77.938 158.97,63.75 170.868,72.643 177.01,59.118 187.699,69.432 195.488,56.784 "/>
<path style="fill:#44C4A1;" d="M204.802,317.689c-62.246,0-112.89-50.641-112.89-112.89s50.644-112.89,112.89-112.89  s112.89,50.641,112.89,112.89S267.048,317.689,204.802,317.689z M204.802,102.695c-56.3,0-102.104,45.804-102.104,102.104  s45.804,102.104,102.104,102.104s102.104-45.804,102.104-102.104S261.102,102.695,204.802,102.695z"/>
<polygon style="fill:#D15241;" points="0,332.336 102.748,332.336 102.748,272.434 0,272.434 23.186,302.385 "/>
<polygon style="fill:#CE412D;" points="102.748,308.604 102.748,332.336 56.329,308.604 "/>
<polygon style="fill:#D15241;" points="409.6,332.336 306.852,332.336 306.852,272.434 409.6,272.434 386.414,302.385 "/>
<polygon style="fill:#CE412D;" points="306.852,308.604 306.852,332.336 353.271,308.604 "/>
<rect x="56.32" y="248.678" style="fill:#E56353;" width="296.94" height="59.904"/>
<g>
	<path style="fill:#DC8744;" d="M118.207,172.17h17.807v48.992h-7.854v-41.631h-9.953V172.17z"/>
	<path style="fill:#DC8744;" d="M151.99,214.819c-3.314-4.603-4.974-10.76-4.974-18.469c0-7.709,1.66-13.866,4.974-18.469   c3.32-4.6,8.316-6.901,15.001-6.901c6.679,0,11.681,2.301,15.001,6.901c3.314,4.603,4.974,10.76,4.974,18.469   c0,7.709-1.66,13.866-4.974,18.469c-3.32,4.603-8.322,6.904-15.001,6.904C160.306,221.724,155.309,219.422,151.99,214.819z    M157.916,183.104c-1.939,3.365-2.909,7.78-2.909,13.247c0,5.467,0.97,9.882,2.909,13.247c1.939,3.365,4.962,5.045,9.075,5.045   c4.112,0,7.112-1.668,9.006-5.011c1.894-3.34,2.84-7.766,2.84-13.281c0-5.513-0.947-9.939-2.84-13.281   c-1.894-3.34-4.894-5.011-9.006-5.011C162.878,178.059,159.855,179.742,157.916,183.104z"/>
	<path style="fill:#DC8744;" d="M200.209,214.819c-3.314-4.603-4.974-10.76-4.974-18.469c0-7.709,1.66-13.866,4.974-18.469   c3.32-4.6,8.316-6.901,15.001-6.901c6.679,0,11.681,2.301,15.001,6.901c3.314,4.603,4.974,10.76,4.974,18.469   c0,7.709-1.66,13.866-4.974,18.469c-3.32,4.603-8.322,6.904-15.001,6.904C208.525,221.724,203.528,219.422,200.209,214.819z    M206.135,183.104c-1.939,3.365-2.909,7.78-2.909,13.247c0,5.467,0.97,9.882,2.909,13.247c1.939,3.365,4.962,5.045,9.075,5.045   c4.112,0,7.112-1.668,9.006-5.011c1.894-3.34,2.84-7.766,2.84-13.281c0-5.513-0.947-9.939-2.84-13.281   c-1.894-3.34-4.894-5.011-9.006-5.011C211.097,178.059,208.074,179.742,206.135,183.104z"/>
	<path style="fill:#DC8744;" d="M260.553,174.238c2.008,2.173,3.017,4.803,3.017,7.885c0,3.086-1.021,5.724-3.051,7.92   c-2.03,2.199-4.557,3.294-7.569,3.294c-3.012,0-5.527-1.087-7.535-3.257c-2.008-2.173-3.012-4.803-3.012-7.885   c0-3.086,1.015-5.724,3.046-7.92c2.036-2.196,4.557-3.294,7.569-3.294C256.036,170.981,258.546,172.067,260.553,174.238z    M289.078,172.17l-35.882,48.992h-9.04l35.882-48.992H289.078z M255.859,185.802c0.747-0.955,1.124-2.136,1.124-3.539   c0-1.4-0.399-2.581-1.192-3.539c-0.799-0.955-1.768-1.437-2.909-1.437c-1.146,0-2.093,0.482-2.84,1.437   c-0.747,0.958-1.124,2.139-1.124,3.539c0,1.403,0.399,2.584,1.192,3.539c0.799,0.958,1.762,1.437,2.909,1.437   C254.165,187.239,255.112,186.76,255.859,185.802z M288.382,202.625c2.008,2.173,3.012,4.8,3.012,7.882   c0,3.086-1.015,5.727-3.051,7.922c-2.031,2.196-4.552,3.294-7.569,3.294c-3.012,0-5.521-1.087-7.535-3.26   c-2.008-2.173-3.012-4.803-3.012-7.885c0-3.083,1.015-5.724,3.051-7.92c2.03-2.196,4.552-3.294,7.569-3.294   C283.859,199.365,286.368,200.452,288.382,202.625z M283.824,214.329c0.747-0.958,1.118-2.139,1.118-3.539   c0-1.403-0.394-2.581-1.186-3.539c-0.799-0.958-1.768-1.437-2.909-1.437c-1.146,0-2.093,0.479-2.84,1.437s-1.124,2.136-1.124,3.539   c0,1.4,0.399,2.581,1.192,3.539c0.793,0.958,1.762,1.437,2.909,1.437C282.13,215.766,283.077,215.287,283.824,214.329z"/>
</g>
<g>
	<path style="fill:#FFFFFF;" d="M75.787,292.297H63.836v-33.172h10.623c1.85,0,3.446,0.27,4.787,0.807   c1.338,0.539,2.336,1.267,2.988,2.184c1.249,1.707,1.872,3.638,1.872,5.789c0,2.595-0.677,4.524-2.031,5.789   c-0.493,0.444-0.833,0.72-1.014,0.83c-0.181,0.112-0.509,0.294-0.976,0.546c1.691,0.444,3.039,1.369,4.043,2.777   c1.001,1.408,1.504,3.155,1.504,5.243c0,2.309-0.652,4.35-1.955,6.123C82.142,291.27,79.51,292.297,75.787,292.297z    M68.445,272.886h5.858c3.334,0,5-1.375,5-4.128c0-1.581-0.404-2.721-1.211-3.416c-0.807-0.695-2.057-1.045-3.751-1.045h-5.896   V272.886z M68.445,287.124h7.225c1.694,0,2.988-0.324,3.888-0.973c0.896-0.647,1.348-1.873,1.348-3.677   c0-2.943-1.942-4.414-5.82-4.414h-6.64V287.124z"/>
	<path style="fill:#FFFFFF;" d="M110.587,259.124v5.268H96.02v8.78h13.083v4.982H96.02v8.875h15.038v5.268H91.411v-33.172H110.587z"/>
	<path style="fill:#FFFFFF;" d="M125.216,263.49c-1.341,0-2.441,0.332-3.299,0.996c-0.861,0.666-1.291,1.67-1.291,3.014   c0,1.346,0.429,2.373,1.291,3.084c0.858,0.713,2.686,1.481,5.486,2.302c2.797,0.825,4.908,1.979,6.329,3.464   c1.418,1.489,2.127,3.679,2.127,6.573c0,2.895-0.896,5.245-2.696,7.048c-1.796,1.804-4.151,2.705-7.069,2.705   c-4.269,0-8.058-1.788-11.364-5.362l2.889-4.225c2.759,2.912,5.623,4.366,8.592,4.366c1.484,0,2.664-0.386,3.535-1.162   c0.874-0.774,1.31-1.804,1.31-3.084c0-1.282-0.41-2.279-1.23-2.991c-0.82-0.711-2.235-1.359-4.237-1.945   c-2.006-0.585-3.532-1.124-4.571-1.614c-1.043-0.49-1.968-1.13-2.775-1.921c-1.615-1.487-2.419-3.765-2.419-6.834   c0-3.068,0.915-5.434,2.753-7.094c1.834-1.661,4.107-2.491,6.815-2.491c1.745,0,3.477,0.348,5.194,1.043   c1.72,0.697,3.204,1.678,4.453,2.943l-2.46,4.223c-0.807-0.884-1.901-1.612-3.28-2.182   C127.918,263.776,126.557,263.49,125.216,263.49z"/>
	<path style="fill:#FFFFFF;" d="M151.875,264.251v28.046h-4.609v-28.046h-8.28v-5.127h21.17v5.127H151.875z"/>
	<path style="fill:#FFFFFF;" d="M189.056,292.581l-0.585,0.048c-4.062,0-7.473-1.638-10.232-4.912   c-2.762-3.273-4.142-7.355-4.142-12.242c0-4.889,1.38-8.969,4.142-12.244c2.759-3.275,6.17-4.911,10.232-4.911   c4.062,0,7.473,1.636,10.232,4.911c2.762,3.275,4.142,7.349,4.142,12.221c0,3.7-0.82,6.982-2.46,9.846   c-1.64,2.864-3.827,4.928-6.564,6.193c0.887,1.423,2.006,2.136,3.36,2.136c0.989,0,1.961-0.317,2.912-0.948   c0.95-0.633,1.672-1.456,2.168-2.468l2.616,4.412c-2.266,2.91-4.857,4.366-7.772,4.366c-1.669,0-3.271-0.57-4.806-1.709   C190.763,296.141,189.682,294.575,189.056,292.581z M195.328,266.954c-1.863-2.34-4.148-3.511-6.856-3.511s-4.994,1.17-6.856,3.511   c-1.86,2.342-2.791,5.181-2.791,8.52c0,3.339,0.931,6.177,2.791,8.518c1.863,2.342,4.148,3.513,6.856,3.513s4.994-1.17,6.856-3.513   c1.86-2.34,2.791-5.179,2.791-8.518C198.118,272.135,197.187,269.297,195.328,266.954z"/>
	<path style="fill:#FFFFFF;" d="M214.797,284.704c1.249,1.773,2.943,2.657,5.08,2.657c2.133,0,3.827-0.884,5.076-2.657   c1.249-1.773,1.875-4.177,1.875-7.214v-18.366h4.609v18.603c0,4.777-1.081,8.456-3.242,11.034c-2.161,2.58-4.936,3.868-8.319,3.868   c-3.385,0-6.16-1.288-8.322-3.868c-2.161-2.578-3.242-6.256-3.242-11.034v-18.603h4.609v18.366   C212.921,280.527,213.548,282.931,214.797,284.704z"/>
	<path style="fill:#FFFFFF;" d="M241.863,284.75l-2.734,7.546h-4.921l12.031-33.172h4.921l12.031,33.172h-4.924l-2.734-7.546   H241.863z M253.659,279.579l-4.959-13.668l-4.962,13.668H253.659z"/>
	<path style="fill:#FFFFFF;" d="M266.981,292.297v-33.172h4.609v27.856h12.46v5.316H266.981z"/>
	<path style="fill:#FFFFFF;" d="M289.089,259.124h4.609v33.172h-4.609V259.124z"/>
	<path style="fill:#FFFFFF;" d="M311.587,264.251v28.046h-4.609v-28.046h-8.28v-5.127h21.17v5.127H311.587z"/>
	<path style="fill:#FFFFFF;" d="M335.609,292.297h-4.685v-13.098l-10.156-20.075h5.038l7.46,15.093l7.46-15.093h5.038   l-10.156,20.075V292.297z"/>
</g>
<g>
</g>
<g>
</g>
<g>
</g>
<g>
</g>
<g>
</g>
<g>
</g>
<g>
</g>
<g>
</g>
<g>
</g>
<g>
</g>
<g>
</g>
<g>
</g>
<g>
</g>
<g>
</g>
<g>
</g>
</svg>
