<?xml version="1.0" encoding="iso-8859-1"?>
<!-- Generator: Adobe Illustrator 19.0.0, SVG Export Plug-In . SVG Version: 6.00 Build 0)  -->
<svg xmlns="http://www.w3.org/2000/svg" xmlns:xlink="http://www.w3.org/1999/xlink" version="1.1" id="Capa_1" x="0px" y="0px" viewBox="0 0 409.599 409.599" style="enable-background:new 0 0 409.599 409.599;" xml:space="preserve">
<path style="fill:#EBF0F3;" d="M297.21,86.706L215.386,4.884C212.259,1.757,208.018,0,203.595,0H16.675C7.466,0,0,7.466,0,16.676  v376.247c0,9.21,7.466,16.676,16.675,16.676h268.741c9.211,0,16.676-7.466,16.676-16.676V98.498  C302.093,94.075,300.337,89.834,297.21,86.706z"/>
<path style="fill:#E1E6E9;" d="M227.179,91.591h73.365c-0.818-1.791-1.912-3.46-3.331-4.88l-54.553-54.553L215.386,4.884  c-1.42-1.42-3.091-2.515-4.884-3.334v73.364C210.502,84.124,217.968,91.591,227.179,91.591z"/>
<g>
	<path style="fill:#64798A;" d="M84.072,180.225H31.338v-52.734h52.734V180.225z M38.785,172.778h37.84v-37.84h-37.84V172.778z"/>
	<rect x="108.134" y="134.707" style="fill:#64798A;" width="162.616" height="7.45"/>
	<rect x="108.134" y="165.581" style="fill:#64798A;" width="162.616" height="7.45"/>
	<path style="fill:#64798A;" d="M84.072,266.337H31.338v-52.734h52.734V266.337z M38.785,258.89h37.84v-37.84h-37.84V258.89z"/>
	<rect x="108.134" y="220.825" style="fill:#64798A;" width="162.616" height="7.45"/>
	<rect x="108.134" y="251.699" style="fill:#64798A;" width="162.616" height="7.45"/>
	<path style="fill:#64798A;" d="M84.072,352.45H31.338v-52.734h52.734V352.45z M38.785,345.002h37.84v-37.84h-37.84V345.002z"/>
	<rect x="108.134" y="306.923" style="fill:#64798A;" width="162.616" height="7.45"/>
	<rect x="108.134" y="337.797" style="fill:#64798A;" width="162.616" height="7.45"/>
</g>
<path style="fill:#44C4A1;" d="M60.91,169.163l-12.938-15.36l5.702-4.8l6.705,7.964c5.862-7.702,19.738-24.065,32.967-25.956  l1.047,7.375c-11.433,1.636-26.058,19.833-30.72,26.713L60.91,169.163z"/>
<polygon style="fill:#E56353;" points="81.298,307.755 76.032,302.49 57.705,320.817 39.378,302.49 34.112,307.755 52.439,326.082   34.112,344.41 39.378,349.675 57.705,331.348 76.032,349.675 81.298,344.41 62.97,326.082 "/>
<path style="fill:#64798A;" d="M376.394,119.997l-28.241,28.245l32.867,32.867l28.243-28.243  C413.262,148.867,380.393,115.998,376.394,119.997z"/>
<rect x="343.087" y="154.288" transform="matrix(-0.7071 -0.7071 0.7071 -0.7071 510.1293 537.2452)" style="fill:#FCD462;" width="46.49" height="17.367"/>
<rect x="273.985" y="124.435" transform="matrix(-0.7071 -0.7071 0.7071 -0.7071 321.4068 584.4262)" style="fill:#E56353;" width="15.514" height="202.425"/>
<rect x="284.949" y="135.366" transform="matrix(-0.7071 -0.7071 0.7071 -0.7071 332.394 610.8398)" style="fill:#D15241;" width="15.514" height="202.425"/>
<rect x="295.913" y="146.327" transform="matrix(-0.7071 -0.7071 0.7071 -0.7071 343.3602 637.3044)" style="fill:#CE412D;" width="15.514" height="202.425"/>
<path style="fill:#FCD462;" d="M208.815,320.444c3.228,3.228,4.758,7.486,4.656,11.713l24.081-7.58l-32.867-32.867l-7.58,24.081  C201.331,315.689,205.589,317.219,208.815,320.444z"/>
<path style="fill:#64798A;" d="M198.967,336.724l14.504-4.567c0.102-4.227-1.428-8.485-4.656-11.713  c-3.226-3.226-7.484-4.756-11.711-4.654l-4.567,14.504C191.292,334.25,195.011,337.97,198.967,336.724z"/>
<g>
</g>
<g>
</g>
<g>
</g>
<g>
</g>
<g>
</g>
<g>
</g>
<g>
</g>
<g>
</g>
<g>
</g>
<g>
</g>
<g>
</g>
<g>
</g>
<g>
</g>
<g>
</g>
<g>
</g>
</svg>
