<?xml version="1.0" encoding="iso-8859-1"?>
<!-- Generator: Adobe Illustrator 19.0.0, SVG Export Plug-In . SVG Version: 6.00 Build 0)  -->
<svg xmlns="http://www.w3.org/2000/svg" xmlns:xlink="http://www.w3.org/1999/xlink" version="1.1" id="Capa_1" x="0px" y="0px" viewBox="0 0 409.6 409.6" style="enable-background:new 0 0 409.6 409.6;" xml:space="preserve">
<path style="fill:#F6C358;" d="M257.614,270.623l-0.005-13.924v-35.5H151.991v49.424l-21.679,5.545  c4.652,36.999,36.227,93.807,74.488,93.807c38.26,0,69.836-56.808,74.487-93.808L257.614,270.623z"/>
<path style="fill:#FCD462;" d="M281.223,124.5c-1.158-3.426-3.801-24.118-6.618-26.214c-28.005-20.83-109.972-18.435-139.609,0  c-2.981,1.854-5.46,22.787-6.618,26.214c-10.147,0.012-18.369,8.55-18.369,24.245c0,15.276,7.79,31.699,17.561,32.586  c10.417,37.897,41.05,68.672,77.23,68.672c36.18,0,66.813-30.775,77.23-68.672c9.771-0.887,17.561-17.31,17.561-32.586  C299.591,133.05,291.369,124.512,281.223,124.5z"/>
<path style="fill:#64798A;" d="M291.544,112.372c0-49.148-38.837-88.99-86.744-88.99s-86.744,39.842-86.744,88.99  c0,0,0.408,25.41,12.654,47.453c0,0-4.082-17.145,4.082-24.901c0,0,6.94,11.838,6.94,21.227c0,0,1.225-53.475,26.942-58.782  c0,0,41.229,37.963,72.253,39.188c0,0-6.123-10.205-12.246-26.534c0,0,25.717,24.901,40.413,27.35c0,0,6.94-6.94,9.389-11.838  l0.212,30.998c0,0,4.701-8.716,9.57-28.43c1.108-4.488,3.281-8.661,3.281-13.284V112.372z"/>
<g>
	<path style="fill:#3A556A;" d="M328.422,138.507v28.64c7.908,0,14.32-6.411,14.32-14.32   C342.741,144.919,336.33,138.507,328.422,138.507z"/>
	<path style="fill:#3A556A;" d="M290.01,116.539c-2.226,0-4.03,1.804-4.03,4.03v64.572c0,2.226,1.804,4.03,4.03,4.03h7.46v-72.632   H290.01z"/>
</g>
<path style="fill:#27A2DB;" d="M324.886,124.321h-7.46v57.066h7.46c2.226,0,4.03-1.804,4.03-4.03v-49.006  C328.916,126.125,327.113,124.321,324.886,124.321z"/>
<path style="fill:#64798A;" d="M317.531,114.451c-5.985-3.36-12.403-4.79-19.218-4.441c-1.44,0.074-2.554,1.196-2.554,2.473v80.797  c0,1.333,1.212,2.471,2.719,2.472c6.832,0.004,13.175-1.378,18.962-4.323c0.862-0.439,1.384-1.283,1.384-2.162V116.57  C318.824,115.725,318.336,114.904,317.531,114.451z"/>
<path style="fill:#E56353;" d="M303.137,110.08v85.43c1.41-0.138,2.79-0.371,4.155-0.641v-84.176  C305.922,110.42,304.544,110.188,303.137,110.08z"/>
<g>
	<path style="fill:#3A556A;" d="M81.178,141.33v28.64c-7.908,0-14.32-6.411-14.32-14.32C66.859,147.741,73.27,141.33,81.178,141.33z   "/>
	<path style="fill:#3A556A;" d="M119.59,119.361c2.226,0,4.03,1.804,4.03,4.03v64.573c0,2.226-1.804,4.03-4.03,4.03h-7.46v-72.632   H119.59z"/>
</g>
<path style="fill:#27A2DB;" d="M84.714,127.144h7.46v57.066h-7.46c-2.226,0-4.03-1.804-4.03-4.03v-49.006  C80.684,128.948,82.487,127.144,84.714,127.144z"/>
<path style="fill:#64798A;" d="M92.069,117.273c5.985-3.36,12.403-4.79,19.218-4.441c1.44,0.074,2.554,1.196,2.554,2.473v80.797  c0,1.333-1.212,2.471-2.719,2.472c-6.832,0.004-13.175-1.378-18.962-4.323c-0.862-0.439-1.384-1.283-1.384-2.162v-72.695  C90.776,118.548,91.263,117.726,92.069,117.273z"/>
<path style="fill:#E56353;" d="M106.463,112.903v85.43c-1.41-0.138-2.79-0.371-4.155-0.641v-84.176  C103.678,113.242,105.056,113.011,106.463,112.903z"/>
<g>
	<path style="fill:#3A556A;" d="M309.842,178.025c-1.877-0.456-3.726,0.68-4.209,2.526c-0.085,0.33-9.033,31.491-82.088,35.083   c-2.41-3.03-7.647-5.144-13.765-5.144c-8.393,0-15.196,3.958-15.196,8.841c0,4.883,6.802,8.841,15.196,8.841   c6.41,0,11.864-2.315,14.099-5.58c78.891-3.853,88.151-38.856,88.518-40.402C312.84,180.334,311.698,178.484,309.842,178.025z"/>
	<rect x="70.538" y="109.957" style="fill:#3A556A;" width="6.963" height="45.66"/>
	<rect x="332.099" y="109.957" style="fill:#3A556A;" width="6.963" height="45.66"/>
	<path style="fill:#3A556A;" d="M335.583,126.322c-3.848,0-6.962-3.117-6.962-6.962c0-58.138-47.301-105.436-105.439-105.436   h-36.769c-58.138,0-105.432,47.297-105.432,105.436c0,3.845-3.114,6.962-6.962,6.962c-3.848,0-6.962-3.117-6.962-6.962   C67.056,53.546,120.598,0,186.413,0h36.769c65.814,0,119.364,53.546,119.364,119.36   C342.545,123.205,339.431,126.322,335.583,126.322z"/>
</g>
<path style="fill:#64798A;" d="M151.886,256.393l-32.409,8.29l-38.885,9.946c-19.21,4.913-33.033,21.694-34.174,41.49L41.026,409.6  H204.8V297.602L151.886,256.393z"/>
<path style="fill:#3A556A;" d="M363.183,316.118c-1.143-19.796-14.963-36.576-34.172-41.49l-38.887-9.946l-32.405-8.289  L204.8,297.602V409.6h163.774L363.183,316.118z"/>
<polygon style="fill:#EBF0F3;" points="204.36,295.359 178.418,330.88 204.8,381.021 233.723,329.843 "/>
<polygon style="fill:#D15241;" points="214.246,328.167 193.711,328.167 188.713,363.417 204.8,381.021 204.8,381.021   219.2,364.007 "/>
<polygon style="fill:#2F4859;" points="257.719,256.394 282.361,293.344 253.737,301.329 268.049,320.895 204.8,381.021 "/>
<polygon style="fill:#3A556A;" points="151.441,256.394 126.799,293.344 155.423,301.329 141.111,320.895 204.8,381.021 "/>
<polygon style="fill:#E56353;" points="208.284,295.323 199.629,295.323 187.758,317.285 193.71,328.297 214.203,328.297   220.156,317.285 "/>
<g>
	<polygon style="fill:#D5D6DB;" points="257.719,256.394 204.36,295.359 227.243,328.167  "/>
	<polygon style="fill:#D5D6DB;" points="151.738,256.394 205.097,295.359 182.214,328.167  "/>
</g>
<rect x="269.67" y="375.45" style="fill:#FFFFFF;" width="65.572" height="14.664"/>
<g>
</g>
<g>
</g>
<g>
</g>
<g>
</g>
<g>
</g>
<g>
</g>
<g>
</g>
<g>
</g>
<g>
</g>
<g>
</g>
<g>
</g>
<g>
</g>
<g>
</g>
<g>
</g>
<g>
</g>
</svg>
