<?xml version="1.0" encoding="iso-8859-1"?>
<!-- Generator: Adobe Illustrator 19.0.0, SVG Export Plug-In . SVG Version: 6.00 Build 0)  -->
<svg xmlns="http://www.w3.org/2000/svg" xmlns:xlink="http://www.w3.org/1999/xlink" version="1.1" id="Capa_1" x="0px" y="0px" viewBox="0 0 409.6 409.6" style="enable-background:new 0 0 409.6 409.6;" xml:space="preserve">
<rect x="149.35" y="341.46" style="fill:#E1E6E9;" width="110.915" height="43.049"/>
<path style="fill:#3A556A;" d="M409.6,73.301c0-8.226-6.668-14.895-14.895-14.895H14.895C6.669,58.406,0,65.074,0,73.301V298.71  h409.6V73.301z"/>
<rect x="22.344" y="80.75" style="fill:#64798A;" width="364.902" height="217.958"/>
<path style="fill:#EBF0F3;" d="M0,298.71v32.689c0,8.226,6.669,14.895,14.895,14.895h379.811c8.226,0,14.895-6.669,14.895-14.895  V298.71H0z"/>
<circle style="fill:#D5D6DB;" cx="204.8" cy="322.501" r="15.928"/>
<rect x="115.958" y="397.729" style="fill:#E1E6E9;" width="177.684" height="11.863"/>
<polygon style="fill:#D5D6DB;" points="260.258,380.528 149.342,380.528 115.958,397.743 293.642,397.743 "/>
<rect x="79.452" y="0.008" style="fill:#F6C358;" width="250.675" height="298.701"/>
<rect x="79.442" y="0.008" style="fill:#FCD462;" width="125.358" height="298.701"/>
<g>
	<circle style="fill:#DC8744;" cx="147.046" cy="25.608" r="8.32"/>
	<circle style="fill:#DC8744;" cx="262.554" cy="25.608" r="8.32"/>
	<path style="fill:#DC8744;" d="M204.798,128.762c-34.84,0-63.183-29.852-63.183-66.542V23.296h10.862V62.22   c0,30.703,23.469,55.68,52.321,55.68s52.321-24.978,52.321-55.68V23.296h10.862V62.22   C267.981,98.91,239.638,128.762,204.798,128.762z"/>
</g>
<path style="fill:#FFFFFF;" d="M204.798,123.262c-34.84,0-63.183-28.343-63.183-63.183V23.296h10.862v36.784  c0,28.849,23.469,52.321,52.321,52.321s52.321-23.471,52.321-52.321V23.296h10.862v36.784  C267.981,94.919,239.638,123.262,204.798,123.262z"/>
<g>
	<polygon style="fill:#64798A;" points="300.213,232.408 231.95,194.783 250.703,270.438 260.15,243.868 279.427,268.964    291.382,259.781 272.105,234.684  "/>
	<rect x="229.842" y="162.476" style="fill:#64798A;" width="4.219" height="12.134"/>
	<rect x="229.842" y="212.334" style="fill:#64798A;" width="4.219" height="12.134"/>
	<rect x="250.824" y="191.363" style="fill:#64798A;" width="12.134" height="4.219"/>
	<rect x="200.955" y="191.352" style="fill:#64798A;" width="12.134" height="4.219"/>
	
		<rect x="247.446" y="169.771" transform="matrix(-0.7071 -0.7071 0.7071 -0.7071 301.6813 476.6364)" style="fill:#64798A;" width="4.219" height="12.134"/>
	
		<rect x="212.216" y="205.027" transform="matrix(-0.7071 -0.7071 0.7071 -0.7071 216.6102 511.9114)" style="fill:#64798A;" width="4.219" height="12.134"/>
	
		<rect x="247.497" y="205.035" transform="matrix(0.7071 -0.7071 0.7071 0.7071 -76.1636 238.3286)" style="fill:#64798A;" width="4.219" height="12.134"/>
	
		<rect x="212.219" y="169.789" transform="matrix(0.7071 -0.7071 0.7071 0.7071 -61.5734 203.0602)" style="fill:#64798A;" width="4.219" height="12.134"/>
</g>
<g>
</g>
<g>
</g>
<g>
</g>
<g>
</g>
<g>
</g>
<g>
</g>
<g>
</g>
<g>
</g>
<g>
</g>
<g>
</g>
<g>
</g>
<g>
</g>
<g>
</g>
<g>
</g>
<g>
</g>
</svg>
