<?xml version="1.0" encoding="iso-8859-1"?>
<!-- Generator: Adobe Illustrator 19.0.0, SVG Export Plug-In . SVG Version: 6.00 Build 0)  -->
<svg xmlns="http://www.w3.org/2000/svg" xmlns:xlink="http://www.w3.org/1999/xlink" version="1.1" id="Capa_1" x="0px" y="0px" viewBox="0 0 409.6 409.6" style="enable-background:new 0 0 409.6 409.6;" xml:space="preserve">
<polygon style="fill:#E56353;" points="149.636,199.658 149.502,409.554 204.751,381.995 204.8,382.019 204.8,199.681 "/>
<polygon style="fill:#D15241;" points="260.098,199.704 204.8,199.681 204.8,382.019 259.964,409.6 "/>
<polygon style="fill:#44C4A1;" points="204.8,13.935 220.21,0 232.386,16.834 250.356,6.408 258.766,25.406 278.512,18.943   282.788,39.275 303.445,37.059 303.401,57.835 324.068,59.962 319.705,80.275 339.478,86.653 330.987,105.615 349.002,115.965   336.754,132.747 352.223,146.616 336.754,160.485 349.002,177.267 330.987,187.616 339.478,206.578 319.705,212.956   324.068,233.269 303.401,235.396 303.445,256.172 282.788,253.957 278.512,274.288 258.766,267.826 250.356,286.823   232.386,276.397 220.21,293.231 204.8,279.296 189.39,293.231 177.214,276.397 159.244,286.823 150.834,267.826 131.088,274.288   126.812,253.957 106.155,256.172 106.199,235.396 85.532,233.269 89.895,212.956 70.122,206.578 78.613,187.616 60.598,177.267   72.846,160.485 57.377,146.616 72.846,132.747 60.598,115.965 78.613,105.615 70.122,86.653 89.895,80.275 85.532,59.962   106.199,57.835 106.155,37.059 126.812,39.275 131.088,18.943 150.834,25.406 159.244,6.408 177.214,16.834 189.39,0 "/>
<circle style="fill:#FFFFFF;" cx="204.8" cy="146.616" r="108.595"/>
<circle style="fill:#3EA69B;" cx="204.8" cy="146.616" r="98.621"/>
<g>
	<path style="fill:#FFFFFF;" d="M157.994,111.443h7.999v70.344h-8.678l-26.844-51.324v51.324h-7.999v-70.344h7.999l27.523,52.532   V111.443z"/>
	<path style="fill:#FFFFFF;" d="M212.427,111.443v11.171h-25.283v18.619h22.707v10.565h-22.707v18.82h26.099v11.171h-34.099v-70.344   H212.427z"/>
	<path style="fill:#FFFFFF;" d="M238.256,162.063l10.576-50.62h7.183l10.576,50.62l11.933-50.62h8.606l-16.539,70.344h-7.933   l-9.963-48.204h-0.541l-9.969,48.204h-7.927l-16.545-70.344h8.612L238.256,162.063z"/>
</g>
<g>
</g>
<g>
</g>
<g>
</g>
<g>
</g>
<g>
</g>
<g>
</g>
<g>
</g>
<g>
</g>
<g>
</g>
<g>
</g>
<g>
</g>
<g>
</g>
<g>
</g>
<g>
</g>
<g>
</g>
</svg>
