<?xml version="1.0" encoding="iso-8859-1"?>
<!-- Generator: Adobe Illustrator 19.0.0, SVG Export Plug-In . SVG Version: 6.00 Build 0)  -->
<svg xmlns="http://www.w3.org/2000/svg" xmlns:xlink="http://www.w3.org/1999/xlink" version="1.1" id="Capa_1" x="0px" y="0px" viewBox="0 0 409.6 409.6" style="enable-background:new 0 0 409.6 409.6;" xml:space="preserve">
<rect x="6.303" y="197.729" style="fill:#E1E6E9;" width="11.924" height="78.218"/>
<path style="fill:#27A2DB;" d="M32.04,243.958v64.083C14.345,308.041,0,293.695,0,275.999S14.345,243.958,32.04,243.958z"/>
<rect x="391.373" y="197.729" style="fill:#E1E6E9;" width="11.924" height="78.218"/>
<path style="fill:#27A2DB;" d="M377.26,238.823v64.682c17.86,0,32.34-14.479,32.34-32.341S395.121,238.823,377.26,238.823z"/>
<path style="fill:#3A556A;" d="M329.395,219.605c-3.814,0-6.903,3.091-6.903,6.903v98.982c0,3.813,3.09,6.903,6.903,6.903h12.779  V219.605H329.395z"/>
<path style="fill:#FCD462;" d="M376.538,216.029c-10.253-5.755-21.246-8.206-32.921-7.608c-2.467,0.126-4.375,2.048-4.375,4.235  v126.775c0,2.283,2.076,4.233,4.658,4.234c11.703,0.006,22.569-2.36,32.482-7.405c1.476-0.751,2.37-2.198,2.37-3.704V219.66  C378.752,218.212,377.917,216.805,376.538,216.029z"/>
<path style="fill:#E56353;" d="M351.881,208.542v134.711c2.416-0.237,4.78-0.635,7.117-1.098V209.593  C356.651,209.124,354.29,208.727,351.881,208.542z"/>
<path style="fill:#3A556A;" d="M80.208,219.605c3.814,0,6.904,3.091,6.904,6.903v98.982c0,3.813-3.09,6.903-6.904,6.903H67.429  V219.605H80.208z"/>
<path style="fill:#FCD462;" d="M33.065,216.029c10.253-5.755,21.246-8.206,32.921-7.608c2.467,0.126,4.375,2.048,4.375,4.235  v126.775c0,2.283-2.076,4.233-4.658,4.234c-11.703,0.006-22.569-2.36-32.482-7.405c-1.476-0.751-2.37-2.198-2.37-3.704V219.66  C30.85,218.212,31.685,216.805,33.065,216.029z"/>
<path style="fill:#E56353;" d="M57.722,208.542v134.711c-2.416-0.237-4.78-0.635-7.117-1.098V209.593  C52.952,209.124,55.312,208.727,57.722,208.542z"/>
<path style="fill:#3A556A;" d="M353.244,314.328c-3.215-0.78-6.382,1.165-7.209,4.327c-0.146,0.565-15.473,53.944-140.616,60.098  c-4.129-5.191-13.1-8.812-23.579-8.812c-14.378,0-26.03,6.78-26.03,15.144c0,8.364,11.653,15.144,26.03,15.144  c10.98,0,20.323-3.965,24.152-9.558c135.139-6.601,151.002-66.559,151.631-69.209C358.38,318.282,356.424,315.114,353.244,314.328z"/>
<path style="fill:#1C75A1;" d="M204.795,9.371c-112.74,0-204.457,91.724-204.457,204.463c0,6.586,5.333,11.926,11.926,11.926  c6.591,0,11.926-5.34,11.926-11.926c0-99.591,81.015-180.611,180.605-180.611s180.616,81.02,180.616,180.611  c0,6.586,5.335,11.926,11.926,11.926c6.593,0,11.926-5.34,11.926-11.926C409.264,101.095,317.535,9.371,204.795,9.371z"/>
<path style="fill:#E56353;" d="M293.557,134.414H116.043c-4.858,0-8.796,3.938-8.796,8.796v109.814c0,4.858,3.938,8.796,8.796,8.796  H135.5v48.51l48.51-48.51h109.547c4.858,0,8.796-3.938,8.796-8.796V143.21C302.353,138.352,298.415,134.414,293.557,134.414z"/>
<g>
	<rect x="124.841" y="157.87" style="fill:#D15241;" width="159.898" height="12.795"/>
	<rect x="124.841" y="191.795" style="fill:#D15241;" width="159.898" height="12.795"/>
	<rect x="124.841" y="225.741" style="fill:#D15241;" width="159.898" height="12.795"/>
</g>
<g>
</g>
<g>
</g>
<g>
</g>
<g>
</g>
<g>
</g>
<g>
</g>
<g>
</g>
<g>
</g>
<g>
</g>
<g>
</g>
<g>
</g>
<g>
</g>
<g>
</g>
<g>
</g>
<g>
</g>
</svg>
