<?xml version="1.0" encoding="iso-8859-1"?>
<!-- Generator: Adobe Illustrator 19.0.0, SVG Export Plug-In . SVG Version: 6.00 Build 0)  -->
<svg xmlns="http://www.w3.org/2000/svg" xmlns:xlink="http://www.w3.org/1999/xlink" version="1.1" id="Capa_1" x="0px" y="0px" viewBox="0 0 410.483 410.483" style="enable-background:new 0 0 410.483 410.483;" xml:space="preserve">
<rect x="77.54" y="46.048" style="fill:#27A2DB;" width="254.5" height="363.981"/>
<g>
	<path style="fill:#2D93BA;" d="M0,123.575v66.23h77.551V46.049h-0.025C34.709,46.049,0,80.759,0,123.575z"/>
	<path style="fill:#2D93BA;" d="M409.6,123.575v66.23h-77.551V46.049h0.025C374.891,46.049,409.6,80.759,409.6,123.575z"/>
</g>
<g>
	<rect x="0.842" y="157.065" style="fill:#FFFFFF;" width="77.568" height="15.565"/>
	<rect x="332.915" y="157.065" style="fill:#FFFFFF;" width="77.568" height="15.565"/>
	<rect x="77.54" y="376.057" style="fill:#FFFFFF;" width="254.5" height="15.565"/>
	<rect x="77.54" y="365.766" style="fill:#FFFFFF;" width="254.5" height="4.751"/>
</g>
<g>
	<polygon style="fill:#64798A;" points="160.311,104.866 108.711,104.866 108.711,46.049 160.311,0.454  "/>
	<polygon style="fill:#64798A;" points="251.018,104.866 302.618,104.866 302.618,46.049 251.018,0.454  "/>
</g>
<rect x="160.33" y="0.454" style="fill:#3A556A;" width="90.706" height="45.594"/>
<g>
	<polygon style="fill:#2D93BA;" points="160.311,46.049 160.311,104.866 187.622,104.866 205.664,119.76 223.706,104.866    251.018,104.866 251.018,46.049  "/>
	<circle style="fill:#2D93BA;" cx="190.845" cy="136.047" r="7.281"/>
	<circle style="fill:#2D93BA;" cx="190.845" cy="170.285" r="7.281"/>
</g>
<g>
</g>
<g>
</g>
<g>
</g>
<g>
</g>
<g>
</g>
<g>
</g>
<g>
</g>
<g>
</g>
<g>
</g>
<g>
</g>
<g>
</g>
<g>
</g>
<g>
</g>
<g>
</g>
<g>
</g>
</svg>
