<?xml version="1.0" encoding="iso-8859-1"?>
<!-- Generator: Adobe Illustrator 19.0.0, SVG Export Plug-In . SVG Version: 6.00 Build 0)  -->
<svg xmlns="http://www.w3.org/2000/svg" xmlns:xlink="http://www.w3.org/1999/xlink" version="1.1" id="Capa_1" x="0px" y="0px" viewBox="0 0 409.6 409.6" style="enable-background:new 0 0 409.6 409.6;" xml:space="preserve">
<path style="fill:#EBF0F3;" d="M21.566,187.713V394.49c0,8.345,6.737,15.11,15.047,15.11h336.373c8.31,0,15.047-6.765,15.047-15.11  V187.713H21.566z"/>
<rect x="21.565" y="187.715" style="fill:#E1E6E9;" width="366.49" height="24.653"/>
<path style="fill:#E56353;" d="M397.521,131.278H12.079C5.407,131.278,0,136.708,0,143.406v36.386  c0,6.699,5.407,12.129,12.079,12.129h385.442c6.671,0,12.079-5.43,12.079-12.129v-36.386  C409.6,136.708,404.192,131.278,397.521,131.278z"/>
<g>
	<path style="fill:#E1E6E9;" d="M75.139,236.793c-3.457,0-6.26,2.814-6.26,6.286v135.867c0,3.472,2.803,6.286,6.26,6.286   c3.458,0,6.262-2.815,6.262-6.286V243.079C81.401,239.607,78.597,236.793,75.139,236.793z"/>
	<path style="fill:#E1E6E9;" d="M118.359,236.793c-3.457,0-6.26,2.814-6.26,6.286v135.867c0,3.472,2.803,6.286,6.26,6.286   c3.458,0,6.262-2.815,6.262-6.286V243.079C124.621,239.607,121.817,236.793,118.359,236.793z"/>
	<path style="fill:#E1E6E9;" d="M161.579,236.793c-3.457,0-6.26,2.814-6.26,6.286v135.867c0,3.472,2.803,6.286,6.26,6.286   c3.458,0,6.262-2.815,6.262-6.286V243.079C167.841,239.607,165.037,236.793,161.579,236.793z"/>
	<path style="fill:#E1E6E9;" d="M204.799,236.793c-3.457,0-6.26,2.814-6.26,6.286v135.867c0,3.472,2.803,6.286,6.26,6.286   c3.458,0,6.262-2.815,6.262-6.286V243.079C211.061,239.607,208.257,236.793,204.799,236.793z"/>
	<path style="fill:#E1E6E9;" d="M248.019,236.793c-3.457,0-6.26,2.814-6.26,6.286v135.867c0,3.472,2.803,6.286,6.26,6.286   c3.458,0,6.262-2.815,6.262-6.286V243.079C254.281,239.607,251.477,236.793,248.019,236.793z"/>
	<path style="fill:#E1E6E9;" d="M291.239,236.793c-3.457,0-6.26,2.814-6.26,6.286v135.867c0,3.472,2.803,6.286,6.26,6.286   c3.458,0,6.262-2.815,6.262-6.286V243.079C297.501,239.607,294.698,236.793,291.239,236.793z"/>
	<path style="fill:#E1E6E9;" d="M334.459,236.793c-3.457,0-6.26,2.814-6.26,6.286v135.867c0,3.472,2.803,6.286,6.26,6.286   c3.458,0,6.262-2.815,6.262-6.286V243.079C340.721,239.607,337.918,236.793,334.459,236.793z"/>
</g>
<path style="fill:#D15241;" d="M329.991,179.085c-6.89-8.881-5.304-21.689,3.541-28.607c8.845-6.918,21.601-5.326,28.491,3.556  c6.89,8.881,5.304,21.689-3.541,28.607C349.636,189.559,336.88,187.967,329.991,179.085z"/>
<path style="fill:#64798A;" d="M218.244,32.91c-6.89-8.881-5.304-21.689,3.541-28.607c8.845-6.918,21.601-5.326,28.491,3.556  c6.89,8.881,5.304,21.689-3.541,28.607C237.89,43.384,225.134,41.792,218.244,32.91z"/>
<path style="fill:#D5D6DB;" d="M354.996,178.148c6.375-4.986,7.518-14.217,2.552-20.618L246.03,11.65  c-4.965-6.401-14.159-7.548-20.533-2.562s-7.518,14.216-2.553,20.617l111.519,145.881  C339.428,181.987,348.622,183.134,354.996,178.148z"/>
<path style="fill:#D15241;" d="M79.609,179.085c6.89-8.881,5.304-21.689-3.541-28.607c-8.845-6.918-21.601-5.326-28.491,3.556  c-6.89,8.881-5.304,21.689,3.541,28.607C59.964,189.559,72.72,187.967,79.609,179.085z"/>
<path style="fill:#64798A;" d="M191.356,32.91c6.89-8.881,5.304-21.689-3.541-28.607c-8.845-6.918-21.601-5.326-28.491,3.556  c-6.89,8.881-5.304,21.689,3.541,28.607C171.71,43.384,184.466,41.792,191.356,32.91z"/>
<path style="fill:#D5D6DB;" d="M54.604,178.148c-6.375-4.986-7.518-14.217-2.552-20.618L163.57,11.65  c4.965-6.401,14.159-7.548,20.533-2.562s7.518,14.216,2.553,20.617L75.138,175.586C70.172,181.987,60.978,183.134,54.604,178.148z"/>
<g>
</g>
<g>
</g>
<g>
</g>
<g>
</g>
<g>
</g>
<g>
</g>
<g>
</g>
<g>
</g>
<g>
</g>
<g>
</g>
<g>
</g>
<g>
</g>
<g>
</g>
<g>
</g>
<g>
</g>
</svg>
