<?xml version="1.0" encoding="iso-8859-1"?>
<!-- Generator: Adobe Illustrator 19.0.0, SVG Export Plug-In . SVG Version: 6.00 Build 0)  -->
<svg xmlns="http://www.w3.org/2000/svg" xmlns:xlink="http://www.w3.org/1999/xlink" version="1.1" id="Capa_1" x="0px" y="0px" viewBox="0 0 409.6 409.6" style="enable-background:new 0 0 409.6 409.6;" xml:space="preserve">
<rect y="0.207" style="fill:#F6C358;" width="262.298" height="309.965"/>
<rect y="0.207" style="fill:#FCD462;" width="131.169" height="309.965"/>
<g>
	<circle style="fill:#DC8744;" cx="70.738" cy="24.404" r="8.704"/>
	<circle style="fill:#DC8744;" cx="191.59" cy="24.404" r="8.704"/>
	<path style="fill:#DC8744;" d="M131.166,132.333c-36.454,0-66.11-31.235-66.11-69.626V21.98h11.365v40.727   c0,32.126,24.556,58.26,54.745,58.26s54.745-26.135,54.745-58.26V21.98h11.365v40.727   C197.276,101.098,167.62,132.333,131.166,132.333z"/>
</g>
<path style="fill:#FFFFFF;" d="M131.166,126.578c-36.454,0-66.11-29.656-66.11-66.11V21.98h11.365v38.488  c0,30.186,24.556,54.745,54.745,54.745s54.745-24.559,54.745-54.745V21.98h11.365v38.488  C197.276,96.922,167.62,126.578,131.166,126.578z"/>
<polygon style="fill:#64798A;" points="409.6,193.123 409.6,362.92 0,362.92 0,303.044 262.367,303.044 262.367,91.765   325.52,91.765 "/>
<polygon style="fill:#27A2DB;" points="394.705,221.199 394.705,198.501 318.524,106.661 277.258,106.661 277.258,221.199 "/>
<rect x="277.248" y="238.083" style="fill:#3A556A;" width="7.424" height="29.03"/>
<path style="fill:#FCD462;" d="M393.098,282.38c0,9.113,7.389,16.5,16.502,16.5v-33C400.487,265.88,393.098,273.267,393.098,282.38z  "/>
<path style="fill:#2F4859;" d="M40,363.47c0-29.433,23.942-53.375,53.375-53.375s53.375,23.942,53.375,53.375"/>
<circle style="fill:#3A556A;" cx="93.389" cy="363.466" r="45.926"/>
<circle style="fill:#2F4859;" cx="93.389" cy="363.466" r="25.385"/>
<g>
	<circle style="fill:#64798A;" cx="93.389" cy="363.466" r="3.983"/>
	<circle style="fill:#64798A;" cx="93.389" cy="346.063" r="3.983"/>
	<circle style="fill:#64798A;" cx="93.389" cy="380.879" r="3.983"/>
	<ellipse style="fill:#64798A;" cx="78.284" cy="372.181" rx="3.983" ry="3.983"/>
	<ellipse style="fill:#64798A;" cx="108.451" cy="354.755" rx="3.983" ry="3.983"/>
	<ellipse style="fill:#64798A;" cx="108.452" cy="372.187" rx="3.983" ry="3.983"/>
	<ellipse style="fill:#64798A;" cx="78.298" cy="354.783" rx="3.983" ry="3.983"/>
</g>
<path style="fill:#2F4859;" d="M275.143,363.47c0-29.433,23.942-53.375,53.375-53.375c29.433,0,53.375,23.942,53.375,53.375"/>
<circle style="fill:#3A556A;" cx="328.499" cy="363.466" r="45.926"/>
<circle style="fill:#2F4859;" cx="328.499" cy="363.466" r="25.385"/>
<g>
	<circle style="fill:#64798A;" cx="328.499" cy="363.466" r="3.983"/>
	<circle style="fill:#64798A;" cx="328.499" cy="346.063" r="3.983"/>
	<circle style="fill:#64798A;" cx="328.499" cy="380.879" r="3.983"/>
	<ellipse style="fill:#64798A;" cx="313.445" cy="372.17" rx="3.983" ry="3.983"/>
	<ellipse style="fill:#64798A;" cx="343.627" cy="354.78" rx="3.983" ry="3.983"/>
	<ellipse style="fill:#64798A;" cx="343.588" cy="372.152" rx="3.983" ry="3.983"/>
	<ellipse style="fill:#64798A;" cx="313.434" cy="354.749" rx="3.983" ry="3.983"/>
</g>
<path style="fill:#FCD462;" d="M0,330.518v18.257h8.022c1.785,0,3.233-1.447,3.233-3.232v-15.025H0z"/>
<path style="fill:#E56353;" d="M11.255,318.214c0-1.785-1.447-3.232-3.233-3.232H0v15.535h11.255V318.214z"/>
<g>
</g>
<g>
</g>
<g>
</g>
<g>
</g>
<g>
</g>
<g>
</g>
<g>
</g>
<g>
</g>
<g>
</g>
<g>
</g>
<g>
</g>
<g>
</g>
<g>
</g>
<g>
</g>
<g>
</g>
</svg>
