<?xml version="1.0" encoding="iso-8859-1"?>
<!-- Generator: Adobe Illustrator 19.0.0, SVG Export Plug-In . SVG Version: 6.00 Build 0)  -->
<svg xmlns="http://www.w3.org/2000/svg" xmlns:xlink="http://www.w3.org/1999/xlink" version="1.1" id="Capa_1" x="0px" y="0px" viewBox="0 0 409.6 409.6" style="enable-background:new 0 0 409.6 409.6;" xml:space="preserve">
<path style="fill:#D15241;" d="M256.696,70.308c0,46.277-128.348,162.858-128.348,162.858S0,116.585,0,70.308  C0,31.448,31.543,0.004,70.305,0.004c24.128,0,45.386,12.163,58.043,30.654c12.657-18.491,33.916-30.654,58.043-30.654  C225.252,0.004,256.696,31.448,256.696,70.308z"/>
<path style="fill:#E56353;" d="M70.347,0C31.521,0,0.046,31.475,0.046,70.301c0,46.285,128.341,162.871,128.341,162.871V30.654  C115.723,12.152,94.461,0,70.347,0z"/>
<path style="fill:#64798A;" d="M252.075,83.712c-46.493-46.492-121.871-46.492-168.363,0c-46.491,46.492-46.491,121.87,0,168.362  c46.493,46.492,121.871,46.492,168.363,0C298.566,205.582,298.566,130.204,252.075,83.712z M234.813,234.813  c-36.958,36.958-96.88,36.958-133.838,0c-36.959-36.959-36.959-96.88,0-133.839c36.958-36.958,96.88-36.958,133.838,0  C271.771,137.933,271.771,197.854,234.813,234.813z"/>
<ellipse style="opacity:0.52;fill:#FFFFFF;enable-background:new    ;" cx="172.501" cy="172.508" rx="88.797" ry="88.797"/>
<path style="opacity:0.67;fill:#EBF0F3;enable-background:new    ;" d="M109.721,235.299c-34.678-34.677-34.678-90.901,0-125.579  c34.678-34.677,90.901-34.677,125.579,0c23.72,23.719,31.193,57.514,22.465,87.603c10.711-32.804,3.12-70.278-22.952-96.35  c-36.958-36.958-96.88-36.958-133.838,0c-36.959,36.959-36.959,96.88,0,133.839c26.072,26.072,63.548,33.663,96.353,22.95  C167.236,266.493,133.441,259.019,109.721,235.299z"/>
<rect x="241.698" y="232.871" transform="matrix(-0.7071 0.7071 -0.7071 -0.7071 627.0847 259.7505)" style="fill:#64798A;" width="36.096" height="53.755"/>
<path style="fill:#3A556A;" d="M249.513,295.859l113.129,113.129c6.437,6.437,52.783-39.909,46.346-46.346L295.859,249.513  C287.925,241.579,241.579,287.925,249.513,295.859z"/>
<rect x="260.68" y="285.108" transform="matrix(-0.7071 0.7071 -0.7071 -0.7071 708.4664 293.4859)" style="fill:#FCD462;" width="65.541" height="16.727"/>
<g>
</g>
<g>
</g>
<g>
</g>
<g>
</g>
<g>
</g>
<g>
</g>
<g>
</g>
<g>
</g>
<g>
</g>
<g>
</g>
<g>
</g>
<g>
</g>
<g>
</g>
<g>
</g>
<g>
</g>
</svg>
