<?xml version="1.0" encoding="iso-8859-1"?>
<!-- Generator: Adobe Illustrator 19.0.0, SVG Export Plug-In . SVG Version: 6.00 Build 0)  -->
<svg xmlns="http://www.w3.org/2000/svg" xmlns:xlink="http://www.w3.org/1999/xlink" version="1.1" id="Capa_1" x="0px" y="0px" viewBox="0 0 408.623 408.623" style="enable-background:new 0 0 408.623 408.623;" xml:space="preserve">
<path style="fill:#FCD462;" d="M218.889,53.816c-1.407-13.2-19.567-35.418-34.652-32.501c-39.422,7.623-55.342,52.822-55.342,52.822  s30.837-7.527,55.342-18.682C184.237,55.455,213.538,41.103,218.889,53.816z"/>
<path style="fill:#44C4A1;" d="M209.34,44.43c-10.609-0.25-23.934,6.033-26.525,7.305c-16.368,7.393-37.813,14.861-48.865,18.058  c4.577-8.82,22.103-38.785,51.482-44.423c0.29-0.056,0.619-0.072,0.968-0.089c0.383-0.019,0.78-0.039,1.199-0.111  c3.215-0.553,12.12,1.997,16.753,4.085c-1.733-1.574-3.554-2.99-5.425-4.187c-4.37-1.349-9.171-2.365-11.681-1.934  c-0.316,0.054-0.634,0.068-0.95,0.083c-0.405,0.02-0.824,0.041-1.258,0.124c-33.573,6.443-52.008,43.44-54,47.637l-0.96,2.023  l2.172-0.587c10.213-2.757,33.767-10.824,51.509-18.841c2.49-1.222,15.458-7.28,25.534-7.08c3.176,0.072,6.193,0.953,8.148,1.559  c-0.3-0.808-0.633-1.626-1.011-2.454C214.477,45.053,211.986,44.49,209.34,44.43z"/>
<path style="fill:#F6C358;" d="M184.237,55.455c-24.505,11.155-55.342,18.682-55.342,18.682l65.653-3.164  c0,0,22.289-3.013,24.26-13.56c0.204-1.089,0.22-2.302,0.082-3.598C213.538,41.103,184.237,55.455,184.237,55.455z"/>
<path style="fill:#FCD462;" d="M42.587,53.816c1.407-13.2,19.567-35.418,34.652-32.501c39.422,7.623,55.342,52.822,55.342,52.822  s-30.837-7.527-55.342-18.682C77.239,55.455,47.937,41.103,42.587,53.816z"/>
<path style="fill:#44C4A1;" d="M52.136,44.43c10.609-0.25,23.934,6.033,26.525,7.305c16.368,7.393,37.813,14.861,48.865,18.058  c-4.577-8.82-22.103-38.785-51.482-44.423c-0.29-0.056-0.619-0.072-0.968-0.089c-0.383-0.019-0.78-0.039-1.199-0.111  c-3.215-0.553-12.12,1.997-16.753,4.085c1.733-1.574,3.554-2.99,5.425-4.187c4.37-1.349,9.171-2.365,11.681-1.934  c0.316,0.054,0.634,0.068,0.95,0.083c0.405,0.02,0.824,0.041,1.258,0.124c33.573,6.443,52.008,43.44,54,47.637l0.96,2.023  l-2.172-0.587c-10.213-2.757-33.767-10.824-51.509-18.841c-2.49-1.222-15.458-7.28-25.534-7.08  c-3.176,0.072-6.193,0.953-8.148,1.559c0.3-0.808,0.633-1.626,1.011-2.454C46.998,45.053,49.489,44.49,52.136,44.43z"/>
<path style="fill:#F6C358;" d="M77.239,55.455c24.505,11.155,55.342,18.682,55.342,18.682l-65.653-3.164  c0,0-22.289-3.013-24.26-13.56c-0.204-1.089-0.22-2.302-0.082-3.598C47.937,41.103,77.239,55.455,77.239,55.455z"/>
<rect x="0.023" y="72.591" style="fill:#E56353;" width="261.478" height="46.592"/>
<rect x="5.517" y="119.183" style="fill:#D15241;" width="250.445" height="163.348"/>
<polygon style="fill:#CE412D;" points="255.959,130.604 5.516,130.695 5.516,119.184 255.959,119.184 "/>
<rect x="108.26" y="72.591" style="fill:#FCD462;" width="44.943" height="209.92"/>
<g>
	<rect x="113.687" y="72.591" style="fill:#44C4A1;" width="4.076" height="209.92"/>
	<rect x="143.691" y="72.591" style="fill:#44C4A1;" width="4.076" height="209.92"/>
</g>
<path style="fill:#F6C358;" d="M98.3,140.662c4.316-11.503,2.942-20.517,1.029-37.842c-17.354,2.532-26.478,3.484-36.592,10.537  c17.81-24.863,32.24-35.394,58.051-52.008c5.405,4.15,8.108,6.225,13.513,10.375C124.635,100.734,118.019,117.265,98.3,140.662z"/>
<g>
	<path style="fill:#44C4A1;" d="M123.216,63.213c-0.175-0.134-0.336-0.258-0.516-0.397c-0.088-0.068-0.19-0.146-0.28-0.215   c-17.933,12.371-37.854,27.805-50.514,45.822c2.223-0.872,4.536-1.572,7.017-2.172c14.815-19.023,26.621-27.34,44.722-42.709   C123.473,63.411,123.348,63.315,123.216,63.213z"/>
	<path style="fill:#44C4A1;" d="M132.671,70.472c-0.09-0.069-0.192-0.147-0.28-0.215c-0.181-0.139-0.341-0.262-0.517-0.397   c-0.132-0.102-0.257-0.197-0.429-0.329c-10.404,21.28-15.521,34.734-30.309,53.778c0.041,2.537-0.057,4.937-0.345,7.295   C115.143,113.885,125.147,90.837,132.671,70.472z"/>
</g>
<path style="fill:#F6C358;" d="M161.705,140.662c-4.316-11.503-2.942-20.517-1.029-37.842c17.354,2.532,26.478,3.484,36.592,10.537  c-17.81-24.863-32.24-35.394-58.051-52.008c-5.405,4.15-8.108,6.225-13.513,10.375C135.371,100.734,141.986,117.265,161.705,140.662  z"/>
<g>
	<path style="fill:#44C4A1;" d="M136.789,63.213c0.175-0.134,0.336-0.258,0.516-0.397c0.088-0.068,0.19-0.146,0.28-0.215   c17.933,12.371,37.854,27.805,50.514,45.822c-2.223-0.872-4.536-1.572-7.017-2.172c-14.815-19.023-26.621-27.34-44.722-42.709   C136.532,63.411,136.657,63.315,136.789,63.213z"/>
	<path style="fill:#44C4A1;" d="M127.334,70.472c0.09-0.069,0.192-0.147,0.28-0.215c0.181-0.139,0.341-0.262,0.517-0.397   c0.132-0.102,0.257-0.197,0.429-0.329c10.404,21.28,15.521,34.734,30.309,53.778c-0.041,2.537,0.057,4.937,0.345,7.295   C144.862,113.885,134.858,90.837,127.334,70.472z"/>
</g>
<path style="fill:#DC8744;" d="M130.738,54.539c-9.936,0-17.992,8.004-17.992,17.878h35.983  C148.729,62.543,140.674,54.539,130.738,54.539z"/>
<polygon style="fill:#64798A;" points="408.623,171.818 408.623,341.211 0,341.211 0,281.477 261.741,281.477 261.741,70.702   324.743,70.702 "/>
<polygon style="fill:#27A2DB;" points="393.764,199.827 393.764,177.183 317.764,85.562 276.597,85.562 276.597,199.827 "/>
<rect x="276.606" y="216.653" style="fill:#3A556A;" width="7.409" height="28.959"/>
<path style="fill:#FCD462;" d="M392.16,260.862c0,9.091,7.371,16.461,16.462,16.461v-32.922  C399.532,244.402,392.16,251.771,392.16,260.862z"/>
<path style="fill:#2F4859;" d="M39.905,341.759c0-29.362,23.885-53.247,53.247-53.247s53.247,23.885,53.247,53.247"/>
<circle style="fill:#3A556A;" cx="93.156" cy="341.755" r="45.814"/>
<circle style="fill:#2F4859;" cx="93.156" cy="341.755" r="25.324"/>
<g>
	<circle style="fill:#64798A;" cx="93.156" cy="341.755" r="3.973"/>
	<circle style="fill:#64798A;" cx="93.156" cy="324.377" r="3.973"/>
	<circle style="fill:#64798A;" cx="93.156" cy="359.142" r="3.973"/>
	<ellipse style="fill:#64798A;" cx="78.093" cy="350.456" rx="3.973" ry="3.973"/>
	<ellipse style="fill:#64798A;" cx="108.215" cy="333.077" rx="3.973" ry="3.973"/>
	<ellipse style="fill:#64798A;" cx="108.224" cy="350.458" rx="3.973" ry="3.973"/>
	<ellipse style="fill:#64798A;" cx="78.137" cy="333.092" rx="3.973" ry="3.973"/>
</g>
<path style="fill:#2F4859;" d="M274.486,341.759c0-29.362,23.885-53.247,53.247-53.247s53.247,23.885,53.247,53.247"/>
<circle style="fill:#3A556A;" cx="327.755" cy="341.755" r="45.814"/>
<circle style="fill:#2F4859;" cx="327.755" cy="341.755" r="25.324"/>
<g>
	<circle style="fill:#64798A;" cx="327.755" cy="341.755" r="3.973"/>
	<circle style="fill:#64798A;" cx="327.755" cy="324.377" r="3.973"/>
	<circle style="fill:#64798A;" cx="327.755" cy="359.142" r="3.973"/>
	<ellipse style="fill:#64798A;" cx="312.698" cy="350.454" rx="3.973" ry="3.973"/>
	<ellipse style="fill:#64798A;" cx="342.821" cy="333.072" rx="3.973" ry="3.973"/>
	<ellipse style="fill:#64798A;" cx="342.792" cy="350.399" rx="3.973" ry="3.973"/>
	<ellipse style="fill:#64798A;" cx="312.708" cy="333.08" rx="3.973" ry="3.973"/>
</g>
<path style="fill:#FCD462;" d="M0,308.885v18.214h8.003c1.781,0,3.225-1.443,3.225-3.224v-14.99H0z"/>
<path style="fill:#E56353;" d="M11.228,296.611c0-1.78-1.444-3.224-3.225-3.224H0v15.498h11.228V296.611z"/>
<g>
</g>
<g>
</g>
<g>
</g>
<g>
</g>
<g>
</g>
<g>
</g>
<g>
</g>
<g>
</g>
<g>
</g>
<g>
</g>
<g>
</g>
<g>
</g>
<g>
</g>
<g>
</g>
<g>
</g>
</svg>
