<?xml version="1.0" encoding="iso-8859-1"?>
<!-- Generator: Adobe Illustrator 19.0.0, SVG Export Plug-In . SVG Version: 6.00 Build 0)  -->
<svg xmlns="http://www.w3.org/2000/svg" xmlns:xlink="http://www.w3.org/1999/xlink" version="1.1" id="Capa_1" x="0px" y="0px" viewBox="0 0 415.796 415.796" style="enable-background:new 0 0 415.796 415.796;" xml:space="preserve">
<g>
	<rect x="347.838" y="73.513" style="fill:#64798A;" width="23.788" height="20.931"/>
	<rect x="347.838" y="198.605" style="fill:#64798A;" width="23.788" height="20.931"/>
</g>
<rect x="17.322" y="3.584" style="fill:#E1E6E9;" width="334.336" height="408.627"/>
<rect x="7.194" y="3.584" style="fill:#EBF0F3;" width="354.611" height="24.499"/>
<g>
	<rect x="365.861" y="52.741" style="fill:#27A2DB;" width="49.935" height="187.587"/>
	<rect x="116.158" y="52.741" style="fill:#27A2DB;" width="59.858" height="86.369"/>
</g>
<g>
	<polygon style="fill:#43C1ED;" points="141.402,139.112 129.243,139.112 158.961,52.744 171.12,52.744  "/>
	<polygon style="fill:#43C1ED;" points="125.145,139.112 121.094,139.112 150.812,52.744 154.863,52.744  "/>
</g>
<rect x="39.409" y="52.741" style="fill:#27A2DB;" width="59.858" height="86.369"/>
<g>
	<polygon style="fill:#43C1ED;" points="64.628,139.112 52.469,139.112 82.187,52.744 94.346,52.744  "/>
	<polygon style="fill:#43C1ED;" points="48.371,139.112 44.32,139.112 74.038,52.744 78.089,52.744  "/>
</g>
<rect x="192.958" y="52.741" style="fill:#27A2DB;" width="59.858" height="86.369"/>
<g>
	<polygon style="fill:#43C1ED;" points="218.176,139.112 206.017,139.112 235.735,52.744 247.894,52.744  "/>
	<polygon style="fill:#43C1ED;" points="201.919,139.112 197.868,139.112 227.586,52.744 231.637,52.744  "/>
</g>
<rect x="269.707" y="52.741" style="fill:#27A2DB;" width="59.858" height="86.369"/>
<g>
	<polygon style="fill:#43C1ED;" points="294.95,139.112 282.791,139.112 312.509,52.744 324.668,52.744  "/>
	<polygon style="fill:#43C1ED;" points="278.693,139.112 274.642,139.112 304.36,52.744 308.411,52.744  "/>
</g>
<g>
	<rect x="35.677" y="137.728" style="fill:#D5D6DB;" width="67.318" height="7.88"/>
	<rect x="112.446" y="137.728" style="fill:#D5D6DB;" width="67.318" height="7.88"/>
	<rect x="189.221" y="137.728" style="fill:#D5D6DB;" width="67.318" height="7.88"/>
	<rect x="266.021" y="137.728" style="fill:#D5D6DB;" width="67.318" height="7.88"/>
	<rect x="41.258" y="216.878" style="fill:#D5D6DB;" width="120.212" height="185.651"/>
</g>
<rect x="52.47" y="231.762" style="fill:#DC8744;" width="97.69" height="155.924"/>
<rect x="7.194" y="387.687" style="fill:#EBF0F3;" width="354.611" height="24.499"/>
<path style="fill:#F6C358;" d="M0,196.671v15.632c0,12.737,10.325,23.062,23.062,23.062c12.737,0,23.062-10.325,23.062-23.062  v-15.632H0z"/>
<path style="fill:#CE412D;" d="M46.123,196.671v15.632c0,12.737,10.325,23.062,23.062,23.062c12.737,0,23.062-10.325,23.062-23.062  v-15.632H46.123z"/>
<path style="fill:#F6C358;" d="M92.247,196.671v15.632c0,12.737,10.325,23.062,23.062,23.062c12.737,0,23.062-10.325,23.062-23.062  v-15.632H92.247z"/>
<path style="fill:#CE412D;" d="M138.37,196.671v15.632c0,12.737,10.325,23.062,23.062,23.062c12.737,0,23.062-10.325,23.062-23.062  v-15.632H138.37z"/>
<path style="fill:#F6C358;" d="M184.494,196.671v15.632c0,12.737,10.325,23.062,23.062,23.062c12.737,0,23.062-10.325,23.062-23.062  v-15.632H184.494z"/>
<path style="fill:#CE412D;" d="M230.617,196.671v15.632c0,12.737,10.325,23.062,23.062,23.062c12.737,0,23.062-10.325,23.062-23.062  v-15.632H230.617z"/>
<path style="fill:#F6C358;" d="M276.741,196.671v15.632c0,12.737,10.325,23.062,23.062,23.062c12.737,0,23.062-10.325,23.062-23.062  v-15.632H276.741z"/>
<path style="fill:#CE412D;" d="M322.864,196.671v15.632c0,12.737,10.325,23.062,23.062,23.062c12.737,0,23.062-10.325,23.062-23.062  v-15.632H322.864z"/>
<polygon style="fill:#FCD462;" points="77.658,154.325 42.046,154.325 0,196.671 46.123,196.671 "/>
<polygon style="fill:#E56353;" points="113.27,154.325 77.658,154.325 46.123,196.671 92.247,196.671 "/>
<polygon style="fill:#FCD462;" points="148.882,154.325 113.27,154.325 92.247,196.671 138.37,196.671 "/>
<polygon style="fill:#E56353;" points="184.494,154.325 148.882,154.325 138.37,196.671 184.494,196.671 "/>
<polygon style="fill:#FCD462;" points="220.106,154.325 184.494,154.325 184.494,196.671 230.617,196.671 "/>
<polygon style="fill:#E56353;" points="255.718,154.325 220.106,154.325 230.617,196.671 276.741,196.671 "/>
<polygon style="fill:#FCD462;" points="291.33,154.325 255.718,154.325 276.741,196.671 322.864,196.671 "/>
<polygon style="fill:#E56353;" points="326.941,154.325 291.33,154.325 322.864,196.671 368.988,196.671 "/>
<circle style="fill:#FCD462;" cx="136.008" cy="309.724" r="5.181"/>
<rect x="194.955" y="245.351" style="fill:#FFFFFF;" width="112.845" height="93.64"/>
<g>
	<rect x="254.449" y="251.495" style="fill:#27A2DB;" width="47.227" height="37.622"/>
	<rect x="201.089" y="251.495" style="fill:#27A2DB;" width="47.227" height="37.622"/>
	<rect x="254.449" y="295.22" style="fill:#27A2DB;" width="47.227" height="37.617"/>
	<rect x="201.089" y="295.22" style="fill:#27A2DB;" width="47.227" height="37.617"/>
</g>
<g>
</g>
<g>
</g>
<g>
</g>
<g>
</g>
<g>
</g>
<g>
</g>
<g>
</g>
<g>
</g>
<g>
</g>
<g>
</g>
<g>
</g>
<g>
</g>
<g>
</g>
<g>
</g>
<g>
</g>
</svg>
